<svg width="45" height="45" viewBox="0 0 45 45" fill="none" xmlns="http://www.w3.org/2000/svg">
<rect width="45" height="45" rx="22.5" transform="matrix(-1 0 0 1 45 0)" fill="#333333"/>
<path d="M14.2929 21.7929C13.9024 22.1834 13.9024 22.8166 14.2929 23.2071L20.6569 29.5711C21.0474 29.9616 21.6805 29.9616 22.0711 29.5711C22.4616 29.1805 22.4616 28.5474 22.0711 28.1569L16.4142 22.5L22.0711 16.8431C22.4616 16.4526 22.4616 15.8195 22.0711 15.4289C21.6805 15.0384 21.0474 15.0384 20.6569 15.4289L14.2929 21.7929ZM30 22.5V21.5L15 21.5V22.5V23.5H30V22.5Z" fill="white"/>
</svg>
