<svg width="48" height="12" viewBox="0 0 48 12" fill="none" xmlns="http://www.w3.org/2000/svg">
<path d="M42.4133 11.5781C41.2102 11.5781 40.2727 11.2695 39.6008 10.6523C38.929 10.0273 38.593 9.19531 38.593 8.15625C38.593 7.11719 38.8274 6.14453 39.2961 5.23828C39.7649 4.33203 40.386 3.53906 41.1594 2.85938C42.7532 1.45312 44.5891 0.5 46.6672 0L46.9836 0.773438C45.9133 0.984375 44.8782 1.48438 43.8782 2.27344C42.8782 3.0625 42.0891 4.07812 41.511 5.32031C42.4485 4.375 43.4993 3.90234 44.6633 3.90234C45.5071 3.90234 46.2219 4.16406 46.8079 4.6875C47.3938 5.20312 47.6868 5.87891 47.6868 6.71484C47.6868 7.87109 47.2141 8.94922 46.2688 9.94922C45.8313 10.418 45.2727 10.8047 44.593 11.1094C43.9211 11.4062 43.1946 11.5625 42.4133 11.5781ZM40.7493 8.36719C40.7493 9.04688 40.9016 9.60156 41.2063 10.0312C41.5188 10.4609 41.9719 10.6758 42.5657 10.6758C43.1594 10.6758 43.6907 10.4648 44.1594 10.043C44.6282 9.62109 44.9836 9.11328 45.2258 8.51953C45.4758 7.92578 45.6008 7.33984 45.6008 6.76172C45.6008 6.17578 45.4641 5.70312 45.1907 5.34375C44.925 4.97656 44.5266 4.79297 43.9954 4.79297C43.2532 4.79297 42.5266 5.15625 41.8157 5.88281C41.1047 6.60156 40.7493 7.42969 40.7493 8.36719Z" fill="white"/>
<path d="M27.2639 4.25391L26.5491 3.90234C26.885 3.09766 27.3967 2.44141 28.0842 1.93359C28.7717 1.41797 29.5334 1.16016 30.3694 1.16016C31.3772 1.16016 32.217 1.45703 32.8889 2.05078C33.3967 2.49609 33.6506 3.07812 33.6506 3.79688C33.6506 4.375 33.5608 4.82812 33.3811 5.15625C33.2092 5.48438 33.0608 5.75 32.9358 5.95312C32.8186 6.14844 32.6506 6.35938 32.4319 6.58594C32.2131 6.80469 32.0256 6.99219 31.8694 7.14844C31.7209 7.29688 31.5022 7.48438 31.2131 7.71094C30.9319 7.92969 30.717 8.09766 30.5686 8.21484C30.1858 8.50391 29.7249 8.83984 29.1858 9.22266C29.5217 9.21484 29.9553 9.21094 30.4866 9.21094C31.0256 9.21094 31.7014 9.25391 32.5139 9.33984C32.7483 9.20703 32.9436 8.98047 33.0999 8.66016C33.2639 8.33984 33.3889 8.07812 33.4749 7.875L33.6155 7.57031L34.0842 7.64062L32.8538 11.3086C32.6584 11.2852 32.2874 11.2344 31.7405 11.1562C30.5217 10.9844 29.5178 10.8984 28.7288 10.8984C27.9397 10.8984 27.1858 10.9961 26.467 11.1914L26.1506 10.6172L26.6077 10.3359C27.6311 9.70312 28.5022 9.02734 29.2209 8.30859C30.5569 6.97266 31.2249 5.76953 31.2249 4.69922C31.2249 4.03516 31.0764 3.50781 30.7795 3.11719C30.4827 2.72656 30.0881 2.53125 29.5959 2.53125C29.1116 2.53125 28.6584 2.6875 28.2366 3C27.8147 3.30469 27.4905 3.72266 27.2639 4.25391Z" fill="white"/>
<path d="M16.4503 11.5664C15.3643 11.5664 14.4698 11.1641 13.7667 10.3594C13.0635 9.54688 12.7393 8.54688 12.794 7.35938C12.8565 6.16406 13.1885 5.09375 13.7901 4.14844C14.3995 3.19531 15.1378 2.45703 16.0049 1.93359C16.8799 1.41016 17.7589 1.14844 18.6417 1.14844C19.5323 1.14844 20.294 1.35938 20.9268 1.78125C22.1456 2.57812 22.712 3.83203 22.626 5.54297C22.5635 6.76172 22.1964 7.875 21.5245 8.88281C20.3448 10.6719 18.6534 11.5664 16.4503 11.5664ZM16.0518 10.3594C16.2862 10.5547 16.5674 10.6523 16.8956 10.6523C17.5206 10.6523 18.0831 10.3906 18.5831 9.86719C19.5596 8.84375 20.0909 7.41797 20.1768 5.58984C20.2237 4.58984 20.1026 3.75391 19.8135 3.08203C19.5245 2.40234 19.044 2.0625 18.3721 2.0625C17.7081 2.0625 17.044 2.55078 16.3799 3.52734C15.7159 4.49609 15.3487 5.75391 15.2784 7.30078C15.2081 8.84766 15.4659 9.86719 16.0518 10.3594Z" fill="white"/>
<path d="M1.11328 4.25391L0.398438 3.90234C0.734375 3.09766 1.24609 2.44141 1.93359 1.93359C2.62109 1.41797 3.38281 1.16016 4.21875 1.16016C5.22656 1.16016 6.06641 1.45703 6.73828 2.05078C7.24609 2.49609 7.5 3.07812 7.5 3.79688C7.5 4.375 7.41016 4.82812 7.23047 5.15625C7.05859 5.48438 6.91016 5.75 6.78516 5.95312C6.66797 6.14844 6.5 6.35938 6.28125 6.58594C6.0625 6.80469 5.875 6.99219 5.71875 7.14844C5.57031 7.29688 5.35156 7.48438 5.0625 7.71094C4.78125 7.92969 4.56641 8.09766 4.41797 8.21484C4.03516 8.50391 3.57422 8.83984 3.03516 9.22266C3.37109 9.21484 3.80469 9.21094 4.33594 9.21094C4.875 9.21094 5.55078 9.25391 6.36328 9.33984C6.59766 9.20703 6.79297 8.98047 6.94922 8.66016C7.11328 8.33984 7.23828 8.07812 7.32422 7.875L7.46484 7.57031L7.93359 7.64062L6.70312 11.3086C6.50781 11.2852 6.13672 11.2344 5.58984 11.1562C4.37109 10.9844 3.36719 10.8984 2.57812 10.8984C1.78906 10.8984 1.03516 10.9961 0.316406 11.1914L0 10.6172L0.457031 10.3359C1.48047 9.70312 2.35156 9.02734 3.07031 8.30859C4.40625 6.97266 5.07422 5.76953 5.07422 4.69922C5.07422 4.03516 4.92578 3.50781 4.62891 3.11719C4.33203 2.72656 3.9375 2.53125 3.44531 2.53125C2.96094 2.53125 2.50781 2.6875 2.08594 3C1.66406 3.30469 1.33984 3.72266 1.11328 4.25391Z" fill="white"/>
</svg>
