<svg width="69" height="127" viewBox="0 0 69 127" fill="none" xmlns="http://www.w3.org/2000/svg">
<path d="M28.0955 10.5171C28.0955 10.5171 28.7614 3.69931 31.7025 0.867188" stroke="#3D61B1" stroke-width="2.2" stroke-linecap="round" stroke-linejoin="round"/>
<path d="M12.9189 34.9377C18.8141 33.103 25.4206 33.0131 31.5342 34.0159C37.6517 35.0193 43.2357 37.1108 47.0791 39.5999H47.0801C47.7881 40.058 48.4019 40.5232 48.9404 40.9807C47.2439 45.084 44.3421 48.2626 40.1992 50.2542C36.0698 52.2392 30.6769 53.0596 23.9688 52.3958L23.3154 52.3274C12.564 51.1165 5.86562 46.9871 2.69531 41.0999C4.39601 38.95 7.45286 36.641 12.9199 34.9407L12.9189 34.9377ZM24.6709 40.1711C20.3344 39.6858 16.328 39.7935 13.3496 40.3713C11.8635 40.6597 10.6038 41.0705 9.68359 41.6038C8.77398 42.1309 8.10333 42.835 8.00195 43.7385C7.9007 44.6423 8.399 45.4787 9.16992 46.1946C9.94978 46.9187 11.0875 47.5986 12.4736 48.2092C15.2517 49.433 19.1368 50.4251 23.4736 50.9104C27.8101 51.3957 31.8166 51.288 34.7949 50.7102C36.2811 50.4219 37.5407 50.0111 38.4609 49.4778C39.3705 48.9507 40.0412 48.2465 40.1426 47.343C40.2438 46.4392 39.7455 45.6028 38.9746 44.887C38.1948 44.1628 37.057 43.4829 35.6709 42.8723C32.8929 41.6485 29.0077 40.6565 24.6709 40.1711ZM12.7061 30.9065C18.6071 29.0736 25.2162 28.9834 31.3311 29.9856C37.3528 30.9725 42.8549 33.0153 46.6914 35.4534L46.8643 35.5657C48.1761 36.4192 49.1925 37.2765 49.9004 38.0842C49.8921 38.1164 49.8845 38.1488 49.876 38.1809C49.6271 37.9921 49.3684 37.803 49.0957 37.6155L48.582 37.2727C44.4306 34.5871 38.4684 32.3649 31.9795 31.301C25.4888 30.2368 18.4309 30.3253 12.0918 32.2991C7.1214 33.8473 3.8855 35.9176 1.78125 37.9807C3.30852 35.592 6.4127 32.8625 12.7061 30.9065ZM13.8105 20.3538C19.8519 19.0731 26.4404 19.5955 32.4365 21.1614C38.4343 22.7277 43.8004 25.3283 47.3984 28.1653L47.6621 28.3733C49.1486 29.5864 50.1745 30.7629 50.7031 31.7678C50.7068 32.6665 50.6682 33.5624 50.5645 34.47V34.4729C50.5515 34.5916 50.5357 34.7092 50.5215 34.8264C49.9309 34.3277 49.3176 33.8756 48.7285 33.4797L48.376 33.2473C44.2284 30.5616 38.2661 28.3395 31.7773 27.2756C25.4894 26.2447 18.6691 26.2953 12.4893 28.094L11.8936 28.2737C6.1698 30.0548 2.7535 32.5234 0.708984 34.8772C0.491578 33.3077 0.444454 31.657 0.567383 29.9397C0.878787 28.6267 1.65812 26.7868 3.58984 25.0051C5.54291 23.2039 8.70097 21.4374 13.8105 20.3538ZM13.9932 16.7659C20.0344 15.4853 26.6221 16.0077 32.6182 17.5735C38.6161 19.1398 43.983 21.7404 47.5811 24.5774C48.3505 25.1848 49.0066 25.7842 49.5439 26.3616C49.3954 26.2384 49.2487 26.1178 49.1035 26.0032C45.222 22.9413 39.4918 20.1745 33.1299 18.512C26.7661 16.849 19.7304 16.281 13.2383 17.6575L12.8428 17.7415V17.7512C8.95908 18.6135 6.0784 19.8763 3.94238 21.2678C5.91028 19.5134 9.03189 17.8193 13.9932 16.7659ZM6.05273 16.5608C10.8183 11.2469 18.4485 8.23838 28.1035 9.31958C37.9249 10.4163 44.7749 15.1826 48.1992 21.5872C44.3734 18.8558 39.1084 16.4288 33.3203 14.9163C26.9568 13.2533 19.9215 12.6846 13.4297 14.0608C10.4208 14.6959 8.00234 15.5689 6.05273 16.5608Z" fill="#0071BC" stroke="#3D61B1"/>
<path d="M37.9177 61.5748C35.151 64.3115 23.3469 68.9495 18.2178 69.5382C18.8123 83.6908 39.6538 120.158 46.2733 127C48.0252 124.287 68.0739 111.869 68.0739 111.869C57.9426 105.361 39.3288 68.4165 37.9177 61.5748ZM29.8157 74.566C28.1827 74.383 27.0094 72.9113 27.1917 71.2725C27.3741 69.6336 28.8406 68.4562 30.4737 68.6392C32.1068 68.8222 33.2801 70.2939 33.0977 71.9328C32.9154 73.5716 31.4488 74.749 29.8157 74.566Z" fill="#C8E1FA"/>
<path d="M23.6798 43.8582C23.6798 43.8582 22.1102 63.142 30.4658 71.3441" stroke="#3D61B1" stroke-width="2.2" stroke-linecap="round" stroke-linejoin="round"/>
</svg>
