<svg width="375" height="48" viewBox="0 0 375 48" fill="none" xmlns="http://www.w3.org/2000/svg">
<path d="M188.374 26.2305H0.942627" stroke="#A6E8F3" stroke-width="3" stroke-linecap="round" stroke-linejoin="round"/>
<path d="M375 26.2305H188.374" stroke="#3D61B1" stroke-width="3" stroke-linejoin="round"/>
<path d="M168.523 21.6099C178.609 25.5859 188.373 26.2305 188.373 26.2305C188.373 26.2305 184.22 15.7447 178.458 8.43076C172.174 0.453102 163.063 -2.09975 158.978 5.55881C154.724 13.5301 161.806 18.9613 168.523 21.6099Z" stroke="#A6E8F3" stroke-width="3" stroke-linecap="round" stroke-linejoin="round"/>
<path d="M208.217 21.6099C198.132 25.5859 188.367 26.2305 188.367 26.2305C188.367 26.2305 192.521 15.7447 198.283 8.43076C204.567 0.453102 213.678 -2.09975 217.762 5.55881C222.017 13.5301 214.935 18.9613 208.217 21.6099Z" stroke="#43B6C8" stroke-width="3" stroke-linecap="round" stroke-linejoin="round"/>
<path d="M188.373 26.2305C188.373 26.2305 182.347 38.6246 161.806 47.0427" stroke="#43B6C8" stroke-width="3" stroke-linecap="round" stroke-linejoin="round"/>
<path d="M214.935 47.0426C194.4 38.6182 188.367 26.2305 188.367 26.2305C188.367 26.2305 187.839 24.8903 186.891 22.8352" stroke="#A6E8F3" stroke-width="3" stroke-linecap="round" stroke-linejoin="round"/>
</svg>
