<svg width="170" height="171" viewBox="0 0 170 171" fill="none" xmlns="http://www.w3.org/2000/svg">
<path d="M84.9683 0C131.93 0 170 38.1827 170 85.2835C170 132.384 131.93 170.567 84.9683 170.567C56.0606 170.567 30.5249 156.099 15.1633 133.989C11.1267 128.179 22.9144 122.489 28.9704 126.146C38.7518 132.053 50.21 135.45 62.4598 135.45C98.3718 135.45 127.484 106.252 127.484 70.2335C127.484 44.372 108.174 24.8324 84.3237 14.0119C77.603 10.9629 77.5883 0 84.9683 0Z" fill="white"/>
<ellipse cx="44.9533" cy="32.6087" rx="17.5065" ry="17.5584" fill="white"/>
<ellipse cx="74.9645" cy="77.7586" rx="17.5065" ry="17.5584" fill="white"/>
<ellipse cx="19.944" cy="77.7586" rx="17.5065" ry="17.5584" fill="white"/>
</svg>
