<svg width="116" height="37" viewBox="0 0 116 37" fill="none" xmlns="http://www.w3.org/2000/svg">
<path d="M2.38267 27.1629C2.33703 27.1901 2.27253 27.1995 2.18918 27.191C2.10583 27.1825 2.04407 27.1674 2.00392 27.1459C1.97982 27.133 1.96219 27.108 1.95102 27.071C1.80513 25.1257 1.73757 24.143 1.74834 24.123L1.76127 24.0989C1.79574 24.0346 1.88928 24.0434 2.04188 24.1253C2.242 24.3981 2.55917 24.7131 2.99338 25.0702L7.24893 28.5324C7.47019 28.708 7.6658 28.8543 7.83574 28.9713C8.00167 29.0862 8.14193 29.1718 8.25653 29.2281C8.29698 29.2394 8.36206 29.2097 8.45177 29.1389C8.53962 29.0619 8.62468 28.9756 8.70695 28.8801C8.79137 28.7806 8.8465 28.7068 8.87236 28.6586C8.88528 28.6345 8.95757 28.6733 9.08921 28.7749C9.15131 28.8134 9.18903 28.8492 9.20235 28.8822C8.98406 29.2409 8.81057 29.5305 8.68189 29.7511C8.55135 29.9655 8.46561 30.1108 8.42468 30.1871C8.39451 30.2434 8.32621 30.3851 8.21976 30.6125C8.11145 30.8336 7.965 31.1404 7.78041 31.5326C7.73535 31.5395 7.66909 31.504 7.58162 31.426C7.49415 31.348 7.45688 31.297 7.46981 31.2729C7.50859 31.2006 7.54932 31.0958 7.59202 30.9584C7.63471 30.8209 7.66707 30.6883 7.6891 30.5605C7.70711 30.4305 7.70235 30.3478 7.67483 30.3124C7.58265 30.1853 7.38822 29.9983 7.09153 29.7512L3.20682 26.581C2.99574 26.4057 2.8352 26.2808 2.7252 26.2063C2.55712 26.0954 2.45261 26.0782 2.41168 26.1545C2.38582 26.2027 2.37085 26.298 2.36674 26.4407C2.3648 26.5792 2.36686 26.72 2.37295 26.8629C2.37903 27.0058 2.38227 27.1058 2.38267 27.1629Z" fill="#E8B500"/>
<path d="M8.0296 23.0299C7.54809 22.3634 7.18216 21.6831 6.93183 20.989C6.68127 20.2885 6.58 19.615 6.62801 18.9684C6.67602 18.3217 6.89261 17.7917 7.27779 17.3782C7.56978 17.0647 7.90808 16.8754 8.29271 16.8102C8.67734 16.7449 9.06608 16.7956 9.45893 16.9623C9.85179 17.1289 10.2542 17.3823 10.6661 17.7224C11.078 18.0625 11.4572 18.4811 11.8037 18.9783C12.2755 19.6419 12.6383 20.3256 12.8922 21.0292C13.1427 21.7297 13.244 22.4032 13.196 23.0498C13.148 23.6964 12.9345 24.2232 12.5555 24.63C12.1704 25.0435 11.7081 25.2388 11.1688 25.2161C10.6295 25.1933 10.095 24.9881 9.56536 24.6006C9.03569 24.2131 8.52377 23.6895 8.0296 23.0299ZM8.78374 22.2003C9.41541 23.1001 10.064 23.751 10.7297 24.153C11.3953 24.5551 11.8865 24.586 12.2033 24.2459C12.4487 23.9824 12.5534 23.616 12.5174 23.1465C12.4845 22.6736 12.3351 22.142 12.0691 21.5517C11.8062 20.958 11.4492 20.3484 10.9982 19.7227C10.3572 18.8329 9.71557 18.1978 9.0733 17.8175C8.43414 17.4339 7.95614 17.4122 7.6393 17.7523C7.40012 18.0091 7.29209 18.3724 7.3152 18.8424C7.34142 19.309 7.48098 19.8345 7.73386 20.4189C7.98986 20.9999 8.33982 21.5937 8.78374 22.2003Z" fill="#E8B500"/>
<path d="M13.8917 17.4246C13.5539 16.675 13.332 15.935 13.2262 15.2048C13.1215 14.4683 13.1576 13.7881 13.3345 13.1643C13.5114 12.5405 13.8301 12.0648 14.2905 11.7371C14.6395 11.4887 15.0089 11.3711 15.3988 11.3845C15.7887 11.3979 16.1593 11.5256 16.5107 11.7678C16.8621 12.0099 17.2054 12.339 17.5405 12.7549C17.8757 13.1708 18.1631 13.657 18.4027 14.2137C18.7315 14.9586 18.9496 15.7012 19.057 16.4414C19.1618 17.178 19.1257 17.8582 18.9487 18.482C18.7718 19.1057 18.4569 19.5788 18.0039 19.9012C17.5435 20.2289 17.0515 20.3275 16.5277 20.1968C16.004 20.0661 15.5216 19.7578 15.0806 19.2718C14.6396 18.7858 14.2433 18.1701 13.8917 17.4246ZM14.7971 16.7634C15.2351 17.7717 15.7398 18.5397 16.3111 19.0672C16.8824 19.5948 17.3574 19.7238 17.7361 19.4542C18.0294 19.2454 18.2056 18.9075 18.2646 18.4403C18.3274 17.9705 18.2878 17.4197 18.1458 16.788C18.0075 16.1536 17.7803 15.4847 17.4641 14.7811C17.0149 13.7807 16.5139 13.0297 15.9611 12.5282C15.4121 12.024 14.9482 11.9066 14.5695 12.1762C14.2836 12.3797 14.1048 12.714 14.033 13.179C13.965 13.6414 13.9961 14.1842 14.1265 14.8074C14.2605 15.428 14.4841 16.08 14.7971 16.7634Z" fill="#E8B500"/>
<path d="M20.7801 12.9813C20.5662 12.1873 20.4652 11.4215 20.4773 10.6838C20.4913 9.93994 20.6355 9.27423 20.9096 8.68665C21.1837 8.09907 21.5742 7.68025 22.081 7.43017C22.4651 7.2406 22.8486 7.1835 23.2313 7.25888C23.6141 7.33426 23.9596 7.5195 24.2679 7.8146C24.5761 8.1097 24.8625 8.48927 25.1271 8.9533C25.3917 9.41734 25.5978 9.94323 25.7455 10.531C25.9514 11.3188 26.0482 12.0866 26.0361 12.8346C26.0221 13.5784 25.8779 14.2441 25.6038 14.8317C25.3297 15.4193 24.9433 15.8361 24.4447 16.0821C23.9379 16.3322 23.4365 16.3509 22.9403 16.1384C22.4441 15.9259 22.0171 15.5446 21.6592 14.9945C21.3013 14.4443 21.0083 13.7733 20.7801 12.9813ZM21.7794 12.4729C22.051 13.5382 22.4267 14.3768 22.9066 14.9888C23.3864 15.6007 23.8347 15.8038 24.2516 15.5981C24.5744 15.4387 24.8023 15.1332 24.9351 14.6814C25.072 14.2276 25.1207 13.6776 25.0813 13.0313C25.046 12.383 24.9283 11.6864 24.7284 10.9414C24.4446 9.88217 24.0698 9.06088 23.6041 8.47758C23.1424 7.89227 22.7032 7.70246 22.2863 7.90817C21.9717 8.06345 21.7418 8.36491 21.5968 8.81254C21.4559 9.25814 21.4001 9.79897 21.4293 10.435C21.4627 11.069 21.5794 11.7483 21.7794 12.4729Z" fill="#E8B500"/>
<path d="M31.3011 3.281C31.5648 3.20888 31.8437 3.37357 32.1378 3.77508C32.4386 4.18418 32.7156 4.73919 32.9686 5.4401C33.1448 5.91163 33.2874 6.31204 33.3963 6.64132C33.5096 6.9694 33.6045 7.26472 33.6811 7.52727C33.762 7.78862 33.8403 8.05777 33.916 8.33472C34.0677 7.99087 34.2081 7.58868 34.3373 7.12814C34.4665 6.6676 34.5553 6.20629 34.6038 5.74421C34.6523 5.28212 34.6284 4.87524 34.5323 4.52357C34.3916 4.00924 34.1531 3.56893 33.8167 3.20262C33.8277 2.79332 33.9958 2.5442 34.3211 2.45525C34.7079 2.34948 34.9963 2.64387 35.1862 3.33843C35.4518 4.30993 35.3773 5.52327 34.9625 6.97845C34.7552 7.70604 34.5028 8.39869 34.2055 9.05639C33.9137 9.71728 33.5989 10.3112 33.2611 10.8383C32.9233 11.3653 32.585 11.7956 32.2463 12.1292C31.9076 12.4627 31.591 12.6698 31.2964 12.7503C31.0678 12.8128 30.8644 12.8118 30.6861 12.7471C30.5078 12.6825 30.3982 12.5754 30.3573 12.426C30.2804 12.1446 30.3286 11.9236 30.502 11.7628C30.7267 11.8242 31.0368 11.8008 31.4324 11.6926C32.1666 11.4919 32.6926 10.9276 33.0106 9.99966C33.1322 9.64984 33.0723 9.03314 32.8307 8.14956C32.7129 7.71876 32.5847 7.29316 32.4461 6.87277C32.3076 6.45237 32.1484 6.02579 31.9687 5.59303C31.8682 5.34648 31.7559 5.11733 31.6319 4.90557C31.5122 4.6926 31.3908 4.52501 31.2676 4.40278C31.1444 4.28055 31.0279 4.23446 30.918 4.26451C30.8389 4.28615 30.7406 4.39333 30.6232 4.58606C30.5058 4.77879 30.4188 4.94433 30.3621 5.08266C30.3446 5.08747 30.3002 5.05472 30.229 4.98442C30.1578 4.91412 30.1174 4.86139 30.1078 4.82622C30.1161 4.75307 30.1606 4.63932 30.2412 4.48499C30.3263 4.32945 30.4299 4.1641 30.5521 3.98895C30.6743 3.81381 30.8025 3.66064 30.9367 3.52945C31.0697 3.39386 31.1912 3.31105 31.3011 3.281Z" fill="#E8B500"/>
<path d="M41.0266 1.69381C41.4401 1.62467 41.7567 1.68032 41.9763 1.86077C42.1959 2.04122 42.3267 2.2573 42.3688 2.50901C42.435 2.90456 42.2981 3.32944 41.9582 3.78364C41.7313 4.08494 41.4782 4.35366 41.1989 4.58981C40.9188 4.82146 40.6428 5.00853 40.3709 5.15103C40.099 5.29352 39.8642 5.3813 39.6664 5.41436C39.6305 5.42038 39.6388 5.5807 39.6914 5.89535C39.759 6.29989 39.8892 6.59464 40.0818 6.77959C40.2745 6.96455 40.5056 7.03448 40.7753 6.98939C40.8877 6.9706 41.0173 6.91659 41.1641 6.82736C41.3109 6.73812 41.421 6.65041 41.4943 6.56421C41.5715 6.47277 41.6141 6.42405 41.6224 6.41805C41.6306 6.41205 41.6463 6.39556 41.6696 6.36858C41.692 6.3371 41.7594 6.24266 41.8717 6.08527L41.9054 6.03805C41.9234 6.03505 41.9642 6.07211 42.0279 6.14925C42.0917 6.22638 42.1265 6.28293 42.1325 6.31889C42.0757 6.47625 41.9608 6.67336 41.7878 6.9102C41.6186 7.14179 41.4187 7.35542 41.188 7.55109C40.9566 7.74226 40.7173 7.85851 40.4701 7.89984C40.0026 7.978 39.6149 7.85571 39.3068 7.53295C38.9987 7.2102 38.7913 6.72969 38.6845 6.09141C38.6124 5.6599 38.6283 5.20212 38.7322 4.71808C38.8353 4.22954 39.0029 3.76718 39.2349 3.33102C39.4669 2.89486 39.7383 2.52835 40.0491 2.2315C40.3591 1.93016 40.6849 1.75093 41.0266 1.69381ZM40.9842 2.26923C40.7729 2.30455 40.5785 2.42715 40.4011 2.63702C40.2236 2.84689 40.0709 3.09421 39.9429 3.37898C39.815 3.66375 39.7211 3.94513 39.6613 4.22312C39.6053 4.49586 39.5911 4.71539 39.6189 4.8817C39.6249 4.91766 39.6459 4.93263 39.6819 4.92662C39.8437 4.89956 40.0295 4.80844 40.2392 4.65324C40.4481 4.49355 40.6466 4.29865 40.8345 4.06855C41.0224 3.83844 41.1714 3.59637 41.2814 3.34233C41.3906 3.08379 41.4265 2.84215 41.3889 2.61741C41.3438 2.34771 41.2089 2.23165 40.9842 2.26923Z" fill="#E8B500"/>
<path d="M46.8111 0.972534C46.9566 0.961744 47.0751 1.01921 47.1666 1.14494C47.2582 1.27067 47.3118 1.43807 47.3273 1.64713C47.3421 1.8471 47.3327 2.09 47.2991 2.37582L47.1467 3.6484C47.2216 3.48747 47.3984 3.19102 47.6771 2.75906C47.8617 2.47574 48.0777 2.18325 48.3249 1.88157C48.5764 1.57502 48.8266 1.31425 49.0757 1.09927C49.3294 0.883946 49.5471 0.769542 49.7289 0.756054C50.1834 0.722334 50.4329 1.00543 50.4774 1.60535C50.5087 2.02801 50.4819 2.52812 50.3967 3.10566L50.1026 5.23874C50.0834 5.34984 50.0782 5.46447 50.087 5.58263C50.1038 5.80987 50.1577 5.92012 50.2486 5.91338C50.3622 5.90495 50.4927 5.8153 50.6399 5.64443C50.7869 5.46901 50.9129 5.32028 51.0181 5.19823L51.0929 5.09672C51.111 5.09537 51.1483 5.13602 51.2047 5.21866C51.2611 5.3013 51.2907 5.3608 51.2934 5.39716C51.2259 5.53469 51.0975 5.7133 50.9081 5.93299C50.7233 6.15234 50.5187 6.35032 50.2941 6.52692C50.0693 6.69898 49.8614 6.79209 49.6705 6.80625C49.5251 6.81704 49.4066 6.75957 49.315 6.63384C49.2234 6.50811 49.1699 6.34072 49.1543 6.13166C49.1442 5.99531 49.1582 5.75208 49.1962 5.40195L49.5065 3.11687C49.5472 2.80311 49.5608 2.55533 49.5473 2.37353C49.5183 1.98268 49.4174 1.79366 49.2447 1.80647C49.0948 1.8176 48.9009 1.94623 48.6633 2.19235C48.4253 2.43393 48.1815 2.75134 47.9319 3.14458C47.6869 3.53749 47.4701 3.97171 47.2814 4.44726C47.0924 4.91826 46.9697 5.38892 46.9132 5.85924L46.7603 6.93992C46.6403 6.98538 46.5008 7.01401 46.3417 7.02581C46.1872 7.03728 46.0313 7.03056 45.8741 7.00567L46.3669 2.74659C46.3891 2.42963 46.3984 2.24615 46.3947 2.19616C46.3778 1.96892 46.3239 1.85867 46.233 1.86541C46.1558 1.87114 46.0453 1.95246 45.9015 2.10936C45.8342 2.18747 45.7606 2.2729 45.6806 2.36566C45.6052 2.45808 45.5552 2.52348 45.5307 2.56187C45.5125 2.56321 45.4752 2.52257 45.4188 2.43993C45.3624 2.35728 45.3329 2.29778 45.3302 2.26143C45.3938 2.13332 45.5143 1.97129 45.6917 1.77534C45.8687 1.57484 46.0609 1.39378 46.2683 1.23216C46.4757 1.07054 46.6566 0.983999 46.8111 0.972534Z" fill="#E8B500"/>
<path d="M58.0864 3.0791L61.1899 2.91504C61.2446 2.91504 61.272 2.96973 61.272 3.0791C61.272 3.1429 61.2537 3.22949 61.2173 3.33887C61.1854 3.44824 61.1444 3.54622 61.0942 3.63281C61.0487 3.7194 61.0031 3.76725 60.9575 3.77637L57.8677 3.92676C57.8221 3.92676 57.7993 3.8584 57.7993 3.72168C57.7993 3.63053 57.8312 3.50293 57.895 3.33887C57.9588 3.1748 58.0226 3.08822 58.0864 3.0791Z" fill="#E8B500"/>
<path d="M70.1605 2.14286C70.1186 2.11013 70.0866 2.05336 70.0644 1.97256C70.0423 1.89176 70.034 1.82875 70.0396 1.78352C70.0429 1.75638 70.0598 1.73092 70.0903 1.70714C71.8517 0.868683 72.7436 0.450854 72.7663 0.453649L72.7934 0.457004C72.8658 0.465948 72.8913 0.556355 72.8701 0.728224C72.6879 1.01337 72.5087 1.42287 72.3325 1.95672L70.6405 7.1753C70.5567 7.44504 70.4909 7.68028 70.4431 7.88102C70.3959 8.07723 70.3667 8.23893 70.3556 8.36613C70.3596 8.40796 70.4108 8.45791 70.5093 8.516C70.6128 8.57012 70.7239 8.6183 70.8427 8.66053C70.966 8.70332 71.0547 8.72807 71.109 8.73478C71.1362 8.73813 71.1261 8.81954 71.0788 8.97901C71.0654 9.05082 71.0457 9.09889 71.0197 9.12324C70.6064 9.04919 70.2736 8.99199 70.0215 8.95164C69.7744 8.90733 69.6079 8.87986 69.522 8.86924C69.4586 8.86141 69.3018 8.84891 69.0513 8.83173C68.806 8.81059 68.4671 8.78477 68.0346 8.75428C68.0119 8.71474 68.0211 8.64011 68.0623 8.5304C68.1034 8.42068 68.1375 8.3675 68.1646 8.37085C68.246 8.38091 68.3585 8.38104 68.5021 8.37123C68.6457 8.36143 68.781 8.34372 68.9082 8.3181C69.0359 8.28797 69.1113 8.25367 69.1344 8.2152C69.2196 8.08337 69.3238 7.83451 69.4471 7.46862L71.0007 2.70131C71.0879 2.44117 71.1464 2.24635 71.1762 2.11687C71.2189 1.9201 71.1973 1.8164 71.1113 1.80578C71.0571 1.79907 70.9627 1.81955 70.8282 1.86722C70.6983 1.91545 70.5678 1.96819 70.4367 2.02547C70.3057 2.08274 70.2136 2.12187 70.1605 2.14286Z" fill="#E8B500"/>
<path d="M78.2672 6.80842C77.7061 6.68659 77.2905 6.40983 77.0205 5.97813C76.7504 5.54643 76.6754 5.05446 76.7953 4.50222C76.8794 4.11477 77.0435 3.75633 77.2875 3.42691C77.5326 3.09304 77.8273 2.80959 78.1717 2.57657C78.516 2.34355 78.8808 2.1779 79.2659 2.07963C79.6509 1.98135 80.0261 1.97186 80.3913 2.05114C80.997 2.18263 81.4341 2.47807 81.7028 2.93746C81.9715 3.39684 82.0266 3.99173 81.868 4.72211C81.7829 5.11402 81.6546 5.5012 81.4829 5.88365C81.3113 6.2661 81.053 6.67171 80.7081 7.10049C80.3686 7.52577 79.9649 7.9138 79.497 8.26458C79.0346 8.61187 78.4447 8.93384 77.7274 9.23047C77.0101 9.52711 76.2159 9.74873 75.3446 9.89536C75.2222 9.83614 75.1668 9.72618 75.1784 9.56547C76.1306 9.38979 76.9823 9.0967 77.7337 8.6862C78.485 8.27571 79.138 7.67366 79.6927 6.88004C80.2317 6.11567 80.6013 5.27254 80.8014 4.35066C80.9 3.8964 80.8976 3.49947 80.7941 3.15989C80.6906 2.82031 80.4563 2.61088 80.0911 2.5316C79.8328 2.47552 79.5513 2.52633 79.2466 2.68402C78.9463 2.84268 78.6714 3.08846 78.422 3.42136C78.1769 3.75523 78.0041 4.15376 77.9036 4.61692C77.6986 5.56108 78.0192 6.125 78.8654 6.30871C79.0569 6.35028 79.1902 6.3699 79.2653 6.36755C79.2984 6.36541 79.3432 6.36346 79.3995 6.36171C79.4558 6.35995 79.4949 6.35209 79.5165 6.33815C79.5603 6.39429 79.5735 6.46244 79.5561 6.5426C79.5348 6.64058 79.4442 6.71418 79.2843 6.7634C79.1288 6.8136 78.955 6.84114 78.7627 6.84603C78.5705 6.85093 78.4053 6.83839 78.2672 6.80842Z" fill="#E8B500"/>
<path d="M85.448 9.49899C84.9013 9.32334 84.5145 9.0076 84.2876 8.55177C84.0607 8.09593 84.0337 7.599 84.2065 7.06098C84.3278 6.6835 84.5258 6.34265 84.8007 6.03844C85.0769 5.72989 85.3977 5.47635 85.7631 5.2778C86.1284 5.07926 86.5075 4.94974 86.9003 4.88926C87.2931 4.82877 87.6674 4.85568 88.0232 4.96999C88.6132 5.15957 89.0197 5.49599 89.2426 5.97926C89.4655 6.46253 89.4627 7.05995 89.234 7.77152C89.1114 8.15334 88.9461 8.52626 88.7382 8.89027C88.5303 9.25428 88.2339 9.63295 87.8491 10.0263C87.47 10.4166 87.0306 10.7637 86.5309 11.0675C86.0369 11.3683 85.4186 11.6316 84.676 11.8573C83.9333 12.083 83.1213 12.2266 82.2399 12.2881C82.1239 12.2173 82.0794 12.1025 82.1065 11.9437C83.0712 11.8611 83.9474 11.6519 84.7349 11.3162C85.5225 10.9805 86.2308 10.4446 86.8598 9.70844C87.4704 8.99992 87.9199 8.19658 88.2085 7.29844C88.3507 6.85587 88.3867 6.46058 88.3166 6.11257C88.2466 5.76456 88.0336 5.5334 87.6778 5.41909C87.4262 5.33824 87.1411 5.36152 86.8225 5.48894C86.5083 5.61774 86.2109 5.83573 85.9303 6.14288C85.6541 6.45143 85.4435 6.83132 85.2985 7.28257C85.003 8.2024 85.2674 8.79475 86.0918 9.05961C86.2783 9.11955 86.4091 9.15199 86.4841 9.15694C86.5173 9.15802 86.562 9.16042 86.6182 9.16413C86.6745 9.16784 86.7141 9.1638 86.737 9.15203C86.7751 9.21214 86.7817 9.28125 86.7566 9.35935C86.7259 9.4548 86.6286 9.51928 86.4647 9.55277C86.3051 9.58766 86.1293 9.59822 85.9375 9.58445C85.7457 9.57069 85.5825 9.5422 85.448 9.49899Z" fill="#E8B500"/>
<path d="M92.7966 12.3489C92.2723 12.1148 91.9221 11.7588 91.7462 11.281C91.5703 10.8032 91.5975 10.3062 91.8279 9.79024C91.9895 9.4282 92.2235 9.11094 92.5298 8.83846C92.838 8.56182 93.1845 8.3447 93.5693 8.1871C93.9541 8.02951 94.345 7.94203 94.7421 7.92466C95.1391 7.90729 95.5082 7.97479 95.8495 8.12714C96.4154 8.37983 96.7829 8.75851 96.9518 9.26316C97.1208 9.76782 97.0529 10.3614 96.7482 11.0438C96.5847 11.41 96.3798 11.7627 96.1335 12.102C95.8872 12.4412 95.5514 12.7853 95.126 13.1344C94.7066 13.4812 94.2321 13.7784 93.7023 14.026C93.1785 14.2712 92.5353 14.4657 91.7724 14.6092C91.0096 14.7527 90.1868 14.8071 89.304 14.7722C89.1963 14.6892 89.1646 14.5702 89.2088 14.4153C90.1768 14.4383 91.0705 14.3257 91.89 14.0777C92.7094 13.8297 93.4718 13.3741 94.1772 12.7108C94.8613 12.0729 95.3956 11.3233 95.7802 10.4619C95.9698 10.0375 96.0486 9.64846 96.0168 9.29488C95.985 8.94131 95.7985 8.68834 95.4573 8.53598C95.216 8.42822 94.93 8.42033 94.5995 8.51231C94.2731 8.60615 93.9537 8.79046 93.6414 9.06524C93.3332 9.34189 93.0825 9.6966 92.8892 10.1294C92.4953 11.0116 92.6937 11.6292 93.4844 11.9822C93.6633 12.0621 93.7898 12.1086 93.8638 12.1217C93.8967 12.1264 93.9408 12.1336 93.9963 12.1434C94.0518 12.1532 94.0916 12.1535 94.1157 12.1443C94.1471 12.2082 94.146 12.2776 94.1126 12.3525C94.0717 12.4441 93.968 12.4976 93.8014 12.513C93.6389 12.5303 93.4631 12.5217 93.2739 12.4872C93.0847 12.4526 92.9256 12.4065 92.7966 12.3489Z" fill="#E8B500"/>
<path d="M103.346 16.942C103.556 17.1171 103.581 17.44 103.42 17.9109C103.257 18.3917 102.96 18.9365 102.53 19.5451C102.244 19.9594 101.997 20.3055 101.79 20.5832C101.586 20.8639 101.398 21.1108 101.226 21.3238C101.058 21.5397 100.882 21.7579 100.698 21.9785C101.067 21.9061 101.477 21.7911 101.929 21.6335C102.381 21.4759 102.81 21.2848 103.216 21.0601C103.623 20.8354 103.943 20.583 104.176 20.3029C104.518 19.8933 104.742 19.4457 104.85 18.9602C105.192 18.7349 105.493 18.7302 105.752 18.9461C106.06 19.2028 105.984 19.6078 105.523 20.161C104.878 20.9348 103.84 21.568 102.41 22.0606C101.694 22.3069 100.982 22.4963 100.272 22.6289C99.5633 22.7678 98.8961 22.8496 98.2706 22.8741C97.6451 22.8987 97.0986 22.8676 96.6312 22.7807C96.1638 22.6938 95.8128 22.5526 95.5782 22.3571C95.3962 22.2055 95.2806 22.038 95.2316 21.8548C95.1825 21.6716 95.2076 21.5204 95.3068 21.4014C95.4935 21.1773 95.7024 21.0904 95.9335 21.1405C96.0117 21.3599 96.2083 21.6009 96.5235 21.8634C97.1082 22.3506 97.872 22.459 98.8149 22.1888C99.1714 22.0884 99.6428 21.6863 100.229 20.9825C100.515 20.6394 100.791 20.2907 101.056 19.9365C101.322 19.5823 101.58 19.2077 101.832 18.8126C101.977 18.5891 102.101 18.3659 102.203 18.143C102.31 17.923 102.378 17.7275 102.407 17.5566C102.437 17.3856 102.408 17.2636 102.321 17.1907C102.258 17.1382 102.113 17.119 101.888 17.133C101.663 17.147 101.477 17.1704 101.332 17.2031C101.318 17.1914 101.319 17.1363 101.336 17.0376C101.353 16.939 101.373 16.8757 101.396 16.8477C101.461 16.8127 101.58 16.7841 101.753 16.7619C101.929 16.7426 102.124 16.733 102.337 16.7329C102.551 16.7329 102.75 16.7504 102.934 16.7854C103.121 16.8169 103.259 16.8691 103.346 16.942Z" fill="#E8B500"/>
<path d="M110.533 24.2785C110.799 24.6025 110.908 24.9046 110.862 25.1849C110.815 25.4653 110.693 25.6865 110.495 25.8485C110.186 26.1031 109.749 26.1964 109.186 26.1284C108.812 26.082 108.452 25.9967 108.108 25.8724C107.768 25.7452 107.468 25.5993 107.209 25.4347C106.95 25.2702 106.757 25.1104 106.629 24.9555C106.606 24.9273 106.471 25.0145 106.225 25.2171C105.908 25.4775 105.718 25.7373 105.653 25.9965C105.589 26.2557 105.644 26.491 105.817 26.7022C105.89 26.7902 106.001 26.8756 106.152 26.9583C106.302 27.0411 106.433 27.0927 106.545 27.1133C106.662 27.1346 106.726 27.1473 106.735 27.1514C106.744 27.1556 106.767 27.161 106.802 27.1676C106.84 27.1714 106.955 27.1827 107.148 27.2015L107.206 27.2071C107.217 27.2212 107.205 27.2751 107.17 27.3688C107.135 27.4625 107.104 27.521 107.076 27.5441C106.911 27.5733 106.683 27.572 106.391 27.5403C106.106 27.5092 105.821 27.4424 105.536 27.3401C105.255 27.2349 105.035 27.0855 104.876 26.8918C104.575 26.5257 104.488 26.1286 104.614 25.7005C104.74 25.2725 105.053 24.8531 105.553 24.4422C105.891 24.1644 106.296 23.9499 106.767 23.7985C107.242 23.6442 107.726 23.5588 108.22 23.5423C108.714 23.5259 109.167 23.5783 109.579 23.6996C109.995 23.818 110.313 24.0109 110.533 24.2785ZM110.013 24.5288C109.877 24.3633 109.673 24.256 109.403 24.2069C109.133 24.1578 108.842 24.1488 108.531 24.1799C108.221 24.211 107.93 24.27 107.659 24.3569C107.395 24.4443 107.198 24.5416 107.067 24.6486C107.039 24.6718 107.037 24.6975 107.06 24.7256C107.164 24.8524 107.336 24.9679 107.575 25.0723C107.817 25.1737 108.085 25.2485 108.378 25.2966C108.672 25.3447 108.956 25.3531 109.231 25.3217C109.509 25.2874 109.737 25.1979 109.913 25.0533C110.124 24.8797 110.157 24.7048 110.013 24.5288Z" fill="#E8B500"/>
<path d="M113.984 29.8328C114.046 29.9646 114.036 30.0959 113.951 30.2266C113.867 30.3573 113.73 30.4676 113.541 30.5574C113.36 30.6433 113.13 30.722 112.851 30.7937L111.609 31.1101C111.786 31.1219 112.126 31.18 112.63 31.2844C112.96 31.3545 113.311 31.4506 113.681 31.5725C114.058 31.6966 114.391 31.8361 114.682 31.991C114.974 32.15 115.159 32.3119 115.237 32.4766C115.432 32.8884 115.258 33.2232 114.715 33.4808C114.332 33.6624 113.856 33.8175 113.286 33.9462L111.19 34.4404C111.08 34.4625 110.971 34.499 110.864 34.5497C110.658 34.6473 110.575 34.7373 110.614 34.8197C110.662 34.9226 110.793 35.012 111.005 35.0878C111.222 35.1617 111.406 35.2257 111.558 35.2798L111.68 35.313C111.687 35.3294 111.663 35.3789 111.606 35.4612C111.549 35.5436 111.505 35.5926 111.472 35.6082C111.319 35.5949 111.106 35.5394 110.833 35.442C110.562 35.3486 110.303 35.229 110.058 35.0832C109.816 34.9354 109.654 34.7751 109.572 34.6021C109.51 34.4703 109.521 34.3391 109.605 34.2083C109.689 34.0776 109.826 33.9673 110.016 33.8775C110.139 33.819 110.371 33.7444 110.711 33.6536L112.955 33.1198C113.262 33.0447 113.498 32.9681 113.663 32.89C114.017 32.7221 114.157 32.5599 114.083 32.4035C114.019 32.2676 113.829 32.1331 113.513 32.0001C113.202 31.8651 112.818 31.7521 112.362 31.661C111.907 31.574 111.424 31.5281 110.912 31.5235C110.405 31.5169 109.921 31.572 109.462 31.6888L108.399 31.9355C108.313 31.84 108.236 31.7201 108.168 31.576C108.102 31.436 108.052 31.2882 108.018 31.1325L112.169 30.0577C112.473 29.9642 112.647 29.9067 112.693 29.8852C112.898 29.7876 112.982 29.6976 112.943 29.6153C112.91 29.5453 112.794 29.4715 112.596 29.3939C112.499 29.3593 112.392 29.3214 112.277 29.2802C112.164 29.2432 112.085 29.2201 112.04 29.211C112.032 29.1946 112.057 29.1451 112.114 29.0628C112.17 28.9804 112.215 28.9314 112.248 28.9157C112.391 28.9289 112.585 28.983 112.832 29.0778C113.083 29.1708 113.321 29.2848 113.546 29.42C113.772 29.5552 113.918 29.6928 113.984 29.8328Z" fill="#E8B500"/>
</svg>
