<svg width="117" height="37" viewBox="0 0 117 37" fill="none" xmlns="http://www.w3.org/2000/svg">
<path d="M9.06353 29.7171L7.21109 28.1965L5.68574 31.0385C5.6064 31.0321 5.48191 30.9653 5.31226 30.8382L2.51501 23.6776C2.46818 23.5336 2.4717 23.4114 2.52556 23.311C2.58158 23.2067 2.64328 23.1881 2.71067 23.2552L7.05525 26.8102L7.4883 26.0033C7.52708 25.9311 7.56812 25.9221 7.61141 25.9763C7.84659 26.1645 8.01693 26.3385 8.12243 26.4985L7.68292 27.3174L9.5715 28.8574C9.59657 28.907 9.53048 29.0784 9.3732 29.3714C9.29564 29.5159 9.23468 29.615 9.19031 29.6688C9.14595 29.7225 9.10369 29.7387 9.06353 29.7171ZM5.49112 29.7244L6.58343 27.6893L3.71486 25.3445C3.7031 25.3279 3.68102 25.3161 3.6486 25.309C3.61618 25.302 3.59566 25.3065 3.58704 25.3225L3.59821 25.3595L5.32069 29.6951C5.32442 29.7074 5.33431 29.7179 5.35037 29.7265C5.41404 29.7813 5.46096 29.7806 5.49112 29.7244Z" fill="#E8B500"/>
<path d="M8.40314 23.056C7.92162 22.3898 7.5557 21.7098 7.30537 21.016C7.05481 20.3158 6.95353 19.6425 7.00154 18.9962C7.04955 18.3499 7.26615 17.82 7.65132 17.4067C7.94331 17.0934 8.28162 16.9041 8.66625 16.8389C9.05088 16.7737 9.43962 16.8244 9.83247 16.991C10.2253 17.1575 10.6277 17.4108 11.0396 17.7507C11.4515 18.0907 11.8307 18.5091 12.1772 19.0061C12.649 19.6695 13.0118 20.3528 13.2657 21.0561C13.5163 21.7563 13.6175 22.4296 13.5695 23.0759C13.5215 23.7223 13.308 24.2487 12.9291 24.6554C12.5439 25.0687 12.0816 25.264 11.5423 25.2412C11.003 25.2184 10.4686 25.0134 9.93889 24.626C9.40923 24.2387 8.89731 23.7153 8.40314 23.056ZM9.15727 22.2267C9.78894 23.1261 10.4376 23.7768 11.1032 24.1786C11.7688 24.5805 12.26 24.6114 12.5769 24.2714C12.8223 24.0081 12.927 23.6418 12.891 23.1725C12.8581 22.6999 12.7086 22.1685 12.4426 21.5784C12.1797 20.985 11.8228 20.3756 11.3717 19.7502C10.7307 18.8608 10.0891 18.226 9.44684 17.8459C8.80768 17.4624 8.32968 17.4407 8.01284 17.7807C7.77366 18.0373 7.66562 18.4006 7.68874 18.8703C7.71496 19.3367 7.85451 19.862 8.1074 20.4461C8.36339 21.0268 8.71335 21.6204 9.15727 22.2267Z" fill="#E8B500"/>
<path d="M14.2655 17.4534C13.9276 16.704 13.7058 15.9644 13.6 15.2345C13.4953 14.4983 13.5314 13.8184 13.7083 13.1949C13.8852 12.5714 14.2039 12.0959 14.6643 11.7683C15.0133 11.52 15.3827 11.4025 15.7726 11.4159C16.1625 11.4292 16.5331 11.5569 16.8845 11.799C17.2359 12.041 17.5791 12.3699 17.9143 12.7856C18.2495 13.2014 18.5369 13.6874 18.7765 14.2439C19.1053 14.9884 19.3234 15.7307 19.4308 16.4706C19.5355 17.2069 19.4994 17.8867 19.3225 18.5103C19.1456 19.1338 18.8307 19.6067 18.3777 19.9289C17.9173 20.2565 17.4253 20.355 16.9015 20.2244C16.3778 20.0938 15.8954 19.7856 15.4544 19.2998C15.0134 18.814 14.617 18.1985 14.2655 17.4534ZM15.1709 16.7924C15.6089 17.8003 16.1136 18.568 16.6849 19.0953C17.2561 19.6226 17.7311 19.7515 18.1098 19.4821C18.4032 19.2734 18.5793 18.9356 18.6384 18.4686C18.7011 17.999 18.6615 17.4485 18.5195 16.817C18.3813 16.1829 18.154 15.5143 17.8379 14.811C17.3887 13.811 16.8877 13.0604 16.3349 12.559C15.7858 12.0551 15.322 11.9378 14.9432 12.2072C14.6574 12.4106 14.4785 12.7447 14.4068 13.2096C14.3387 13.6717 14.3699 14.2143 14.5002 14.8373C14.6343 15.4576 14.8578 16.1093 15.1709 16.7924Z" fill="#E8B500"/>
<path d="M21.1544 13.0128C20.9405 12.2192 20.8395 11.4537 20.8515 10.7163C20.8656 9.97278 21.0097 9.30736 21.2839 8.72003C21.558 8.1327 21.9485 7.71406 22.4552 7.46409C22.8394 7.27461 23.2228 7.21753 23.6056 7.29288C23.9884 7.36822 24.3339 7.55338 24.6421 7.84835C24.9504 8.14333 25.2368 8.52273 25.5014 8.98657C25.7659 9.45041 25.9721 9.97607 26.1198 10.5636C26.3256 11.351 26.4225 12.1185 26.4104 12.8661C26.3963 13.6097 26.2522 14.2751 25.9781 14.8624C25.7039 15.4497 25.3176 15.8664 24.819 16.1123C24.3122 16.3623 23.8107 16.381 23.3146 16.1686C22.8184 15.9562 22.3913 15.575 22.0335 15.0251C21.6756 14.4752 21.3826 13.8045 21.1544 13.0128ZM22.1537 12.5047C22.4253 13.5695 22.801 14.4078 23.2808 15.0194C23.7607 15.6311 24.209 15.8341 24.6258 15.6285C24.9487 15.4692 25.1765 15.1638 25.3093 14.7122C25.4462 14.2586 25.495 13.7088 25.4556 13.0628C25.4202 12.4148 25.3026 11.7185 25.1027 10.9738C24.8188 9.91503 24.444 9.0941 23.9783 8.51105C23.5167 7.92599 23.0775 7.73627 22.6606 7.94188C22.3459 8.0971 22.1161 8.39843 21.9711 8.84586C21.8301 9.29128 21.7743 9.83187 21.8036 10.4676C21.837 11.1014 21.9537 11.7804 22.1537 12.5047Z" fill="#E8B500"/>
<path d="M31.6753 3.31653C31.9391 3.24444 32.218 3.40907 32.512 3.8104C32.8129 4.21933 33.0898 4.77409 33.3429 5.4747C33.5191 5.94603 33.6616 6.34627 33.7706 6.67541C33.8839 7.00335 33.9788 7.29854 34.0553 7.56098C34.1362 7.82222 34.2145 8.09125 34.2903 8.36807C34.4419 8.02438 34.5824 7.62236 34.7116 7.16202C34.8408 6.70168 34.9296 6.24056 34.9781 5.77868C35.0265 5.31679 35.0027 4.91009 34.9065 4.55856C34.7659 4.04446 34.5274 3.60434 34.191 3.23819C34.2019 2.82906 34.37 2.58005 34.6953 2.49114C35.0822 2.38541 35.3706 2.67968 35.5605 3.37394C35.8261 4.34502 35.7515 5.55784 35.3368 7.01239C35.1294 7.73967 34.8771 8.43201 34.5797 9.08943C34.288 9.75004 33.9732 10.3437 33.6354 10.8705C33.2976 11.3973 32.9593 11.8275 32.6206 12.1609C32.2819 12.4943 31.9652 12.7013 31.6707 12.7818C31.4421 12.8442 31.2387 12.8432 31.0604 12.7786C30.882 12.714 30.7725 12.607 30.7316 12.4576C30.6547 12.1763 30.7029 11.9554 30.8763 11.7947C31.1009 11.856 31.4111 11.8327 31.8067 11.7245C32.5408 11.5239 33.0669 10.9598 33.3848 10.0323C33.5065 9.68263 33.4466 9.0662 33.205 8.183C33.0872 7.75238 32.959 7.32697 32.8204 6.90675C32.6818 6.48654 32.5227 6.06014 32.3429 5.62757C32.2425 5.38113 32.1302 5.15207 32.0061 4.9404C31.8865 4.72753 31.7651 4.56001 31.6419 4.43783C31.5187 4.31565 31.4022 4.26958 31.2923 4.29962C31.2131 4.32125 31.1149 4.42838 30.9975 4.62103C30.8801 4.81368 30.7931 4.97914 30.7364 5.11742C30.7188 5.12222 30.6744 5.08949 30.6032 5.01922C30.5321 4.94895 30.4916 4.89624 30.482 4.86109C30.4904 4.78797 30.5349 4.67427 30.6155 4.52C30.7005 4.36453 30.8042 4.19926 30.9264 4.02418C31.0486 3.84911 31.1768 3.69601 31.311 3.56488C31.444 3.42935 31.5654 3.34657 31.6753 3.31653Z" fill="#E8B500"/>
<path d="M41.4003 1.73016C41.8139 1.66105 42.1304 1.71668 42.3501 1.89705C42.5697 2.07742 42.7005 2.2934 42.7426 2.54501C42.8087 2.94039 42.6719 3.36508 42.3319 3.81909C42.1051 4.12026 41.852 4.38887 41.5727 4.62491C41.2926 4.85646 41.0166 5.04345 40.7447 5.18588C40.4728 5.32831 40.238 5.41606 40.0402 5.44911C40.0042 5.45512 40.0126 5.61538 40.0652 5.92989C40.1328 6.33425 40.2629 6.62887 40.4556 6.81375C40.6482 6.99863 40.8794 7.06853 41.1491 7.02346C41.2615 7.00468 41.3911 6.95069 41.5379 6.86149C41.6847 6.7723 41.7947 6.68462 41.8681 6.59846C41.9452 6.50706 41.9879 6.45836 41.9962 6.45236C42.0044 6.44637 42.0201 6.42988 42.0433 6.40291C42.0658 6.37145 42.1332 6.27705 42.2455 6.11973L42.2792 6.07253C42.2971 6.06952 42.338 6.10657 42.4017 6.18368C42.4654 6.26078 42.5003 6.3173 42.5063 6.35325C42.4495 6.51054 42.3346 6.70756 42.1616 6.9443C41.9924 7.17579 41.7925 7.38933 41.5618 7.58491C41.3304 7.776 41.0911 7.8922 40.8439 7.93352C40.3764 8.01164 39.9886 7.8894 39.6805 7.56679C39.3724 7.24417 39.165 6.76387 39.0583 6.12587C38.9862 5.69454 39.002 5.23696 39.1059 4.75312C39.2091 4.26479 39.3767 3.80264 39.6087 3.36667C39.8407 2.93069 40.1121 2.56434 40.4229 2.26762C40.7329 1.96641 41.0587 1.78725 41.4003 1.73016ZM41.3579 2.30533C41.1467 2.34064 40.9523 2.46318 40.7749 2.67296C40.5974 2.88274 40.4447 3.12996 40.3167 3.4146C40.1888 3.69925 40.0949 3.98051 40.0351 4.25837C39.979 4.531 39.9649 4.75043 39.9927 4.91667C39.9987 4.95262 40.0197 4.96758 40.0557 4.96157C40.2175 4.93453 40.4032 4.84344 40.6129 4.68831C40.8219 4.52869 41.0203 4.33388 41.2083 4.10387C41.3962 3.87386 41.5452 3.6319 41.6552 3.37796C41.7644 3.11954 41.8003 2.878 41.7627 2.65336C41.7176 2.38378 41.5827 2.26777 41.3579 2.30533Z" fill="#E8B500"/>
<path d="M47.1851 1.00969C47.3306 0.998908 47.4491 1.05635 47.5407 1.18203C47.6323 1.3077 47.6858 1.47503 47.7013 1.684C47.7162 1.88388 47.7068 2.12668 47.6731 2.41238L47.5208 3.6844C47.5957 3.52354 47.7724 3.22722 48.0511 2.79545C48.2358 2.51225 48.4517 2.21988 48.6989 1.91834C48.9504 1.61192 49.2007 1.35126 49.4498 1.13637C49.7034 0.921144 49.9211 0.806789 50.1029 0.793307C50.5574 0.759602 50.8069 1.04258 50.8514 1.64223C50.8827 2.06472 50.8559 2.5646 50.7708 3.1419L50.4766 5.27406C50.4574 5.38511 50.4522 5.49969 50.461 5.61781C50.4779 5.84495 50.5317 5.95515 50.6226 5.94841C50.7363 5.93998 50.8667 5.85037 51.014 5.67957C51.1609 5.50423 51.287 5.35557 51.3921 5.23357L51.4669 5.1321C51.4851 5.13075 51.5223 5.17138 51.5787 5.25399C51.6351 5.3366 51.6647 5.39607 51.6674 5.43241C51.5999 5.56989 51.4715 5.74842 51.2822 5.96801C51.0974 6.18727 50.8927 6.38516 50.6682 6.56169C50.4433 6.73367 50.2354 6.82674 50.0445 6.8409C49.8991 6.85169 49.7806 6.79424 49.689 6.66857C49.5974 6.54289 49.5439 6.37557 49.5284 6.1666C49.5183 6.03031 49.5322 5.78718 49.5702 5.43721L49.8805 3.15311C49.9212 2.83948 49.9348 2.5918 49.9213 2.41009C49.8923 2.01941 49.7915 1.83047 49.6188 1.84328C49.4688 1.8544 49.275 1.98297 49.0373 2.22898C48.7993 2.47046 48.5555 2.78773 48.306 3.18081C48.0609 3.57354 47.8441 4.00758 47.6554 4.48292C47.4665 4.95372 47.3437 5.42418 47.2872 5.89429L47.1343 6.9745C47.0143 7.01995 46.8748 7.04857 46.7157 7.06036C46.5612 7.07182 46.4053 7.06511 46.2481 7.04023L46.741 2.78299C46.7632 2.46616 46.7724 2.28276 46.7687 2.23279C46.7518 2.00565 46.6979 1.89545 46.607 1.90219C46.5298 1.90792 46.4193 1.9892 46.2756 2.14603C46.2082 2.22411 46.1346 2.3095 46.0547 2.40222C45.9793 2.4946 45.9293 2.55998 45.9047 2.59834C45.8865 2.59969 45.8492 2.55906 45.7928 2.47645C45.7364 2.39385 45.7069 2.33437 45.7042 2.29803C45.7678 2.16998 45.8883 2.00802 46.0657 1.81215C46.2428 1.61174 46.435 1.43076 46.6423 1.26921C46.8497 1.10766 47.0306 1.02115 47.1851 1.00969Z" fill="#E8B500"/>
<path d="M58.4604 3.11426L61.564 2.9502C61.6187 2.9502 61.646 3.00488 61.646 3.11426C61.646 3.17806 61.6278 3.26465 61.5913 3.37402C61.5594 3.4834 61.5184 3.58138 61.4683 3.66797C61.4227 3.75456 61.3771 3.80241 61.3315 3.81152L58.2417 3.96191C58.1961 3.96191 58.1733 3.89355 58.1733 3.75684C58.1733 3.66569 58.2052 3.53809 58.269 3.37402C58.3328 3.20996 58.3966 3.12337 58.4604 3.11426Z" fill="#E8B500"/>
<path d="M69.8015 8.43524C70.1543 8.47883 70.5224 8.36136 70.9059 8.08285C71.2893 7.80433 71.5902 7.3389 71.8086 6.68657C71.8886 6.48531 71.9293 6.26772 71.9307 6.0338C71.9321 5.79988 71.9038 5.58295 71.8458 5.38302C71.7879 5.18308 71.6489 5.00755 71.4288 4.85643C71.2087 4.70531 70.9268 4.60851 70.583 4.56604C70.1443 4.51184 69.7628 4.51519 69.4384 4.5761C69.4011 4.54394 69.3456 4.47283 69.2719 4.36275L71.154 0.505592C72.8387 0.658651 73.8461 0.718849 74.1762 0.686188C74.1955 0.752834 74.1883 0.848332 74.1545 0.972683C74.1168 1.09195 74.072 1.21265 74.0202 1.33476C73.9689 1.45236 73.9106 1.57137 73.8452 1.69181C73.6152 1.73225 73.1225 1.72417 72.3673 1.66758C71.9941 1.63984 71.7143 1.61904 71.5278 1.60517C71.3463 1.58734 71.2555 1.57842 71.2555 1.57842C71.2143 1.57792 71.1736 1.60961 71.1336 1.67352C71.0862 1.75946 70.9746 1.97517 70.7987 2.32064C70.6228 2.66611 70.3827 3.14134 70.0783 3.74633C70.3913 3.66567 70.8056 3.65719 71.3212 3.72089C71.7735 3.77677 72.1505 3.94038 72.4522 4.21174C72.7538 4.4831 72.9558 4.81788 73.0581 5.21608C73.1649 5.61483 73.1474 6.03495 73.0056 6.47643C72.8288 7.01457 72.5463 7.47997 72.1579 7.87263C71.7746 8.26132 71.3279 8.55038 70.8177 8.7398C70.3126 8.92526 69.7842 8.9839 69.2324 8.91573C68.4816 8.82297 67.9602 8.62085 67.6681 8.30936C67.6352 8.27777 67.6199 8.2162 67.622 8.12466C67.6242 8.03313 67.6376 7.96135 67.6624 7.90933C67.7964 7.49443 68.0217 7.30653 68.3383 7.34564C68.4559 7.36017 68.5549 7.45044 68.6354 7.61644C68.7159 7.78245 68.7998 7.92133 68.887 8.03308C69.0761 8.24922 69.3809 8.38328 69.8015 8.43524Z" fill="#E8B500"/>
<path d="M78.641 6.8412C78.0799 6.71943 77.6643 6.44279 77.3942 6.01128C77.1242 5.57976 77.0491 5.08801 77.169 4.536C77.2532 4.14871 77.4172 3.79043 77.6613 3.46115C77.9063 3.12743 78.201 2.8441 78.5454 2.61118C78.8898 2.37826 79.2546 2.21268 79.6396 2.11445C80.0247 2.01622 80.3999 2.00673 80.7651 2.08598C81.3707 2.21741 81.8079 2.51272 82.0766 2.97191C82.3453 3.4311 82.4003 4.02573 82.2418 4.7558C82.1567 5.14754 82.0283 5.53455 81.8567 5.91684C81.6851 6.29912 81.4268 6.70456 81.0819 7.13315C80.7424 7.55825 80.3387 7.94612 79.8708 8.29674C79.4084 8.64388 78.8185 8.96571 78.1012 9.26222C77.3839 9.55872 76.5896 9.78025 75.7184 9.92681C75.596 9.86763 75.5406 9.75771 75.5522 9.59707C76.5044 9.42146 77.3561 9.1285 78.1074 8.71818C78.8588 8.30786 79.5118 7.70607 80.0665 6.9128C80.6055 6.14876 80.9751 5.30599 81.1752 4.3845C81.2738 3.93044 81.2714 3.53369 81.1679 3.19425C81.0644 2.85481 80.8301 2.64547 80.4649 2.56623C80.2066 2.51017 79.9251 2.56096 79.6204 2.71858C79.3201 2.87717 79.0452 3.12285 78.7957 3.45561C78.5507 3.78934 78.3779 4.18769 78.2774 4.65065C78.0724 5.5944 78.393 6.15809 79.2392 6.34171C79.4307 6.38327 79.564 6.40287 79.6391 6.40053C79.6722 6.39839 79.7169 6.39644 79.7733 6.39468C79.8296 6.39293 79.8686 6.38508 79.8903 6.37114C79.9341 6.42725 79.9473 6.49537 79.9299 6.5755C79.9086 6.67344 79.818 6.74701 79.6581 6.79621C79.5026 6.84638 79.3288 6.87391 79.1365 6.8788C78.9442 6.8837 78.7791 6.87116 78.641 6.8412Z" fill="#E8B500"/>
<path d="M85.822 9.53075C85.2753 9.35519 84.8885 9.03958 84.6616 8.58394C84.4347 8.1283 84.4077 7.63158 84.5805 7.0938C84.7018 6.71648 84.8999 6.37578 85.1747 6.0717C85.4509 5.76328 85.7717 5.50985 86.1371 5.31139C86.5024 5.11293 86.8815 4.98347 87.2743 4.92301C87.6671 4.86255 88.0414 4.88945 88.3972 5.00371C88.9873 5.19321 89.3938 5.52949 89.6166 6.01254C89.8395 6.4956 89.8367 7.09277 89.6081 7.80403C89.4854 8.18569 89.3201 8.55844 89.1122 8.9223C88.9043 9.28615 88.6079 9.66466 88.2231 10.0578C87.844 10.448 87.4046 10.7949 86.9049 11.0986C86.411 11.3993 85.7927 11.6625 85.05 11.8881C84.3073 12.1137 83.4953 12.2572 82.614 12.3187C82.4979 12.2479 82.4534 12.1331 82.4805 11.9744C83.4452 11.8918 84.3214 11.6828 85.109 11.3472C85.8965 11.0116 86.6048 10.4759 87.2338 9.74012C87.8444 9.0319 88.294 8.22891 88.5825 7.33115C88.7247 6.88878 88.7608 6.49366 88.6907 6.1458C88.6206 5.79793 88.4076 5.56687 88.0519 5.45261C87.8002 5.3718 87.5151 5.39507 87.1965 5.52243C86.8823 5.65118 86.5849 5.86907 86.3043 6.17609C86.0281 6.48451 85.8175 6.86424 85.6725 7.31529C85.377 8.23473 85.6414 8.82682 86.4658 9.09156C86.6524 9.15148 86.7832 9.18391 86.8582 9.18886C86.8913 9.18994 86.936 9.19233 86.9923 9.19604C87.0485 9.19975 87.0881 9.19572 87.111 9.18394C87.1492 9.24403 87.1557 9.31311 87.1306 9.39118C87.0999 9.48659 87.0026 9.55104 86.8387 9.58451C86.6791 9.61939 86.5034 9.62994 86.3115 9.61618C86.1197 9.60242 85.9565 9.57395 85.822 9.53075Z" fill="#E8B500"/>
<path d="M93.1704 12.3797C92.6461 12.1457 92.2959 11.7899 92.12 11.3122C91.944 10.8346 91.9713 10.3379 92.2017 9.82211C92.3633 9.46023 92.5973 9.14311 92.9036 8.87074C93.2118 8.59422 93.5583 8.37719 93.9431 8.21967C94.3279 8.06214 94.7188 7.9747 95.1158 7.95734C95.5129 7.93998 95.882 8.00744 96.2232 8.15973C96.7892 8.41231 97.1566 8.79082 97.3256 9.29526C97.4946 9.7997 97.4267 10.393 97.122 11.0752C96.9585 11.4412 96.7536 11.7938 96.5073 12.1328C96.261 12.4719 95.9252 12.8159 95.4998 13.1649C95.0804 13.5115 94.6059 13.8086 94.0761 14.056C93.5523 14.3012 92.909 14.4955 92.1462 14.639C91.3834 14.7824 90.5606 14.8368 89.6778 14.802C89.5701 14.719 89.5384 14.6001 89.5826 14.4452C90.5506 14.4681 91.4443 14.3556 92.2637 14.1077C93.0832 13.8598 93.8456 13.4044 94.551 12.7414C95.2351 12.1038 95.7694 11.3545 96.154 10.4935C96.3435 10.0692 96.4224 9.68039 96.3906 9.32697C96.3588 8.97354 96.1723 8.72069 95.8311 8.5684C95.5897 8.46068 95.3038 8.45279 94.9732 8.54473C94.6469 8.63853 94.3275 8.82276 94.0151 9.09743C93.707 9.37395 93.4563 9.72851 93.263 10.1611C92.8691 11.0429 93.0675 11.6603 93.8582 12.0131C94.0371 12.093 94.1636 12.1395 94.2376 12.1525C94.2704 12.1572 94.3146 12.1645 94.3701 12.1743C94.4256 12.1841 94.4654 12.1844 94.4895 12.1752C94.5209 12.2391 94.5198 12.3084 94.4864 12.3833C94.4455 12.4748 94.3417 12.5283 94.1751 12.5437C94.0127 12.561 93.8369 12.5524 93.6477 12.5179C93.4585 12.4833 93.2994 12.4372 93.1704 12.3797Z" fill="#E8B500"/>
<path d="M103.72 16.9704C103.931 17.1454 103.955 17.4682 103.794 17.9389C103.631 18.4195 103.334 18.964 102.904 19.5724C102.618 19.9865 102.371 20.3324 102.164 20.61C101.96 20.8906 101.772 21.1373 101.6 21.3503C101.432 21.5661 101.256 21.7842 101.072 22.0047C101.441 21.9324 101.851 21.8174 102.303 21.6599C102.755 21.5024 103.184 21.3113 103.59 21.0867C103.997 20.8621 104.317 20.6098 104.551 20.3298C104.892 19.9204 105.116 19.473 105.224 18.9877C105.566 18.7625 105.867 18.7578 106.126 18.9736C106.434 19.2302 106.358 19.635 105.897 20.188C105.252 20.9614 104.214 21.5944 102.784 22.0868C102.068 22.333 101.356 22.5223 100.646 22.6548C99.9373 22.7937 99.2701 22.8754 98.6446 22.9C98.0191 22.9245 97.4726 22.8934 97.0052 22.8065C96.5378 22.7197 96.1868 22.5786 95.9523 22.3832C95.7702 22.2316 95.6546 22.0642 95.6056 21.8811C95.5566 21.6979 95.5816 21.5469 95.6808 21.4279C95.8675 21.2039 96.0764 21.1169 96.3075 21.1671C96.3857 21.3864 96.5824 21.6272 96.8975 21.8897C97.4822 22.3766 98.246 22.485 99.1889 22.2149C99.5454 22.1145 100.017 21.7126 100.603 21.0092C100.889 20.6662 101.165 20.3177 101.43 19.9636C101.696 19.6095 101.954 19.2351 102.206 18.8402C102.351 18.6168 102.475 18.3937 102.577 18.1709C102.684 17.951 102.752 17.7556 102.781 17.5847C102.811 17.4138 102.782 17.2919 102.695 17.219C102.632 17.1665 102.488 17.1473 102.262 17.1613C102.037 17.1753 101.851 17.1987 101.706 17.2313C101.692 17.2197 101.693 17.1645 101.71 17.066C101.727 16.9674 101.747 16.9041 101.77 16.8761C101.835 16.8411 101.954 16.8125 102.127 16.7903C102.303 16.7711 102.498 16.7614 102.711 16.7614C102.925 16.7614 103.124 16.7789 103.308 16.8138C103.495 16.8453 103.633 16.8975 103.72 16.9704Z" fill="#E8B500"/>
<path d="M110.907 24.3039C111.173 24.6277 111.282 24.9297 111.236 25.2099C111.189 25.4901 111.067 25.7112 110.87 25.8732C110.56 26.1277 110.123 26.221 109.56 26.1529C109.186 26.1066 108.826 26.0213 108.482 25.8971C108.142 25.7699 107.842 25.6241 107.583 25.4596C107.324 25.2951 107.131 25.1354 107.003 24.9806C106.98 24.9524 106.845 25.0396 106.599 25.242C106.282 25.5023 106.092 25.762 106.027 26.0211C105.963 26.2802 106.018 26.5154 106.191 26.7265C106.264 26.8145 106.375 26.8999 106.526 26.9825C106.676 27.0652 106.807 27.1169 106.919 27.1375C107.036 27.1587 107.1 27.1714 107.109 27.1755C107.118 27.1797 107.141 27.1851 107.176 27.1917C107.214 27.1955 107.33 27.2068 107.522 27.2256L107.58 27.2312C107.591 27.2453 107.579 27.2992 107.544 27.3929C107.509 27.4865 107.478 27.5449 107.45 27.5681C107.285 27.5973 107.057 27.596 106.765 27.5642C106.48 27.5331 106.195 27.4664 105.91 27.3642C105.629 27.259 105.409 27.1096 105.25 26.9161C104.949 26.55 104.862 26.1531 104.988 25.7253C105.114 25.2974 105.427 24.8782 105.927 24.4675C106.265 24.1898 106.67 23.9753 107.141 23.824C107.616 23.6698 108.1 23.5844 108.594 23.568C109.088 23.5516 109.541 23.6039 109.953 23.7252C110.369 23.8435 110.687 24.0364 110.907 24.3039ZM110.387 24.554C110.251 24.3886 110.047 24.2814 109.777 24.2323C109.507 24.1832 109.216 24.1742 108.905 24.2053C108.595 24.2364 108.304 24.2954 108.033 24.3822C107.769 24.4696 107.572 24.5668 107.441 24.6738C107.413 24.697 107.411 24.7226 107.434 24.7508C107.538 24.8775 107.71 24.993 107.949 25.0973C108.191 25.1987 108.459 25.2734 108.753 25.3215C109.046 25.3696 109.33 25.378 109.605 25.3466C109.883 25.3123 110.111 25.2229 110.287 25.0783C110.498 24.9048 110.531 24.73 110.387 24.554Z" fill="#E8B500"/>
<path d="M114.358 29.8557C114.421 29.9874 114.41 30.1186 114.325 30.2493C114.241 30.3799 114.104 30.4902 113.915 30.5799C113.734 30.6658 113.504 30.7445 113.225 30.8161L111.983 31.1323C112.16 31.1442 112.5 31.2023 113.004 31.3066C113.334 31.3767 113.685 31.4727 114.055 31.5946C114.432 31.7186 114.765 31.8581 115.056 32.0129C115.348 32.1719 115.533 32.3337 115.611 32.4983C115.806 32.9099 115.632 33.2445 115.089 33.5021C114.706 33.6836 114.23 33.8386 113.66 33.9673L111.564 34.4612C111.454 34.4834 111.345 34.5198 111.238 34.5705C111.032 34.6681 110.949 34.758 110.988 34.8403C111.036 34.9433 111.167 35.0326 111.379 35.1084C111.596 35.1822 111.78 35.2462 111.932 35.3003L112.054 35.3334C112.061 35.3499 112.037 35.3993 111.98 35.4816C111.923 35.564 111.879 35.613 111.846 35.6286C111.693 35.6152 111.48 35.5598 111.207 35.4624C110.936 35.369 110.677 35.2495 110.432 35.1038C110.19 34.9561 110.028 34.7958 109.946 34.6229C109.884 34.4912 109.895 34.36 109.979 34.2293C110.063 34.0986 110.2 33.9884 110.39 33.8986C110.513 33.8401 110.745 33.7655 111.085 33.6748L113.329 33.1412C113.636 33.0661 113.872 32.9896 114.037 32.9115C114.391 32.7437 114.531 32.5816 114.457 32.4252C114.393 32.2893 114.203 32.155 113.887 32.022C113.576 31.8871 113.192 31.7741 112.736 31.683C112.281 31.596 111.798 31.5502 111.286 31.5456C110.779 31.539 110.295 31.5941 109.836 31.7108L108.773 31.9575C108.688 31.8619 108.611 31.7421 108.542 31.5981C108.476 31.4581 108.426 31.3103 108.393 31.1548L112.543 30.0804C112.847 29.987 113.021 29.9295 113.067 29.908C113.272 29.8105 113.356 29.7205 113.317 29.6382C113.284 29.5682 113.168 29.4945 112.97 29.417C112.873 29.3823 112.766 29.3444 112.651 29.3033C112.538 29.2663 112.459 29.2432 112.414 29.2341C112.406 29.2177 112.431 29.1683 112.488 29.0859C112.544 29.0036 112.589 28.9546 112.622 28.939C112.765 28.9521 112.959 29.0061 113.206 29.101C113.457 29.1939 113.695 29.3079 113.92 29.443C114.146 29.5782 114.292 29.7157 114.358 29.8557Z" fill="#E8B500"/>
</svg>
