<svg width="116" height="36" viewBox="0 0 116 36" fill="none" xmlns="http://www.w3.org/2000/svg">
<path d="M8.32127 26.6684C8.38423 26.743 8.49842 26.8758 8.66384 27.0668C8.82526 27.2556 9.00055 27.4569 9.18973 27.6708C9.3749 27.8825 9.5326 28.0591 9.66283 28.2005C9.76529 28.3167 9.78211 28.4387 9.7133 28.5662L7.74571 32.2139C7.59966 32.1976 7.46093 32.1389 7.32954 32.038C7.08898 31.0677 6.80966 30.1358 6.49158 29.2422C6.17565 28.3446 5.83417 27.5566 5.46713 26.8781C5.09609 26.1976 4.71469 25.6989 4.32295 25.382C3.93307 25.0713 3.57902 24.9286 3.26082 24.9539C2.94262 24.9792 2.69536 25.1553 2.51902 25.4822C2.18357 26.1041 2.2152 26.8397 2.61392 27.6891C2.59242 27.729 2.54486 27.7549 2.47125 27.767C2.39764 27.7791 2.35096 27.7747 2.33121 27.7539C2.15807 27.5485 1.98397 27.1297 1.80894 26.4972C1.7222 26.1891 1.69148 25.8441 1.71677 25.4623C1.74206 25.0805 1.83857 24.7341 2.0063 24.4232C2.18908 24.0843 2.43859 23.8658 2.75483 23.7676C3.07322 23.6653 3.39284 23.6613 3.71369 23.7555C4.03454 23.8497 4.33809 24.0142 4.62435 24.2491C4.85106 24.4317 5.07109 24.6697 5.28442 24.9633C5.49374 25.2546 5.67472 25.5412 5.82734 25.8228C5.97996 26.1045 6.13577 26.452 6.29475 26.8654C6.49148 27.3811 6.65502 27.8482 6.78536 28.2669C6.91385 28.6794 7.02352 29.0742 7.11436 29.4513C7.20736 29.8243 7.29899 30.2095 7.38925 30.6067C7.41526 30.6925 7.44332 30.7075 7.47343 30.6516L8.57657 28.6066C8.63893 28.491 8.67807 28.404 8.694 28.3458C8.70993 28.2876 8.7157 28.229 8.71129 28.1702C8.70288 28.1092 8.69828 28.0221 8.69749 27.9087C8.69338 27.8398 8.6572 27.7537 8.58896 27.6506C8.52071 27.5474 8.44739 27.4441 8.36898 27.3407C8.28871 27.2311 8.23019 27.1434 8.19343 27.0776C8.13907 26.987 8.13124 26.9058 8.16995 26.834C8.22801 26.7264 8.27845 26.6712 8.32127 26.6684Z" fill="#E8B500"/>
<path d="M8.47546 22.9667C7.99485 22.3051 7.62962 21.6298 7.37977 20.9408C7.12969 20.2454 7.0286 19.5768 7.07652 18.9349C7.12444 18.293 7.34062 17.7668 7.72507 17.3563C8.0165 17.0452 8.35417 16.8572 8.73807 16.7925C9.12197 16.7277 9.50997 16.778 9.90208 16.9435C10.2942 17.1089 10.6958 17.3604 11.1069 17.698C11.518 18.0356 11.8965 18.4512 12.2424 18.9447C12.7133 19.6035 13.0754 20.2822 13.3288 20.9806C13.5789 21.676 13.68 22.3446 13.632 22.9865C13.5841 23.6284 13.371 24.1513 12.9928 24.5551C12.6084 24.9656 12.147 25.1595 11.6087 25.1369C11.0704 25.1143 10.537 24.9106 10.0083 24.5259C9.47964 24.1413 8.96869 23.6215 8.47546 22.9667ZM9.22817 22.1432C9.85864 23.0364 10.506 23.6825 11.1704 24.0816C11.8347 24.4807 12.325 24.5115 12.6413 24.1738C12.8862 23.9123 12.9907 23.5485 12.9548 23.0824C12.9219 22.6131 12.7728 22.0854 12.5073 21.4993C12.2449 20.91 11.8886 20.3048 11.4384 19.6837C10.7986 18.8004 10.1582 18.17 9.51718 17.7925C8.87923 17.4117 8.40214 17.3901 8.0859 17.7277C7.84717 17.9826 7.73934 18.3433 7.76241 18.8099C7.78858 19.2731 7.92787 19.7947 8.18028 20.3748C8.43579 20.9515 8.78509 21.541 9.22817 22.1432Z" fill="#E8B500"/>
<path d="M14.3263 17.4019C13.9891 16.6578 13.7677 15.9232 13.6621 15.1984C13.5576 14.4672 13.5936 13.792 13.7702 13.1728C13.9468 12.5536 14.2648 12.0813 14.7244 11.756C15.0727 11.5094 15.4414 11.3927 15.8306 11.406C16.2198 11.4192 16.5897 11.5461 16.9404 11.7865C17.2911 12.0268 17.6337 12.3535 17.9683 12.7663C18.3028 13.1792 18.5897 13.6619 18.8288 14.2145C19.157 14.9539 19.3747 15.6911 19.4819 16.4259C19.5864 17.1571 19.5504 17.8323 19.3738 18.4515C19.1972 19.0708 18.8829 19.5404 18.4308 19.8604C17.9712 20.1857 17.4801 20.2835 16.9574 20.1538C16.4346 20.0241 15.9532 19.7181 15.513 19.2356C15.0728 18.7532 14.6772 18.1419 14.3263 17.4019ZM15.23 16.7455C15.6672 17.7465 16.1709 18.5088 16.7411 19.0325C17.3113 19.5562 17.7854 19.6843 18.1634 19.4167C18.4562 19.2094 18.632 18.8739 18.691 18.4102C18.7536 17.9438 18.7141 17.3971 18.5723 16.77C18.4343 16.1402 18.2075 15.4762 17.8919 14.7778C17.4436 13.7847 16.9436 13.0392 16.3918 12.5413C15.8438 12.0408 15.3808 11.9243 15.0028 12.1919C14.7175 12.3939 14.539 12.7257 14.4674 13.1873C14.3995 13.6463 14.4305 14.1852 14.5606 14.8038C14.6945 15.4199 14.9176 16.0671 15.23 16.7455Z" fill="#E8B500"/>
<path d="M21.2022 12.9919C20.9887 12.2038 20.8879 11.4436 20.8999 10.7112C20.914 9.97283 21.0578 9.31199 21.3314 8.72871C21.6051 8.14543 21.9948 7.72967 22.5006 7.48142C22.884 7.29324 23.2667 7.23656 23.6488 7.31138C24.0308 7.38621 24.3757 7.57009 24.6833 7.86303C24.991 8.15598 25.2769 8.53277 25.5409 8.99342C25.805 9.45406 26.0108 9.97611 26.1582 10.5596C26.3636 11.3416 26.4603 12.1038 26.4483 12.8463C26.4342 13.5847 26.2904 14.2455 26.0167 14.8288C25.7431 15.4121 25.3575 15.8258 24.8598 16.0701C24.354 16.3183 23.8535 16.337 23.3583 16.126C22.863 15.915 22.4368 15.5365 22.0796 14.9904C21.7224 14.4443 21.43 13.7781 21.2022 12.9919ZM22.1996 12.4873C22.4707 13.5448 22.8457 14.3773 23.3246 14.9847C23.8035 15.5922 24.251 15.7938 24.6671 15.5896C24.9893 15.4314 25.2167 15.1281 25.3493 14.6797C25.4859 14.2292 25.5346 13.6832 25.4952 13.0416C25.46 12.3981 25.3426 11.7065 25.143 10.967C24.8597 9.91549 24.4856 9.10021 24.0208 8.52117C23.56 7.94014 23.1216 7.75172 22.7056 7.95592C22.3915 8.11007 22.1621 8.40932 22.0173 8.85368C21.8767 9.29603 21.821 9.8329 21.8502 10.4643C21.8835 11.0937 22 11.768 22.1996 12.4873Z" fill="#E8B500"/>
<path d="M31.703 3.3626C31.9662 3.29101 32.2446 3.4545 32.5381 3.85307C32.8383 4.25918 33.1148 4.81013 33.3673 5.50591C33.5432 5.974 33.6855 6.37148 33.7942 6.69835C33.9073 7.02403 34.0021 7.31719 34.0784 7.57782C34.1592 7.83727 34.2373 8.10445 34.3129 8.37936C34.4643 8.03804 34.6045 7.63879 34.7334 7.18162C34.8624 6.72444 34.951 6.2665 34.9994 5.8078C35.0478 5.34909 35.024 4.94518 34.928 4.59608C34.7877 4.08552 34.5496 3.64842 34.2138 3.28479C34.2248 2.87849 34.3925 2.63119 34.7172 2.54289C35.1033 2.43789 35.3912 2.73013 35.5807 3.41961C35.8458 4.38401 35.7714 5.58847 35.3575 7.03302C35.1505 7.75529 34.8986 8.44287 34.6018 9.09576C34.3106 9.75182 33.9964 10.3414 33.6593 10.8646C33.3221 11.3878 32.9845 11.8149 32.6464 12.1461C32.3083 12.4772 31.9923 12.6827 31.6983 12.7627C31.4702 12.8247 31.2671 12.8237 31.0891 12.7595C30.9112 12.6953 30.8018 12.5891 30.761 12.4407C30.6842 12.1614 30.7323 11.942 30.9054 11.7824C31.1296 11.8433 31.4392 11.8201 31.8341 11.7127C32.5668 11.5135 33.0918 10.9533 33.4092 10.0321C33.5307 9.68487 33.4708 9.07268 33.2297 8.19556C33.1121 7.76791 32.9842 7.34543 32.8459 6.9281C32.7076 6.51078 32.5487 6.08732 32.3693 5.65773C32.269 5.41298 32.1569 5.1855 32.0331 4.97529C31.9137 4.76388 31.7925 4.59751 31.6696 4.47618C31.5466 4.35484 31.4303 4.30909 31.3206 4.33892C31.2416 4.3604 31.1436 4.4668 31.0264 4.65812C30.9092 4.84944 30.8224 5.01377 30.7658 5.15109C30.7483 5.15586 30.704 5.12335 30.6329 5.05357C30.5618 4.98378 30.5215 4.93143 30.5119 4.89652C30.5202 4.82391 30.5647 4.71099 30.6451 4.55778C30.73 4.40338 30.8334 4.23925 30.9554 4.06538C31.0774 3.89151 31.2053 3.73946 31.3393 3.60923C31.472 3.47464 31.5933 3.39243 31.703 3.3626Z" fill="#E8B500"/>
<path d="M41.4098 1.78634C41.8225 1.7177 42.1385 1.77295 42.3577 1.95208C42.5769 2.1312 42.7075 2.34571 42.7495 2.59558C42.8155 2.98824 42.6789 3.41001 42.3396 3.86088C42.1132 4.15998 41.8606 4.42674 41.5818 4.66116C41.3022 4.89112 41.0268 5.07682 40.7554 5.21827C40.484 5.35972 40.2496 5.44686 40.0522 5.47969C40.0163 5.48565 40.0246 5.64481 40.0772 5.95715C40.1447 6.35873 40.2746 6.65133 40.4668 6.83493C40.6591 7.01854 40.8898 7.08796 41.159 7.04319C41.2712 7.02454 41.4005 6.97093 41.5471 6.88235C41.6936 6.79377 41.8035 6.70669 41.8767 6.62113C41.9537 6.53035 41.9963 6.48199 42.0045 6.47603C42.0127 6.47008 42.0284 6.45371 42.0516 6.42692C42.074 6.39567 42.1412 6.30193 42.2533 6.14569L42.287 6.09881C42.3049 6.09583 42.3457 6.13262 42.4093 6.20919C42.4729 6.28577 42.5077 6.3419 42.5137 6.3776C42.4569 6.53381 42.3423 6.72947 42.1696 6.96458C42.0008 7.19448 41.8012 7.40655 41.571 7.60078C41.34 7.79055 41.1012 7.90596 40.8544 7.94699C40.3878 8.02458 40.0008 7.90318 39.6933 7.58278C39.3858 7.26239 39.1787 6.78539 39.0722 6.15178C39.0002 5.72343 39.0161 5.269 39.1197 4.78849C39.2227 4.30352 39.39 3.84455 39.6215 3.41158C39.8531 2.9786 40.124 2.61478 40.4342 2.3201C40.7436 2.02096 41.0688 1.84304 41.4098 1.78634ZM41.3675 2.35755C41.1566 2.39261 40.9626 2.51431 40.7855 2.72265C40.6084 2.93099 40.456 3.1765 40.3282 3.45919C40.2005 3.74187 40.1068 4.02119 40.0471 4.29715C39.9912 4.5679 39.9771 4.78582 40.0048 4.95091C40.0108 4.98661 40.0318 5.00147 40.0677 4.99551C40.2292 4.96865 40.4146 4.87819 40.6239 4.72413C40.8325 4.56561 41.0305 4.37213 41.2181 4.14371C41.4057 3.91529 41.5544 3.67498 41.6642 3.4228C41.7732 3.16615 41.809 2.92628 41.7715 2.70318C41.7265 2.43546 41.5918 2.32025 41.3675 2.35755Z" fill="#E8B500"/>
<path d="M47.1836 1.07104C47.3288 1.06033 47.4471 1.11738 47.5385 1.24219C47.6299 1.367 47.6833 1.53317 47.6988 1.7407C47.7136 1.93921 47.7043 2.18033 47.6707 2.46407L47.5186 3.72734C47.5934 3.56758 47.7698 3.2733 48.048 2.8445C48.2323 2.56326 48.4478 2.2729 48.6946 1.97343C48.9455 1.66912 49.1953 1.41026 49.4439 1.19685C49.6971 0.983101 49.9144 0.869533 50.0959 0.856144C50.5495 0.822671 50.7985 1.1037 50.8429 1.69922C50.8742 2.1188 50.8474 2.61525 50.7625 3.18857L50.4689 5.30605C50.4497 5.41634 50.4445 5.53013 50.4533 5.64743C50.4701 5.87301 50.5239 5.98245 50.6146 5.97575C50.728 5.96739 50.8582 5.87839 51.0052 5.70877C51.1519 5.53464 51.2777 5.38699 51.3827 5.26584L51.4572 5.16507C51.4754 5.16373 51.5126 5.20408 51.5689 5.28612C51.6252 5.36816 51.6547 5.42722 51.6574 5.46331C51.59 5.59984 51.4619 5.77714 51.2729 5.99523C51.0884 6.21298 50.8842 6.40951 50.6601 6.58482C50.4356 6.75562 50.2281 6.84804 50.0376 6.8621C49.8925 6.87281 49.7742 6.81577 49.6828 6.69096C49.5913 6.56614 49.5379 6.39997 49.5224 6.19244C49.5123 6.05709 49.5262 5.81564 49.5642 5.46807L49.8739 3.1997C49.9145 2.88823 49.9281 2.64226 49.9146 2.4618C49.8857 2.0738 49.785 1.88616 49.6126 1.89888C49.4629 1.90993 49.2695 2.03761 49.0323 2.28194C48.7948 2.52175 48.5514 2.83684 48.3023 3.22721C48.0578 3.61724 47.8413 4.04829 47.653 4.52036C47.4644 4.98792 47.3419 5.45514 47.2855 5.92201L47.1329 6.99479C47.0132 7.03992 46.8739 7.06834 46.7151 7.08006C46.5609 7.09144 46.4053 7.08477 46.2484 7.06006L46.7403 2.83212C46.7624 2.51748 46.7717 2.33534 46.768 2.28572C46.7511 2.06014 46.6974 1.9507 46.6066 1.95739C46.5295 1.96308 46.4192 2.0438 46.2758 2.19955C46.2086 2.27709 46.1351 2.3619 46.0553 2.45398C45.98 2.54573 45.9301 2.61065 45.9056 2.64875C45.8875 2.65009 45.8503 2.60974 45.794 2.5277C45.7377 2.44567 45.7082 2.3866 45.7055 2.35051C45.769 2.22334 45.8893 2.0625 46.0663 1.86797C46.243 1.66894 46.4349 1.48921 46.6418 1.32877C46.8488 1.16833 47.0294 1.08242 47.1836 1.07104Z" fill="#E8B500"/>
<path d="M58.4374 3.16189L61.5351 2.99902C61.5897 2.99902 61.617 3.05331 61.617 3.16189C61.617 3.22522 61.5988 3.31118 61.5624 3.41975C61.5305 3.52833 61.4896 3.62559 61.4396 3.71155C61.3941 3.7975 61.3486 3.84501 61.3031 3.85405L58.2191 4.00334C58.1736 4.00334 58.1509 3.93548 58.1509 3.79977C58.1509 3.70929 58.1827 3.58262 58.2464 3.41975C58.3101 3.25689 58.3738 3.17093 58.4374 3.16189Z" fill="#E8B500"/>
<path d="M72.5747 0.491953C72.8185 0.521919 73.0327 0.62347 73.2174 0.796606C73.4072 0.965807 73.5379 1.18699 73.6093 1.46017C73.6814 1.72885 73.6623 2.02964 73.5522 2.36254C73.4218 2.74765 73.2245 3.063 72.9603 3.30858C72.696 3.55415 72.353 3.78777 71.9313 4.00944C72.1029 4.10347 72.2625 4.22109 72.4099 4.36229C72.5574 4.50349 72.6939 4.67754 72.8194 4.88442C72.945 5.09131 73.0223 5.33557 73.0515 5.61722C73.0806 5.89887 73.0441 6.19295 72.9418 6.49947C72.7632 7.05186 72.4781 7.52052 72.0865 7.90543C71.6949 8.29034 71.2406 8.57181 70.7235 8.74983C70.2063 8.92786 69.6679 8.98247 69.1081 8.91365C68.3949 8.82597 67.8925 8.62746 67.6009 8.31812C67.5772 8.28785 67.5664 8.22726 67.5685 8.13636C67.5706 8.04545 67.5795 7.97361 67.5953 7.92085C67.7425 7.51046 67.9674 7.32385 68.2698 7.36103C68.3917 7.37602 68.4906 7.46566 68.5664 7.62997C68.6473 7.79034 68.731 7.92827 68.8175 8.04374C69.0062 8.25839 69.2924 8.3893 69.6762 8.43647C70.0102 8.47754 70.3681 8.3825 70.7497 8.15135C70.9431 8.03381 71.1284 7.85147 71.3058 7.60433C71.4832 7.35719 71.6303 7.05847 71.7472 6.70816C71.8635 6.36235 71.8918 6.04218 71.8322 5.74767C71.7776 5.44922 71.6571 5.20193 71.4706 5.00579C71.2842 4.80965 71.0487 4.6941 70.7643 4.65914C70.4664 4.62251 70.1826 4.61954 69.9129 4.65021C69.8694 4.55824 69.8749 4.4404 69.9294 4.29667C69.9418 4.27084 69.9539 4.24726 69.9657 4.22592C69.9775 4.20458 69.989 4.18549 70.0003 4.16864C70.6186 4.13525 71.151 3.98189 71.5974 3.70857C72.0439 3.43525 72.3559 3.02688 72.5334 2.48346C72.6346 2.18592 72.6119 1.90735 72.4654 1.64775C72.3189 1.38815 72.1012 1.24059 71.8123 1.20507C71.6317 1.18287 71.4515 1.19491 71.2716 1.24116C71.0917 1.28742 70.9521 1.34092 70.8529 1.40166C70.7638 1.45453 70.6711 1.51834 70.5747 1.59311C70.4784 1.66787 70.411 1.71201 70.3727 1.72553C70.3365 1.72109 70.317 1.67539 70.3141 1.58841C70.3111 1.50144 70.3181 1.42708 70.3349 1.36534C70.6775 1.04278 71.0236 0.802701 71.3732 0.645106C71.7227 0.48751 72.1233 0.436459 72.5747 0.491953Z" fill="#E8B500"/>
<path d="M78.5795 6.8639C78.0194 6.74297 77.6046 6.46823 77.3351 6.03969C77.0656 5.61115 76.9906 5.12278 77.1103 4.57457C77.1942 4.18995 77.358 3.83413 77.6016 3.50712C77.8462 3.17569 78.1403 2.89432 78.4841 2.663C78.8278 2.43168 79.1919 2.26725 79.5762 2.16969C79.9606 2.07214 80.335 2.06271 80.6995 2.14141C81.304 2.27194 81.7404 2.56522 82.0085 3.02125C82.2767 3.47728 82.3317 4.06781 82.1734 4.79285C82.0885 5.1819 81.9604 5.56625 81.7891 5.9459C81.6177 6.32555 81.36 6.7282 81.0157 7.15384C80.6769 7.57601 80.2739 7.96121 79.8069 8.30942C79.3454 8.65417 78.7566 8.97378 78.0407 9.26825C77.3248 9.56271 76.532 9.78272 75.6624 9.92827C75.5402 9.86949 75.4849 9.76033 75.4965 9.6008C76.4469 9.4264 77.297 9.13545 78.0469 8.72796C78.7968 8.32047 79.4486 7.72282 80.0022 6.93501C80.5402 6.17622 80.9091 5.33926 81.1089 4.42412C81.2073 3.97318 81.2049 3.57916 81.1016 3.24206C80.9983 2.90496 80.7644 2.69706 80.3999 2.61836C80.1421 2.56269 79.8611 2.61312 79.557 2.76966C79.2573 2.92716 78.9829 3.17115 78.7339 3.50162C78.4893 3.83305 78.3169 4.22865 78.2165 4.68844C78.0119 5.62568 78.3319 6.18549 79.1765 6.36785C79.3676 6.40912 79.5007 6.42859 79.5757 6.42626C79.6087 6.42414 79.6534 6.4222 79.7096 6.42046C79.7658 6.41871 79.8048 6.41092 79.8264 6.39707C79.8701 6.4528 79.8833 6.52045 79.8659 6.60003C79.8447 6.69729 79.7542 6.77036 79.5946 6.81922C79.4395 6.86904 79.2659 6.89639 79.074 6.90125C78.8821 6.9061 78.7173 6.89366 78.5795 6.8639Z" fill="#E8B500"/>
<path d="M85.7469 9.53421C85.2012 9.35986 84.8151 9.04642 84.5887 8.59392C84.3622 8.14141 84.3352 7.64812 84.5077 7.11403C84.6288 6.73931 84.8264 6.40096 85.1008 6.09897C85.3765 5.79268 85.6967 5.54099 86.0613 5.3439C86.426 5.1468 86.8043 5.01823 87.1964 4.95819C87.5884 4.89815 87.962 4.92486 88.3171 5.03833C88.9061 5.22653 89.3118 5.56049 89.5343 6.04022C89.7568 6.51996 89.7539 7.11301 89.5257 7.81938C89.4033 8.19841 89.2383 8.5686 89.0308 8.92995C88.8233 9.2913 88.5275 9.66719 88.1434 10.0576C87.765 10.4452 87.3264 10.7897 86.8277 11.0913C86.3347 11.3899 85.7175 11.6512 84.9763 11.8753C84.235 12.0994 83.4246 12.2419 82.5449 12.3029C82.429 12.2327 82.3846 12.1187 82.4117 11.961C83.3746 11.8791 84.2491 11.6714 85.0351 11.3382C85.8212 11.0049 86.5282 10.4729 87.156 9.74214C87.7654 9.03879 88.2141 8.24133 88.5021 7.34975C88.644 6.91043 88.68 6.51803 88.6101 6.17256C88.5401 5.82709 88.3276 5.59762 87.9725 5.48415C87.7213 5.40389 87.4367 5.427 87.1188 5.55348C86.8051 5.68135 86.5083 5.89774 86.2282 6.20265C85.9525 6.50894 85.7423 6.88606 85.5976 7.334C85.3027 8.24711 85.5666 8.83513 86.3894 9.09805C86.5756 9.15755 86.7062 9.18976 86.781 9.19467C86.8141 9.19574 86.8587 9.19812 86.9149 9.2018C86.971 9.20549 87.0105 9.20148 87.0334 9.18979C87.0715 9.24947 87.078 9.31807 87.0529 9.3956C87.0223 9.49035 86.9252 9.55436 86.7616 9.5876C86.6023 9.62223 86.4269 9.63272 86.2354 9.61905C86.044 9.60539 85.8811 9.57711 85.7469 9.53421Z" fill="#E8B500"/>
<path d="M93.0812 12.3633C92.5579 12.1309 92.2084 11.7775 92.0328 11.3032C91.8572 10.8288 91.8844 10.3355 92.1144 9.82331C92.2757 9.46392 92.5092 9.14898 92.815 8.87849C93.1226 8.60387 93.4684 8.38834 93.8525 8.23189C94.2365 8.07545 94.6267 7.98861 95.023 7.97137C95.4193 7.95413 95.7877 8.02113 96.1283 8.17237C96.6932 8.42322 97.0599 8.79912 97.2286 9.30009C97.3972 9.80105 97.3295 10.3903 97.0253 11.0677C96.8621 11.4313 96.6576 11.7814 96.4118 12.1181C96.166 12.4549 95.8308 12.7965 95.4062 13.143C94.9877 13.4873 94.514 13.7823 93.9852 14.0281C93.4625 14.2716 92.8204 14.4645 92.059 14.607C91.2977 14.7495 90.4764 14.8034 89.5953 14.7689C89.4878 14.6865 89.4561 14.5684 89.5003 14.4146C90.4664 14.4373 91.3584 14.3256 92.1763 14.0794C92.9942 13.8332 93.7552 13.3809 94.4592 12.7225C95.142 12.0893 95.6753 11.3452 96.0592 10.4901C96.2484 10.0687 96.3271 9.68256 96.2954 9.33157C96.2636 8.98058 96.0775 8.72947 95.7369 8.57822C95.496 8.47125 95.2106 8.46341 94.8807 8.55472C94.5549 8.64787 94.2362 8.83084 93.9244 9.10361C93.6168 9.37824 93.3666 9.73035 93.1737 10.16C92.7806 11.0357 92.9786 11.6488 93.7677 11.9993C93.9463 12.0786 94.0726 12.1247 94.1464 12.1377C94.1792 12.1424 94.2233 12.1495 94.2787 12.1593C94.3341 12.169 94.3738 12.1693 94.3979 12.1602C94.4292 12.2236 94.4281 12.2925 94.3947 12.3669C94.3539 12.4578 94.2504 12.5109 94.0841 12.5262C93.922 12.5434 93.7465 12.5348 93.5576 12.5005C93.3688 12.4662 93.21 12.4204 93.0812 12.3633Z" fill="#E8B500"/>
<path d="M103.612 16.9235C103.821 17.0973 103.846 17.4179 103.685 17.8854C103.522 18.3627 103.226 18.9034 102.797 19.5076C102.511 19.9189 102.265 20.2624 102.058 20.5381C101.854 20.8168 101.667 21.0618 101.495 21.2732C101.328 21.4876 101.152 21.7042 100.969 21.9232C101.337 21.8513 101.746 21.7372 102.197 21.5807C102.648 21.4243 103.076 21.2346 103.482 21.0115C103.888 20.7885 104.207 20.5379 104.44 20.2599C104.781 19.8532 105.005 19.4089 105.113 18.927C105.454 18.7033 105.754 18.6987 106.012 18.913C106.32 19.1678 106.244 19.5698 105.784 20.119C105.14 20.8871 104.104 21.5157 102.676 22.0047C101.963 22.2492 101.251 22.4372 100.543 22.5688C99.8357 22.7067 99.1697 22.7879 98.5454 22.8123C97.921 22.8367 97.3756 22.8057 96.9091 22.7195C96.4426 22.6332 96.0923 22.4931 95.8581 22.2991C95.6764 22.1485 95.5611 21.9823 95.5121 21.8004C95.4632 21.6185 95.4882 21.4685 95.5872 21.3503C95.7736 21.1279 95.9821 21.0415 96.2127 21.0913C96.2908 21.3091 96.487 21.5483 96.8016 21.8089C97.3852 22.2925 98.1475 22.4002 99.0887 22.1319C99.4445 22.0323 99.915 21.6331 100.5 20.9345C100.786 20.5939 101.061 20.2477 101.326 19.8961C101.591 19.5445 101.849 19.1726 102.1 18.7804C102.245 18.5586 102.368 18.337 102.471 18.1157C102.577 17.8973 102.645 17.7033 102.674 17.5336C102.704 17.3639 102.675 17.2428 102.588 17.1704C102.525 17.1183 102.381 17.0992 102.156 17.1131C101.931 17.127 101.746 17.1502 101.601 17.1827C101.587 17.1711 101.588 17.1164 101.605 17.0185C101.622 16.9206 101.642 16.8577 101.665 16.8299C101.73 16.7952 101.848 16.7668 102.021 16.7447C102.197 16.7256 102.391 16.716 102.604 16.716C102.817 16.716 103.016 16.7333 103.2 16.7681C103.387 16.7993 103.524 16.8512 103.612 16.9235Z" fill="#E8B500"/>
<path d="M110.784 24.2057C111.049 24.5273 111.159 24.8272 111.112 25.1055C111.065 25.3838 110.944 25.6034 110.747 25.7642C110.438 26.017 110.002 26.1096 109.44 26.042C109.066 25.9961 108.708 25.9114 108.364 25.7879C108.024 25.6617 107.725 25.5168 107.467 25.3535C107.208 25.1901 107.015 25.0315 106.888 24.8777C106.865 24.8498 106.73 24.9363 106.484 25.1374C106.168 25.3959 105.978 25.6538 105.914 25.9111C105.85 26.1685 105.904 26.402 106.078 26.6117C106.15 26.6991 106.261 26.7838 106.411 26.8659C106.562 26.9481 106.692 26.9993 106.803 27.0198C106.921 27.0409 106.984 27.0535 106.994 27.0576C107.003 27.0617 107.025 27.0671 107.06 27.0737C107.098 27.0774 107.213 27.0886 107.406 27.1073L107.463 27.1129C107.475 27.1269 107.463 27.1804 107.428 27.2734C107.393 27.3664 107.361 27.4244 107.333 27.4474C107.169 27.4764 106.941 27.4752 106.65 27.4436C106.366 27.4127 106.081 27.3465 105.797 27.2449C105.517 27.1405 105.297 26.9921 105.138 26.7999C104.838 26.4364 104.75 26.0422 104.876 25.6173C105.002 25.1924 105.314 24.7761 105.813 24.3682C106.151 24.0925 106.555 23.8794 107.025 23.7292C107.499 23.576 107.983 23.4912 108.475 23.4749C108.968 23.4586 109.42 23.5106 109.832 23.631C110.247 23.7485 110.564 23.9401 110.784 24.2057ZM110.265 24.4542C110.129 24.2899 109.926 24.1834 109.656 24.1346C109.386 24.0858 109.097 24.0769 108.786 24.1078C108.476 24.1387 108.186 24.1973 107.916 24.2835C107.652 24.3703 107.455 24.4669 107.325 24.5731C107.297 24.5961 107.295 24.6216 107.318 24.6495C107.422 24.7754 107.593 24.8901 107.832 24.9936C108.074 25.0943 108.341 25.1686 108.634 25.2163C108.926 25.2641 109.21 25.2724 109.485 25.2412C109.763 25.2072 109.989 25.1184 110.165 24.9748C110.376 24.8025 110.409 24.6289 110.265 24.4542Z" fill="#E8B500"/>
<path d="M114.229 29.7199C114.291 29.8507 114.28 29.981 114.196 30.1108C114.112 30.2406 113.975 30.35 113.786 30.4392C113.606 30.5244 113.376 30.6026 113.098 30.6737L111.858 30.9878C112.035 30.9996 112.374 31.0573 112.877 31.1608C113.207 31.2305 113.557 31.3258 113.927 31.4468C114.303 31.57 114.635 31.7085 114.925 31.8623C115.217 32.0202 115.402 32.1808 115.48 32.3444C115.675 32.7532 115.501 33.0854 114.958 33.3412C114.576 33.5215 114.101 33.6754 113.532 33.8032L111.44 34.2938C111.33 34.3157 111.221 34.3519 111.115 34.4023C110.909 34.4992 110.826 34.5885 110.865 34.6703C110.913 34.7725 111.044 34.8612 111.256 34.9365C111.472 35.0098 111.656 35.0733 111.807 35.1271L111.929 35.16C111.937 35.1763 111.912 35.2254 111.855 35.3072C111.799 35.3889 111.754 35.4376 111.721 35.4531C111.569 35.4398 111.356 35.3848 111.084 35.288C110.813 35.1953 110.555 35.0766 110.31 34.9319C110.069 34.7852 109.907 34.626 109.826 34.4543C109.763 34.3235 109.774 34.1932 109.858 34.0634C109.942 33.9336 110.079 33.8242 110.268 33.735C110.391 33.6769 110.623 33.6028 110.962 33.5128L113.202 32.9828C113.508 32.9083 113.744 32.8322 113.908 32.7547C114.262 32.5881 114.402 32.4271 114.328 32.2717C114.263 32.1368 114.074 32.0034 113.759 31.8713C113.449 31.7374 113.065 31.6251 112.61 31.5347C112.156 31.4483 111.673 31.4028 111.163 31.3982C110.656 31.3917 110.174 31.4464 109.716 31.5623L108.655 31.8072C108.569 31.7124 108.492 31.5934 108.424 31.4503C108.358 31.3113 108.308 31.1646 108.275 31.0101L112.417 29.9431C112.72 29.8503 112.895 29.7932 112.94 29.7719C113.145 29.675 113.229 29.5857 113.19 29.5039C113.156 29.4344 113.041 29.3612 112.843 29.2842C112.746 29.2498 112.64 29.2122 112.525 29.1713C112.412 29.1346 112.333 29.1117 112.289 29.1027C112.281 29.0863 112.305 29.0372 112.362 28.9555C112.419 28.8737 112.463 28.825 112.496 28.8095C112.638 28.8226 112.833 28.8762 113.079 28.9704C113.329 29.0627 113.567 29.1759 113.792 29.3101C114.017 29.4443 114.163 29.5809 114.229 29.7199Z" fill="#E8B500"/>
</svg>
