<svg width="90" height="31" viewBox="0 0 90 31" fill="none" xmlns="http://www.w3.org/2000/svg">
<path d="M1.73786 22.9905C2.04857 22.5518 2.442 22.3195 2.91816 22.2937C3.39433 22.2679 3.90022 22.4444 4.43584 22.8234C4.81897 23.0945 5.14756 23.4386 5.42164 23.8558C5.692 24.2703 5.89596 24.7077 6.03354 25.1678C6.17112 25.6279 6.2302 26.0687 6.2108 26.4903C6.1914 26.9119 6.08164 27.264 5.88152 27.5465C5.56555 27.9927 5.17955 28.2302 4.72354 28.2592C4.26752 28.2881 3.7717 28.1131 3.23607 27.7341C2.84923 27.4604 2.51746 27.1168 2.24075 26.7033C1.96295 26.2835 1.7534 25.8423 1.61211 25.3795C1.46709 24.9141 1.40111 24.4712 1.41416 24.0507C1.42984 23.6265 1.53774 23.2731 1.73786 22.9905ZM2.10058 23.4481C1.96892 23.634 1.92305 23.8722 1.96296 24.1628C1.99914 24.4507 2.09739 24.7574 2.25771 25.0829C2.41802 25.4084 2.62358 25.7213 2.87438 26.0215C3.12518 26.3218 3.39751 26.5758 3.69136 26.7838C4.12283 27.0891 4.50631 27.2571 4.84179 27.288C5.17728 27.3189 5.41874 27.2302 5.5662 27.022C5.69785 26.8361 5.74295 26.603 5.7015 26.3225C5.65896 26.0357 5.5549 25.7332 5.38932 25.4151C5.22002 25.0944 5.00733 24.7877 4.75127 24.4949C4.49784 24.1983 4.22233 23.9448 3.92476 23.7343C3.48585 23.4237 3.10895 23.2463 2.79408 23.2021C2.4792 23.1579 2.24803 23.2399 2.10058 23.4481Z" fill="#E8B500"/>
<path d="M6.35645 17.7436C6.4612 17.6422 6.58902 17.6104 6.73989 17.6482C6.89076 17.6861 7.03912 17.7803 7.18496 17.9308C7.31495 18.0649 7.46335 18.2574 7.63015 18.5081L8.79081 20.2952C9.03329 20.6502 9.20685 20.8817 9.31147 20.9897C9.48903 21.1729 9.64531 21.2753 9.78033 21.2968C9.91535 21.3182 10.0581 21.2561 10.2087 21.1103C10.3299 20.9931 10.4102 20.8075 10.4497 20.5537C10.4892 20.2998 10.4938 20.0099 10.4636 19.6841C10.4334 19.3583 10.3742 19.0287 10.2861 18.6955C10.198 18.3559 10.0886 18.0432 9.95782 17.7577C9.82703 17.4721 9.68078 17.2459 9.51908 17.079C9.38909 16.9448 9.19895 16.8436 8.94866 16.7751C8.69836 16.7067 8.53676 16.6348 8.46384 16.5596C8.3497 16.4418 8.28911 16.3007 8.28207 16.1363C8.27503 15.9719 8.32716 15.8358 8.43847 15.7281C8.56614 15.6045 8.69626 15.5292 8.82883 15.5024C9.08536 15.5838 9.31508 15.7292 9.51799 15.9386C10.0443 16.4818 10.4309 17.1983 10.6777 18.0881C10.8423 18.677 10.9364 19.2423 10.9599 19.7838C10.9868 20.3222 10.9518 20.7936 10.8551 21.198C10.7617 21.5992 10.6184 21.8932 10.4253 22.0802C10.2027 22.2957 9.9482 22.3867 9.6619 22.3531C9.3756 22.3195 9.1088 22.1751 8.8615 21.9199C8.69029 21.7432 8.56388 21.5866 8.48227 21.45L7.14213 19.3991C7.04825 19.2236 6.94107 19.0737 6.82059 18.9494C6.66206 18.7858 6.55006 18.7357 6.48459 18.799C6.44531 18.8371 6.41829 18.9139 6.40355 19.0297C6.38881 19.1454 6.3804 19.2677 6.37834 19.3965C6.37638 19.5189 6.37811 19.6123 6.38352 19.6769L6.39149 19.7833C6.3784 19.796 6.32372 19.7887 6.22747 19.7613C6.13122 19.734 6.07042 19.7073 6.04505 19.6811C6.01182 19.5421 6.00055 19.3405 6.01122 19.0766C6.01872 18.8093 6.0503 18.5473 6.10598 18.2904C6.16166 18.0336 6.24514 17.8513 6.35645 17.7436Z" fill="#E8B500"/>
<path d="M13.7585 11.7789C14.1025 11.5392 14.4123 11.4538 14.6881 11.5227C14.9639 11.5915 15.1747 11.7306 15.3206 11.9398C15.55 12.2687 15.6085 12.711 15.4961 13.2668C15.4203 13.6361 15.3069 13.9872 15.1558 14.3202C15.002 14.6494 14.8329 14.9366 14.6483 15.1818C14.4638 15.4269 14.2893 15.6068 14.1248 15.7214C14.0949 15.7423 14.1711 15.8835 14.3535 16.1451C14.5881 16.4814 14.832 16.6918 15.0853 16.7763C15.3387 16.8607 15.5775 16.8248 15.8018 16.6685C15.8953 16.6034 15.9892 16.4991 16.0836 16.3556C16.178 16.2121 16.2398 16.0858 16.2691 15.9765C16.2996 15.8608 16.3173 15.7986 16.3222 15.7896C16.327 15.7807 16.3342 15.759 16.3436 15.7247C16.3504 15.6867 16.3708 15.5725 16.4047 15.3823L16.4149 15.3252C16.4299 15.3148 16.4827 15.3307 16.5733 15.3731C16.664 15.4154 16.7197 15.4516 16.7405 15.4815C16.7566 15.6479 16.7373 15.8752 16.6826 16.1631C16.6291 16.4448 16.54 16.7234 16.4155 16.9989C16.2884 17.2707 16.122 17.4782 15.9164 17.6215C15.5276 17.8924 15.1248 17.9481 14.7081 17.7887C14.2914 17.6292 13.898 17.2842 13.528 16.7536C13.2778 16.3948 13.0959 15.9746 12.9822 15.493C12.8659 15.0077 12.8191 14.5183 12.8418 14.0251C12.8644 13.5318 12.9525 13.0845 13.106 12.6833C13.2569 12.2783 13.4744 11.9768 13.7585 11.7789ZM13.9669 12.3167C13.7912 12.4391 13.6681 12.6331 13.5978 12.8986C13.5274 13.1642 13.4955 13.453 13.502 13.765C13.5085 14.0769 13.5443 14.3713 13.6094 14.6479C13.6757 14.9182 13.7571 15.1225 13.8535 15.2608C13.8744 15.2907 13.8997 15.2952 13.9296 15.2744C14.0642 15.1806 14.193 15.0187 14.3159 14.7887C14.4362 14.555 14.5319 14.2939 14.6031 14.0056C14.6742 13.7173 14.705 13.4349 14.6955 13.1583C14.6833 12.878 14.6121 12.6445 14.4818 12.4576C14.3255 12.2334 14.1538 12.1864 13.9669 12.3167Z" fill="#E8B500"/>
<path d="M18.8328 8.86611C18.9632 8.80079 19.0947 8.80881 19.2272 8.89017C19.3598 8.97152 19.473 9.10586 19.567 9.29318C19.6568 9.47236 19.7406 9.70043 19.8183 9.97741L20.1374 11.1016C20.1187 10.8103 20.1225 10.4925 20.1487 10.1482C20.1768 9.79778 20.2234 9.45856 20.2883 9.13051C20.3532 8.80247 20.4385 8.52024 20.5442 8.28383C20.65 8.04742 20.7721 7.89452 20.9106 7.82512C21.1877 7.68632 21.4771 7.70436 21.7789 7.87926C22.0526 8.42494 22.0386 8.7733 21.7372 8.92435C21.672 8.957 21.569 8.94488 21.4283 8.88798C21.2877 8.83108 21.1684 8.82713 21.0707 8.87612C20.9525 8.93531 20.8467 9.11061 20.7532 9.40201C20.6598 9.69341 20.5908 10.049 20.5464 10.4687C20.4999 10.8843 20.4871 11.3162 20.5079 11.7643C20.5267 12.2084 20.5893 12.6127 20.6956 12.9772L21.1067 14.3763C20.9804 14.4702 20.8521 14.5497 20.7217 14.6151C20.5669 14.6926 20.41 14.7559 20.2511 14.805L19.0975 10.6748C18.9974 10.3734 18.9361 10.2003 18.9136 10.1555C18.8115 9.95192 18.7197 9.87053 18.6382 9.91135C18.5689 9.94605 18.4977 10.0633 18.4246 10.263C18.392 10.3608 18.3565 10.4678 18.3179 10.5839C18.2833 10.698 18.262 10.7775 18.2539 10.8223C18.2376 10.8305 18.1877 10.8071 18.104 10.7522C18.0204 10.6973 17.9705 10.6535 17.9541 10.6209C17.9642 10.4783 18.0139 10.2827 18.1033 10.0341C18.1907 9.78142 18.2995 9.54093 18.4297 9.31264C18.5599 9.08435 18.6943 8.93551 18.8328 8.86611Z" fill="#E8B500"/>
<path d="M33.4095 4.77579C33.7927 4.69361 34.1478 4.70833 34.4747 4.81992C34.8051 4.9261 35.0843 5.10849 35.3122 5.36709C35.5446 5.62474 35.7005 5.93839 35.7799 6.30806C35.886 6.80243 35.8446 7.32611 35.6556 7.87909C35.4657 8.42762 35.1666 8.90173 34.7584 9.30141C34.3501 9.7011 33.9098 9.95158 33.4375 10.0529C32.8314 10.1828 32.3113 10.094 31.8771 9.78646C31.4429 9.47892 31.1474 8.95993 30.9906 8.2295C30.9084 7.84648 30.875 7.44132 30.8905 7.01405C30.906 6.58678 30.9901 6.10986 31.1428 5.58329C31.2945 5.05227 31.5178 4.52919 31.8127 4.01404C32.1067 3.49444 32.5188 2.94952 33.0489 2.37928C33.5791 1.80904 34.199 1.26613 34.9087 0.750572C34.98 0.735285 35.0395 0.838986 35.0873 1.06168C34.3012 1.61225 33.6551 2.22833 33.1488 2.90992C32.6426 3.59151 32.296 4.4089 32.1091 5.36211C31.9148 6.36814 31.908 7.29203 32.0887 8.1338C32.1843 8.57919 32.3542 8.93642 32.5984 9.20552C32.8426 9.47461 33.1474 9.56999 33.5128 9.49164C33.7801 9.43431 34.0245 9.27009 34.246 8.99898C34.471 8.72245 34.6329 8.38025 34.7318 7.97236C34.8342 7.55907 34.8357 7.12082 34.7363 6.65763C34.6407 6.21224 34.4585 5.87394 34.1898 5.64271C33.9211 5.41148 33.5684 5.34268 33.1318 5.43632C33.0828 5.44683 33.0086 5.48137 32.9093 5.53993C32.8091 5.59404 32.7137 5.64942 32.6234 5.70607C32.5365 5.75731 32.4841 5.78484 32.4663 5.78866C32.4052 5.7645 32.3651 5.70788 32.3459 5.6188C32.324 5.51636 32.3769 5.40484 32.5048 5.28423C32.6328 5.16363 32.7846 5.05654 32.9603 4.96296C33.135 4.86493 33.2847 4.80254 33.4095 4.77579Z" fill="#E8B500"/>
<path d="M38.0323 11.1345C38.0297 11.1073 38.1261 10.9906 38.3214 10.7842C38.5168 10.5778 38.7094 10.3191 38.8992 10.008C39.0891 9.69686 39.1709 9.40528 39.1448 9.13323C39.13 8.97906 39.0826 8.79599 39.0027 8.584C38.9229 8.37202 38.8803 8.23882 38.8751 8.18441C38.8533 7.9577 38.9475 7.7473 39.1578 7.55322C39.368 7.35914 39.6047 7.24947 39.8678 7.22421C39.9314 7.21811 40.0329 7.22667 40.1725 7.24988C40.2054 7.30621 40.229 7.40919 40.2434 7.55882C40.2617 7.74926 40.241 8.05785 40.1813 8.48459C40.1374 8.79082 40.0458 9.09936 39.9062 9.4102C39.7667 9.72104 39.6072 9.99033 39.4276 10.2181C39.0434 10.6988 38.7238 11.0407 38.4686 11.2437L38.3034 11.3831C38.2671 11.3866 38.2144 11.3619 38.1452 11.309C38.0761 11.2562 38.0384 11.198 38.0323 11.1345Z" fill="#E8B500"/>
<path d="M44.1436 4.4024C44.3217 3.60004 44.5869 2.87488 44.9392 2.2269C45.2962 1.57448 45.7323 1.05146 46.2474 0.65785C46.7625 0.264238 47.3025 0.0739614 47.8674 0.0870193C48.2957 0.0969181 48.662 0.22385 48.9663 0.467816C49.2707 0.711781 49.4911 1.03582 49.6276 1.43994C49.7642 1.84405 49.8422 2.31289 49.8618 2.84643C49.8813 3.37998 49.8205 3.94129 49.6792 4.53035C49.4968 5.3235 49.227 6.04856 48.8699 6.70554C48.5129 7.35796 48.0769 7.88098 47.5618 8.27459C47.0467 8.6682 46.5112 8.85858 45.9554 8.84574C45.3904 8.83268 44.9373 8.61717 44.5959 8.19921C44.2546 7.78124 44.0527 7.24576 43.9903 6.59276C43.928 5.93975 43.979 5.20964 44.1436 4.4024ZM45.2647 4.41465C45.012 5.48411 44.9566 6.40094 45.0985 7.16513C45.2404 7.92933 45.5437 8.31679 46.0084 8.32754C46.3683 8.33585 46.7117 8.17065 47.0387 7.83192C47.3702 7.4933 47.6681 7.0286 47.9325 6.43783C48.2014 5.84716 48.4198 5.17559 48.5877 4.42311C48.8267 3.35333 48.8748 2.45228 48.7322 1.71996C48.5942 0.987753 48.2928 0.616278 47.8281 0.605536C47.4773 0.597428 47.1339 0.758078 46.7981 1.08749C46.4668 1.417 46.1669 1.87026 45.8983 2.44727C45.6342 3.02438 45.423 3.68017 45.2647 4.41465Z" fill="#E8B500"/>
<path d="M51.9426 4.85996C52.23 4.08991 52.5929 3.40834 53.0315 2.81526C53.4752 2.21842 53.9794 1.76066 54.544 1.44199C55.1086 1.12332 55.6697 1.00947 56.2275 1.10046C56.6503 1.16943 56.9955 1.34575 57.2632 1.62941C57.5309 1.91308 57.7044 2.26447 57.7837 2.68356C57.863 3.10266 57.8755 3.57778 57.8211 4.10891C57.7667 4.64004 57.6288 5.18755 57.4074 5.75144C57.117 6.51177 56.7496 7.1926 56.3051 7.79394C55.8613 8.39079 55.3571 8.84854 54.7925 9.16721C54.228 9.48588 53.6713 9.60046 53.1226 9.51095C52.5648 9.41996 52.1459 9.14392 51.8656 8.68281C51.5853 8.2217 51.4595 7.66347 51.488 7.00812C51.5165 6.35276 51.668 5.63671 51.9426 4.85996ZM53.0513 5.02697C52.6531 6.05126 52.4715 6.95164 52.5063 7.7281C52.5412 8.50455 52.788 8.9302 53.2467 9.00504C53.6021 9.06301 53.965 8.94684 54.3357 8.65653C54.7108 8.36695 55.0701 7.94787 55.4137 7.39929C55.7617 6.85145 56.0709 6.21649 56.3412 5.49442C56.7258 4.46793 56.8981 3.58219 56.8582 2.8372C56.8227 2.09295 56.5756 1.6834 56.1168 1.60856C55.7705 1.55206 55.4082 1.66374 55.0301 1.94359C54.6564 2.22418 54.2966 2.63165 53.9508 3.166C53.6095 3.7011 53.3096 4.32142 53.0513 5.02697Z" fill="#E8B500"/>
<path d="M60.1506 6.53895C60.549 5.82002 61.0091 5.19981 61.5308 4.67831C62.0583 4.15387 62.6248 3.77593 63.2304 3.5445C63.8361 3.31306 64.4079 3.28368 64.946 3.45635C65.3539 3.58725 65.6691 3.8128 65.8917 4.13302C66.1143 4.45324 66.2338 4.82646 66.25 5.25269C66.2663 5.67891 66.2081 6.15062 66.0755 6.6678C65.9428 7.18499 65.7252 7.706 65.4226 8.23083C65.0226 8.93969 64.5582 9.55851 64.0294 10.0873C63.5019 10.6117 62.9354 10.9897 62.3297 11.2211C61.7241 11.4525 61.1566 11.4833 60.6272 11.3134C60.0892 11.1408 59.7158 10.8056 59.5071 10.3081C59.2983 9.81052 59.2567 9.2398 59.3822 8.59593C59.5076 7.95205 59.7638 7.26639 60.1506 6.53895ZM61.2222 6.86849C60.6764 7.82242 60.3632 8.6859 60.2824 9.45893C60.2016 10.232 60.3825 10.6895 60.8251 10.8315C61.1679 10.9415 61.5441 10.8805 61.9537 10.6483C62.3677 10.4176 62.7852 10.0564 63.2064 9.56484C63.6319 9.07466 64.0319 8.49257 64.4063 7.81857C64.939 6.86046 65.2409 6.01007 65.3119 5.2674C65.3873 4.52612 65.2037 4.08446 64.7611 3.94243C64.427 3.8352 64.0522 3.89193 63.6367 4.11262C63.2255 4.3347 62.8093 4.68432 62.388 5.16149C61.971 5.64005 61.5824 6.20905 61.2222 6.86849Z" fill="#E8B500"/>
<path d="M75.7478 11.9946C75.9743 12.1477 76.0309 12.4665 75.9176 12.9508C75.803 13.4453 75.5621 14.0166 75.1949 14.6648C74.9518 15.1053 74.7407 15.4741 74.5617 15.771C74.3865 16.0705 74.2242 16.3347 74.0747 16.5636C73.9291 16.7951 73.7758 17.0297 73.6149 17.2674C73.9746 17.1586 74.3713 17.0034 74.805 16.8017C75.2386 16.6 75.6466 16.3671 76.0288 16.1032C76.4111 15.8392 76.7044 15.5563 76.9087 15.2544C77.2075 14.813 77.3863 14.3455 77.4453 13.8519C77.7631 13.5938 78.0616 13.5592 78.3409 13.7481C78.6731 13.9727 78.6374 14.3831 78.234 14.9792C77.6696 15.813 76.7002 16.5461 75.3257 17.1786C74.6384 17.4948 73.9484 17.7542 73.2557 17.9566C72.5641 18.1655 71.9083 18.3132 71.2884 18.4C70.6684 18.4867 70.1216 18.5102 69.6479 18.4703C69.1741 18.4304 68.8108 18.325 68.5579 18.154C68.3617 18.0213 68.23 17.8662 68.1629 17.6889C68.0959 17.5116 68.1058 17.3588 68.1926 17.2305C68.356 16.989 68.5552 16.8817 68.7901 16.9086C68.8898 17.119 69.1095 17.3391 69.4492 17.5688C70.0796 17.995 70.8504 18.0268 71.7617 17.6641C72.1064 17.5287 72.5354 17.0819 73.0487 16.3236C73.299 15.9538 73.5385 15.5796 73.7674 15.2009C73.9962 14.8221 74.2163 14.4238 74.4277 14.0058C74.5494 13.7691 74.6503 13.5348 74.7302 13.3028C74.8139 13.0735 74.8621 12.8723 74.8746 12.6993C74.8872 12.5263 74.8463 12.4079 74.7519 12.3441C74.684 12.2981 74.5386 12.2933 74.3159 12.3297C74.0932 12.3661 73.9109 12.4078 73.769 12.4549C73.7539 12.4447 73.7499 12.3897 73.7569 12.2899C73.7639 12.1901 73.7776 12.1252 73.798 12.095C73.859 12.0537 73.9743 12.0134 74.1439 11.9742C74.3173 11.9374 74.5103 11.9084 74.7228 11.8871C74.9353 11.8658 75.135 11.8634 75.322 11.8798C75.5115 11.8925 75.6534 11.9307 75.7478 11.9946Z" fill="#E8B500"/>
<path d="M83.6157 18.4717C83.9179 18.7622 84.0622 19.0493 84.0484 19.3331C84.0346 19.6168 83.9393 19.8507 83.7624 20.0346C83.4845 20.3235 83.0619 20.4671 82.4946 20.4654C82.1174 20.4631 81.7507 20.4204 81.3946 20.3372C81.0415 20.2507 80.7267 20.1409 80.4502 20.0078C80.1736 19.8747 79.963 19.7387 79.8185 19.5998C79.7922 19.5746 79.6685 19.6769 79.4474 19.9067C79.1631 20.2022 79.0043 20.4824 78.9708 20.7472C78.9373 21.0121 79.0191 21.2392 79.2163 21.4286C79.2984 21.5075 79.419 21.5793 79.5783 21.6438C79.7375 21.7083 79.8735 21.7443 79.9865 21.7518C80.1059 21.7591 80.1704 21.7643 80.1802 21.7673C80.1899 21.7703 80.2125 21.7731 80.248 21.7756C80.2867 21.7749 80.4027 21.7726 80.596 21.7688L80.654 21.7676C80.6671 21.7803 80.6618 21.8351 80.6379 21.9323C80.614 22.0294 80.5894 22.0911 80.5642 22.1173C80.404 22.1656 80.1772 22.191 79.884 22.1935C79.5972 22.1959 79.3064 22.163 79.0118 22.0947C78.7203 22.0231 78.4842 21.9005 78.3035 21.7268C77.9619 21.3985 77.8286 21.0145 77.9038 20.5749C77.9789 20.1353 78.2408 19.6823 78.6893 19.2161C78.9925 18.9008 79.3693 18.6405 79.8197 18.4352C80.2733 18.2265 80.7443 18.0852 81.2328 18.0112C81.7213 17.9371 82.1773 17.9362 82.601 18.0084C83.0278 18.0774 83.366 18.2318 83.6157 18.4717ZM83.1286 18.7809C82.9742 18.6325 82.7599 18.5498 82.4856 18.5326C82.2113 18.5154 81.9217 18.5405 81.6168 18.6077C81.3119 18.6749 81.0301 18.7674 80.7713 18.8852C80.519 19.0029 80.3345 19.1225 80.2176 19.244C80.1923 19.2703 80.1928 19.2961 80.2191 19.3213C80.3374 19.435 80.5213 19.5296 80.771 19.6053C81.0238 19.6776 81.2986 19.7205 81.5954 19.734C81.8922 19.7475 82.1754 19.7226 82.4449 19.6594C82.7175 19.5928 82.9328 19.4774 83.0907 19.3132C83.2803 19.1162 83.2929 18.9388 83.1286 18.7809Z" fill="#E8B500"/>
<path d="M87.6024 23.1766C87.6871 23.2952 87.6995 23.4263 87.6396 23.5698C87.5797 23.7132 87.4644 23.8458 87.2938 23.9676C87.1306 24.084 86.9181 24.202 86.6564 24.3216L85.4896 24.8518C85.6661 24.8323 86.0112 24.8295 86.5251 24.8434C86.8631 24.8541 87.2252 24.8868 87.6114 24.9415C88.0039 24.9972 88.3567 25.0757 88.6698 25.1769C88.9855 25.2819 89.1963 25.4085 89.3022 25.5568C89.567 25.9276 89.4545 26.2876 88.9649 26.6369C88.6199 26.8831 88.1785 27.1196 87.6408 27.3466L85.6649 28.2022C85.56 28.2435 85.4594 28.2985 85.3629 28.3673C85.1774 28.4996 85.1112 28.6029 85.1641 28.677C85.2303 28.7697 85.3747 28.8346 85.5972 28.8718C85.8234 28.9062 86.0159 28.9368 86.1749 28.9633L86.3004 28.9744C86.311 28.9893 86.2956 29.0422 86.2543 29.1333C86.2129 29.2244 86.1774 29.2805 86.1477 29.3016C85.9952 29.3154 85.7758 29.2983 85.4898 29.2506C85.2064 29.2065 84.9309 29.1344 84.6634 29.0343C84.3996 28.9315 84.2121 28.8022 84.1009 28.6465C84.0162 28.5278 84.0038 28.3968 84.0637 28.2533C84.1236 28.1098 84.2389 27.9772 84.4095 27.8555C84.5208 27.7761 84.7359 27.6618 85.0549 27.5125L87.169 26.5919C87.4583 26.4638 87.6771 26.3469 87.8255 26.241C88.1445 26.0134 88.2537 25.8292 88.1531 25.6883C88.0657 25.5659 87.8551 25.4671 87.5214 25.3918C87.1914 25.3139 86.7935 25.2703 86.3279 25.2612C85.8648 25.2557 85.3812 25.2958 84.8768 25.3814C84.3761 25.4644 83.9101 25.6038 83.4788 25.7995L82.4758 26.2297C82.3747 26.1508 82.2777 26.0464 82.1851 25.9167C82.0951 25.7906 82.0199 25.654 81.9595 25.5067L85.8556 23.7177C86.138 23.5722 86.2996 23.4849 86.3404 23.4557C86.5259 23.3234 86.5921 23.2202 86.5392 23.146C86.4941 23.083 86.3673 23.0308 86.1586 22.9894C86.0569 22.9725 85.9456 22.9539 85.8248 22.9337C85.7067 22.9173 85.6248 22.9085 85.5793 22.9074C85.5687 22.8926 85.5841 22.8397 85.6254 22.7486C85.6668 22.6575 85.7023 22.6014 85.732 22.5802C85.8745 22.5681 86.0755 22.587 86.3351 22.6368C86.5984 22.684 86.8529 22.7543 87.0987 22.8476C87.3445 22.9408 87.5124 23.0505 87.6024 23.1766Z" fill="#E8B500"/>
</svg>
