<svg width="46" height="13" viewBox="0 0 46 13" fill="none" xmlns="http://www.w3.org/2000/svg">
<path d="M4.46875 9.24219L3.98438 9.38281C3.89583 9.15365 3.80729 8.84635 3.71875 8.46094C3.63542 8.07552 3.59375 7.83594 3.59375 7.74219C3.20312 7.74219 2.80729 7.79948 2.40625 7.91406C2.01042 8.02865 1.69271 8.15104 1.45312 8.28125C1.21875 8.41146 1.01562 8.59896 0.84375 8.84375C0.677083 9.08333 0.59375 9.36458 0.59375 9.6875C0.59375 10.0052 0.674479 10.2865 0.835938 10.5312C1.0026 10.776 1.22135 10.9609 1.49219 11.0859C2.01302 11.3307 2.55729 11.4531 3.125 11.4531C3.69792 11.4531 4.1901 11.3932 4.60156 11.2734C5.01302 11.1536 5.35938 10.9948 5.64062 10.7969C5.92708 10.599 6.1875 10.349 6.42188 10.0469C6.65625 9.74479 6.84635 9.4375 6.99219 9.125C7.13802 8.80729 7.28125 8.44531 7.42188 8.03906C7.5625 7.63281 7.67969 7.2526 7.77344 6.89844C8.02865 5.95573 8.28385 5.16667 8.53906 4.53125C8.79948 3.89583 9.18229 3.27083 9.6875 2.65625C10.1927 2.03646 10.7656 1.52865 11.4062 1.13281C11.0938 1.0599 10.6953 1.02344 10.2109 1.02344C9.72656 1.02344 9.17448 1.13021 8.55469 1.34375C7.9401 1.55208 7.36719 1.84635 6.83594 2.22656C6.30469 2.60156 5.82812 3.03125 5.40625 3.51562C4.98958 4 4.66146 4.53646 4.42188 5.125C4.18229 5.70833 4.0625 6.29427 4.0625 6.88281C5.20833 7.11719 6.03646 7.54167 6.54688 8.15625L6.21875 8.5C5.68229 8.15104 5.28125 7.94531 5.01562 7.88281C4.75 7.82031 4.59115 7.78385 4.53906 7.77344C4.29948 7.74219 4.13542 7.72656 4.04688 7.72656C4.10938 8.11198 4.22135 8.53906 4.38281 9.00781L4.46875 9.24219ZM14.5312 0L14.6875 0.367188C14.2083 0.455729 13.763 0.585938 13.3516 0.757812L13.1406 0.84375C13.5156 1.03125 13.8125 1.28646 14.0312 1.60938C14.2552 1.93229 14.3672 2.22917 14.3672 2.5C14.3672 2.76562 14.3438 2.98958 14.2969 3.17188C14.25 3.35417 14.1927 3.51823 14.125 3.66406C14.0573 3.8099 13.9661 3.96354 13.8516 4.125C13.7422 4.28125 13.6406 4.41406 13.5469 4.52344C13.4531 4.6276 13.3359 4.7474 13.1953 4.88281C13.0599 5.01302 12.9531 5.11198 12.875 5.17969C12.7344 5.29427 12.5599 5.4349 12.3516 5.60156C13.0964 5.90885 13.6641 6.27344 14.0547 6.69531C14.4453 7.11198 14.6406 7.63542 14.6406 8.26562C14.6406 8.89062 14.4505 9.4974 14.0703 10.0859C13.6953 10.6745 13.1953 11.1432 12.5703 11.4922C11.9505 11.8411 11.2917 12.0156 10.5938 12.0156C9.82292 12.0156 9.23177 11.7995 8.82031 11.3672C8.59635 11.1328 8.48438 10.8594 8.48438 10.5469C8.48438 10.2344 8.57812 9.98177 8.76562 9.78906C8.95833 9.59635 9.1901 9.5 9.46094 9.5C9.73177 9.5 9.94531 9.56771 10.1016 9.70312C10.2578 9.83854 10.3359 9.9974 10.3359 10.1797C10.3359 10.3568 10.3047 10.4974 10.2422 10.6016C10.1797 10.7005 10.1042 10.7786 10.0156 10.8359C9.93229 10.8932 9.84375 10.9401 9.75 10.9766C9.58854 11.0391 9.47917 11.0703 9.42188 11.0703C9.42188 11.2995 9.70573 11.4427 10.2734 11.5C10.3724 11.5104 10.4635 11.5156 10.5469 11.5156C11.2708 11.5156 11.8776 11.2422 12.3672 10.6953C12.8568 10.1484 13.1016 9.51042 13.1016 8.78125C13.1016 8.41667 13.0208 8.08073 12.8594 7.77344C12.6979 7.46094 12.5 7.21094 12.2656 7.02344C12.0312 6.83594 11.7969 6.67708 11.5625 6.54688C11.3333 6.41146 11.138 6.30729 10.9766 6.23438C10.8151 6.16146 10.7344 6.11458 10.7344 6.09375C10.7344 6.06771 10.8125 6.0026 10.9688 5.89844C11.125 5.79427 11.3151 5.65885 11.5391 5.49219C11.7682 5.32031 11.9948 5.125 12.2188 4.90625C12.4427 4.6875 12.6328 4.42188 12.7891 4.10938C12.9453 3.79167 13.0234 3.47396 13.0234 3.15625C13.0234 2.83854 12.9349 2.5 12.7578 2.14062C12.5807 1.77604 12.3229 1.52083 11.9844 1.375C11.0052 1.97917 10.2995 2.91406 9.86719 4.17969C9.67969 4.72135 9.53906 5.20833 9.44531 5.64062C9.21615 6.72917 9.04948 7.48438 8.94531 7.90625C8.84115 8.32292 8.63281 8.78646 8.32031 9.29688C8.01302 9.80729 7.63021 10.2656 7.17188 10.6719C6.71354 11.0781 6.15625 11.3984 5.5 11.6328C4.84375 11.8672 4.13021 11.9844 3.35938 11.9844C2.30208 11.9844 1.44271 11.7422 0.78125 11.2578C0.260417 10.8724 0 10.3359 0 9.64844C0 9.1849 0.111979 8.76823 0.335938 8.39844C0.559896 8.02865 0.851562 7.73698 1.21094 7.52344C1.9401 7.08594 2.73438 6.86719 3.59375 6.86719C3.59375 6.02344 3.79167 5.20573 4.1875 4.41406C4.58333 3.61719 5.10677 2.93229 5.75781 2.35938C6.41406 1.78125 7.17969 1.31771 8.05469 0.96875C8.9349 0.619792 9.83854 0.445312 10.7656 0.445312C11.0885 0.445312 11.612 0.489583 12.3359 0.578125C13.3203 0.223958 14.0521 0.03125 14.5312 0ZM20.425 8.01562C20.2271 8.01562 19.9927 8.14323 19.7219 8.39844C19.451 8.64844 19.188 8.95573 18.9328 9.32031C18.5266 9.90365 18.1125 10.5755 17.6906 11.3359L17.4797 11.7109H16.3781C16.3781 11.7109 16.4589 11.4661 16.6203 10.9766C17.0734 9.6224 17.3 8.82031 17.3 8.57031C17.3 8.3151 17.2583 8.1875 17.175 8.1875C17.024 8.1875 16.8443 8.36719 16.6359 8.72656C16.5891 8.8099 16.55 8.8776 16.5188 8.92969C16.4875 8.97656 16.451 9.03646 16.4094 9.10938C16.3729 9.17708 16.3495 9.21875 16.3391 9.23438L15.8156 8.92969C16.2219 8.26823 16.5943 7.78125 16.9328 7.46875C17.2714 7.15104 17.6177 6.99219 17.9719 6.99219C18.1333 6.99219 18.2714 7.0599 18.3859 7.19531C18.5057 7.33073 18.5656 7.49219 18.5656 7.67969C18.5656 7.86198 18.5552 8.02604 18.5344 8.17188C18.5135 8.3125 18.4901 8.44271 18.4641 8.5625C18.438 8.68229 18.4016 8.82552 18.3547 8.99219C18.3078 9.15885 18.2688 9.28646 18.2375 9.375C18.2115 9.46354 18.175 9.58333 18.1281 9.73438C18.0813 9.88542 18.0526 9.97396 18.0422 10C18.1359 9.8125 18.2948 9.53646 18.5188 9.17188C18.7427 8.80729 18.8885 8.57812 18.9563 8.48438C19.024 8.39062 19.1177 8.26562 19.2375 8.10938C19.3573 7.95312 19.4615 7.83333 19.55 7.75C19.6438 7.66146 19.7531 7.5625 19.8781 7.45312C20.0083 7.33854 20.1307 7.2526 20.2453 7.19531C20.537 7.0599 20.8182 6.99219 21.0891 6.99219C21.3599 6.99219 21.576 7.07292 21.7375 7.23438C21.9042 7.39062 21.9875 7.57552 21.9875 7.78906C21.9875 7.9974 21.9198 8.18229 21.7844 8.34375C21.6542 8.5 21.5005 8.57812 21.3234 8.57812C21.1516 8.57812 21.0161 8.54948 20.9172 8.49219C20.8182 8.42969 20.7505 8.36458 20.7141 8.29688C20.6047 8.10938 20.5083 8.01562 20.425 8.01562ZM26.8969 7.16406H28.1156L27.4984 9.5C27.3995 9.82812 27.35 10.1276 27.35 10.3984C27.35 10.6641 27.3969 10.7969 27.4906 10.7969C27.5844 10.7969 27.712 10.7161 27.8734 10.5547C28.0401 10.388 28.1807 10.2214 28.2953 10.0547L28.475 9.80469L28.8109 10.1172C28.6391 10.4505 28.4203 10.7552 28.1547 11.0312C27.6391 11.5677 27.1911 11.8359 26.8109 11.8359C26.363 11.8359 26.1391 11.4896 26.1391 10.7969C26.1391 10.6823 26.1443 10.5964 26.1547 10.5391C26.0766 10.8047 25.9281 11.0391 25.7094 11.2422C25.2927 11.638 24.8214 11.8359 24.2953 11.8359C23.7745 11.8359 23.3552 11.6589 23.0375 11.3047C22.725 10.9453 22.5688 10.4974 22.5688 9.96094C22.5688 9.1276 22.8396 8.42448 23.3813 7.85156C23.9229 7.27865 24.5583 6.99219 25.2875 6.99219C25.6521 6.99219 25.9542 7.09375 26.1938 7.29688C26.4333 7.49479 26.5896 7.75521 26.6625 8.07812L26.8969 7.16406ZM25.5922 7.66406C25.2901 7.66406 25.0063 7.79167 24.7406 8.04688C24.4802 8.29688 24.2797 8.60156 24.1391 8.96094C23.9984 9.3151 23.9281 9.66146 23.9281 10C23.9281 10.3385 24.001 10.612 24.1469 10.8203C24.2979 11.0286 24.5271 11.1328 24.8344 11.1328C25.1469 11.1328 25.4281 10.9922 25.6781 10.7109C26.1521 10.1693 26.3891 9.52604 26.3891 8.78125C26.3891 8.03646 26.1234 7.66406 25.5922 7.66406ZM32.1578 9.51562C33.2464 7.83333 34.2229 6.99219 35.0875 6.99219C35.3792 6.99219 35.5979 7.08073 35.7437 7.25781C35.8896 7.4349 35.9625 7.65885 35.9625 7.92969C35.9625 8.20052 35.8401 8.66927 35.5953 9.33594C35.3557 10.0026 35.2359 10.4167 35.2359 10.5781C35.2359 10.7344 35.275 10.8125 35.3531 10.8125C35.4573 10.8125 35.6109 10.7057 35.8141 10.4922C36.0172 10.2734 36.1969 10.0443 36.3531 9.80469L36.6812 10.1172C36.3687 10.6849 36.025 11.1146 35.65 11.4062C35.2802 11.6927 34.9781 11.8359 34.7437 11.8359C34.5146 11.8359 34.3349 11.7604 34.2047 11.6094C34.0745 11.4531 34.0094 11.2422 34.0094 10.9766C34.0094 10.7109 34.1135 10.2786 34.3219 9.67969C34.5354 9.07552 34.6422 8.64844 34.6422 8.39844C34.6422 8.14323 34.5562 8.01562 34.3844 8.01562C34.1865 8.01562 33.9521 8.14323 33.6812 8.39844C33.4104 8.64844 33.1474 8.95573 32.8922 9.32031C32.4859 9.90365 32.0719 10.5755 31.65 11.3359L31.4391 11.7109H30.3375L30.5797 10.9766C31.0328 9.6224 31.2594 8.82031 31.2594 8.57031C31.2594 8.3151 31.2177 8.1875 31.1344 8.1875C30.9833 8.1875 30.8036 8.36719 30.5953 8.72656C30.5484 8.8099 30.5094 8.8776 30.4781 8.92969C30.4469 8.97656 30.4104 9.03646 30.3687 9.10938C30.3323 9.17708 30.3089 9.21875 30.2984 9.23438L29.775 8.92969C30.1812 8.26823 30.5536 7.78125 30.8922 7.46875C31.2307 7.15104 31.5771 6.99219 31.9312 6.99219C32.0927 6.99219 32.2307 7.0599 32.3453 7.19531C32.4651 7.33073 32.525 7.49479 32.525 7.6875C32.525 7.88021 32.5094 8.07031 32.4781 8.25781C32.4469 8.4401 32.413 8.59375 32.3766 8.71875C32.3453 8.83854 32.301 8.99479 32.2437 9.1875C32.1917 9.38021 32.163 9.48958 32.1578 9.51562ZM41.6844 10.75C41.1375 11.474 40.4839 11.8359 39.7234 11.8359C39.213 11.8359 38.7807 11.651 38.4266 11.2812C38.0724 10.9062 37.8953 10.4297 37.8953 9.85156C37.8953 9.07552 38.187 8.40625 38.7703 7.84375C39.3536 7.27604 40.0073 6.99219 40.7313 6.99219C41.1063 6.99219 41.4266 7.06771 41.6922 7.21875C41.963 7.36458 42.1375 7.5651 42.2156 7.82031C42.4552 6.83594 42.799 5.69531 43.2469 4.39844C43.7 3.09635 44.1167 2.07292 44.4969 1.32812H45.7469C45.2625 2.28646 44.6661 3.91146 43.9578 6.20312C43.2495 8.48958 42.8953 9.91927 42.8953 10.4922C42.8953 10.6953 42.937 10.7969 43.0203 10.7969C43.2286 10.7969 43.562 10.4661 44.0203 9.80469L44.3563 10.1172C44.0281 10.7005 43.6766 11.1328 43.3016 11.4141C42.9266 11.6953 42.6245 11.8359 42.3953 11.8359C42.1714 11.8359 41.9943 11.7552 41.8641 11.5938C41.7391 11.4271 41.6766 11.1875 41.6766 10.875C41.6766 10.8646 41.6766 10.8464 41.6766 10.8203C41.6818 10.7891 41.6844 10.7656 41.6844 10.75ZM39.3094 9.80469C39.3094 10.6432 39.6323 11.0625 40.2781 11.0625C40.8823 11.0625 41.3797 10.6589 41.7703 9.85156C41.9526 9.47135 42.0438 9.16406 42.0438 8.92969C42.0438 8.08594 41.7234 7.66406 41.0828 7.66406C40.6557 7.66406 40.2521 7.86198 39.8719 8.25781C39.4969 8.64844 39.3094 9.16406 39.3094 9.80469Z" fill="white"/>
</svg>
