<svg width="96" height="15" viewBox="0 0 96 15" fill="none" xmlns="http://www.w3.org/2000/svg">
<path d="M92.9766 6.71875C93.513 5.05208 94.0599 3.65625 94.6172 2.53125L95.5859 2.60938C95.5286 2.77604 95.388 3.17708 95.1641 3.8125C94.6797 5.21354 94.3672 6.18229 94.2266 6.71875H95.4531L95.3281 7.23438H94.0625C93.5833 8.71354 93.3438 9.61458 93.3438 9.9375C93.3438 10.2552 93.375 10.4141 93.4375 10.4141C93.5052 10.4141 93.5651 10.401 93.6172 10.375C93.7578 10.2969 94.0599 9.91667 94.5234 9.23438L94.8438 9.52344C94.4948 10.1589 94.1354 10.6302 93.7656 10.9375C93.3958 11.2396 93.0911 11.3906 92.8516 11.3906C92.612 11.3906 92.4297 11.3073 92.3047 11.1406C92.1849 10.974 92.125 10.7604 92.125 10.5C92.125 9.83854 92.3568 8.75 92.8203 7.23438H92L92.125 6.71875H92.9766Z" fill="white"/>
<path d="M89.4424 7.23438L89.2549 8.03125C88.9059 9.50521 88.6169 10.5417 88.3877 11.1406C87.945 12.2812 87.3773 13.0026 86.6846 13.3047C86.3981 13.4297 86.109 13.4922 85.8174 13.4922C85.5205 13.4922 85.3122 13.4349 85.1924 13.3203C85.0726 13.2109 85.0127 13.0755 85.0127 12.9141C85.0127 12.7578 85.0648 12.6224 85.1689 12.5078C85.2731 12.3932 85.4059 12.3359 85.5674 12.3359C85.7236 12.3359 85.8538 12.3724 85.958 12.4453C86.0622 12.5182 86.1143 12.6172 86.1143 12.7422C86.1143 12.8724 86.0778 12.9948 86.0049 13.1094C86.5413 13.026 87.0231 12.0104 87.4502 10.0625C87.5179 9.75521 87.5934 9.39062 87.6768 8.96875C87.7653 8.54167 87.833 8.22917 87.8799 8.03125L88.0674 7.23438H86.5986L86.7236 6.71875H88.1768C88.7965 4.20312 89.5231 2.44792 90.3564 1.45312C91.0439 0.635417 91.8747 0.226562 92.8486 0.226562C93.2861 0.226562 93.6533 0.315104 93.9502 0.492188C94.2523 0.669271 94.4033 0.963542 94.4033 1.375C94.4033 1.61458 94.32 1.80469 94.1533 1.94531C93.9919 2.08073 93.7992 2.14844 93.5752 2.14844C93.3564 2.14844 93.1689 2.08594 93.0127 1.96094C92.8617 1.83073 92.7861 1.66406 92.7861 1.46094C92.7861 1.25781 92.8564 1.0599 92.9971 0.867188C92.7419 0.778646 92.5413 0.734375 92.3955 0.734375C92.2497 0.734375 92.0752 0.807292 91.8721 0.953125C91.6742 1.09375 91.4971 1.28385 91.3408 1.52344C90.7314 2.46094 90.1377 4.19271 89.5596 6.71875H91.4268L91.3018 7.23438H89.4424Z" fill="white"/>
<path d="M83.4858 11.3906C83.2671 11.3906 83.0952 11.3229 82.9702 11.1875C82.8452 11.0521 82.7827 10.8672 82.7827 10.6328C82.7827 10.3932 82.8426 10.0703 82.9624 9.66406C83.0874 9.2526 83.2098 8.88021 83.3296 8.54688C83.4546 8.21354 83.5171 7.99219 83.5171 7.88281C83.5171 7.76823 83.4806 7.71094 83.4077 7.71094C83.2254 7.71094 82.9312 8.07031 82.5249 8.78906L82.0015 8.48438C82.7671 7.19271 83.4702 6.54688 84.1108 6.54688C84.5483 6.54688 84.7671 6.82292 84.7671 7.375C84.7671 7.53646 84.715 7.79427 84.6108 8.14844L84.0483 9.75781C83.991 9.90885 83.9624 10.0469 83.9624 10.1719C83.9624 10.2917 84.0093 10.3516 84.103 10.3516C84.2801 10.3516 84.6056 10.0234 85.0796 9.36719L85.4077 9.67188C85.1265 10.1927 84.7905 10.6094 84.3999 10.9219C84.0145 11.2344 83.7098 11.3906 83.4858 11.3906ZM85.7124 4.24219C85.7124 4.45052 85.6421 4.64062 85.5015 4.8125C85.3608 4.98438 85.1707 5.07031 84.9312 5.07031C84.6916 5.07031 84.5119 5 84.3921 4.85938C84.2723 4.71354 84.2124 4.53125 84.2124 4.3125C84.2124 4.09375 84.2853 3.90104 84.4312 3.73438C84.5822 3.5625 84.7749 3.47656 85.0093 3.47656C85.2437 3.47656 85.4181 3.55208 85.5327 3.70312C85.6525 3.84896 85.7124 4.02865 85.7124 4.24219Z" fill="white"/>
<path d="M75.7485 12.4141C75.5298 12.2318 75.4204 12.0625 75.4204 11.9062C75.4204 11.75 75.4829 11.6328 75.6079 11.5547L76.5532 10.625C76.0011 10.1615 75.7251 9.60677 75.7251 8.96094C75.7251 8.3099 76.009 7.73698 76.5767 7.24219C77.1496 6.7474 77.7928 6.5 78.5063 6.5C78.6678 6.5 78.7902 6.50521 78.8735 6.51562C78.9152 6.11979 79.1079 5.7474 79.4517 5.39844C79.8006 5.04427 80.2355 4.86719 80.7563 4.86719C81.2824 4.86719 81.5454 5.10156 81.5454 5.57031C81.5454 5.77344 81.4855 5.9349 81.3657 6.05469C81.2511 6.16927 81.1131 6.22656 80.9517 6.22656C80.7902 6.22656 80.647 6.17708 80.522 6.07812C80.397 5.97917 80.311 5.84115 80.2642 5.66406C79.9517 5.7474 79.6991 5.88281 79.5063 6.07031C79.3188 6.2526 79.2251 6.41667 79.2251 6.5625C79.6418 6.71354 79.9855 6.97396 80.2563 7.34375C80.5272 7.70833 80.6626 8.08854 80.6626 8.48438C80.6626 9.16667 80.3892 9.7526 79.8423 10.2422C79.2954 10.7318 78.6782 10.9766 77.9907 10.9766C77.5376 10.9766 77.1652 10.9193 76.8735 10.8047C76.5662 11.0599 76.4126 11.2344 76.4126 11.3281C76.4126 11.474 76.5402 11.5547 76.7954 11.5703L78.3423 11.6328C78.8683 11.6536 79.2798 11.7396 79.5767 11.8906C79.8735 12.0469 80.022 12.2656 80.022 12.5469C80.022 12.8281 79.9412 13.0755 79.7798 13.2891C79.6183 13.5026 79.397 13.6693 79.1157 13.7891C78.5793 14.0182 77.9022 14.1328 77.0845 14.1328C76.6782 14.1328 76.3032 14.0885 75.9595 14C75.2876 13.8281 74.9517 13.5625 74.9517 13.2031C74.9517 12.9167 75.1626 12.6771 75.5845 12.4844C75.647 12.4531 75.7017 12.4297 75.7485 12.4141ZM77.7095 7.36719C77.4855 7.59115 77.3241 7.85156 77.2251 8.14844C77.1313 8.4401 77.0845 8.70312 77.0845 8.9375C77.0845 9.16667 77.0975 9.36198 77.1235 9.52344C77.1496 9.67969 77.1938 9.83854 77.2563 10C77.3918 10.3438 77.6313 10.5156 77.9751 10.5156C78.3188 10.5156 78.5975 10.3958 78.811 10.1562C79.186 9.74479 79.3735 9.15365 79.3735 8.38281C79.3735 8.08594 79.2954 7.78646 79.1392 7.48438C78.9829 7.17708 78.7616 7.02344 78.4751 7.02344C78.1886 7.02344 77.9334 7.13802 77.7095 7.36719ZM77.2095 13.6797C78.3709 13.6797 78.9517 13.4766 78.9517 13.0703C78.9517 12.7214 78.0558 12.5469 76.2642 12.5469C76.134 12.5469 76.022 12.6198 75.9282 12.7656C75.8345 12.9115 75.7876 13.0469 75.7876 13.1719C75.7876 13.3698 75.91 13.5026 76.1548 13.5703C76.3996 13.6432 76.7511 13.6797 77.2095 13.6797Z" fill="white"/>
<path d="M69.0469 6.71875H70.2656L69.6484 9.05469C69.5495 9.38281 69.5 9.68229 69.5 9.95312C69.5 10.2188 69.5469 10.3516 69.6406 10.3516C69.7344 10.3516 69.862 10.2708 70.0234 10.1094C70.1901 9.94271 70.3307 9.77604 70.4453 9.60938L70.625 9.35938L70.9609 9.67188C70.7891 10.0052 70.5703 10.3099 70.3047 10.5859C69.7891 11.1224 69.3411 11.3906 68.9609 11.3906C68.513 11.3906 68.2891 11.0443 68.2891 10.3516C68.2891 10.237 68.2943 10.151 68.3047 10.0938C68.2266 10.3594 68.0781 10.5938 67.8594 10.7969C67.4427 11.1927 66.9714 11.3906 66.4453 11.3906C65.9245 11.3906 65.5052 11.2135 65.1875 10.8594C64.875 10.5 64.7188 10.0521 64.7188 9.51562C64.7188 8.68229 64.9896 7.97917 65.5312 7.40625C66.0729 6.83333 66.7083 6.54688 67.4375 6.54688C67.8021 6.54688 68.1042 6.64844 68.3438 6.85156C68.5833 7.04948 68.7396 7.3099 68.8125 7.63281L69.0469 6.71875ZM67.7422 7.21875C67.4401 7.21875 67.1562 7.34635 66.8906 7.60156C66.6302 7.85156 66.4297 8.15625 66.2891 8.51562C66.1484 8.86979 66.0781 9.21615 66.0781 9.55469C66.0781 9.89323 66.151 10.1667 66.2969 10.375C66.4479 10.5833 66.6771 10.6875 66.9844 10.6875C67.2969 10.6875 67.5781 10.5469 67.8281 10.2656C68.3021 9.72396 68.5391 9.08073 68.5391 8.33594C68.5391 7.59115 68.2734 7.21875 67.7422 7.21875Z" fill="white"/>
<path d="M55.978 11.2109C55.6395 11.0911 55.3973 10.9505 55.2515 10.7891C55.1056 10.6224 55.0327 10.4401 55.0327 10.2422C55.0327 10.0443 55.0874 9.88021 55.1968 9.75C55.3062 9.61979 55.4494 9.55469 55.6265 9.55469C55.8088 9.55469 55.9676 9.60938 56.103 9.71875C56.2437 9.82292 56.314 9.97396 56.314 10.1719C56.314 10.3646 56.1942 10.526 55.9546 10.6562C56.1525 10.8281 56.4546 10.9141 56.8608 10.9141C57.741 10.9141 58.1812 10.6641 58.1812 10.1641C58.1812 9.85156 57.9025 9.60156 57.3452 9.41406C57.116 9.33594 56.8843 9.2526 56.6499 9.16406C56.4207 9.07552 56.2202 8.94531 56.0483 8.77344C55.8765 8.60156 55.7827 8.39323 55.7671 8.14844C55.7671 7.79427 55.8843 7.49479 56.1187 7.25C56.5614 6.78125 57.2228 6.54688 58.103 6.54688C58.5353 6.54688 58.9181 6.63021 59.2515 6.79688C59.5848 6.95833 59.7515 7.16927 59.7515 7.42969C59.7515 7.6901 59.6838 7.8776 59.5483 7.99219C59.4181 8.10677 59.2645 8.16406 59.0874 8.16406C58.9103 8.16406 58.7593 8.11719 58.6343 8.02344C58.5145 7.92448 58.4546 7.78906 58.4546 7.61719C58.4546 7.44531 58.5562 7.29688 58.7593 7.17188C58.6343 7.08333 58.4181 7.03906 58.1108 7.03906C57.8035 7.03906 57.5275 7.08594 57.2827 7.17969C57.0379 7.26823 56.9155 7.39062 56.9155 7.54688C56.9155 7.70312 57.0041 7.83333 57.1812 7.9375C57.3634 8.04167 57.5822 8.13802 57.8374 8.22656C58.0926 8.3151 58.3478 8.41667 58.603 8.53125C58.8582 8.64583 59.0744 8.8099 59.2515 9.02344C59.4338 9.23698 59.5249 9.5 59.5249 9.8125C59.5249 10.125 59.3973 10.4089 59.1421 10.6641C58.6577 11.1484 57.9963 11.3906 57.1577 11.3906C56.715 11.3906 56.3218 11.3307 55.978 11.2109Z" fill="white"/>
<path d="M52.1157 6.71875H53.3345L52.7173 9.05469C52.6183 9.38281 52.5688 9.68229 52.5688 9.95312C52.5688 10.2188 52.6157 10.3516 52.7095 10.3516C52.8032 10.3516 52.9308 10.2708 53.0923 10.1094C53.259 9.94271 53.3996 9.77604 53.5142 9.60938L53.6938 9.35938L54.0298 9.67188C53.8579 10.0052 53.6392 10.3099 53.3735 10.5859C52.8579 11.1224 52.41 11.3906 52.0298 11.3906C51.5819 11.3906 51.3579 11.0443 51.3579 10.3516C51.3579 10.237 51.3631 10.151 51.3735 10.0938C51.2954 10.3594 51.147 10.5938 50.9282 10.7969C50.5116 11.1927 50.0402 11.3906 49.5142 11.3906C48.9933 11.3906 48.5741 11.2135 48.2563 10.8594C47.9438 10.5 47.7876 10.0521 47.7876 9.51562C47.7876 8.68229 48.0584 7.97917 48.6001 7.40625C49.1418 6.83333 49.7772 6.54688 50.5063 6.54688C50.8709 6.54688 51.173 6.64844 51.4126 6.85156C51.6522 7.04948 51.8084 7.3099 51.8813 7.63281L52.1157 6.71875ZM50.811 7.21875C50.509 7.21875 50.2251 7.34635 49.9595 7.60156C49.6991 7.85156 49.4985 8.15625 49.3579 8.51562C49.2173 8.86979 49.147 9.21615 49.147 9.55469C49.147 9.89323 49.2199 10.1667 49.3657 10.375C49.5168 10.5833 49.7459 10.6875 50.0532 10.6875C50.3657 10.6875 50.647 10.5469 50.897 10.2656C51.3709 9.72396 51.6079 9.08073 51.6079 8.33594C51.6079 7.59115 51.3423 7.21875 50.811 7.21875Z" fill="white"/>
<path d="M38.5234 9.07031C39.612 7.38802 40.5885 6.54688 41.4531 6.54688C41.7448 6.54688 41.9635 6.63542 42.1094 6.8125C42.2552 6.98958 42.3281 7.21354 42.3281 7.48438C42.3281 7.75521 42.2057 8.22396 41.9609 8.89062C41.7214 9.55729 41.6016 9.97135 41.6016 10.1328C41.6016 10.2891 41.6406 10.3672 41.7188 10.3672C41.8229 10.3672 41.9766 10.2604 42.1797 10.0469C42.3828 9.82812 42.5625 9.59896 42.7188 9.35938L43.0469 9.67188C42.7344 10.2396 42.3906 10.6693 42.0156 10.9609C41.6458 11.2474 41.3438 11.3906 41.1094 11.3906C40.8802 11.3906 40.7005 11.3151 40.5703 11.1641C40.4401 11.0078 40.375 10.7969 40.375 10.5312C40.375 10.2656 40.4792 9.83333 40.6875 9.23438C40.901 8.63021 41.0078 8.20312 41.0078 7.95312C41.0078 7.69792 40.9219 7.57031 40.75 7.57031C40.5521 7.57031 40.3177 7.69792 40.0469 7.95312C39.776 8.20312 39.513 8.51042 39.2578 8.875C38.8516 9.45833 38.4375 10.1302 38.0156 10.8906L37.8047 11.2656H36.7031L36.9453 10.5312C37.3984 9.17708 37.625 8.375 37.625 8.125C37.625 7.86979 37.5833 7.74219 37.5 7.74219C37.349 7.74219 37.1693 7.92188 36.9609 8.28125C36.9141 8.36458 36.875 8.43229 36.8438 8.48438C36.8125 8.53125 36.776 8.59115 36.7344 8.66406C36.6979 8.73177 36.6745 8.77344 36.6641 8.78906L36.1406 8.48438C36.5469 7.82292 36.9193 7.33594 37.2578 7.02344C37.5964 6.70573 37.9427 6.54688 38.2969 6.54688C38.4583 6.54688 38.5964 6.61458 38.7109 6.75C38.8307 6.88542 38.8906 7.04948 38.8906 7.24219C38.8906 7.4349 38.875 7.625 38.8438 7.8125C38.8125 7.99479 38.7786 8.14844 38.7422 8.27344C38.7109 8.39323 38.6667 8.54948 38.6094 8.74219C38.5573 8.9349 38.5286 9.04427 38.5234 9.07031Z" fill="white"/>
<path d="M31.5205 9.72656C31.5518 10.3255 31.9554 10.625 32.7314 10.625C33.0179 10.625 33.3148 10.5443 33.6221 10.3828C33.9346 10.2161 34.1872 10.0208 34.3799 9.79688L34.7158 10.0156C34.2835 10.7396 33.5934 11.1823 32.6455 11.3438C32.4372 11.375 32.2367 11.3906 32.0439 11.3906C31.4814 11.3906 31.0127 11.2057 30.6377 10.8359C30.2627 10.4609 30.0752 10.0052 30.0752 9.46875C30.0752 8.93229 30.2393 8.4375 30.5674 7.98438C30.8955 7.52604 31.3044 7.17188 31.7939 6.92188C32.2887 6.67188 32.7757 6.54688 33.2549 6.54688C33.734 6.54688 34.1481 6.65625 34.4971 6.875C34.8512 7.09375 35.0309 7.38802 35.0361 7.75781C35.0465 8.1276 34.9398 8.44792 34.7158 8.71875C34.4919 8.98438 34.208 9.1875 33.8643 9.32812C33.182 9.60417 32.5127 9.74219 31.8564 9.74219L31.5205 9.72656ZM31.4736 9.29688C32.0518 9.27604 32.5153 9.1849 32.8643 9.02344C33.2184 8.85677 33.4632 8.66927 33.5986 8.46094C33.7393 8.2474 33.8096 8.02604 33.8096 7.79688C33.8096 7.5625 33.7497 7.39062 33.6299 7.28125C33.5101 7.16667 33.3825 7.10938 33.2471 7.10938C32.9137 7.10938 32.6064 7.22656 32.3252 7.46094C32.0492 7.6901 31.8382 7.97135 31.6924 8.30469C31.5465 8.63281 31.4736 8.96354 31.4736 9.29688Z" fill="white"/>
<path d="M24.8687 11.2109C24.5301 11.0911 24.2879 10.9505 24.1421 10.7891C23.9963 10.6224 23.9233 10.4401 23.9233 10.2422C23.9233 10.0443 23.978 9.88021 24.0874 9.75C24.1968 9.61979 24.34 9.55469 24.5171 9.55469C24.6994 9.55469 24.8582 9.60938 24.9937 9.71875C25.1343 9.82292 25.2046 9.97396 25.2046 10.1719C25.2046 10.3646 25.0848 10.526 24.8452 10.6562C25.0431 10.8281 25.3452 10.9141 25.7515 10.9141C26.6317 10.9141 27.0718 10.6641 27.0718 10.1641C27.0718 9.85156 26.7931 9.60156 26.2358 9.41406C26.0067 9.33594 25.7749 9.2526 25.5405 9.16406C25.3114 9.07552 25.1108 8.94531 24.939 8.77344C24.7671 8.60156 24.6733 8.39323 24.6577 8.14844C24.6577 7.79427 24.7749 7.49479 25.0093 7.25C25.452 6.78125 26.1134 6.54688 26.9937 6.54688C27.4259 6.54688 27.8088 6.63021 28.1421 6.79688C28.4754 6.95833 28.6421 7.16927 28.6421 7.42969C28.6421 7.6901 28.5744 7.8776 28.439 7.99219C28.3088 8.10677 28.1551 8.16406 27.978 8.16406C27.8009 8.16406 27.6499 8.11719 27.5249 8.02344C27.4051 7.92448 27.3452 7.78906 27.3452 7.61719C27.3452 7.44531 27.4468 7.29688 27.6499 7.17188C27.5249 7.08333 27.3088 7.03906 27.0015 7.03906C26.6942 7.03906 26.4181 7.08594 26.1733 7.17969C25.9285 7.26823 25.8062 7.39062 25.8062 7.54688C25.8062 7.70312 25.8947 7.83333 26.0718 7.9375C26.2541 8.04167 26.4728 8.13802 26.728 8.22656C26.9832 8.3151 27.2384 8.41667 27.4937 8.53125C27.7489 8.64583 27.965 8.8099 28.1421 9.02344C28.3244 9.23698 28.4155 9.5 28.4155 9.8125C28.4155 10.125 28.2879 10.4089 28.0327 10.6641C27.5483 11.1484 26.8869 11.3906 26.0483 11.3906C25.6056 11.3906 25.2124 11.3307 24.8687 11.2109Z" fill="white"/>
<path d="M17.272 9.40625C17.272 9.01562 17.3657 8.64062 17.5532 8.28125C17.7459 7.91667 17.9933 7.60938 18.2954 7.35938C18.9621 6.81771 19.6418 6.54688 20.3345 6.54688C21.0272 6.54688 21.5949 6.73177 22.0376 7.10156C22.4803 7.47135 22.7017 7.9349 22.7017 8.49219C22.7017 9.04427 22.548 9.54167 22.2407 9.98438C21.9386 10.4271 21.5376 10.7734 21.0376 11.0234C20.5376 11.2682 19.9907 11.3906 19.397 11.3906C18.8084 11.3906 18.3058 11.2057 17.8892 10.8359C17.4777 10.4609 17.272 9.98438 17.272 9.40625ZM19.8267 10.9062C20.0662 10.9062 20.2902 10.8281 20.4985 10.6719C20.7121 10.5156 20.8735 10.3125 20.9829 10.0625C21.1965 9.58333 21.3032 9.08854 21.3032 8.57812C21.3032 8.06771 21.2095 7.68229 21.022 7.42188C20.8345 7.15625 20.5688 7.02344 20.2251 7.02344C19.8813 7.02344 19.5402 7.2474 19.2017 7.69531C18.8683 8.14323 18.7017 8.71354 18.7017 9.40625C18.7017 10.4062 19.0767 10.9062 19.8267 10.9062Z" fill="white"/>
<path d="M13.4092 10.5469C13.4092 10.276 13.5186 9.84115 13.7373 9.24219C13.9561 8.64323 14.0654 8.21615 14.0654 7.96094C14.0654 7.70052 13.9743 7.57031 13.792 7.57031C13.6149 7.57031 13.3988 7.69792 13.1436 7.95312C12.8883 8.20312 12.6436 8.51042 12.4092 8.875C12.0238 9.46354 11.6357 10.1354 11.2451 10.8906L11.042 11.2656H9.91699C10.1722 9.38021 10.417 7.98438 10.6514 7.07812C10.8857 6.17188 11.1097 5.39844 11.3232 4.75781C11.5368 4.11719 11.766 3.54948 12.0107 3.05469C12.5628 1.91927 13.1982 1.07812 13.917 0.53125L14.5107 0.804688C13.9535 1.36198 13.4404 2.34375 12.9717 3.75C12.5081 5.15104 11.9925 7.08594 11.4248 9.55469C11.4561 9.5026 11.5186 9.39323 11.6123 9.22656C11.7113 9.05469 11.7868 8.92708 11.8389 8.84375C11.891 8.75521 11.9691 8.625 12.0732 8.45312C12.1826 8.28125 12.2738 8.14583 12.3467 8.04688C12.4196 7.94271 12.5133 7.8151 12.6279 7.66406C12.7477 7.51302 12.8519 7.39323 12.9404 7.30469C13.0342 7.21094 13.1436 7.11198 13.2686 7.00781C13.3936 6.89844 13.5133 6.8125 13.6279 6.75C13.8936 6.61458 14.1774 6.54688 14.4795 6.54688C14.7816 6.54688 15.0081 6.63021 15.1592 6.79688C15.3154 6.96354 15.3936 7.1875 15.3936 7.46875C15.3936 7.75 15.2633 8.22396 15.0029 8.89062C14.7425 9.55208 14.6123 9.96094 14.6123 10.1172C14.6123 10.2734 14.654 10.3516 14.7373 10.3516C14.9561 10.3516 15.2868 10.0208 15.7295 9.35938L16.0654 9.67188C15.7321 10.2448 15.3831 10.6745 15.0186 10.9609C14.6592 11.2474 14.3623 11.3906 14.1279 11.3906C13.8988 11.3906 13.7217 11.3177 13.5967 11.1719C13.4717 11.026 13.4092 10.8177 13.4092 10.5469Z" fill="white"/>
<path d="M7.83594 8.91406L8.21094 9.26562C7.02865 10.8021 5.60417 11.5703 3.9375 11.5703C2.84896 11.5703 1.92969 11.2188 1.17969 10.5156C0.815104 10.1771 0.526042 9.74479 0.3125 9.21875C0.104167 8.69271 0 8.09115 0 7.41406C0 6.73698 0.127604 6.03385 0.382812 5.30469C0.638021 4.57031 0.992188 3.89062 1.44531 3.26562C1.89844 2.64062 2.41667 2.08333 3 1.59375C3.58333 1.09896 4.22656 0.710938 4.92969 0.429688C5.63281 0.143229 6.3724 0 7.14844 0C7.92448 0 8.59635 0.247396 9.16406 0.742188C9.73177 1.23698 10.0156 1.92969 10.0156 2.82031C10.0156 3.34635 9.89323 3.90104 9.64844 4.48438C9.40885 5.0625 9.09635 5.58854 8.71094 6.0625C8.33073 6.53125 7.88021 6.91927 7.35938 7.22656C6.83854 7.53385 6.32031 7.6875 5.80469 7.6875C5.28906 7.6875 4.88021 7.52083 4.57812 7.1875C4.27604 6.85417 4.125 6.46615 4.125 6.02344C4.125 5.26302 4.4401 4.52865 5.07031 3.82031C5.70573 3.10677 6.52083 2.58073 7.51562 2.24219L7.69531 2.65625C7.19531 2.82292 6.72396 3.10156 6.28125 3.49219C5.83854 3.88281 5.49219 4.30208 5.24219 4.75C4.9974 5.19271 4.875 5.57812 4.875 5.90625C4.875 6.58854 5.25521 6.92969 6.01562 6.92969C6.54688 6.92969 7.07812 6.69531 7.60938 6.22656C8.14583 5.75781 8.57292 5.20833 8.89062 4.57812C9.21354 3.94271 9.375 3.33333 9.375 2.75C9.375 2.16146 9.17708 1.68229 8.78125 1.3125C8.38542 0.9375 7.85938 0.75 7.20312 0.75C6.54688 0.75 5.8724 0.947917 5.17969 1.34375C4.48698 1.73958 3.8724 2.2474 3.33594 2.86719C2.80469 3.48698 2.36719 4.20052 2.02344 5.00781C1.6849 5.8099 1.51562 6.59896 1.51562 7.375C1.51562 8.63021 1.9349 9.55208 2.77344 10.1406C3.26302 10.4844 3.81771 10.6562 4.4375 10.6562C5.0625 10.6562 5.67708 10.5052 6.28125 10.2031C6.88542 9.89583 7.40365 9.46615 7.83594 8.91406Z" fill="white"/>
</svg>
