<svg width="93" height="92" viewBox="0 0 93 92" fill="none" xmlns="http://www.w3.org/2000/svg">
<path d="M92.4065 46.6543L92.0487 51.2826L90.8249 51.188L91.077 47.9267L88.623 47.737L88.3885 50.7704L87.1712 50.6763L87.4057 47.6429L83.7083 47.3571L83.814 45.9901L92.4065 46.6543Z" fill="#9CC8DE"/>
<path d="M82.2018 56.1714L83.1626 56.4201C83.0701 56.3602 82.9562 56.2273 82.8206 56.0214C82.684 55.8197 82.5795 55.5633 82.5071 55.2523C82.4337 54.9456 82.4449 54.6068 82.5409 54.236C82.6663 53.7514 82.895 53.3453 83.2271 53.0176C83.5592 52.6899 83.9606 52.4678 84.4314 52.3514C84.9021 52.2349 85.4072 52.2465 85.9466 52.3861C86.4859 52.5257 86.9332 52.7606 87.2883 53.0908C87.6435 53.421 87.8868 53.8099 88.0182 54.2575C88.1538 54.7063 88.1589 55.1729 88.0335 55.6575C87.9397 56.0199 87.7953 56.3175 87.6002 56.5502C87.4051 56.783 87.2046 56.9582 86.9988 57.0757C86.792 57.1976 86.6225 57.2616 86.4905 57.2679L87.3944 57.5018L87.0476 58.8418L81.8583 57.4988L82.2018 56.1714ZM85.6014 53.7197C85.2685 53.6336 84.9587 53.6321 84.6719 53.7152C84.3851 53.7983 84.1438 53.9405 83.9478 54.1415C83.7508 54.3468 83.6169 54.5864 83.546 54.8603C83.4697 55.1553 83.4716 55.4345 83.5517 55.698C83.6308 55.9658 83.7757 56.1966 83.9862 56.3905C84.2 56.5897 84.4712 56.7318 84.7998 56.8169C85.1285 56.9019 85.4325 56.9087 85.7118 56.8371C85.9942 56.7708 86.2349 56.6398 86.434 56.444C86.6361 56.2535 86.7754 56.0108 86.8517 55.7158C86.9226 55.4419 86.9196 55.1669 86.8427 54.8907C86.7689 54.6199 86.6268 54.3785 86.4164 54.1667C86.2059 53.9549 85.9343 53.8059 85.6014 53.7197Z" fill="#9CC8DE"/>
<path d="M86.2419 60.9607L85.833 61.8793L87.8431 62.774L87.2802 64.0385L85.2701 63.1438L84.7311 64.3546L83.6575 63.8767L84.1965 62.6659L82.1029 61.7339C81.8404 61.6171 81.6241 61.5732 81.4539 61.6023C81.282 61.6354 81.1589 61.7354 81.0845 61.9024C81.0226 62.0416 80.9997 62.1624 81.016 62.265C81.0306 62.3715 81.0442 62.4371 81.057 62.4619L79.9227 62.5216C79.9095 62.4871 79.9007 62.3998 79.8964 62.2597C79.892 62.1196 79.9067 61.9475 79.9404 61.7433C79.9741 61.5392 80.0432 61.3198 80.1476 61.0852C80.3317 60.6716 80.609 60.3805 80.9794 60.2119C81.3481 60.0473 81.7949 60.0818 82.3198 60.3154L84.7593 61.4014L85.1682 60.4828L86.2419 60.9607Z" fill="#9CC8DE"/>
<path d="M81.9621 69.3823C81.7661 69.6806 81.5131 69.9309 81.203 70.1334C80.8928 70.3359 80.5416 70.4384 80.1493 70.441C79.7582 70.4497 79.3462 70.3118 78.9133 70.0274L76.136 68.2025L76.9069 67.0293L79.4714 68.7144C79.8752 68.9797 80.2326 69.0818 80.5436 69.0205C80.8559 68.9653 81.1113 68.7868 81.3097 68.4848C81.4411 68.2848 81.5114 68.0549 81.5205 67.7953C81.5297 67.5357 81.4773 67.2825 81.3634 67.0358C81.2471 66.7927 81.0634 66.5887 80.8124 66.4238L78.3625 64.814L79.1333 63.6409L86.6414 68.5742L85.8705 69.7474L82.0892 67.2628C82.1914 67.3768 82.2632 67.5489 82.3045 67.7792C82.3472 68.0156 82.3429 68.2757 82.2916 68.5598C82.244 68.8462 82.1342 69.1204 81.9621 69.3823Z" fill="#9CC8DE"/>
<path d="M76.2761 71.6392C76.0644 71.4513 75.8329 71.3257 75.5816 71.2622C75.3304 71.1986 75.0736 71.2107 74.8114 71.2984C74.5493 71.3922 74.2958 71.569 74.0508 71.8286C73.8388 72.0533 73.6866 72.2748 73.5945 72.4931C73.5024 72.7174 73.4484 72.9238 73.4323 73.112C73.4194 73.3033 73.4271 73.4601 73.4552 73.5825L72.417 73.4556C72.3766 73.232 72.3744 72.9965 72.4103 72.7492C72.4462 72.5018 72.5402 72.2404 72.6923 71.9651C72.8383 71.6899 73.0636 71.3908 73.3683 71.0679C73.7685 70.6436 74.2036 70.3569 74.6734 70.2078C75.1433 70.0587 75.6186 70.0464 76.0995 70.171C76.5774 70.2987 77.0284 70.5627 77.4527 70.963C77.8326 71.3214 78.0998 71.7232 78.2544 72.1682C78.4122 72.6162 78.4378 73.0743 78.3313 73.5423C78.2218 74.0135 77.967 74.4612 77.5667 74.8855C77.1934 75.2812 76.7901 75.55 76.357 75.6919C75.9239 75.8338 75.4839 75.8436 75.0369 75.7211C74.5902 75.6047 74.1578 75.3494 73.7399 74.9552C73.7146 74.9313 73.6639 74.8804 73.5877 74.8026C73.5086 74.7279 73.4593 74.6754 73.44 74.6452L76.2761 71.6392ZM75.0634 74.4086C75.1677 74.501 75.3161 74.5752 75.5087 74.6312C75.6982 74.6904 75.9077 74.6935 76.1371 74.6407C76.3696 74.5908 76.5979 74.4471 76.822 74.2097C77.052 73.9659 77.1912 73.7233 77.2396 73.4817C77.2911 73.2431 77.2864 73.0262 77.2253 72.8309C77.1673 72.6386 77.0889 72.4838 76.9901 72.3666L75.0634 74.4086Z" fill="#9CC8DE"/>
<path d="M69.7176 74.6511L70.8085 73.7886L74.133 77.9933L73.0422 78.8558L72.4874 78.1542L72.513 78.1339C72.5566 78.2382 72.5754 78.3953 72.5695 78.6053C72.5628 78.8215 72.5043 79.0563 72.3941 79.3099C72.2866 79.5669 72.098 79.8021 71.8283 80.0154C71.6336 80.1692 71.4379 80.2796 71.2411 80.3464C71.0442 80.4133 70.8918 80.4451 70.7837 80.4417L70.5115 79.1921C70.5991 79.2116 70.7246 79.1984 70.888 79.1524C71.0507 79.1126 71.2208 79.0225 71.3983 78.8821C71.6202 78.7066 71.7567 78.4933 71.8078 78.242C71.8555 77.9935 71.847 77.7477 71.7825 77.5047C71.7179 77.2616 71.6235 77.0616 71.4994 76.9045L69.7176 74.6511Z" fill="#9CC8DE"/>
<path d="M70.7389 84.5031C70.5655 84.6117 70.3824 84.639 70.1895 84.5852C69.9952 84.5374 69.8299 84.4046 69.6937 84.1869C69.532 83.9287 69.3839 83.5772 69.2493 83.1325C69.1147 82.6879 68.988 82.2434 68.8691 81.7992L69.2675 81.5498C69.4693 81.7573 69.6769 81.974 69.8902 82.1999C70.1035 82.4258 70.3013 82.6434 70.4837 82.8528C70.6648 83.0681 70.8072 83.2588 70.9112 83.4248C71.0474 83.6425 71.0946 83.8491 71.0528 84.0448C71.0132 84.2441 70.9086 84.3969 70.7389 84.5031Z" fill="#9CC8DE"/>
<path d="M64.8462 84.2058C64.576 84.337 64.3131 84.4333 64.0574 84.4946C63.8017 84.556 63.5745 84.5913 63.3758 84.6008C63.1772 84.6102 63.0351 84.6066 62.9496 84.5901L63.0311 83.5924C63.1417 83.6209 63.3197 83.6287 63.5652 83.616C63.8067 83.6051 64.0527 83.5388 64.3033 83.417C64.5538 83.2953 64.7434 83.1476 64.8719 82.9738C65.0004 82.8001 65.0209 82.6232 64.9334 82.4431C64.8478 82.2669 64.6893 82.1697 64.4578 82.1515C64.2225 82.1352 63.9311 82.1679 63.5836 82.2496C63.2967 82.3164 63.0101 82.354 62.7239 82.3625C62.4395 82.3748 62.1763 82.3212 61.9344 82.2016C61.6904 82.0879 61.4913 81.8725 61.3373 81.5554C61.1908 81.2539 61.1327 80.97 61.163 80.7036C61.1913 80.4431 61.2816 80.2008 61.4341 79.9767C61.5865 79.7527 61.7796 79.5524 62.0132 79.376C62.2411 79.1975 62.4842 79.0455 62.7426 78.92C63.0597 78.7659 63.3587 78.6593 63.6397 78.6002C63.9168 78.543 64.1575 78.5156 64.3619 78.5179C64.5682 78.5242 64.7208 78.5395 64.8198 78.564L64.7841 79.6557C64.6347 79.6073 64.4179 79.5844 64.1337 79.587C63.8513 79.5935 63.5673 79.6662 63.2815 79.805C62.9761 79.9534 62.7599 80.131 62.633 80.3379C62.5061 80.5447 62.4902 80.746 62.5853 80.9418C62.6556 81.0866 62.7577 81.1822 62.8915 81.2285C63.0214 81.2767 63.176 81.2911 63.3553 81.2717C63.5346 81.2523 63.7287 81.2185 63.9375 81.1703C64.1346 81.1278 64.3394 81.096 64.5518 81.0751C64.7622 81.06 64.9685 81.0711 65.1705 81.1084C65.3744 81.1497 65.5623 81.2326 65.7341 81.3572C65.906 81.4818 66.0471 81.6576 66.1574 81.8847C66.2981 82.1744 66.326 82.4657 66.2409 82.7587C66.1558 83.0517 65.9882 83.3243 65.7381 83.5764C65.488 83.8286 65.1907 84.0384 64.8462 84.2058Z" fill="#9CC8DE"/>
<path d="M58.7266 89.9248L56.5735 90.3782C55.6749 90.5675 54.8956 90.5426 54.2359 90.3034C53.577 90.0685 53.0381 89.6638 52.6191 89.0893C52.2001 88.5148 51.9044 87.8186 51.7322 87.0009C51.5591 86.1789 51.5484 85.4205 51.7001 84.7258C51.8476 84.032 52.1749 83.4426 52.6822 82.9577C53.1895 82.4727 53.8946 82.1352 54.7975 81.945L56.9505 81.4916L58.7266 89.9248ZM57.1357 88.9921L55.8709 82.9867L55.1681 83.1347C54.5591 83.263 54.0877 83.4957 53.7539 83.8329C53.4168 84.1752 53.202 84.5918 53.1097 85.0828C53.0174 85.5737 53.0301 86.1093 53.1478 86.6894C53.2656 87.2696 53.4657 87.7656 53.7482 88.1776C54.0315 88.5939 54.3986 88.8902 54.8495 89.0666C55.296 89.2439 55.8238 89.2684 56.4329 89.1401L57.1357 88.9921Z" fill="#9CC8DE"/>
<path d="M45.4656 82.944L45.4847 83.9362C45.5175 83.8311 45.6148 83.6856 45.7767 83.4996C45.9342 83.3137 46.1529 83.1441 46.4329 82.9906C46.7086 82.8373 47.0379 82.7569 47.4209 82.7495C47.9213 82.7399 48.374 82.8509 48.779 83.0825C49.184 83.3141 49.5059 83.6409 49.7448 84.063C49.9837 84.485 50.1085 84.9745 50.1193 85.5315C50.13 86.0886 50.0242 86.5826 49.8018 87.0135C49.5794 87.4444 49.2703 87.7834 48.8745 88.0305C48.4789 88.2819 48.0308 88.4125 47.5304 88.4221C47.1561 88.4293 46.8306 88.3703 46.5539 88.2451C46.2773 88.1198 46.0546 87.9739 45.886 87.8074C45.713 87.6409 45.6057 87.495 45.5641 87.3695L45.5821 88.303L44.1982 88.3297L44.0948 82.9705L45.4656 82.944ZM48.7419 85.5581C48.7353 85.2143 48.6533 84.9155 48.4961 84.6617C48.3388 84.4079 48.137 84.2137 47.8906 84.0792C47.6398 83.9447 47.373 83.8802 47.0902 83.8856C46.7855 83.8915 46.5171 83.9685 46.2849 84.1167C46.0483 84.2649 45.865 84.4665 45.735 84.7215C45.6007 84.981 45.5368 85.2804 45.5433 85.6199C45.5499 85.9593 45.6252 86.2539 45.7694 86.5036C45.9092 86.7578 46.1002 86.9543 46.3423 87.0933C46.5802 87.2367 46.8514 87.3055 47.1561 87.2996C47.4389 87.2942 47.703 87.2172 47.9483 87.0688C48.1893 86.9249 48.3835 86.7231 48.5308 86.4634C48.6782 86.2037 48.7486 85.9019 48.7419 85.5581Z" fill="#9CC8DE"/>
<path d="M40.0185 83.679L37.6955 87.4743L36.3221 87.2557L41.1895 79.8525L42.5822 80.0742L40.9431 82.5635L42.2927 88.2061L40.9 87.9844L40.0185 83.679Z" fill="#9CC8DE"/>
<path d="M30.1863 88.7441L28.9195 88.2028L31.824 81.4067L28.7801 80.1058L29.2625 78.9771L33.5731 80.8194L30.1863 88.7441Z" fill="#9CC8DE"/>
<path d="M28.0162 78.2389L25.324 82.874L24.1214 82.1755L26.8137 77.5404L28.0162 78.2389ZM23.9019 83.9054C24.1051 84.0234 24.2375 84.1985 24.299 84.4305C24.3568 84.6604 24.3267 84.8769 24.2086 85.0802C24.0906 85.2834 23.9174 85.4169 23.6891 85.4806C23.4549 85.5459 23.2361 85.5195 23.0329 85.4015C22.8974 85.3228 22.794 85.2149 22.7226 85.0778C22.6453 84.9423 22.6055 84.7984 22.6033 84.6461C22.5952 84.4954 22.6316 84.3504 22.7125 84.2112C22.8306 84.0079 23.0056 83.8756 23.2377 83.814C23.4697 83.7525 23.6911 83.783 23.9019 83.9054Z" fill="#9CC8DE"/>
<path d="M16.6175 76.7515C16.3117 76.493 16.1039 76.2062 15.9941 75.8911C15.881 75.5732 15.8784 75.2291 15.9864 74.8587C16.091 74.4854 16.3203 74.0894 16.6744 73.6706L18.6933 71.2823L19.7454 72.1716L17.8866 74.3705C17.5522 74.766 17.3544 75.1146 17.2932 75.4163C17.2287 75.7151 17.3493 75.9938 17.6551 76.2523C17.8213 76.3928 18.0155 76.48 18.2376 76.5139C18.4598 76.5477 18.6916 76.5129 18.9331 76.4093C19.1684 76.3061 19.4013 76.1183 19.6317 75.8457L21.4905 73.6469L22.4778 74.4814L20.619 76.6803C20.2846 77.0758 20.0984 77.4343 20.0605 77.7556C20.0192 78.0741 20.1315 78.3457 20.3975 78.5705C20.567 78.7138 20.7598 78.8027 20.9757 78.8371C21.1917 78.8715 21.4188 78.8355 21.657 78.729C21.8951 78.6226 22.1308 78.4314 22.3641 78.1555L24.2229 75.9567L25.2799 76.8503L21.8194 80.9438L20.7624 80.0502L21.2808 79.437C21.1571 79.5091 20.9844 79.5483 20.7625 79.5545C20.5374 79.5579 20.2946 79.518 20.0344 79.4348C19.7742 79.3516 19.5294 79.2131 19.3 79.0192C19.0507 78.8085 18.884 78.5877 18.7998 78.3569C18.7094 78.1267 18.6737 77.9027 18.6925 77.6849C18.708 77.4643 18.7501 77.2662 18.8187 77.0906C18.657 77.1875 18.452 77.248 18.2039 77.2718C17.9524 77.2929 17.6873 77.2626 17.4087 77.181C17.1272 77.1026 16.8635 76.9595 16.6175 76.7515Z" fill="#9CC8DE"/>
<path d="M17.8329 69.9771L13.7142 73.4077L12.8242 72.3392L16.9428 68.9085L17.8329 69.9771ZM12.0247 73.8888C12.1751 74.0694 12.2394 74.2793 12.2176 74.5183C12.1931 74.7541 12.0905 74.9471 11.9099 75.0976C11.7293 75.248 11.5208 75.314 11.2846 75.2955C11.0421 75.2765 10.8457 75.1767 10.6953 74.9961C10.595 74.8757 10.5348 74.7389 10.5148 74.5857C10.4887 74.4318 10.5007 74.283 10.5509 74.1393C10.5949 73.9949 10.6788 73.8712 10.8026 73.7682C10.9832 73.6177 11.193 73.5534 11.4321 73.5752C11.6711 73.597 11.8687 73.7015 12.0247 73.8888Z" fill="#9CC8DE"/>
<path d="M11.5363 70.7372L10.9811 69.8989L9.1467 71.1139L8.38239 69.9599L10.2168 68.7449L9.4849 67.64L10.4647 66.991L11.1965 68.096L13.1071 66.8306C13.3466 66.6719 13.4998 66.513 13.5667 66.3539C13.6312 66.1911 13.6129 66.0335 13.512 65.8811C13.4279 65.7541 13.3382 65.6699 13.2429 65.6286C13.1453 65.5836 13.0826 65.5599 13.0548 65.5574L13.6137 64.5686C13.6499 64.5759 13.7283 64.6154 13.8488 64.687C13.9693 64.7586 14.1066 64.8634 14.2607 65.0015C14.4148 65.1396 14.5627 65.3157 14.7046 65.5298C14.9545 65.9072 15.0511 66.2974 14.9944 66.7004C14.9352 67.0998 14.6662 67.4582 14.1872 67.7754L11.9609 69.25L12.5161 70.0882L11.5363 70.7372Z" fill="#9CC8DE"/>
<path d="M10.693 63.6351C10.9456 63.5073 11.1477 63.3384 11.2993 63.1281C11.4508 62.9179 11.5341 62.6748 11.5492 62.3987C11.5584 62.1204 11.4874 61.8197 11.3363 61.4964C11.2054 61.2164 11.0554 60.9934 10.8865 60.8274C10.7118 60.6592 10.5398 60.533 10.3707 60.4487C10.1976 60.3663 10.049 60.3157 9.92485 60.2968L10.4251 59.3782C10.6478 59.423 10.8676 59.5076 11.0843 59.6321C11.3011 59.7566 11.5095 59.9402 11.7095 60.183C11.9117 60.4201 12.1068 60.7397 12.2948 61.1418C12.5419 61.6702 12.6483 62.1802 12.6139 62.672C12.5796 63.1637 12.416 63.6102 12.1231 64.0114C11.8284 64.4087 11.4169 64.7309 10.8886 64.9779C10.4154 65.1992 9.94349 65.2997 9.47279 65.2796C8.99815 65.2613 8.56286 65.1165 8.1669 64.8452C7.76911 64.5699 7.44668 64.1681 7.19961 63.6398C6.96915 63.1469 6.86767 62.673 6.89519 62.2181C6.92271 61.7632 7.07568 61.3505 7.35412 60.98C7.62677 60.6075 8.02333 60.2995 8.54378 60.0561C8.57532 60.0414 8.6413 60.0129 8.74171 59.9708C8.84028 59.9247 8.90719 59.8982 8.94242 59.8914L10.693 63.6351ZM8.56462 61.4879C8.44029 61.5508 8.31666 61.6615 8.19372 61.8199C8.06894 61.9743 7.98889 62.1679 7.95358 62.4007C7.91432 62.6353 7.96383 62.9004 8.10211 63.1961C8.24408 63.4997 8.41845 63.7185 8.62524 63.8524C8.82808 63.9882 9.03153 64.0637 9.23559 64.0788C9.43571 64.0957 9.60846 64.0798 9.75383 64.031L8.56462 61.4879Z" fill="#9CC8DE"/>
<path d="M10.206 55.5123C10.3362 56.0002 10.3356 56.4621 10.2042 56.8981C10.0728 57.3341 9.8297 57.7144 9.47482 58.0389C9.11882 58.3591 8.67167 58.5911 8.13339 58.7348C7.5951 58.8785 7.09183 58.9002 6.62357 58.7999C6.1542 58.6955 5.75391 58.487 5.42271 58.1744C5.08731 57.863 4.8545 57.4634 4.72428 56.9756C4.62775 56.6139 4.60495 56.2753 4.65591 55.9599C4.70265 55.6456 4.78558 55.3824 4.90469 55.1704C5.0238 54.9585 5.14251 54.8209 5.26081 54.7578L0.85778 55.9331L0.497451 54.5831L9.17735 52.2663L9.53263 53.5973L8.5738 53.8532C8.7367 53.8728 8.9285 53.95 9.14919 54.0848C9.36988 54.2196 9.58035 54.4089 9.78059 54.6528C9.97551 54.8936 10.1173 55.1801 10.206 55.5123ZM9.02209 55.4567C8.94351 55.1623 8.80284 54.9138 8.60008 54.7111C8.39732 54.5085 8.1549 54.3682 7.87282 54.2903C7.58654 54.2136 7.27939 54.219 6.95137 54.3065C6.62335 54.3941 6.35647 54.5419 6.15072 54.75C5.94077 54.9592 5.7984 55.2022 5.72361 55.4789C5.64461 55.7568 5.64439 56.0429 5.72297 56.3373C5.79481 56.6065 5.93099 56.8382 6.13151 57.0324C6.3267 57.2236 6.56687 57.3554 6.85203 57.428C7.13719 57.5005 7.44588 57.4925 7.77811 57.4038C8.11033 57.3151 8.38198 57.1683 8.59306 56.9633C8.80413 56.7583 8.94665 56.5243 9.0206 56.2612C9.09343 55.994 9.09393 55.7258 9.02209 55.4567Z" fill="#9CC8DE"/>
<path d="M9.06826 49.7077C9.09787 49.9716 9.03037 50.2091 8.86574 50.4203C8.6963 50.6277 8.47749 50.7464 8.20931 50.7765C7.94113 50.8066 7.70144 50.7393 7.49025 50.5747C7.27856 50.4057 7.15791 50.1893 7.12829 49.9255C7.0977 49.653 7.16713 49.4131 7.33657 49.2057C7.50553 48.994 7.72409 48.8731 7.99227 48.843C8.26045 48.8129 8.50038 48.8823 8.71206 49.0513C8.91893 49.2164 9.03767 49.4352 9.06826 49.7077Z" fill="#9CC8DE"/>
<path d="M0 46.457L0.125404 41.8167L1.35239 41.8498L1.26403 45.1196L3.72453 45.1861L3.80672 42.1447L5.02719 42.1777L4.945 45.2191L8.65207 45.3193L8.61503 46.6898L0 46.457Z" fill="#9CC8DE"/>
<path d="M9.68081 36.5591L8.70819 36.362C8.80365 36.4169 8.92455 36.5435 9.07087 36.7419C9.21805 36.9361 9.33607 37.1865 9.42492 37.4932C9.51463 37.7956 9.52146 38.1345 9.44538 38.5099C9.34597 39.0005 9.13919 39.4182 8.82504 39.7631C8.51088 40.108 8.12187 40.3512 7.65799 40.4926C7.19412 40.6339 6.68916 40.6493 6.14312 40.5387C5.59709 40.428 5.13795 40.2173 4.76571 39.9065C4.39346 39.5957 4.12979 39.2203 3.9747 38.7802C3.81534 38.3394 3.78536 37.8736 3.88477 37.3831C3.95912 37.0162 4.08751 36.7114 4.26994 36.4685C4.45238 36.2257 4.64321 36.0401 4.84243 35.9117C5.04251 35.7791 5.2083 35.7061 5.33979 35.6928L4.42475 35.5073L4.69965 34.1508L9.95312 35.2153L9.68081 36.5591ZM6.41672 39.1885C6.75373 39.2568 7.06321 39.2418 7.34515 39.1435C7.62709 39.0452 7.86052 38.8904 8.04544 38.6792C8.23123 38.4637 8.35221 38.2173 8.4084 37.94C8.46891 37.6414 8.45212 37.3627 8.35803 37.1038C8.2648 36.8406 8.10787 36.6178 7.88724 36.4355C7.66322 36.248 7.38483 36.1205 7.05209 36.0531C6.71935 35.9856 6.41544 35.9951 6.14035 36.0815C5.86187 36.1627 5.62846 36.3064 5.44015 36.5125C5.24842 36.7135 5.12231 36.9632 5.0618 37.2619C5.00561 37.5391 5.02326 37.8136 5.11476 38.0853C5.20286 38.3519 5.35763 38.5853 5.57906 38.7856C5.8005 38.9859 6.07972 39.1202 6.41672 39.1885Z" fill="#9CC8DE"/>
<path d="M5.34371 32.1088L5.70046 31.1688L3.64337 30.3881L4.13449 29.094L6.19158 29.8747L6.66184 28.6356L7.76058 29.0525L7.29032 30.2917L9.43287 31.1048C9.70145 31.2067 9.91987 31.2384 10.0881 31.1999C10.2579 31.1572 10.3753 31.0504 10.4402 30.8795C10.4942 30.7371 10.5102 30.6152 10.4882 30.5137C10.4677 30.4082 10.4504 30.3434 10.4362 30.3194L11.5654 30.1962C11.5805 30.2299 11.5942 30.3166 11.6064 30.4562C11.6186 30.5958 11.6136 30.7685 11.5914 30.9742C11.5692 31.18 11.5125 31.4029 11.4214 31.643C11.2608 32.0662 11.0002 32.3724 10.6398 32.5615C10.281 32.7465 9.83295 32.7371 9.29579 32.5332L6.7992 31.5858L6.44245 32.5258L5.34371 32.1088Z" fill="#9CC8DE"/>
<path d="M9.14643 23.4413C9.3257 23.1326 9.56457 22.8687 9.86306 22.6495C10.1616 22.4302 10.5066 22.3085 10.8982 22.2843C11.2882 22.2541 11.7071 22.3691 12.155 22.6292L15.0287 24.2984L14.3236 25.5122L11.6702 23.9709C11.2524 23.7283 10.8899 23.6461 10.5827 23.7243C10.2739 23.7967 10.0288 23.989 9.84733 24.3014C9.72709 24.5084 9.66956 24.7418 9.67474 25.0015C9.67992 25.2612 9.74618 25.5111 9.87351 25.7512C10.003 25.9875 10.1976 26.1811 10.4573 26.3319L12.9922 27.8043L12.2872 29.0181L4.5188 24.5059L5.22384 23.292L9.13627 25.5646C9.02798 25.4564 8.94683 25.2884 8.89283 25.0608C8.83726 24.8271 8.82722 24.5671 8.86272 24.2807C8.89445 23.9921 8.98902 23.7123 9.14643 23.4413Z" fill="#9CC8DE"/>
<path d="M14.6923 20.8665C14.914 21.0425 15.152 21.1554 15.4064 21.2051C15.6607 21.2548 15.9164 21.2287 16.1735 21.1269C16.43 21.0189 16.6735 20.8286 16.904 20.5561C17.1035 20.3201 17.2433 20.0906 17.3235 19.8677C17.4031 19.6386 17.4458 19.4297 17.4516 19.2408C17.4541 19.0491 17.4379 18.8929 17.4031 18.7723L18.4467 18.8424C18.4992 19.0634 18.5143 19.2984 18.4919 19.5474C18.4695 19.7964 18.3899 20.0625 18.253 20.3457C18.1223 20.6285 17.9136 20.9394 17.627 21.2784C17.2505 21.7238 16.8317 22.0338 16.3707 22.2084C15.9097 22.3829 15.4357 22.4211 14.9487 22.3229C14.4646 22.2214 13.9998 21.9824 13.5544 21.6058C13.1555 21.2686 12.8667 20.882 12.6881 20.4461C12.5062 20.0073 12.4556 19.5514 12.5364 19.0782C12.6201 18.6017 12.8501 18.1408 13.2267 17.6954C13.5779 17.2799 13.9659 16.9895 14.3906 16.8242C14.8153 16.6588 15.2542 16.6252 15.7071 16.7231C16.1596 16.8149 16.6052 17.0463 17.044 17.4172C17.0706 17.4397 17.124 17.4877 17.2043 17.5613C17.2874 17.6315 17.3394 17.6812 17.3604 17.7103L14.6923 20.8665ZM15.7522 18.035C15.643 17.9484 15.4908 17.8824 15.2955 17.837C15.103 17.7883 14.8937 17.7966 14.6675 17.8619C14.438 17.9243 14.2179 18.0802 14.0072 18.3295C13.7908 18.5855 13.665 18.8354 13.6299 19.0792C13.5914 19.3203 13.608 19.5366 13.6796 19.7283C13.748 19.9171 13.8347 20.0674 13.9398 20.179L15.7522 18.035Z" fill="#9CC8DE"/>
<path d="M21.1349 17.4339L20.0894 18.3509L16.555 14.3209L17.6005 13.404L18.1903 14.0764L18.1657 14.098C18.1169 13.9961 18.0901 13.8401 18.0854 13.6301C18.081 13.4139 18.1274 13.1763 18.2246 12.9174C18.3189 12.6553 18.4953 12.4108 18.7538 12.1841C18.9403 12.0205 19.1302 11.9003 19.3233 11.8235C19.5165 11.7467 19.6671 11.7073 19.7752 11.7051L20.1108 12.9392C20.0223 12.9242 19.8977 12.9438 19.7368 12.998C19.5764 13.0461 19.411 13.1447 19.2409 13.294C19.0282 13.4805 18.9027 13.7006 18.8645 13.9541C18.8296 14.2047 18.8506 14.4497 18.9274 14.6892C19.0042 14.9286 19.1087 15.1236 19.2407 15.2741L21.1349 17.4339Z" fill="#9CC8DE"/>
<path d="M19.4524 7.74427C19.6195 7.62636 19.8009 7.58899 19.9965 7.63215C20.1931 7.66925 20.3654 7.79273 20.5134 8.00259C20.689 8.25157 20.8562 8.59437 21.015 9.03097C21.1738 9.46758 21.3248 9.90439 21.4679 10.3414L21.0838 10.6124C20.8709 10.4163 20.6518 10.2113 20.4263 9.99744C20.2009 9.78358 19.9914 9.57715 19.7978 9.37815C19.6052 9.17308 19.4525 8.99052 19.3396 8.83046C19.1916 8.6206 19.1331 8.41684 19.1642 8.21919C19.1927 8.01797 19.2888 7.85967 19.4524 7.74427Z" fill="#9CC8DE"/>
<path d="M25.4899 7.62525C25.7529 7.48019 26.0104 7.37041 26.2626 7.29591C26.5148 7.22142 26.7399 7.17432 26.9378 7.15462C27.1357 7.13493 27.2778 7.13112 27.364 7.14322L27.3343 8.14382C27.2224 8.12107 27.0442 8.12244 26.7997 8.14792C26.5591 8.17129 26.3168 8.25026 26.0729 8.38481C25.829 8.51936 25.6474 8.67672 25.528 8.85688C25.4087 9.03704 25.3974 9.21478 25.4941 9.3901C25.5887 9.5616 25.7521 9.65045 25.9841 9.65664C26.22 9.66074 26.5093 9.61299 26.8521 9.5134C27.1352 9.43181 27.4194 9.37939 27.7048 9.35615C27.9882 9.3291 28.2538 9.369 28.5016 9.47586C28.7512 9.57681 28.9611 9.78163 29.1314 10.0903C29.2933 10.3838 29.366 10.6643 29.3495 10.9319C29.3348 11.1935 29.2571 11.4402 29.1165 11.6719C28.9758 11.9035 28.7934 12.1135 28.5692 12.3018C28.3509 12.4918 28.116 12.6562 27.8645 12.795C27.5558 12.9653 27.2626 13.0872 26.9851 13.1608C26.7113 13.2323 26.4723 13.2721 26.2681 13.2804C26.0618 13.2848 25.9086 13.2774 25.8084 13.2581L25.7876 12.166C25.9393 12.2066 26.157 12.2183 26.4407 12.2009C26.7223 12.1798 27.0022 12.0925 27.2805 11.939C27.5777 11.775 27.7844 11.5865 27.9004 11.3733C28.0165 11.1602 28.022 10.9583 27.9168 10.7678C27.8391 10.6268 27.7322 10.5366 27.5961 10.4973C27.4639 10.4559 27.3088 10.4495 27.1307 10.4781C26.9527 10.5068 26.7606 10.5506 26.5545 10.6096C26.3599 10.6623 26.1571 10.7046 25.946 10.7365C25.7367 10.7625 25.5301 10.7621 25.3265 10.7353C25.1207 10.7046 24.9287 10.6315 24.7507 10.516C24.5726 10.4005 24.4226 10.2322 24.3007 10.0111C24.1451 9.72912 24.1022 9.43961 24.172 9.14262C24.2418 8.84562 24.3951 8.56473 24.6318 8.29995C24.8685 8.03516 25.1545 7.81026 25.4899 7.62525Z" fill="#9CC8DE"/>
<path d="M31.1658 1.61035L33.2916 1.04292C34.1789 0.806065 34.9584 0.789475 35.6299 0.993147C36.3003 1.19261 36.8601 1.56804 37.3091 2.11943C37.7581 2.67083 38.0904 3.35024 38.3059 4.15767C38.5225 4.96931 38.5736 5.72603 38.4591 6.42784C38.3488 7.12853 38.0533 7.73449 37.5726 8.24574C37.0919 8.75698 36.4057 9.13159 35.5142 9.36956L33.3884 9.937L31.1658 1.61035ZM32.8041 2.45697L34.3868 8.38655L35.0807 8.20134C35.6821 8.04082 36.1404 7.78332 36.4558 7.42885C36.7742 7.06905 36.9664 6.64157 37.0325 6.14641C37.0985 5.65125 37.0573 5.11714 36.9089 4.54409C36.7604 3.97103 36.5342 3.48632 36.2301 3.08994C35.925 2.68935 35.5426 2.41299 35.0831 2.26086C34.6277 2.1076 34.0993 2.11124 33.498 2.27176L32.8041 2.45697Z" fill="#9CC8DE"/>
<path d="M44.9101 7.83759L44.8413 6.84759C44.8138 6.95422 44.7239 7.10445 44.5716 7.2983C44.4236 7.49184 44.2136 7.67224 43.9417 7.83951C43.674 8.00647 43.3492 8.10324 42.967 8.12981C42.4677 8.16454 42.01 8.07639 41.5939 7.86536C41.1778 7.65433 40.8399 7.34405 40.5802 6.93453C40.3205 6.52501 40.1713 6.04235 40.1326 5.48656C40.0939 4.93076 40.1749 4.4321 40.3754 3.99057C40.576 3.54903 40.8677 3.19496 41.2505 2.92836C41.6331 2.65742 42.074 2.50458 42.5734 2.46985C42.9468 2.44388 43.2748 2.48651 43.5574 2.59775C43.8401 2.70899 44.0698 2.84354 44.2465 3.00141C44.4277 3.15897 44.5421 3.29936 44.59 3.42256L44.5252 2.49117L45.906 2.39514L46.2779 7.74246L44.9101 7.83759ZM41.5069 5.39097C41.5307 5.734 41.6276 6.02832 41.7974 6.27394C41.9672 6.51955 42.1785 6.70338 42.4313 6.82541C42.6885 6.94715 42.9582 6.9982 43.2404 6.97857C43.5443 6.95743 43.8086 6.86706 44.0331 6.70746C44.2619 6.54756 44.4349 6.33701 44.552 6.0758C44.6731 5.80995 44.7219 5.50769 44.6983 5.169C44.6748 4.83031 44.5848 4.53988 44.4283 4.2977C44.2759 4.05088 44.0753 3.86413 43.8265 3.73745C43.5818 3.60612 43.3074 3.55103 43.0035 3.57217C42.7212 3.5918 42.4613 3.68187 42.2238 3.84237C41.9903 3.99823 41.8065 4.20954 41.6723 4.4763C41.5382 4.74305 41.483 5.04794 41.5069 5.39097Z" fill="#9CC8DE"/>
<path d="M50.3164 6.80732L52.4471 2.90091L53.8297 3.05073L49.3377 10.6875L47.9356 10.5356L49.4485 7.96761L47.8191 2.39941L49.2211 2.55134L50.3164 6.80732Z" fill="#9CC8DE"/>
<path d="M59.811 1.19336L61.1044 1.66762L58.56 8.60658L61.6679 9.74616L61.2453 10.8986L56.8441 9.28472L59.811 1.19336Z" fill="#9CC8DE"/>
<path d="M62.5903 11.5826L65.0394 6.81454L66.2764 7.44995L63.8273 12.218L62.5903 11.5826ZM66.4063 5.71104C66.1972 5.60365 66.056 5.43568 65.9825 5.20712C65.913 4.98055 65.9319 4.76273 66.0393 4.55366C66.1467 4.34458 66.3127 4.20234 66.5374 4.12691C66.7679 4.0496 66.9878 4.06465 67.1968 4.17204C67.3362 4.24363 67.4451 4.34604 67.5234 4.47927C67.6077 4.61061 67.6548 4.75226 67.6648 4.9042C67.6807 5.05427 67.6519 5.20093 67.5783 5.34418C67.4709 5.55325 67.3029 5.69451 67.0744 5.76794C66.8458 5.84138 66.6231 5.82241 66.4063 5.71104Z" fill="#9CC8DE"/>
<path d="M73.8919 12.3296C74.2113 12.5711 74.4345 12.8461 74.5613 13.1547C74.6917 13.466 74.713 13.8095 74.6255 14.1852C74.5414 14.5636 74.334 14.9715 74.0034 15.4091L72.1179 17.9041L71.0188 17.0735L72.7547 14.7765C73.067 14.3632 73.2455 14.0043 73.2901 13.6998C73.3382 13.3979 73.2026 13.1263 72.8831 12.8848C72.7095 12.7536 72.5108 12.6772 72.2872 12.6554C72.0635 12.6337 71.834 12.6812 71.5985 12.7979C71.3691 12.9137 71.1468 13.114 70.9317 13.3987L69.1957 15.6958L68.1644 14.9164L69.9003 12.6193C70.2126 12.2061 70.3789 11.838 70.3992 11.5151C70.423 11.1949 70.296 10.9298 70.0182 10.7198C69.8411 10.586 69.6438 10.5078 69.4262 10.4852C69.2087 10.4627 68.9839 10.5111 68.7519 10.6303C68.5199 10.7496 68.295 10.9534 68.0772 11.2416L66.3413 13.5387L65.237 12.7042L68.4688 8.42775L69.573 9.26225L69.0889 9.90294C69.2084 9.82416 69.3788 9.77559 69.6 9.75725C69.8246 9.74153 70.0691 9.7681 70.3335 9.83696C70.5979 9.90583 70.8499 10.0308 71.0895 10.2119C71.35 10.4087 71.5285 10.62 71.6252 10.8458C71.728 11.0708 71.7759 11.2925 71.769 11.511C71.7656 11.7321 71.7344 11.9322 71.6754 12.1113C71.8316 12.0057 72.033 11.9342 72.2795 11.8968C72.5295 11.862 72.7958 11.8777 73.0785 11.9441C73.3638 12.0069 73.6349 12.1354 73.8919 12.3296Z" fill="#9CC8DE"/>
<path d="M73.2463 19.3265L77.185 15.6908L78.1283 16.7126L74.1896 20.3484L73.2463 19.3265ZM78.8479 15.1243C78.6884 14.9516 78.6135 14.7453 78.6231 14.5054C78.6357 14.2687 78.7283 14.0707 78.901 13.9113C79.0737 13.7518 79.2785 13.6753 79.5154 13.6817C79.7585 13.6883 79.9598 13.778 80.1192 13.9507C80.2255 14.0659 80.2925 14.1995 80.3203 14.3515C80.3543 14.5038 80.3498 14.653 80.307 14.7991C80.2704 14.9455 80.1929 15.0733 80.0746 15.1826C79.9018 15.342 79.6956 15.4169 79.4557 15.4073C79.2158 15.3977 79.0132 15.3034 78.8479 15.1243Z" fill="#9CC8DE"/>
<path d="M79.3964 18.1164L79.9967 18.923L81.7617 17.6093L82.5881 18.7196L80.8231 20.0333L81.6145 21.0965L80.6717 21.7982L79.8804 20.735L78.042 22.1033C77.8116 22.2748 77.6674 22.4419 77.6093 22.6044C77.5539 22.7705 77.5807 22.9269 77.6899 23.0735C77.7808 23.1957 77.875 23.2749 77.9723 23.3109C78.0723 23.3504 78.1362 23.3707 78.1641 23.3717L77.6602 24.3897C77.6237 24.3843 77.5433 24.3492 77.419 24.2843C77.2948 24.2194 77.152 24.1223 76.9905 23.9929C76.8291 23.8634 76.6717 23.6957 76.5183 23.4897C76.2481 23.1266 76.1302 22.7422 76.1648 22.3367C76.2019 21.9347 76.451 21.5621 76.9119 21.2191L79.054 19.6247L78.4536 18.8181L79.3964 18.1164Z" fill="#9CC8DE"/>
<path d="M80.7137 25.2943C80.4681 25.435 80.275 25.6142 80.1346 25.832C79.9941 26.0498 79.9236 26.297 79.9229 26.5735C79.9281 26.8518 80.0145 27.1485 80.1823 27.4635C80.3276 27.7363 80.4888 27.9512 80.6662 28.1082C80.8494 28.2671 81.0277 28.3842 81.2009 28.4596C81.3781 28.533 81.5291 28.5758 81.654 28.5882L81.2022 29.5315C80.9774 29.4983 80.7535 29.4252 80.5306 29.3122C80.3077 29.1991 80.09 29.0265 79.8777 28.7944C79.6635 28.5682 79.4521 28.2592 79.2434 27.8673C78.9693 27.3525 78.8366 26.8487 78.8453 26.3558C78.8541 25.8629 78.9943 25.4086 79.266 24.9927C79.5397 24.5806 79.934 24.2375 80.4488 23.9634C80.9098 23.7179 81.3759 23.593 81.847 23.5887C82.3219 23.5823 82.7641 23.7044 83.1736 23.9548C83.5852 24.209 83.928 24.5936 84.2022 25.1084C84.4579 25.5886 84.5838 26.0566 84.5799 26.5123C84.5761 26.9681 84.4447 27.3881 84.1859 27.7725C83.9329 28.1587 83.5529 28.4869 83.0457 28.7569C83.015 28.7733 82.9506 28.8051 82.8525 28.8524C82.7565 28.9036 82.691 28.9335 82.6562 28.9422L80.7137 25.2943ZM82.9506 27.3282C83.0715 27.2589 83.1893 27.1419 83.3038 26.9774C83.4204 26.8166 83.4903 26.6192 83.5135 26.3849C83.5405 26.1486 83.4773 25.8864 83.3239 25.5982C83.1664 25.3024 82.9809 25.093 82.7674 24.97C82.5578 24.8449 82.3507 24.7801 82.1462 24.7756C81.9454 24.7691 81.7737 24.7939 81.6311 24.8502L82.9506 27.3282Z" fill="#9CC8DE"/>
<path d="M81.614 33.341C81.4581 32.8607 81.4342 32.3994 81.5424 31.9571C81.6505 31.5147 81.8731 31.1221 82.2103 30.7793C82.5489 30.4406 82.9831 30.1853 83.513 30.0133C84.043 29.8413 84.5444 29.793 85.0173 29.8683C85.4915 29.9478 85.9023 30.1348 86.2496 30.4294C86.601 30.7226 86.8546 31.1093 87.0105 31.5896C87.1261 31.9456 87.1667 32.2825 87.1326 32.6002C87.1025 32.9165 87.0336 33.1837 86.9259 33.4017C86.8182 33.6197 86.707 33.7633 86.5922 33.8326L90.9268 32.4259L91.3581 33.7548L82.813 36.528L82.3878 35.2177L83.3317 34.9114C83.168 34.9004 82.9724 34.8335 82.7449 34.7106C82.5174 34.5876 82.2972 34.4097 82.0843 34.1768C81.8769 33.9466 81.7201 33.668 81.614 33.341ZM82.7992 33.3339C82.8932 33.6237 83.0468 33.8644 83.26 34.056C83.4732 34.2477 83.7228 34.3749 84.0086 34.4377C84.2985 34.4992 84.6049 34.4776 84.9279 34.3728C85.2508 34.268 85.5095 34.1062 85.7039 33.8875C85.9025 33.6675 86.0318 33.4173 86.0918 33.137C86.156 32.8553 86.1411 32.5696 86.047 32.2798C85.961 32.0148 85.8128 31.7907 85.6022 31.6073C85.3972 31.4267 85.1504 31.3078 84.8618 31.2504C84.5732 31.1931 84.2654 31.2175 83.9383 31.3236C83.6112 31.4298 83.3477 31.5908 83.1478 31.8067C82.9479 32.0226 82.818 32.2638 82.758 32.5304C82.6995 32.8011 82.7132 33.0689 82.7992 33.3339Z" fill="#9CC8DE"/>
<path d="M83.056 39.0423C83.0123 38.7804 83.0669 38.5396 83.22 38.3199C83.378 38.1037 83.5901 37.9734 83.8563 37.9289C84.1225 37.8845 84.3654 37.9388 84.5852 38.0918C84.8056 38.2492 84.9377 38.4588 84.9815 38.7207C85.0267 38.9911 84.9702 39.2344 84.8121 39.4506C84.6548 39.671 84.443 39.8035 84.1769 39.848C83.9107 39.8924 83.6674 39.836 83.4469 39.6786C83.2315 39.5249 83.1012 39.3128 83.056 39.0423Z" fill="#9CC8DE"/>
</svg>
