<svg width="265" height="43" viewBox="0 0 265 43" fill="none" xmlns="http://www.w3.org/2000/svg">
<path d="M255.783 34.2773C255.783 37.7344 256.515 39.4629 257.98 39.4629C259.074 39.4629 260.666 38.0176 262.755 35.127L264.015 36.2695C263.332 37.5195 262.511 38.6719 261.554 39.7266C259.738 41.7188 258.048 42.7148 256.486 42.7148C255.392 42.7148 254.494 42.168 253.791 41.0742C253.087 39.9805 252.736 38.7891 252.736 37.5C251.935 39.1602 250.861 40.4492 249.513 41.3672C248.185 42.2656 246.896 42.7148 245.646 42.7148C243.087 42.7148 241.808 41.6016 241.808 39.375C241.808 38.6914 242.033 38.1152 242.482 37.6465C242.912 37.1582 243.439 36.9141 244.064 36.9141C244.708 36.9141 245.216 37.002 245.587 37.1777C245.978 37.3535 246.271 37.6562 246.466 38.0859C246.759 38.7109 246.984 39.5996 247.14 40.752C247.921 40.752 248.771 40.127 249.689 38.877C250.607 37.627 251.183 36.0938 251.417 34.2773H246.964L247.638 33.3105H251.476C251.476 33.2324 251.476 32.9688 251.476 32.5195C251.476 32.0508 251.466 31.5723 251.447 31.084C251.427 30.5957 251.369 29.9805 251.271 29.2383C251.095 27.7148 250.636 26.9531 249.894 26.9531C249.152 26.9531 248.224 27.6172 247.111 28.9453C246.759 29.3945 246.427 29.8242 246.115 30.2344C245.802 30.6445 245.626 30.8789 245.587 30.9375C245.548 30.9766 245.509 31.0254 245.47 31.084L243.654 30C246.251 26.3672 248.654 24.5508 250.861 24.5508C252.638 24.5508 253.869 25.7422 254.552 28.125C254.708 28.6328 254.816 29.1211 254.875 29.5898C256.73 26.2305 259.054 24.5508 261.847 24.5508C262.628 24.5508 263.292 24.7656 263.839 25.1953C264.386 25.625 264.66 26.2598 264.66 27.0996C264.66 27.9199 264.455 28.6035 264.044 29.1504C263.654 29.6777 263.107 29.9414 262.404 29.9414C261.701 29.9414 261.085 29.7168 260.558 29.2676C260.031 28.7988 259.669 28.3398 259.474 27.8906L259.152 27.1875C258.136 27.8516 257.316 28.7402 256.691 29.8535C256.085 30.9668 255.783 32.1191 255.783 33.3105H259.972L260.353 34.2773H255.783Z" fill="#E8B500"/>
<path d="M221.987 35.2734C221.987 33.8086 222.339 32.4023 223.042 31.0547C223.764 29.6875 224.692 28.5352 225.825 27.5977C228.325 25.5664 230.874 24.5508 233.471 24.5508C236.069 24.5508 238.198 25.2441 239.858 26.6309C241.518 28.0176 242.348 29.7559 242.348 31.8457C242.348 33.916 241.772 35.7812 240.62 37.4414C239.487 39.1016 237.983 40.4004 236.108 41.3379C234.233 42.2559 232.182 42.7148 229.956 42.7148C227.749 42.7148 225.864 42.0215 224.302 40.6348C222.759 39.2285 221.987 37.4414 221.987 35.2734ZM231.567 40.8984C232.466 40.8984 233.305 40.6055 234.087 40.0195C234.887 39.4336 235.493 38.6719 235.903 37.7344C236.704 35.9375 237.104 34.082 237.104 32.168C237.104 30.2539 236.753 28.8086 236.05 27.832C235.346 26.8359 234.35 26.3379 233.061 26.3379C231.772 26.3379 230.493 27.1777 229.223 28.8574C227.973 30.5371 227.348 32.6758 227.348 35.2734C227.348 39.0234 228.755 40.8984 231.567 40.8984Z" fill="#E8B500"/>
<path d="M218.426 38.8184C217.469 39.9707 216.199 40.9082 214.617 41.6309C213.035 42.3535 211.209 42.7148 209.139 42.7148C207.068 42.7148 205.311 42.0996 203.865 40.8691C202.439 39.6387 201.727 38.0762 201.727 36.1816C201.727 35.9668 201.766 35.5664 201.844 34.9805C202.645 29.6094 204.1 23.7305 206.209 17.3438C208.318 10.9375 210.584 6.16211 213.006 3.01758H217.986C216.521 4.6582 214.764 8.14453 212.713 13.4766C210.682 18.8086 209.041 24.0625 207.791 29.2383C210.154 26.1133 212.811 24.5508 215.76 24.5508C217.596 24.5508 219.002 25.1758 219.979 26.4258C220.975 27.6562 221.473 29.0723 221.473 30.6738C221.473 32.2754 221.209 33.75 220.682 35.0977C220.154 36.4258 219.402 37.666 218.426 38.8184ZM206.883 34.9805C206.727 35.8008 206.648 36.6016 206.648 37.3828C206.648 38.1445 206.932 38.9258 207.498 39.7266C208.064 40.5078 208.934 40.8984 210.105 40.8984C211.277 40.8984 212.352 40.3906 213.328 39.375C215.203 37.4023 216.141 34.7949 216.141 31.5527C216.141 30.2246 215.916 29.1406 215.467 28.3008C215.018 27.4414 214.324 27.0117 213.387 27.0117C212.449 27.0117 211.277 27.7637 209.871 29.2676C208.484 30.7715 207.488 32.6758 206.883 34.9805Z" fill="#E8B500"/>
<path d="M183.149 38.6426C181.098 41.3574 178.647 42.7148 175.795 42.7148C173.881 42.7148 172.26 42.0215 170.932 40.6348C169.604 39.2285 168.94 37.4414 168.94 35.2734C168.94 32.3633 170.034 29.8535 172.221 27.7441C174.409 25.6152 176.86 24.5508 179.575 24.5508C180.981 24.5508 182.182 24.834 183.178 25.4004C184.194 25.9473 184.848 26.6992 185.141 27.6562C186.04 23.9648 187.329 19.6875 189.008 14.8242C190.708 9.94141 192.27 6.10352 193.696 3.31055H198.383C196.567 6.9043 194.331 12.998 191.674 21.5918C189.018 30.166 187.69 35.5273 187.69 37.6758C187.69 38.4375 187.846 38.8184 188.159 38.8184C188.94 38.8184 190.19 37.5781 191.909 35.0977L193.168 36.2695C191.938 38.457 190.62 40.0781 189.213 41.1328C187.807 42.1875 186.674 42.7148 185.815 42.7148C184.975 42.7148 184.311 42.4121 183.823 41.8066C183.354 41.1816 183.12 40.2832 183.12 39.1113C183.12 39.0723 183.12 39.0039 183.12 38.9062C183.139 38.7891 183.149 38.7012 183.149 38.6426ZM174.243 35.0977C174.243 38.2422 175.454 39.8145 177.875 39.8145C180.141 39.8145 182.006 38.3008 183.471 35.2734C184.155 33.8477 184.497 32.6953 184.497 31.8164C184.497 28.6523 183.295 27.0703 180.893 27.0703C179.292 27.0703 177.778 27.8125 176.352 29.2969C174.946 30.7617 174.243 32.6953 174.243 35.0977Z" fill="#E8B500"/>
<path d="M155.447 36.4746C155.564 38.7207 157.078 39.8438 159.988 39.8438C161.062 39.8438 162.175 39.541 163.328 38.9355C164.5 38.3105 165.447 37.5781 166.169 36.7383L167.429 37.5586C165.808 40.2734 163.22 41.9336 159.666 42.5391C158.884 42.6562 158.132 42.7148 157.41 42.7148C155.3 42.7148 153.542 42.0215 152.136 40.6348C150.73 39.2285 150.027 37.5195 150.027 35.5078C150.027 33.4961 150.642 31.6406 151.873 29.9414C153.103 28.2227 154.636 26.8945 156.472 25.957C158.328 25.0195 160.154 24.5508 161.951 24.5508C163.748 24.5508 165.3 24.9609 166.609 25.7812C167.937 26.6016 168.611 27.7051 168.63 29.0918C168.669 30.4785 168.269 31.6797 167.429 32.6953C166.589 33.6914 165.525 34.4531 164.236 34.9805C161.677 36.0156 159.167 36.5332 156.707 36.5332L155.447 36.4746ZM155.271 34.8633C157.439 34.7852 159.177 34.4434 160.486 33.8379C161.814 33.2129 162.732 32.5098 163.24 31.7285C163.767 30.9277 164.031 30.0977 164.031 29.2383C164.031 28.3594 163.806 27.7148 163.357 27.3047C162.908 26.875 162.429 26.6602 161.921 26.6602C160.671 26.6602 159.519 27.0996 158.464 27.9785C157.429 28.8379 156.638 29.8926 156.091 31.1426C155.544 32.373 155.271 33.6133 155.271 34.8633Z" fill="#E8B500"/>
<path d="M142.657 25.1953C144.669 18.9453 146.719 13.7109 148.809 9.49219L152.442 9.78516C152.227 10.4102 151.7 11.9141 150.86 14.2969C149.044 19.5508 147.872 23.1836 147.344 25.1953H151.944L151.475 27.1289H146.729C144.932 32.6758 144.034 36.0547 144.034 37.2656C144.034 38.457 144.151 39.0527 144.385 39.0527C144.639 39.0527 144.864 39.0039 145.059 38.9062C145.587 38.6133 146.719 37.1875 148.458 34.6289L149.659 35.7129C148.35 38.0957 147.003 39.8633 145.616 41.0156C144.229 42.1484 143.087 42.7148 142.188 42.7148C141.29 42.7148 140.606 42.4023 140.137 41.7773C139.688 41.1523 139.464 40.3516 139.464 39.375C139.464 36.8945 140.333 32.8125 142.071 27.1289H138.995L139.464 25.1953H142.657Z" fill="#E8B500"/>
<path d="M131.713 25.1953H136.283L133.969 33.9551C133.598 35.1855 133.412 36.3086 133.412 37.3242C133.412 38.3203 133.588 38.8184 133.939 38.8184C134.291 38.8184 134.77 38.5156 135.375 37.9102C136 37.2852 136.527 36.6602 136.957 36.0352L137.631 35.0977L138.891 36.2695C138.246 37.5195 137.426 38.6621 136.43 39.6973C134.496 41.709 132.816 42.7148 131.391 42.7148C129.711 42.7148 128.871 41.416 128.871 38.8184C128.871 38.3887 128.891 38.0664 128.93 37.8516C128.637 38.8477 128.08 39.7266 127.26 40.4883C125.697 41.9727 123.93 42.7148 121.957 42.7148C120.004 42.7148 118.432 42.0508 117.24 40.7227C116.068 39.375 115.482 37.6953 115.482 35.6836C115.482 32.5586 116.498 29.9219 118.529 27.7734C120.561 25.625 122.943 24.5508 125.678 24.5508C127.045 24.5508 128.178 24.9316 129.076 25.6934C129.975 26.4355 130.561 27.4121 130.834 28.623L131.713 25.1953ZM126.82 27.0703C125.688 27.0703 124.623 27.5488 123.627 28.5059C122.65 29.4434 121.898 30.5859 121.371 31.9336C120.844 33.2617 120.58 34.5605 120.58 35.8301C120.58 37.0996 120.854 38.125 121.4 38.9062C121.967 39.6875 122.826 40.0781 123.979 40.0781C125.15 40.0781 126.205 39.5508 127.143 38.4961C128.92 36.4648 129.809 34.0527 129.809 31.2598C129.809 28.4668 128.812 27.0703 126.82 27.0703Z" fill="#E8B500"/>
<path d="M112.859 36.1816L114.06 37.0312C113.2 38.7695 111.872 40.1562 110.075 41.1914C108.298 42.207 106.433 42.7148 104.48 42.7148C102.527 42.7148 100.876 42.1191 99.5286 40.9277C98.2004 39.7363 97.5364 38.0566 97.5364 35.8887C97.5364 33.7012 98.2004 31.7285 99.5286 29.9707C100.876 28.2129 102.527 26.875 104.48 25.957C106.433 25.0195 108.406 24.5508 110.398 24.5508C112.839 24.5508 114.48 25.1367 115.32 26.3086C115.671 26.7773 115.847 27.373 115.847 28.0957C115.847 28.7988 115.603 29.3945 115.115 29.8828C114.626 30.3711 114.04 30.6152 113.357 30.6152C112.673 30.6152 112.097 30.4004 111.628 29.9707C111.159 29.5215 110.925 28.9551 110.925 28.2715C110.925 27.5879 111.345 26.9629 112.185 26.3965C111.443 26.1621 110.759 26.0449 110.134 26.0449C108.786 26.0449 107.546 26.543 106.413 27.5391C105.281 28.5352 104.421 29.7461 103.835 31.1719C103.249 32.5781 102.956 33.9648 102.956 35.332C102.956 36.6992 103.279 37.8027 103.923 38.6426C104.587 39.4629 105.534 39.873 106.765 39.873C107.995 39.873 109.177 39.5312 110.31 38.8477C111.443 38.1445 112.292 37.2559 112.859 36.1816Z" fill="#E8B500"/>
<path d="M90.4595 42.7148C89.6392 42.7148 88.9946 42.4609 88.5259 41.9531C88.0571 41.4453 87.8228 40.752 87.8228 39.873C87.8228 38.9746 88.0474 37.7637 88.4966 36.2402C88.9653 34.6973 89.4243 33.3008 89.8735 32.0508C90.3423 30.8008 90.5767 29.9707 90.5767 29.5605C90.5767 29.1309 90.4399 28.916 90.1665 28.916C89.4829 28.916 88.3794 30.2637 86.856 32.959L84.8931 31.8164C87.7642 26.9727 90.4009 24.5508 92.8032 24.5508C94.4438 24.5508 95.2642 25.5859 95.2642 27.6562C95.2642 28.2617 95.0688 29.2285 94.6782 30.5566L92.5688 36.5918C92.354 37.1582 92.2466 37.6758 92.2466 38.1445C92.2466 38.5938 92.4224 38.8184 92.7739 38.8184C93.438 38.8184 94.6587 37.5879 96.436 35.127L97.6665 36.2695C96.6118 38.2227 95.3521 39.7852 93.8872 40.957C92.4419 42.1289 91.2993 42.7148 90.4595 42.7148ZM98.8091 15.9082C98.8091 16.6895 98.5454 17.4023 98.0181 18.0469C97.4907 18.6914 96.7778 19.0137 95.8794 19.0137C94.981 19.0137 94.3071 18.75 93.8579 18.2227C93.4087 17.6758 93.1841 16.9922 93.1841 16.1719C93.1841 15.3516 93.4575 14.6289 94.0044 14.0039C94.5708 13.3594 95.2935 13.0371 96.1724 13.0371C97.0513 13.0371 97.7056 13.3203 98.1353 13.8867C98.5845 14.4336 98.8091 15.1074 98.8091 15.9082Z" fill="#E8B500"/>
<path d="M75.4722 38.6426C73.4214 41.3574 70.9702 42.7148 68.1187 42.7148C66.2046 42.7148 64.5835 42.0215 63.2554 40.6348C61.9272 39.2285 61.2632 37.4414 61.2632 35.2734C61.2632 32.3633 62.3569 29.8535 64.5444 27.7441C66.7319 25.6152 69.1831 24.5508 71.8979 24.5508C73.3042 24.5508 74.5054 24.834 75.5015 25.4004C76.5171 25.9473 77.1714 26.6992 77.4644 27.6562C78.3628 23.9648 79.6519 19.6875 81.3315 14.8242C83.0308 9.94141 84.5933 6.10352 86.019 3.31055H90.7065C88.8901 6.9043 86.6538 12.998 83.9976 21.5918C81.3413 30.166 80.0132 35.5273 80.0132 37.6758C80.0132 38.4375 80.1694 38.8184 80.4819 38.8184C81.2632 38.8184 82.5132 37.5781 84.2319 35.0977L85.4917 36.2695C84.2612 38.457 82.9429 40.0781 81.5366 41.1328C80.1304 42.1875 78.9976 42.7148 78.1382 42.7148C77.2983 42.7148 76.6343 42.4121 76.146 41.8066C75.6772 41.1816 75.4429 40.2832 75.4429 39.1113C75.4429 39.0723 75.4429 39.0039 75.4429 38.9062C75.4624 38.7891 75.4722 38.7012 75.4722 38.6426ZM66.5659 35.0977C66.5659 38.2422 67.7769 39.8145 70.1987 39.8145C72.4644 39.8145 74.3296 38.3008 75.7944 35.2734C76.478 33.8477 76.8198 32.6953 76.8198 31.8164C76.8198 28.6523 75.6187 27.0703 73.2163 27.0703C71.6147 27.0703 70.1011 27.8125 68.6753 29.2969C67.269 30.7617 66.5659 32.6953 66.5659 35.0977Z" fill="#E8B500"/>
<path d="M47.7703 36.4746C47.8875 38.7207 49.4011 39.8438 52.3113 39.8438C53.3855 39.8438 54.4988 39.541 55.6511 38.9355C56.823 38.3105 57.7703 37.5781 58.4929 36.7383L59.7527 37.5586C58.1316 40.2734 55.5437 41.9336 51.989 42.5391C51.2078 42.6562 50.4558 42.7148 49.7332 42.7148C47.6238 42.7148 45.866 42.0215 44.4597 40.6348C43.0535 39.2285 42.3503 37.5195 42.3503 35.5078C42.3503 33.4961 42.9656 31.6406 44.196 29.9414C45.4265 28.2227 46.9597 26.8945 48.7957 25.957C50.6511 25.0195 52.4773 24.5508 54.2742 24.5508C56.071 24.5508 57.6238 24.9609 58.9324 25.7812C60.2605 26.6016 60.9343 27.7051 60.9539 29.0918C60.9929 30.4785 60.5925 31.6797 59.7527 32.6953C58.9128 33.6914 57.8484 34.4531 56.5593 34.9805C54.0007 36.0156 51.491 36.5332 49.03 36.5332L47.7703 36.4746ZM47.5945 34.8633C49.7625 34.7852 51.5007 34.4434 52.8093 33.8379C54.1375 33.2129 55.0554 32.5098 55.5632 31.7285C56.0906 30.9277 56.3542 30.0977 56.3542 29.2383C56.3542 28.3594 56.1296 27.7148 55.6804 27.3047C55.2312 26.875 54.7527 26.6602 54.2449 26.6602C52.9949 26.6602 51.8425 27.0996 50.7878 27.9785C49.7527 28.8379 48.9617 29.8926 48.4148 31.1426C47.8679 32.373 47.5945 33.6133 47.5945 34.8633Z" fill="#E8B500"/>
<path d="M5.21484 30.791L3.19336 31.6699C1.06445 27.5488 0 23.5742 0 19.7461C0 15 1.52344 10.9375 4.57031 7.55859C7.51953 4.27734 11.1914 2.05078 15.5859 0.878906C17.7539 0.292969 20.0293 0 22.4121 0C24.7949 0 26.9629 0.244141 28.916 0.732422C30.8691 1.2207 32.6855 2.1582 34.3652 3.54492C36.1816 2.06055 38.7402 1.31836 42.041 1.31836L42.627 3.13477C39.4824 3.75977 37.3828 4.48242 36.3281 5.30273C38.3789 7.19727 39.9316 9.67773 40.9863 12.7441C42.041 15.791 42.5684 18.7402 42.5684 21.5918C42.5684 24.4238 42.4023 26.7969 42.0703 28.7109C41.7383 30.625 41.1914 32.4316 40.4297 34.1309C39.6875 35.8105 38.75 37.2461 37.6172 38.4375C35.2148 41.0352 32.1094 42.334 28.3008 42.334C24.4922 42.334 20.3906 41.3867 15.9961 39.4922C14.9609 40.2734 13.4863 40.9766 11.5723 41.6016C9.67773 42.2266 7.90039 42.5391 6.24023 42.5391C2.90039 42.5391 1.23047 41.2402 1.23047 38.6426C1.23047 37.1191 2.08008 35.8496 3.7793 34.834C5.47852 33.7988 7.59766 33.2812 10.1367 33.2812C12.6953 33.2812 15.2148 33.8867 17.6953 35.0977C19.8828 32.2656 21.6016 28.3301 22.8516 23.291C23.3594 21.2988 23.9258 19.2773 24.5508 17.2266C25.9961 12.4805 28.623 8.41797 32.4316 5.03906C31.3965 4.08203 30.0293 3.34961 28.3301 2.8418C26.6504 2.31445 25.0098 2.05078 23.4082 2.05078C19.6777 2.05078 16.3281 2.7832 13.3594 4.24805C10.4102 5.69336 8.04688 7.88086 6.26953 10.8105C4.49219 13.7402 3.60352 17.1875 3.60352 21.1523C3.60352 24.0234 4.14062 27.2363 5.21484 30.791ZM39.1406 21.6797C39.1406 18.8281 38.7012 16.0938 37.8223 13.4766C36.9629 10.8594 35.8496 8.84766 34.4824 7.44141C33.3105 9.23828 32.3438 11.9434 31.582 15.5566C30.2734 21.9043 28.0762 27.0508 24.9902 30.9961C23.5449 32.8516 21.8359 34.5508 19.8633 36.0938C23.6328 38.0469 26.8457 39.0234 29.502 39.0234C32.1973 39.0234 34.248 38.1152 35.6543 36.2988C37.0996 34.4434 38.0469 32.2461 38.4961 29.707C38.9258 27.207 39.1406 24.5312 39.1406 21.6797ZM14.0332 38.1152C11.3574 37.002 8.85742 36.4453 6.5332 36.4453C4.22852 36.4453 3.07617 37.1582 3.07617 38.584C3.07617 39.7949 4.15039 40.4004 6.29883 40.4004C7.50977 40.4004 8.82812 40.1953 10.2539 39.7852C11.6992 39.3555 12.959 38.7988 14.0332 38.1152Z" fill="#E8B500"/>
</svg>
