<svg width="46" height="38" viewBox="0 0 46 38" fill="none" xmlns="http://www.w3.org/2000/svg">
<path d="M41.1929 3.98621C42.0616 3.98647 42.7729 4.68568 42.7729 5.5575V22.3827C42.7729 23.2545 42.0615 23.9537 41.1929 23.954H22.8101C21.9409 23.954 21.23 23.2543 21.23 22.3827V5.5575C21.23 4.68579 21.9409 3.98621 22.8101 3.98621H41.1929Z" fill="#0084C5" stroke="white"/>
<path d="M12.675 25.7987C14.9568 25.7987 16.8146 27.6341 16.8147 29.9061C16.8145 32.1789 14.9568 34.0135 12.675 34.0135C10.3941 34.0133 8.53659 32.1788 8.53638 29.9061C8.53638 27.6342 10.3941 25.7989 12.675 25.7987ZM12.675 28.7831C12.0428 28.7833 11.5383 29.2906 11.5383 29.9061C11.5385 30.523 12.0434 31.0299 12.675 31.0302C13.307 31.0302 13.8125 30.5231 13.8127 29.9061C13.8127 29.2904 13.3076 28.7831 12.675 28.7831Z" fill="#0084C5" stroke="white"/>
<path d="M34.1719 25.7987C36.4536 25.7987 38.3105 27.6341 38.3105 29.9061C38.3103 32.1789 36.4536 34.0135 34.1719 34.0135C31.8907 34.0135 30.0334 32.1789 30.0332 29.9061C30.0332 27.6341 31.8907 25.7987 34.1719 25.7987ZM34.1719 28.7831C33.54 28.7831 33.0352 29.2903 33.0352 29.9061C33.0354 30.5232 33.5405 31.0302 34.1719 31.0302C34.8037 31.0302 35.3094 30.5231 35.3096 29.9061C35.3096 29.2904 34.8043 28.7831 34.1719 28.7831Z" fill="#0084C5" stroke="white"/>
<path d="M18.9219 9.04626C19.6908 9.04626 20.324 9.66441 20.3242 10.4388V28.1556H17.4297L17.2969 27.8627C16.5046 26.1132 14.7335 24.8892 12.6758 24.889C10.6185 24.889 8.8465 26.1131 8.05371 27.8627L7.9209 28.1556H4.83984C4.071 28.1555 3.43945 27.5369 3.43945 26.7631V17.4281C3.43945 17.1013 3.5547 16.7839 3.7666 16.5336L9.6416 9.54626C9.90815 9.22751 10.303 9.0464 10.7148 9.04626H18.9219ZM11.9092 12.5199C11.7786 12.5199 11.6553 12.5781 11.5742 12.6771L7.82324 17.2562H7.82227C7.76122 17.3305 7.72852 17.4241 7.72852 17.5199V18.1371C7.7286 18.3653 7.91646 18.5578 8.15625 18.558H15.583C15.8241 18.558 16.0116 18.3653 16.0117 18.1371V12.9408C16.0117 12.7118 15.824 12.5199 15.583 12.5199H11.9092Z" fill="#0084C5" stroke="white"/>
<path d="M33.2307 24.6447L31.6243 25.5773C30.7135 26.1058 29.9846 26.9044 29.551 27.8624L29.4182 28.1564H22.1721C21.6201 28.1561 21.1665 27.7112 21.1663 27.1544V25.6476C21.1663 25.0905 21.6196 24.6449 22.1721 24.6447H33.2307Z" fill="#0084C5" stroke="white"/>
<path d="M41.7031 24.6448C42.2557 24.645 42.709 25.0906 42.709 25.6477V27.1545C42.7087 27.7114 42.2552 28.1563 41.7031 28.1565H38.9268L38.7939 27.8625C38.3604 26.9046 37.6314 26.106 36.7207 25.5774L35.1143 24.6448H41.7031Z" fill="#0084C5" stroke="white"/>
</svg>
