<svg width="65" height="16" viewBox="0 0 65 16" fill="none" xmlns="http://www.w3.org/2000/svg">
<path d="M7.1626 13.4462C7.08921 13.481 6.92068 13.5517 6.65701 13.6584C6.40067 13.7616 6.10397 13.8839 5.76691 14.0253C5.44058 14.1708 5.13063 14.3131 4.83707 14.4521C4.69028 14.5217 4.56722 14.5845 4.46787 14.6407C4.37586 14.6934 4.27284 14.7513 4.15882 14.8144C4.05553 14.8816 3.90481 14.9621 3.70665 15.056C3.61124 15.1012 3.52908 15.1264 3.46016 15.1317C3.39125 15.137 3.34488 15.1134 3.32108 15.0609C3.29387 15.0009 3.30622 14.9495 3.35813 14.9066C3.40664 14.8563 3.48818 14.7904 3.60274 14.7088C3.85782 14.5241 4.00953 14.3475 4.05786 14.1788C4.11354 14.0066 4.08015 13.7854 3.95772 13.5154L1.66204 8.45137C1.53961 8.18129 1.39784 8.01606 1.23674 7.95567C1.08297 7.89181 0.854742 7.89968 0.552045 7.97927C0.417076 8.01586 0.315133 8.03681 0.246217 8.04212C0.173899 8.03992 0.124136 8.00882 0.0969283 7.9488C0.0731214 7.89628 0.0854731 7.84487 0.133984 7.79455C0.182494 7.74423 0.254454 7.69647 0.349863 7.65127C0.540682 7.56088 0.692837 7.49337 0.806325 7.44872C0.923752 7.3931 1.03921 7.34296 1.1527 7.29832C1.26279 7.24617 1.4059 7.17837 1.58204 7.09494C1.69947 7.03931 1.84455 6.96603 2.01729 6.87509C2.19737 6.78068 2.37942 6.68077 2.56344 6.57538C2.75479 6.4665 2.92583 6.37181 3.07655 6.2913C3.23461 6.20732 3.35034 6.14794 3.42373 6.11318C4.17233 5.75857 4.85335 5.54989 5.4668 5.48713C6.07684 5.41687 6.62182 5.46857 7.10173 5.64222C7.57823 5.80837 7.99218 6.07251 8.34356 6.43463C8.69888 6.78577 8.98877 7.20892 9.21324 7.70406C9.45811 8.24422 9.5886 8.79755 9.6047 9.36406C9.62081 9.93057 9.53604 10.4811 9.35041 11.0155C9.16138 11.5425 8.88159 12.0168 8.51105 12.4384C8.14051 12.86 7.69102 13.1959 7.1626 13.4462ZM6.85195 13.1149C7.4244 12.8438 7.86619 12.4613 8.1773 11.9677C8.48841 11.474 8.65113 10.9185 8.66546 10.3011C8.68713 9.68024 8.55001 9.04347 8.25413 8.39078C8.00926 7.85062 7.70352 7.41219 7.33692 7.07551C6.96693 6.73132 6.57053 6.48621 6.14772 6.34019C5.72151 6.18667 5.29092 6.1218 4.85594 6.14558C4.41756 6.16186 4.01122 6.25865 3.63692 6.43596C3.32134 6.58545 3.05489 6.72533 2.83758 6.85561C2.6242 6.97491 2.48091 7.11114 2.40769 7.26429C2.33448 7.41745 2.34889 7.60656 2.45092 7.83162L4.72619 12.8506C4.86223 13.1507 5.04499 13.3375 5.27447 13.4111C5.50395 13.4846 5.75536 13.4886 6.0287 13.4229C6.30598 13.3462 6.5804 13.2436 6.85195 13.1149Z" fill="#0084C5"/>
<path d="M12.0269 11.3399C11.9255 11.3685 11.8404 11.3796 11.7716 11.3733C11.7049 11.3749 11.6651 11.3518 11.6522 11.304C11.6264 11.2084 11.7357 11.1003 11.9801 10.9799C12.2613 10.8406 12.4549 10.6873 12.5608 10.5202C12.6668 10.3531 12.681 10.126 12.6035 9.8391L11.1511 4.45889C11.0737 4.17194 10.9603 3.98519 10.8111 3.89862C10.6696 3.80985 10.4432 3.77936 10.1319 3.80715C9.99286 3.82063 9.88678 3.81624 9.81364 3.79398C9.7405 3.77172 9.6964 3.7327 9.68134 3.6769C9.66843 3.62908 9.69101 3.5884 9.74909 3.55486C9.80502 3.51335 9.88366 3.4783 9.98503 3.44971C10.2813 3.36613 10.5319 3.29973 10.7368 3.25051C10.9495 3.1991 11.1544 3.14988 11.3515 3.10286C11.5542 3.04568 11.792 2.97859 12.0649 2.90161C12.3223 2.82903 12.5913 2.75314 12.872 2.67396C13.1583 2.58461 13.4224 2.50584 13.6641 2.43766C13.9271 2.3549 14.1482 2.28823 14.3276 2.23764C14.5125 2.17688 14.6206 2.14211 14.6518 2.13331C14.6908 2.12231 14.7358 2.11818 14.7869 2.12093C14.838 2.12367 14.8728 2.14387 14.8914 2.18153C14.9906 2.39371 15.0899 2.60589 15.1891 2.81807C15.2862 3.02228 15.3562 3.20409 15.3993 3.36351C15.4186 3.43524 15.4121 3.48857 15.3795 3.52348C15.3548 3.55619 15.3229 3.57804 15.2839 3.58904C15.245 3.60003 15.2155 3.59976 15.1956 3.58822C15.1736 3.56871 15.1494 3.54122 15.123 3.50577C15.0474 3.38126 14.974 3.26473 14.9028 3.15617C14.8294 3.03963 14.7578 2.96117 14.6882 2.92077C14.5446 2.82403 14.4011 2.77443 14.2578 2.77197C14.1124 2.76154 13.9655 2.77722 13.8174 2.81901L12.2852 3.25121C12.2228 3.26881 12.1467 3.32887 12.0569 3.4314C11.9671 3.53393 11.9373 3.64099 11.9674 3.75258L12.6516 6.28725C12.671 6.35899 12.7077 6.41725 12.7618 6.46205C12.8215 6.49668 12.8786 6.50629 12.9332 6.4909L14.0911 6.16427C14.3172 6.10049 14.4624 6.01664 14.5267 5.91274C14.5888 5.80087 14.617 5.62565 14.6113 5.38707C14.6108 5.19852 14.6573 5.09105 14.7509 5.06465C14.7821 5.05585 14.8175 5.063 14.8573 5.08608C14.9049 5.10697 14.9373 5.14929 14.9546 5.21306C14.9632 5.24494 14.9786 5.31778 15.001 5.43156C15.0311 5.54315 15.0584 5.65983 15.0829 5.78159C15.1073 5.90335 15.1282 5.99611 15.1454 6.05988C15.1669 6.13958 15.196 6.24719 15.2325 6.38269C15.2748 6.50802 15.312 6.63047 15.3443 6.75003C15.3844 6.86739 15.4087 6.94201 15.4173 6.97389C15.4324 7.02969 15.4375 7.07971 15.4327 7.12396C15.4356 7.16601 15.4137 7.19364 15.3669 7.20684C15.25 7.23983 15.1259 7.13759 14.9946 6.90013C14.8983 6.73 14.7994 6.61209 14.6977 6.54641C14.5961 6.48073 14.4673 6.46988 14.3114 6.51387L13.2236 6.8207C13.091 6.85809 12.9951 6.90661 12.9356 6.96626C12.8819 7.01574 12.8733 7.10823 12.9099 7.24373L13.5295 9.53929C13.6113 9.84217 13.7307 10.0358 13.8877 10.1202C14.0426 10.1966 14.2526 10.1974 14.5177 10.1226L15.3833 9.87845C15.6328 9.80806 15.8362 9.73782 15.9935 9.66772C16.1564 9.58745 16.2895 9.48986 16.3927 9.37496C16.4938 9.25209 16.5718 9.10573 16.6266 8.93586C16.6893 8.76379 16.7507 8.5406 16.8109 8.26629C16.8214 8.21187 16.8379 8.16432 16.8605 8.12364C16.8831 8.08296 16.915 8.0611 16.9561 8.05808C16.9972 8.05505 17.0338 8.06618 17.0658 8.09146C17.0956 8.10878 17.117 8.14134 17.1299 8.18917C17.1493 8.2609 17.1642 8.39393 17.1747 8.58826C17.1831 8.77461 17.1819 8.97223 17.1712 9.18112C17.1682 9.38782 17.1584 9.55356 17.1417 9.67834C17.1334 9.74074 17.1229 9.79516 17.1103 9.84161C17.1055 9.88586 17.0797 9.91459 17.0329 9.92779C16.6586 10.0334 16.3105 10.1273 15.9887 10.2095C15.6668 10.2917 15.3606 10.3695 15.0699 10.4429C14.7793 10.5163 14.4925 10.5886 14.2096 10.6598C13.9346 10.7288 13.6489 10.8051 13.3526 10.8887C13.181 10.9371 13.034 10.9829 12.9114 11.026C12.7909 11.0772 12.6655 11.1254 12.5351 11.1708C12.4068 11.2241 12.2374 11.2805 12.0269 11.3399Z" fill="#0084C5"/>
<path d="M18.2577 9.58815C18.1537 9.60382 18.0673 9.60012 17.9985 9.57705C17.939 9.56095 17.9063 9.53245 17.9004 9.49155C17.8898 9.41793 17.9187 9.36342 17.9872 9.32803C18.0625 9.28325 18.1115 9.25496 18.1344 9.24316C18.437 9.13069 18.6635 9.00045 18.8139 8.85242C18.9631 8.69622 19.0182 8.48314 18.9793 8.21319L18.1583 2.51978C18.1299 2.32346 18.0893 2.18332 18.0363 2.09936C17.9821 2.00723 17.9001 1.94855 17.7902 1.92333C17.6791 1.88992 17.5211 1.87193 17.3163 1.86935C17.0452 1.86007 16.9013 1.79816 16.8848 1.68364C16.8777 1.63456 16.905 1.59701 16.9667 1.571C17.0272 1.53682 17.1094 1.51189 17.2135 1.49621C17.4295 1.46365 17.6022 1.44182 17.7314 1.43071C17.8686 1.41839 17.9978 1.40727 18.119 1.39737C18.2391 1.37928 18.3871 1.35697 18.5632 1.33044C18.7632 1.3003 18.9353 1.27437 19.0793 1.25267C19.2222 1.22278 19.3691 1.1923 19.5199 1.16121C19.6708 1.13012 19.8543 1.09829 20.0703 1.06573C20.1744 1.05006 20.2602 1.04967 20.3277 1.06456C20.3941 1.07128 20.4308 1.09917 20.4379 1.14826C20.4462 1.20552 20.4212 1.25942 20.3631 1.30997C20.305 1.36052 20.2097 1.40831 20.0772 1.45335C19.7893 1.55523 19.5473 1.66274 19.351 1.77589C19.1536 1.88087 19.072 2.05197 19.1062 2.28919L19.9396 8.0685C19.9761 8.32208 20.0593 8.50179 20.189 8.60761C20.3187 8.71343 20.5797 8.7368 20.9718 8.67771L22.4602 8.45343C22.6763 8.42087 22.8596 8.35982 23.0102 8.27026C23.1677 8.17131 23.2811 8.079 23.3505 7.99332C23.4905 7.83014 23.5888 7.68996 23.6455 7.57276C23.709 7.44618 23.7769 7.26462 23.8491 7.02808C23.858 6.97659 23.8794 6.89814 23.9133 6.79274C23.9551 6.68614 24.0041 6.62862 24.0601 6.62018C24.1081 6.61294 24.1476 6.63206 24.1787 6.67752C24.2098 6.72299 24.2289 6.77026 24.236 6.81934C24.2371 6.82752 24.2349 6.84039 24.2293 6.85796C24.2304 6.86614 24.2316 6.87432 24.2328 6.8825C24.2075 7.10363 24.1832 7.3037 24.1599 7.48272C24.1447 7.66053 24.1323 7.82956 24.1227 7.98981C24.1211 8.14885 24.1247 8.31547 24.1334 8.48966C24.1337 8.54813 24.1247 8.59962 24.1066 8.64414C24.0965 8.68745 24.0595 8.71393 23.9955 8.72358C23.5953 8.78387 23.2106 8.83766 22.8413 8.88495C22.472 8.93223 22.1148 8.97771 21.7695 9.02138C21.4334 9.07203 21.1087 9.11677 20.7954 9.15562C20.4821 9.19446 20.1734 9.2368 19.8693 9.28262C19.6693 9.31276 19.4418 9.35122 19.1869 9.39799C18.94 9.44355 18.7211 9.48489 18.5302 9.52201C18.3486 9.5661 18.2577 9.58815 18.2577 9.58815Z" fill="#0084C5"/>
<path d="M26.3211 8.50296C26.2161 8.50846 26.1307 8.50052 26.0648 8.47913C25.9993 8.466 25.9654 8.43466 25.9629 8.38511C25.9579 8.28602 26.0875 8.20472 26.3516 8.1412C26.6557 8.06732 26.8852 7.96008 27.0401 7.81949C27.195 7.6789 27.2653 7.46409 27.2508 7.17507L26.97 1.57632C26.9556 1.2873 26.8846 1.08403 26.7572 0.966514C26.6379 0.848574 26.4233 0.768743 26.1135 0.727022C25.8444 0.691443 25.707 0.61585 25.7012 0.500241C25.6987 0.450695 25.7293 0.415971 25.7931 0.396069C25.8565 0.367909 25.9407 0.351079 26.0457 0.345576C26.2638 0.334148 26.4418 0.328966 26.5795 0.330029C26.7253 0.330668 26.8631 0.33173 26.9928 0.333215C27.122 0.326443 27.2795 0.318189 27.4653 0.308454C27.6431 0.299143 27.7885 0.291524 27.9016 0.285598C28.0143 0.271415 28.135 0.256809 28.2639 0.241779C28.3927 0.226749 28.5662 0.21352 28.7843 0.202092C28.8893 0.196589 28.9747 0.204532 29.0406 0.225919C29.1061 0.239049 29.14 0.270387 29.1425 0.319933C29.1454 0.377737 29.1156 0.428976 29.053 0.473651C28.9905 0.518326 28.8912 0.556648 28.7551 0.588617C28.4591 0.662082 28.2455 0.764345 28.1144 0.895407C27.9833 1.02647 27.925 1.23651 27.9394 1.52553L28.2202 7.12428C28.2347 7.4133 28.33 7.61943 28.5063 7.74267C28.6826 7.8659 28.9216 7.94859 29.2234 7.99074C29.362 8.00831 29.4644 8.03192 29.5307 8.06157C29.597 8.09121 29.6316 8.13494 29.6345 8.19274C29.637 8.24229 29.6063 8.27701 29.5425 8.29692C29.4791 8.32508 29.3949 8.34191 29.2899 8.34741C29.0718 8.35884 28.8896 8.3601 28.7434 8.3512C28.6056 8.35014 28.4719 8.34887 28.3423 8.34738C28.2126 8.3459 28.0549 8.35002 27.869 8.35976C27.6671 8.37034 27.4896 8.38378 27.3365 8.40008C27.1915 8.41595 27.0384 8.43225 26.8773 8.44898C26.7246 8.47353 26.5392 8.49153 26.3211 8.50296Z" fill="#0084C5"/>
<path d="M34.1987 8.43146C34.1341 8.42821 34.091 8.39708 34.0696 8.33805C34.0416 8.24558 34.007 8.1238 33.9656 7.97271C33.9247 7.81337 33.8866 7.679 33.8514 7.56961L31.9259 1.37579C31.8562 1.14049 31.7564 0.940937 31.6266 0.777128C31.4968 0.613318 31.3283 0.497236 31.121 0.428881C30.9937 0.381098 30.8947 0.334734 30.824 0.28979C30.7613 0.245252 30.7314 0.194078 30.7342 0.136268C30.7366 0.0867165 30.7705 0.055304 30.8359 0.0420313C30.9017 0.0205001 30.9871 0.0123708 31.0922 0.0176437C31.2214 0.0241333 31.3626 0.0353611 31.5157 0.0513265C31.6769 0.0676971 31.8462 0.084473 32.0235 0.101655C32.2013 0.110578 32.383 0.119704 32.5689 0.129033C32.7305 0.137145 32.888 0.145054 33.0415 0.15276C33.2035 0.152614 33.3491 0.155786 33.4784 0.162275C33.6161 0.160912 33.7254 0.162259 33.8062 0.166315C33.9112 0.171587 33.9954 0.188233 34.0589 0.216254C34.1227 0.236016 34.1535 0.270674 34.1511 0.320225C34.1483 0.378036 34.1134 0.430095 34.0464 0.476401C33.9798 0.51445 33.8774 0.538285 33.7392 0.547907C33.5118 0.561326 33.3194 0.605475 33.1619 0.680355C33.0129 0.747382 32.9351 0.851094 32.9283 0.991491C32.9216 1.13189 32.9318 1.25658 32.9589 1.36556C32.9946 1.46669 33.0191 1.54657 33.0325 1.60519L34.5514 6.40022C34.566 6.43407 34.5852 6.45573 34.609 6.4652C34.6329 6.47468 34.6583 6.45112 34.6853 6.39453L36.5598 2.01822C36.7424 1.58862 36.7658 1.27107 36.6299 1.06556C36.5025 0.8522 36.3103 0.722514 36.0533 0.6765C35.9329 0.653899 35.8374 0.620126 35.7667 0.575182C35.6963 0.52198 35.6625 0.466474 35.6653 0.408663C35.6677 0.359111 35.7016 0.3277 35.767 0.314427C35.8329 0.292896 35.9183 0.284767 36.0233 0.29004C36.1283 0.295313 36.2455 0.301194 36.3748 0.307683C36.504 0.314173 36.6371 0.324995 36.7741 0.340148C36.9195 0.347449 37.069 0.354953 37.2225 0.362659C37.4568 0.374422 37.7074 0.382866 37.9744 0.387992C38.2418 0.38486 38.4523 0.387146 38.6058 0.394853C38.7108 0.400126 38.7951 0.416773 38.8585 0.444793C38.9223 0.464556 38.9531 0.499213 38.9507 0.548765C38.9479 0.606575 38.9132 0.654504 38.8466 0.692552C38.7804 0.722342 38.6778 0.750307 38.5389 0.776446C38.2368 0.827508 37.9796 0.955331 37.7673 1.15992C37.555 1.3645 37.399 1.57605 37.2995 1.79457L34.7497 7.3291C34.7316 7.36958 34.6951 7.45467 34.6403 7.58438C34.5939 7.70623 34.5429 7.84027 34.4873 7.98649C34.4317 8.13271 34.3773 8.25416 34.324 8.35083C34.3148 8.3752 34.2976 8.39503 34.2726 8.41033C34.2476 8.42563 34.2229 8.43267 34.1987 8.43146Z" fill="#0084C5"/>
<path d="M40.1115 8.74982C40.0078 8.7318 39.9261 8.70502 39.8664 8.66947C39.8053 8.64208 39.7788 8.60393 39.787 8.55502C39.8033 8.4572 39.947 8.40671 40.2183 8.40354C40.5309 8.39915 40.7697 8.34422 40.935 8.23875C41.1002 8.13328 41.2072 7.93381 41.256 7.64035L42.1714 2.13805C42.2202 1.84459 42.195 1.62633 42.0957 1.48326C42.0044 1.34158 41.812 1.21588 41.5184 1.10614C41.3869 1.05812 41.2927 1.00819 41.2357 0.956339C41.1787 0.904492 41.1549 0.850038 41.1644 0.792977C41.1725 0.744068 41.2098 0.717006 41.2763 0.711792C41.3442 0.698426 41.43 0.700754 41.5336 0.718774C41.8367 0.771448 42.0912 0.819882 42.2972 0.864074C42.5111 0.909652 42.7171 0.953844 42.9151 0.99665C43.1224 1.03269 43.3657 1.07497 43.6448 1.12348C43.9079 1.16923 44.183 1.21705 44.4701 1.26695C44.7665 1.31009 45.0383 1.35314 45.2855 1.39611C45.558 1.43509 45.786 1.47052 45.9694 1.50241C46.1621 1.52752 46.2744 1.54285 46.3063 1.5484C46.3462 1.55533 46.3887 1.5711 46.4339 1.59572C46.479 1.62034 46.5022 1.65372 46.5034 1.69587C46.5053 1.93104 46.5072 2.16622 46.5091 2.40139C46.5123 2.62842 46.5004 2.82344 46.4733 2.98648C46.4611 3.05984 46.433 3.10528 46.389 3.12281C46.3531 3.14172 46.3152 3.14771 46.2753 3.14078C46.2354 3.13385 46.2089 3.12084 46.1956 3.10177C46.1837 3.07454 46.1732 3.03916 46.1641 2.99563C46.1472 2.85012 46.1291 2.71277 46.1095 2.58356C46.0914 2.44621 46.0591 2.34415 46.0128 2.27738C45.9228 2.12755 45.8135 2.02047 45.6847 1.95615C45.5572 1.88368 45.4178 1.83427 45.2663 1.80793L43.6993 1.53555C43.6355 1.52446 43.5417 1.5459 43.4178 1.59985C43.294 1.65381 43.2226 1.73785 43.2036 1.85197L42.7724 4.44417C42.7601 4.51754 42.7692 4.58622 42.7996 4.65021C42.8393 4.70743 42.8871 4.7409 42.9429 4.7506L44.1271 4.95645C44.3584 4.99665 44.5246 4.98361 44.6259 4.91734C44.7286 4.84292 44.8268 4.69644 44.9206 4.4779C44.9982 4.30689 45.0849 4.22969 45.1806 4.24633C45.2125 4.25187 45.2417 4.27372 45.2682 4.31187C45.3026 4.35141 45.3144 4.40378 45.3036 4.469C45.2982 4.5016 45.282 4.57427 45.255 4.68701C45.236 4.80113 45.2124 4.91864 45.1841 5.03952C45.1557 5.16041 45.1362 5.25346 45.1253 5.31867C45.1117 5.40019 45.0934 5.51023 45.0704 5.64881C45.0567 5.78062 45.0396 5.90767 45.0193 6.02994C45.0069 6.1536 44.998 6.23173 44.9926 6.26434C44.9831 6.3214 44.967 6.36892 44.9443 6.40691C44.9295 6.44628 44.8982 6.46181 44.8504 6.45349C44.7308 6.4327 44.6607 6.28633 44.6403 6.01439C44.6237 5.81859 44.5829 5.66892 44.5181 5.56539C44.4533 5.46186 44.3411 5.39624 44.1816 5.36852L43.0692 5.17514C42.9336 5.15158 42.8266 5.15394 42.748 5.18222C42.6788 5.20374 42.6327 5.28378 42.6096 5.42236L42.2191 7.77001C42.1676 8.07977 42.1954 8.30688 42.3027 8.45133C42.4113 8.58763 42.6011 8.67935 42.8723 8.72648L43.7574 8.88034C44.0126 8.9247 44.226 8.9492 44.3975 8.95386C44.5784 8.95175 44.7394 8.92102 44.8805 8.86169C45.023 8.7942 45.1543 8.69541 45.2744 8.56531C45.4025 8.4366 45.5507 8.26107 45.719 8.0387C45.751 7.99395 45.7857 7.95804 45.823 7.93098C45.8604 7.90392 45.8983 7.89793 45.9368 7.91301C45.9753 7.92809 46.0038 7.95402 46.0223 7.99078C46.0422 8.0194 46.048 8.05816 46.0399 8.10707C46.0277 8.18043 45.9861 8.30739 45.915 8.48795C45.8453 8.66035 45.7623 8.83883 45.6659 9.02337C45.5776 9.20931 45.5 9.35518 45.4331 9.46098C45.3997 9.51388 45.3677 9.55864 45.3369 9.59524C45.3142 9.63322 45.2789 9.64806 45.2311 9.63974C44.8483 9.5732 44.4941 9.50744 44.1685 9.44246C43.8429 9.37747 43.5333 9.31526 43.2396 9.25582C42.9459 9.19638 42.6562 9.13763 42.3705 9.07958C42.0927 9.02291 41.8023 8.96824 41.4993 8.91557C41.3239 8.88507 41.1717 8.86281 41.0427 8.84878C40.9124 8.84291 40.7788 8.83226 40.6419 8.81685C40.5036 8.80959 40.3268 8.78724 40.1115 8.74982Z" fill="#0084C5"/>
<path d="M53.3221 12.1975C53.1062 12.1273 52.9081 12.0412 52.7276 11.9392C52.5447 11.845 52.387 11.7243 52.2546 11.5771C52.1221 11.43 52.0123 11.2511 51.925 11.0405C51.8136 10.744 51.7061 10.4617 51.6027 10.1939C51.5018 9.91809 51.3991 9.60705 51.2947 9.26073C51.1979 8.91691 51.0833 8.48052 50.9508 7.95154C50.8965 7.71696 50.7785 7.50942 50.597 7.32894C50.4544 7.18713 50.3032 7.07289 50.1434 6.98624C49.9938 6.89421 49.8663 6.82672 49.7608 6.78375C49.7016 6.75582 49.6492 6.76048 49.6037 6.79774C49.5658 6.8375 49.5359 6.89283 49.5138 6.96375L48.8666 9.04398C48.7881 9.29612 48.7773 9.53555 48.8341 9.76225C48.8933 9.98108 49.057 10.1644 49.325 10.3123C49.4487 10.3786 49.5365 10.4375 49.5883 10.489C49.6402 10.5406 49.6575 10.594 49.6404 10.6491C49.6257 10.6964 49.585 10.7179 49.5185 10.7136C49.4494 10.7172 49.3648 10.7027 49.2646 10.6701C49.0565 10.6025 48.8971 10.5419 48.7863 10.4886C48.6833 10.4377 48.5868 10.3933 48.4967 10.3554C48.4168 10.3121 48.3037 10.2666 48.1572 10.219C47.9645 10.1563 47.7886 10.1078 47.6295 10.0735C47.4806 10.0337 47.3266 9.99667 47.1676 9.9623C47.0162 9.93044 46.8365 9.88068 46.6283 9.81302C46.5281 9.78044 46.4509 9.7423 46.3965 9.69862C46.3398 9.66281 46.3188 9.62126 46.3335 9.57399C46.3629 9.47943 46.5121 9.44987 46.7812 9.48529C47.0913 9.52537 47.3315 9.50367 47.5018 9.4202C47.6797 9.33924 47.8141 9.15298 47.9048 8.86143L49.4714 3.82634C49.5646 3.52692 49.619 3.29733 49.6348 3.1376C49.6607 2.97249 49.6334 2.84212 49.5528 2.7465C49.4799 2.65339 49.3353 2.55868 49.1191 2.46236C48.993 2.404 48.9052 2.34509 48.8558 2.28565C48.8089 2.21832 48.794 2.15708 48.8111 2.10192C48.8258 2.05464 48.8665 2.03315 48.933 2.03744C49.0021 2.03385 49.0867 2.04834 49.1869 2.08092C49.395 2.14859 49.5492 2.19871 49.6494 2.23129C49.7573 2.26638 49.8563 2.3029 49.9464 2.34085C50.0389 2.37092 50.1622 2.41102 50.3164 2.46115C50.4628 2.50876 50.5951 2.54743 50.7132 2.57714C50.8337 2.59897 50.9646 2.6285 51.1058 2.66573C51.2547 2.70547 51.4409 2.76168 51.6644 2.83436C52.5124 3.11003 53.1058 3.48083 53.4446 3.94674C53.7912 4.41517 53.864 4.97244 53.6629 5.61857C53.5526 5.97316 53.3876 6.25791 53.1679 6.47283C52.9507 6.67986 52.7111 6.83622 52.449 6.94191C52.187 7.0476 51.9309 7.12051 51.6807 7.16066C51.6474 7.15851 51.6259 7.1732 51.6161 7.20472C51.6164 7.23086 51.622 7.26739 51.6329 7.31431C51.7566 7.76234 51.8749 8.18692 51.9878 8.58803C52.1084 8.99166 52.2507 9.39367 52.4147 9.79406C52.5787 10.1945 52.7891 10.623 53.046 11.0796C53.1901 11.326 53.36 11.5027 53.5559 11.6098C53.7517 11.7168 53.9846 11.8142 54.2544 11.9019C54.37 11.9395 54.4143 12.0017 54.3874 12.0883C54.3506 12.2065 54.2658 12.2744 54.133 12.292C53.9978 12.3174 53.8545 12.3142 53.7031 12.2823C53.5493 12.2584 53.4223 12.2301 53.3221 12.1975ZM50.2848 6.65475C50.6394 6.77004 50.9696 6.78629 51.2755 6.70352C51.589 6.62326 51.8569 6.47173 52.079 6.24893C52.3088 6.02864 52.4703 5.76878 52.5634 5.46935C52.664 5.14629 52.7135 4.83702 52.7121 4.54154C52.7183 4.24857 52.6227 3.9832 52.425 3.74541C52.2376 3.50224 51.901 3.30172 51.4154 3.14383C51.1687 3.06363 50.9811 3.09374 50.8525 3.23415C50.7264 3.36668 50.5919 3.63531 50.449 4.04004C50.38 4.23453 50.2889 4.49993 50.1758 4.83625C50.0728 5.16719 49.9478 5.56905 49.8007 6.04183C49.7394 6.23882 49.7566 6.37456 49.8522 6.44905C49.9479 6.52353 50.0921 6.5921 50.2848 6.65475Z" fill="#0084C5"/>
<path d="M56.4914 13.3825C56.3992 13.3308 56.3305 13.2782 56.2854 13.2246C56.2365 13.1783 56.2237 13.1334 56.247 13.0899C56.2742 13.0392 56.324 13.0152 56.3963 13.018C56.4686 13.0208 56.5708 13.0451 56.7031 13.0909C56.9998 13.1912 57.258 13.2086 57.4776 13.1431C57.7012 13.0704 57.8829 12.9035 58.0229 12.6425L58.8862 11.0329C58.964 10.8878 59.0086 10.7101 59.02 10.4996C59.0424 10.2858 59.053 10.1456 59.0518 10.079L58.927 7.29325C58.924 7.17842 58.9101 7.01506 58.8854 6.80318C58.8645 6.58404 58.8272 6.36982 58.7734 6.16051C58.7267 5.95518 58.6528 5.8006 58.5517 5.69677C58.4576 5.59692 58.3884 5.51098 58.344 5.43895C58.3067 5.3709 58.3017 5.3115 58.3289 5.26075C58.3522 5.21724 58.3962 5.20414 58.4607 5.22144C58.5291 5.23149 58.6094 5.26235 58.7016 5.31403C58.8647 5.40545 59.0488 5.51804 59.2538 5.65179C59.4627 5.77829 59.6878 5.90911 59.9289 6.04426C60.092 6.13569 60.2465 6.21753 60.3922 6.28977C60.5451 6.366 60.6782 6.43591 60.7917 6.49951C60.8839 6.55119 60.9526 6.6038 60.9977 6.65735C61.0466 6.70365 61.0594 6.74855 61.0361 6.79206C61.0089 6.84281 60.9572 6.87041 60.881 6.87486C60.8087 6.87207 60.7045 6.85138 60.5683 6.81281C60.4535 6.78616 60.3544 6.77307 60.2711 6.77355C60.1879 6.77403 60.1248 6.81414 60.0821 6.8939C60.0315 6.98816 60.0076 7.1445 60.0104 7.36294L59.9976 9.76035C59.9917 10.1154 60.0171 10.3088 60.0739 10.3406C60.1164 10.3644 60.1781 10.3613 60.2588 10.3311C60.3435 10.2937 60.4727 10.2246 60.6466 10.1241C60.9459 9.96172 61.2215 9.80032 61.4736 9.63985C61.7257 9.47939 62.028 9.28571 62.3803 9.05881C62.5173 8.9753 62.6233 8.898 62.6984 8.82689C62.7773 8.74854 62.8343 8.67673 62.8692 8.61148C62.9431 8.47372 62.944 8.35164 62.872 8.24523C62.807 8.14281 62.7287 8.05652 62.6372 7.98637C62.574 7.93212 62.5096 7.86301 62.444 7.77906C62.3893 7.69183 62.3755 7.62284 62.4027 7.57209C62.4261 7.52859 62.47 7.51549 62.5345 7.53279C62.6029 7.54283 62.6832 7.5737 62.7755 7.62537C62.9386 7.7168 63.0714 7.79595 63.1739 7.86282C63.2803 7.92245 63.4115 7.99598 63.5676 8.08343C63.7874 8.20666 63.9986 8.32029 64.2011 8.42434C64.4075 8.52114 64.571 8.60333 64.6916 8.6709C64.7838 8.72258 64.8524 8.77519 64.8975 8.82874C64.9465 8.87504 64.9593 8.91995 64.9359 8.96345C64.9087 9.0142 64.8267 9.02953 64.6899 9.00943C64.5531 8.98934 64.3985 8.9593 64.2262 8.91933C64.0146 8.86673 63.8022 8.88441 63.5889 8.97237C63.3867 9.05706 63.1101 9.19437 62.7592 9.38432C62.4968 9.52958 62.2751 9.65052 62.0941 9.74713C61.9203 9.84771 61.7558 9.93941 61.6007 10.0222C61.4526 10.109 61.2972 10.201 61.1343 10.2984C60.9753 10.3884 60.7811 10.5012 60.5516 10.6366C60.3777 10.7372 60.2478 10.8247 60.1618 10.899C60.0758 10.9734 60.0059 11.0521 59.9521 11.1352C59.9023 11.2109 59.8384 11.3213 59.7607 11.4663L58.8741 13.1194C58.7418 13.366 58.7074 13.6107 58.7708 13.8537C58.8381 14.0894 58.9894 14.3062 59.2246 14.504C59.3335 14.5934 59.4086 14.6684 59.4498 14.7292C59.4909 14.79 59.4979 14.8458 59.4707 14.8966C59.4474 14.9401 59.4035 14.9532 59.3389 14.9359C59.2705 14.9258 59.1902 14.895 59.098 14.8433C58.9065 14.736 58.7508 14.6393 58.6309 14.5532C58.5142 14.4784 58.4011 14.4056 58.2915 14.3347C58.1819 14.2639 58.0455 14.1827 57.8824 14.0913C57.705 13.9919 57.5471 13.9081 57.4084 13.8398C57.2768 13.7755 57.1382 13.7072 56.9924 13.635C56.8499 13.574 56.6829 13.4898 56.4914 13.3825Z" fill="#0084C5"/>
</svg>
