<svg width="43" height="14" viewBox="0 0 43 14" fill="none" xmlns="http://www.w3.org/2000/svg">
<path d="M10.4922 1.69531C9.79427 1.01302 9.02083 0.671875 8.17188 0.671875C6.54688 0.671875 5.21875 1.45312 4.1875 3.01562C3.58854 3.92188 3.28906 4.88542 3.28906 5.90625C3.28906 6.71875 3.49219 7.38542 3.89844 7.90625C4.33594 8.47396 4.9974 8.75781 5.88281 8.75781C6.58073 8.75781 7.25781 8.53906 7.91406 8.10156C8.57031 7.65885 9.05208 7.07552 9.35938 6.35156L10.4922 6.33594C9.96615 8.73698 9.03906 10.6094 7.71094 11.9531C6.38802 13.2969 4.8099 13.9688 2.97656 13.9688C2.02344 13.9688 1.28906 13.7734 0.773438 13.3828C0.257812 12.9922 0 12.5234 0 11.9766C0 11.4349 0.257812 10.9635 0.773438 10.5625C1.28906 10.1562 1.99479 9.95312 2.89062 9.95312C3.78125 9.95312 4.48698 10.1562 5.00781 10.5625L4.67188 11.25C4.19271 11.0469 3.6276 10.9453 2.97656 10.9453C2.32552 10.9453 1.78385 11.0521 1.35156 11.2656C0.919271 11.4844 0.703125 11.7526 0.703125 12.0703C0.703125 12.388 0.911458 12.6589 1.32812 12.8828C1.75 13.1068 2.34115 13.2188 3.10156 13.2188C4.3151 13.2188 5.41927 12.7422 6.41406 11.7891C7.41406 10.8411 8.26562 9.44792 8.96875 7.60938C8.53646 8.21875 8.01042 8.6849 7.39062 9.00781C6.77083 9.33073 6.17188 9.49219 5.59375 9.49219C5.02083 9.49219 4.51302 9.41927 4.07031 9.27344C3.63281 9.1224 3.23958 8.90885 2.89062 8.63281C2.54688 8.35156 2.27083 7.98698 2.0625 7.53906C1.85938 7.08594 1.75781 6.57812 1.75781 6.01562C1.75781 5.45312 1.84896 4.88802 2.03125 4.32031C2.21875 3.7474 2.4974 3.20312 2.86719 2.6875C3.23698 2.17188 3.67188 1.71354 4.17188 1.3125C4.67708 0.911458 5.27344 0.59375 5.96094 0.359375C6.64844 0.119792 7.375 0 8.14062 0C8.89062 0 9.60156 0.177083 10.2734 0.53125C10.6068 0.703125 10.8776 0.942708 11.0859 1.25C11.2995 1.55729 11.4062 1.90885 11.4062 2.30469C11.4062 2.70052 11.2891 3.00781 11.0547 3.22656C10.8203 3.4401 10.5547 3.54688 10.2578 3.54688C9.96615 3.54688 9.72396 3.46875 9.53125 3.3125C9.33854 3.15625 9.24219 2.94271 9.24219 2.67188C9.24219 2.02083 9.65885 1.69531 10.4922 1.69531Z" fill="#D95F77"/>
<path d="M12.8313 11.3906C12.6125 11.3906 12.4406 11.3229 12.3156 11.1875C12.1906 11.0521 12.1281 10.8672 12.1281 10.6328C12.1281 10.3932 12.188 10.0703 12.3078 9.66406C12.4328 9.2526 12.5552 8.88021 12.675 8.54688C12.8 8.21354 12.8625 7.99219 12.8625 7.88281C12.8625 7.76823 12.826 7.71094 12.7531 7.71094C12.5708 7.71094 12.2766 8.07031 11.8703 8.78906L11.3469 8.48438C12.1125 7.19271 12.8156 6.54688 13.4563 6.54688C13.8938 6.54688 14.1125 6.82292 14.1125 7.375C14.1125 7.53646 14.0604 7.79427 13.9563 8.14844L13.3938 9.75781C13.3365 9.90885 13.3078 10.0469 13.3078 10.1719C13.3078 10.2917 13.3547 10.3516 13.4484 10.3516C13.6255 10.3516 13.951 10.0234 14.425 9.36719L14.7531 9.67188C14.4719 10.1927 14.1359 10.6094 13.7453 10.9219C13.3599 11.2344 13.0552 11.3906 12.8313 11.3906ZM15.0578 4.24219C15.0578 4.45052 14.9875 4.64062 14.8469 4.8125C14.7063 4.98438 14.5161 5.07031 14.2766 5.07031C14.037 5.07031 13.8573 5 13.7375 4.85938C13.6177 4.71354 13.5578 4.53125 13.5578 4.3125C13.5578 4.09375 13.6307 3.90104 13.7766 3.73438C13.9276 3.5625 14.1203 3.47656 14.3547 3.47656C14.5891 3.47656 14.7635 3.55208 14.8781 3.70312C14.9979 3.84896 15.0578 4.02865 15.0578 4.24219Z" fill="#D95F77"/>
<path d="M18.7875 7.23438L18.6 8.03125C18.251 9.50521 17.962 10.5417 17.7328 11.1406C17.2901 12.2812 16.7224 13.0026 16.0297 13.3047C15.7432 13.4297 15.4542 13.4922 15.1625 13.4922C14.8656 13.4922 14.6573 13.4349 14.5375 13.3203C14.4177 13.2109 14.3578 13.0755 14.3578 12.9141C14.3578 12.7578 14.4099 12.6224 14.5141 12.5078C14.6182 12.3932 14.751 12.3359 14.9125 12.3359C15.0688 12.3359 15.199 12.3724 15.3031 12.4453C15.4073 12.5182 15.4594 12.6172 15.4594 12.7422C15.4594 12.8724 15.4229 12.9948 15.35 13.1094C15.8865 13.026 16.3682 12.0104 16.7953 10.0625C16.863 9.75521 16.9385 9.39062 17.0219 8.96875C17.1104 8.54167 17.1781 8.22917 17.225 8.03125L17.4125 7.23438H15.9438L16.0688 6.71875H17.5219C18.1417 4.20312 18.8682 2.44792 19.7016 1.45312C20.3891 0.635417 21.2198 0.226562 22.1938 0.226562C22.6313 0.226562 22.9984 0.315104 23.2953 0.492188C23.5974 0.669271 23.7484 0.963542 23.7484 1.375C23.7484 1.61458 23.6651 1.80469 23.4984 1.94531C23.337 2.08073 23.1443 2.14844 22.9203 2.14844C22.7016 2.14844 22.5141 2.08594 22.3578 1.96094C22.2068 1.83073 22.1313 1.66406 22.1313 1.46094C22.1313 1.25781 22.2016 1.0599 22.3422 0.867188C22.087 0.778646 21.8865 0.734375 21.7406 0.734375C21.5948 0.734375 21.4203 0.807292 21.2172 0.953125C21.0193 1.09375 20.8422 1.28385 20.6859 1.52344C20.0766 2.46094 19.4828 4.19271 18.9047 6.71875H20.7719L20.6469 7.23438H18.7875Z" fill="#D95F77"/>
<path d="M22.3219 6.71875C22.8583 5.05208 23.4052 3.65625 23.9625 2.53125L24.9312 2.60938C24.874 2.77604 24.7333 3.17708 24.5094 3.8125C24.025 5.21354 23.7125 6.18229 23.5719 6.71875H24.7984L24.6734 7.23438H23.4078C22.9286 8.71354 22.6891 9.61458 22.6891 9.9375C22.6891 10.2552 22.7203 10.4141 22.7828 10.4141C22.8505 10.4141 22.9104 10.401 22.9625 10.375C23.1031 10.2969 23.4052 9.91667 23.8687 9.23438L24.1891 9.52344C23.8401 10.1589 23.4807 10.6302 23.1109 10.9375C22.7411 11.2396 22.4365 11.3906 22.1969 11.3906C21.9573 11.3906 21.775 11.3073 21.65 11.1406C21.5302 10.974 21.4703 10.7604 21.4703 10.5C21.4703 9.83854 21.7021 8.75 22.1656 7.23438H21.3453L21.4703 6.71875H22.3219Z" fill="#D95F77"/>
<path d="M32.1641 11.4453C31.4401 11.4453 30.8438 11.1771 30.375 10.6406C29.9062 10.099 29.6901 9.43229 29.7266 8.64062C29.7682 7.84375 29.9896 7.13021 30.3906 6.5C30.7969 5.86458 31.2891 5.3724 31.8672 5.02344C32.4505 4.67448 33.0365 4.5 33.625 4.5C34.2188 4.5 34.7266 4.64062 35.1484 4.92188C35.9609 5.45312 36.3385 6.28906 36.2812 7.42969C36.2396 8.24219 35.9948 8.98438 35.5469 9.65625C34.7604 10.849 33.6328 11.4453 32.1641 11.4453ZM31.8984 10.6406C32.0547 10.7708 32.2422 10.8359 32.4609 10.8359C32.8776 10.8359 33.2526 10.6615 33.5859 10.3125C34.237 9.63021 34.5911 8.67969 34.6484 7.46094C34.6797 6.79427 34.599 6.23698 34.4062 5.78906C34.2135 5.33594 33.8932 5.10938 33.4453 5.10938C33.0026 5.10938 32.5599 5.4349 32.1172 6.08594C31.6745 6.73177 31.4297 7.57031 31.3828 8.60156C31.3359 9.63281 31.5078 10.3125 31.8984 10.6406Z" fill="#D95F77"/>
<path d="M38.2531 6.57031L37.7766 6.33594C38.0005 5.79948 38.3417 5.36198 38.8 5.02344C39.2583 4.67969 39.7661 4.50781 40.3234 4.50781C40.9953 4.50781 41.5552 4.70573 42.0031 5.10156C42.3417 5.39844 42.5109 5.78646 42.5109 6.26562C42.5109 6.65104 42.451 6.95312 42.3312 7.17188C42.2167 7.39062 42.1177 7.56771 42.0344 7.70312C41.9562 7.83333 41.8443 7.97396 41.6984 8.125C41.5526 8.27083 41.4276 8.39583 41.3234 8.5C41.2245 8.59896 41.0786 8.72396 40.8859 8.875C40.6984 9.02083 40.5552 9.13281 40.4562 9.21094C40.201 9.40365 39.8937 9.6276 39.5344 9.88281C39.7583 9.8776 40.0474 9.875 40.4016 9.875C40.7609 9.875 41.2115 9.90365 41.7531 9.96094C41.9094 9.8724 42.0396 9.72135 42.1437 9.50781C42.2531 9.29427 42.3365 9.11979 42.3937 8.98438L42.4875 8.78125L42.8 8.82812L41.9797 11.2734C41.8495 11.2578 41.6021 11.224 41.2375 11.1719C40.425 11.0573 39.7557 11 39.2297 11C38.7036 11 38.201 11.0651 37.7219 11.1953L37.5109 10.8125L37.8156 10.625C38.4979 10.2031 39.0786 9.7526 39.5578 9.27344C40.4484 8.38281 40.8937 7.58073 40.8937 6.86719C40.8937 6.42448 40.7948 6.07292 40.5969 5.8125C40.399 5.55208 40.1359 5.42188 39.8078 5.42188C39.4849 5.42188 39.1828 5.52604 38.9016 5.73438C38.6203 5.9375 38.4042 6.21615 38.2531 6.57031Z" fill="#D95F77"/>
</svg>
