<svg width="44" height="14" viewBox="0 0 44 14" fill="none" xmlns="http://www.w3.org/2000/svg">
<path d="M42.0732 9.07031H41.4326L41.0967 10.5C41.1227 10.625 41.2399 10.7292 41.4482 10.8125C41.6566 10.8906 41.8701 10.9349 42.0889 10.9453L42.0576 11.2656H38.6357L38.667 10.9453C38.9743 10.9453 39.279 10.8594 39.5811 10.6875C39.6488 10.6458 39.7008 10.6016 39.7373 10.5547L40.0889 9.07031H37.5342L37.417 8.65625L42.0264 4.5H42.4717L41.5498 8.59375H42.1826C42.318 8.57812 42.4639 8.45573 42.6201 8.22656C42.7816 7.9974 42.8936 7.77344 42.9561 7.55469H43.2139L42.6826 10.1953H42.4248C42.4248 9.86719 42.3883 9.59896 42.3154 9.39062C42.2477 9.17708 42.167 9.07031 42.0732 9.07031ZM40.792 6.19531L38.2686 8.59375H40.2061L40.792 6.19531Z" fill="#D95F77"/>
<path d="M32.1641 11.4453C31.4401 11.4453 30.8438 11.1771 30.375 10.6406C29.9063 10.099 29.6901 9.43229 29.7266 8.64062C29.7683 7.84375 29.9896 7.13021 30.3907 6.5C30.7969 5.86458 31.2891 5.3724 31.8672 5.02344C32.4506 4.67448 33.0365 4.5 33.625 4.5C34.2188 4.5 34.7266 4.64062 35.1485 4.92188C35.961 5.45312 36.3386 6.28906 36.2813 7.42969C36.2396 8.24219 35.9948 8.98438 35.5469 9.65625C34.7605 10.849 33.6329 11.4453 32.1641 11.4453ZM31.8985 10.6406C32.0547 10.7708 32.2422 10.8359 32.461 10.8359C32.8776 10.8359 33.2526 10.6615 33.586 10.3125C34.237 9.63021 34.5912 8.67969 34.6485 7.46094C34.6797 6.79427 34.599 6.23698 34.4063 5.78906C34.2136 5.33594 33.8933 5.10938 33.4454 5.10938C33.0026 5.10938 32.5599 5.4349 32.1172 6.08594C31.6745 6.73177 31.4297 7.57031 31.3829 8.60156C31.336 9.63281 31.5079 10.3125 31.8985 10.6406Z" fill="#D95F77"/>
<path d="M22.3223 6.71875C22.8587 5.05208 23.4056 3.65625 23.9629 2.53125L24.9316 2.60938C24.8743 2.77604 24.7337 3.17708 24.5098 3.8125C24.0254 5.21354 23.7129 6.18229 23.5723 6.71875H24.7988L24.6738 7.23438H23.4082C22.929 8.71354 22.6895 9.61458 22.6895 9.9375C22.6895 10.2552 22.7207 10.4141 22.7832 10.4141C22.8509 10.4141 22.9108 10.401 22.9629 10.375C23.1035 10.2969 23.4056 9.91667 23.8691 9.23438L24.1895 9.52344C23.8405 10.1589 23.4811 10.6302 23.1113 10.9375C22.7415 11.2396 22.4368 11.3906 22.1973 11.3906C21.9577 11.3906 21.7754 11.3073 21.6504 11.1406C21.5306 10.974 21.4707 10.7604 21.4707 10.5C21.4707 9.83854 21.7025 8.75 22.166 7.23438H21.3457L21.4707 6.71875H22.3223Z" fill="#D95F77"/>
<path d="M18.7871 7.23438L18.5996 8.03125C18.2507 9.50521 17.9616 10.5417 17.7324 11.1406C17.2897 12.2812 16.722 13.0026 16.0293 13.3047C15.7428 13.4297 15.4538 13.4922 15.1621 13.4922C14.8652 13.4922 14.6569 13.4349 14.5371 13.3203C14.4173 13.2109 14.3574 13.0755 14.3574 12.9141C14.3574 12.7578 14.4095 12.6224 14.5137 12.5078C14.6178 12.3932 14.7507 12.3359 14.9121 12.3359C15.0684 12.3359 15.1986 12.3724 15.3027 12.4453C15.4069 12.5182 15.459 12.6172 15.459 12.7422C15.459 12.8724 15.4225 12.9948 15.3496 13.1094C15.8861 13.026 16.3678 12.0104 16.7949 10.0625C16.8626 9.75521 16.9382 9.39062 17.0215 8.96875C17.11 8.54167 17.1777 8.22917 17.2246 8.03125L17.4121 7.23438H15.9434L16.0684 6.71875H17.5215C18.1413 4.20312 18.8678 2.44792 19.7012 1.45312C20.3887 0.635417 21.2194 0.226562 22.1934 0.226562C22.6309 0.226562 22.998 0.315104 23.2949 0.492188C23.597 0.669271 23.748 0.963542 23.748 1.375C23.748 1.61458 23.6647 1.80469 23.498 1.94531C23.3366 2.08073 23.1439 2.14844 22.9199 2.14844C22.7012 2.14844 22.5137 2.08594 22.3574 1.96094C22.2064 1.83073 22.1309 1.66406 22.1309 1.46094C22.1309 1.25781 22.2012 1.0599 22.3418 0.867188C22.0866 0.778646 21.8861 0.734375 21.7402 0.734375C21.5944 0.734375 21.4199 0.807292 21.2168 0.953125C21.0189 1.09375 20.8418 1.28385 20.6855 1.52344C20.0762 2.46094 19.4824 4.19271 18.9043 6.71875H20.7715L20.6465 7.23438H18.7871Z" fill="#D95F77"/>
<path d="M12.8311 11.3906C12.6123 11.3906 12.4404 11.3229 12.3154 11.1875C12.1904 11.0521 12.1279 10.8672 12.1279 10.6328C12.1279 10.3932 12.1878 10.0703 12.3076 9.66406C12.4326 9.2526 12.555 8.88021 12.6748 8.54688C12.7998 8.21354 12.8623 7.99219 12.8623 7.88281C12.8623 7.76823 12.8258 7.71094 12.7529 7.71094C12.5706 7.71094 12.2764 8.07031 11.8701 8.78906L11.3467 8.48438C12.1123 7.19271 12.8154 6.54688 13.4561 6.54688C13.8936 6.54688 14.1123 6.82292 14.1123 7.375C14.1123 7.53646 14.0602 7.79427 13.9561 8.14844L13.3936 9.75781C13.3363 9.90885 13.3076 10.0469 13.3076 10.1719C13.3076 10.2917 13.3545 10.3516 13.4482 10.3516C13.6253 10.3516 13.9508 10.0234 14.4248 9.36719L14.7529 9.67188C14.4717 10.1927 14.1357 10.6094 13.7451 10.9219C13.3597 11.2344 13.055 11.3906 12.8311 11.3906ZM15.0576 4.24219C15.0576 4.45052 14.9873 4.64062 14.8467 4.8125C14.7061 4.98438 14.516 5.07031 14.2764 5.07031C14.0368 5.07031 13.8571 5 13.7373 4.85938C13.6175 4.71354 13.5576 4.53125 13.5576 4.3125C13.5576 4.09375 13.6305 3.90104 13.7764 3.73438C13.9274 3.5625 14.1201 3.47656 14.3545 3.47656C14.5889 3.47656 14.7633 3.55208 14.8779 3.70312C14.9977 3.84896 15.0576 4.02865 15.0576 4.24219Z" fill="#D95F77"/>
<path d="M10.4922 1.69531C9.79427 1.01302 9.02083 0.671875 8.17188 0.671875C6.54688 0.671875 5.21875 1.45312 4.1875 3.01562C3.58854 3.92188 3.28906 4.88542 3.28906 5.90625C3.28906 6.71875 3.49219 7.38542 3.89844 7.90625C4.33594 8.47396 4.9974 8.75781 5.88281 8.75781C6.58073 8.75781 7.25781 8.53906 7.91406 8.10156C8.57031 7.65885 9.05208 7.07552 9.35938 6.35156L10.4922 6.33594C9.96615 8.73698 9.03906 10.6094 7.71094 11.9531C6.38802 13.2969 4.8099 13.9688 2.97656 13.9688C2.02344 13.9688 1.28906 13.7734 0.773438 13.3828C0.257812 12.9922 0 12.5234 0 11.9766C0 11.4349 0.257812 10.9635 0.773438 10.5625C1.28906 10.1562 1.99479 9.95312 2.89062 9.95312C3.78125 9.95312 4.48698 10.1562 5.00781 10.5625L4.67188 11.25C4.19271 11.0469 3.6276 10.9453 2.97656 10.9453C2.32552 10.9453 1.78385 11.0521 1.35156 11.2656C0.919271 11.4844 0.703125 11.7526 0.703125 12.0703C0.703125 12.388 0.911458 12.6589 1.32812 12.8828C1.75 13.1068 2.34115 13.2188 3.10156 13.2188C4.3151 13.2188 5.41927 12.7422 6.41406 11.7891C7.41406 10.8411 8.26562 9.44792 8.96875 7.60938C8.53646 8.21875 8.01042 8.6849 7.39062 9.00781C6.77083 9.33073 6.17188 9.49219 5.59375 9.49219C5.02083 9.49219 4.51302 9.41927 4.07031 9.27344C3.63281 9.1224 3.23958 8.90885 2.89062 8.63281C2.54688 8.35156 2.27083 7.98698 2.0625 7.53906C1.85938 7.08594 1.75781 6.57812 1.75781 6.01562C1.75781 5.45312 1.84896 4.88802 2.03125 4.32031C2.21875 3.7474 2.4974 3.20312 2.86719 2.6875C3.23698 2.17188 3.67188 1.71354 4.17188 1.3125C4.67708 0.911458 5.27344 0.59375 5.96094 0.359375C6.64844 0.119792 7.375 0 8.14062 0C8.89062 0 9.60156 0.177083 10.2734 0.53125C10.6068 0.703125 10.8776 0.942708 11.0859 1.25C11.2995 1.55729 11.4062 1.90885 11.4062 2.30469C11.4062 2.70052 11.2891 3.00781 11.0547 3.22656C10.8203 3.4401 10.5547 3.54688 10.2578 3.54688C9.96615 3.54688 9.72396 3.46875 9.53125 3.3125C9.33854 3.15625 9.24219 2.94271 9.24219 2.67188C9.24219 2.02083 9.65885 1.69531 10.4922 1.69531Z" fill="#D95F77"/>
</svg>
