<svg width="28" height="28" viewBox="0 0 28 28" fill="none" xmlns="http://www.w3.org/2000/svg">
<path d="M28 6.33629H27.5977V2H0.402316V6.33629H0V22.6637H0.402316V27H27.5972V22.6637H27.9995V6.33629H28ZM1.29242 14.6807H12.7798C12.3392 15.0353 11.6166 15.3962 10.4558 15.4966C10.2141 15.5177 10.0348 15.7298 10.0559 15.9712C10.0756 16.1994 10.2676 16.3714 10.4931 16.3714C10.5059 16.3714 10.5187 16.3709 10.5314 16.3699C12.6437 16.1872 13.6041 15.2273 14 14.6396V14.6807H14.0364C14.449 15.2709 15.4128 16.1911 17.4764 16.3694C17.4892 16.3704 17.502 16.3709 17.5147 16.3709C17.7402 16.3709 17.9323 16.1985 17.9519 15.9707C17.9731 15.7298 17.7938 15.5172 17.5521 15.4962C16.3913 15.3958 15.6687 15.0348 15.2281 14.6802H26.7076V21.3742H1.29242V14.6802V14.6807ZM11.4137 13.0469C10.8886 12.6899 10.6768 12.1546 10.6552 11.8049C10.6425 11.5992 10.6906 11.4273 10.7839 11.3455C10.8193 11.3146 10.8709 11.2995 10.9362 11.2995C11.2668 11.2995 11.9432 11.6834 12.5627 12.3426C13.3226 13.1507 13.5014 13.591 13.5122 13.7281C13.4484 13.7708 13.358 13.7987 13.2425 13.8045H13.1399C12.7739 13.7859 12.2011 13.5822 11.4132 13.0469H11.4137ZM14.4873 13.7281C14.4981 13.5905 14.6769 13.1507 15.4368 12.3426C16.1791 11.5531 17.0029 11.1584 17.2161 11.3455C17.3094 11.4278 17.3575 11.5992 17.3448 11.8049C17.3232 12.1546 17.1114 12.6899 16.5863 13.0469C15.7989 13.5822 15.2266 13.7859 14.8601 13.8045H14.757C14.6415 13.7987 14.5517 13.7708 14.4873 13.7281ZM17.0304 13.8045C17.0476 13.7933 17.0638 13.7825 17.081 13.7708C17.7392 13.3236 18.1764 12.5909 18.2216 11.8588C18.2521 11.371 18.1008 10.9547 17.7962 10.6878C16.9842 9.97467 15.6721 10.8107 14.7953 11.7432C14.4293 12.1325 14.1759 12.4558 13.9995 12.7227C13.8236 12.4553 13.5702 12.132 13.2037 11.7432C12.3269 10.8107 11.0148 9.97467 10.2028 10.6878C9.89825 10.9552 9.74744 11.371 9.7774 11.8588C9.82309 12.5904 10.2598 13.3231 10.918 13.7708C10.9352 13.7825 10.9519 13.7928 10.9686 13.8045H1.29242V7.62483H26.7076V13.8045H17.0309H17.0304Z" fill="#3D61B1"/>
<path d="M22.601 8.05298L21.0732 9.02808L21.4765 12.1894L22.601 13.0911L23.7259 12.1894L24.1287 9.02808L22.601 8.05298Z" fill="#3D61B1"/>
</svg>
