<svg width="69" height="50" viewBox="0 0 69 50" fill="none" xmlns="http://www.w3.org/2000/svg">
<g clip-path="url(#clip0_1_1142)">
<path d="M39.8279 46.2308C39.764 46.2308 39.7025 46.2152 39.6409 46.1814L16.533 33.5014C16.3187 33.3844 16.2298 33.0907 16.3324 32.8463C16.435 32.602 16.6926 32.498 16.9069 32.6176L40.0148 45.2976C40.2291 45.4145 40.318 45.7083 40.2154 45.9526C40.1402 46.1268 39.9874 46.2308 39.8279 46.2308Z" fill="#B0936F"/>
<path d="M38.7405 48.0919C38.6334 48.0919 38.5239 48.0451 38.4396 47.9541L20.0235 27.533C19.8525 27.3433 19.8479 27.0339 20.0144 26.839C20.1808 26.644 20.4521 26.6414 20.6231 26.8286L39.0392 47.2497C39.2102 47.4394 39.2147 47.7488 39.0483 47.9437C38.9639 48.0425 38.8522 48.0919 38.7405 48.0919Z" fill="#B0936F"/>
<path d="M37.1149 49.332C36.9598 49.332 36.8094 49.2358 36.7319 49.0668L24.9955 23.1349C24.8861 22.8932 24.9704 22.5968 25.1802 22.4747C25.3899 22.3499 25.6498 22.4435 25.7593 22.6852L37.4956 48.6171C37.605 48.8589 37.5207 49.1552 37.3109 49.2774C37.2471 49.3138 37.181 49.332 37.1149 49.332Z" fill="#B0936F"/>
<path d="M35.2705 49.9999C35.0607 49.9999 34.8784 49.8257 34.8464 49.584L30.9343 20.7615C30.8979 20.4938 31.0597 20.2416 31.2945 20.2026C31.5294 20.161 31.7505 20.3456 31.7847 20.6133L35.6968 49.4358C35.7333 49.7035 35.5714 49.9557 35.3366 49.9947C35.3138 49.9999 35.2933 49.9999 35.2705 49.9999Z" fill="#B0936F"/>
<path d="M33.3373 49.9999C33.3122 49.9999 33.2894 49.9999 33.2643 49.9921C33.0295 49.9453 32.8722 49.6932 32.9132 49.4254L37.2266 20.6602C37.2676 20.3924 37.4911 20.2131 37.7236 20.2599C37.9584 20.3067 38.1157 20.5588 38.0747 20.8265L33.7613 49.5918C33.7249 49.831 33.5425 49.9999 33.3373 49.9999Z" fill="#B0936F"/>
<path d="M31.5135 49.2618C31.4451 49.2618 31.3744 49.2436 31.3106 49.2046C31.1009 49.0772 31.0211 48.7783 31.1351 48.5391L43.2202 22.8438C43.3319 22.6046 43.5941 22.5163 43.8038 22.6436C44.0136 22.771 44.0934 23.0699 43.9794 23.3091L31.8942 49.0044C31.8167 49.1682 31.6685 49.2644 31.5158 49.2644L31.5135 49.2618Z" fill="#B0936F"/>
<path d="M29.9768 47.9253C29.8628 47.9253 29.7488 47.8733 29.6645 47.772C29.5003 47.5744 29.5095 47.2651 29.6827 47.0779L48.2972 27.0779C48.4704 26.8934 48.744 26.9012 48.9059 27.0987C49.07 27.2963 49.0609 27.6056 48.8876 27.7928L30.2732 47.7928C30.1911 47.8811 30.084 47.9253 29.9791 47.9253H29.9768Z" fill="#B0936F"/>
<path d="M28.9098 46.0931C28.748 46.0931 28.5907 45.9866 28.52 45.8072C28.4197 45.5602 28.5132 45.2691 28.7297 45.1547L51.9334 32.9296C52.1477 32.8178 52.4053 32.9244 52.5056 33.1688C52.6059 33.4157 52.5102 33.7069 52.2959 33.8212L29.0922 46.0463C29.033 46.0775 28.9714 46.0905 28.9121 46.0905L28.9098 46.0931Z" fill="#B0936F"/>
<path d="M34.516 0C18.9268 0 5.57408 10.9046 0 26.3894L22.7682 38.0244C24.7106 32.8178 29.2383 29.1656 34.516 29.1656C39.7937 29.1656 44.2689 32.7788 46.2295 37.9413L69 26.3036C63.4077 10.8656 50.0755 0 34.516 0Z" fill="#43B6C8"/>
</g>
<defs>
<clipPath id="clip0_1_1142">
<rect width="69" height="50" fill="white"/>
</clipPath>
</defs>
</svg>
