<svg width="71" height="238" viewBox="0 0 71 238" fill="none" xmlns="http://www.w3.org/2000/svg">
<mask id="mask0_1_899" style="mask-type:alpha" maskUnits="userSpaceOnUse" x="0" y="0" width="49" height="238">
<mask id="path-1-outside-1_1_899" maskUnits="userSpaceOnUse" x="2.49146" y="191.738" width="47" height="46" fill="black">
<rect fill="white" x="2.49146" y="191.738" width="47" height="46"/>
<path d="M42.535 200.841C42.535 201.094 42.2311 201.448 41.6741 201.853C41.117 202.309 40.6613 202.512 40.4081 202.512C40.3574 202.512 39.6485 202.36 38.3825 202.056C37.4203 201.803 36.3569 201.752 35.0402 201.752C34.0274 201.752 31.6473 201.955 29.5711 202.157C29.1153 203.322 28.6596 204.284 28.3051 204.993C27.5455 206.512 27.0391 207.272 26.6846 207.272C26.3808 207.272 26.2289 207.069 26.2289 206.715C26.2289 206.563 26.5833 205.145 27.3429 202.461C25.6718 202.664 23.1398 202.968 19.7469 203.423C19.7469 203.575 19.7469 203.778 19.7469 204.132C19.7469 204.487 19.7469 204.74 19.7469 204.892C19.7469 206.968 19.5444 207.981 19.0886 208.032C18.5316 208.032 18.1264 206.614 17.772 203.727C16.1008 203.98 14.531 204.284 13.1131 204.537C12.1003 204.791 8.96058 205.398 8.65674 205.398C8.20098 205.398 7.69458 205.196 6.93498 204.74C6.17538 204.284 5.77026 203.879 5.77026 203.525C5.77026 203.373 6.12474 203.322 6.88434 203.271C7.99842 203.221 11.5432 202.866 17.5188 202.157C17.3668 201.195 17.0124 199.828 16.4553 198.106C16.2021 197.549 15.8983 197.144 15.5438 196.789C14.7842 196.081 14.3791 195.625 14.3791 195.473C14.3791 195.22 14.531 195.118 14.8348 195.068C15.1893 195.068 16.1008 195.321 17.5694 195.827C19.038 196.334 19.7976 196.688 19.9495 196.941C19.9495 196.992 19.9495 197.043 19.9495 197.144C19.9495 197.347 19.8988 197.65 19.8482 198.005C19.7469 198.359 19.6963 198.663 19.6963 198.815C19.6456 198.967 19.6456 199.321 19.6456 199.828C19.6456 200.284 19.6456 200.993 19.6963 201.904L27.6974 201.043C28.2038 198.562 28.457 196.992 28.457 196.283C28.457 195.625 28.3051 194.966 28.0013 194.257C27.6468 193.599 27.4949 193.194 27.4949 193.093C27.4949 192.84 27.5961 192.738 27.7987 192.738C28.0013 192.738 28.6596 193.093 29.723 193.751C30.2801 194.106 30.8877 194.409 31.4448 194.764C32.255 195.27 32.6601 195.675 32.6601 196.03C32.6601 196.232 32.5082 196.486 32.255 196.739C32.0018 197.043 31.7486 197.296 31.5461 197.549C31.2929 197.802 30.8371 198.866 30.1788 200.739C31.3435 200.638 32.964 200.385 35.0402 199.98C35.2934 199.879 35.6479 199.524 36.1543 198.967C36.6607 198.41 36.9646 198.157 37.1165 198.157C37.319 198.106 37.7241 198.309 38.3825 198.663C38.8382 198.916 39.294 199.17 39.8004 199.423C40.2562 199.676 40.7626 199.879 41.269 200.081C42.1298 200.436 42.535 200.689 42.535 200.841ZM48.3586 218.869C48.3586 219.223 47.7509 219.375 46.4849 219.426C45.7759 219.476 44.7125 219.476 43.3452 219.476C41.9273 219.476 40.8638 219.476 40.1549 219.527C39.7498 219.527 38.9395 219.578 38.3825 219.628C37.7241 219.679 36.9646 219.729 36.5594 219.729C36.1543 219.78 35.8505 219.729 35.5973 219.679C35.3441 219.628 34.23 218.767 32.255 216.995C29.9256 214.919 28.7102 213.805 28.5583 213.754C28.2545 213.501 26.7859 212.387 24.2033 210.412C20.5572 214.21 17.9239 216.691 16.354 217.906C13.822 219.831 10.5811 221.552 6.68178 223.021C5.5677 223.426 4.65618 223.629 3.99786 223.679C3.64338 223.679 3.49146 223.578 3.49146 223.426C3.49146 223.173 4.3017 222.667 5.97282 221.907C6.93498 221.451 8.40354 220.793 10.3279 219.831C14.1259 217.603 16.8604 215.526 18.5316 213.653C20.8104 211.07 21.9244 209.348 21.9244 208.538C21.9244 208.133 21.7219 207.677 21.2661 207.171C20.8104 206.664 20.5572 206.31 20.5572 206.158C20.5572 205.955 20.7091 205.854 20.9623 205.854C21.2155 205.854 21.8232 206.107 22.8866 206.563C23.4436 206.816 24.0513 207.069 24.6084 207.323C25.4692 207.728 25.925 208.082 25.925 208.335C25.925 208.538 25.6718 208.892 25.1654 209.45C28.3051 211.627 30.6345 213.096 32.2044 213.956C34.6857 215.324 37.319 216.286 40.003 216.894C41.117 217.147 43.2439 217.501 46.333 218.058C47.7002 218.312 48.3586 218.615 48.3586 218.869ZM40.003 229.807C40.003 230.313 39.851 231.022 39.4966 231.934C39.0914 232.997 38.6863 233.504 38.2812 233.504C38.028 233.554 37.6735 233.25 37.1671 232.592C35.0402 230.06 32.9133 228.034 30.8371 226.566C29.6724 225.705 29.1153 225.199 29.1153 225.047C29.1153 224.895 29.2673 224.793 29.5205 224.793C30.1788 224.743 32.0018 225.3 34.9389 226.465C37.8254 227.629 39.4459 228.49 39.7498 228.946C39.9017 229.199 40.003 229.452 40.003 229.807ZM35.5466 221.654C35.5973 221.806 35.3441 222.008 34.8883 222.363C34.4325 222.717 34.0274 222.869 33.6729 222.869C32.9133 222.616 31.9512 222.312 30.6852 222.008C29.723 221.958 27.9 222.059 25.2161 222.312C25.1654 223.73 25.1654 225.654 25.2161 228.034C25.2667 230.82 25.3173 232.693 25.3173 233.706C25.3173 236.036 24.9122 237.2 24.102 237.2C23.5956 237.2 23.0892 236.846 22.4308 235.985C21.7725 235.124 21.4687 234.466 21.4687 233.959C21.4687 233.706 21.6206 233.402 21.8738 232.947C22.127 232.541 22.2283 232.288 22.2789 232.136C22.5321 231.275 22.684 230.465 22.7347 229.655C22.7853 229.3 22.7853 226.92 22.836 222.515C20.2533 222.768 17.8732 223.122 15.6957 223.527C15.5438 223.527 15.088 223.629 14.3791 223.831C13.822 223.983 13.4169 224.034 13.1131 224.034C12.8599 224.034 12.4041 223.781 11.8471 223.325C11.29 222.869 10.9862 222.515 11.0368 222.261C11.0368 222.11 11.5939 222.008 12.708 221.958C13.5182 221.907 14.4297 221.856 15.4425 221.806C17.1136 221.654 19.5444 221.401 22.836 221.046C22.8866 220.489 22.8866 220.337 22.8866 219.78C22.8866 218.666 22.7347 217.451 22.2283 216.539C22.0764 216.286 21.7725 215.881 21.3168 215.374C20.9623 215.02 20.8104 214.716 20.8104 214.564C20.8104 214.311 20.9623 214.21 21.2155 214.21C21.2661 214.21 22.3296 214.665 24.4058 215.526C25.4693 215.982 25.9757 216.337 25.9757 216.64C25.9757 216.742 25.925 216.995 25.7731 217.349C25.6212 217.704 25.5705 217.957 25.5705 218.058C25.4186 218.565 25.3173 219.476 25.2667 220.844C27.0391 220.692 28.6596 220.438 30.0269 220.135C30.2801 220.084 30.5839 219.881 30.8877 219.476C31.1409 219.071 31.3941 218.869 31.6473 218.869C31.698 218.818 31.9512 219.02 32.4069 219.375C32.964 219.881 33.3691 220.185 33.5717 220.337C33.6223 220.388 34.0781 220.59 34.8377 220.995C35.2934 221.249 35.5466 221.451 35.5466 221.654ZM18.8354 225.604C18.8354 225.958 18.5316 226.667 17.9745 227.629C17.2149 228.895 16.4047 230.009 15.4425 231.022C13.1131 233.504 11.3913 234.77 10.3279 234.82C9.97339 234.82 9.66955 234.516 9.41634 233.909C9.26442 233.402 9.16314 232.896 9.16314 232.44C9.16314 232.086 9.26442 231.782 9.41634 231.579C9.82147 231.427 10.3785 231.225 11.0875 230.921C12.2522 230.415 13.1637 229.908 13.8727 229.351C14.9361 228.49 15.9489 227.629 16.9111 226.718C17.2656 226.161 17.8226 225.654 18.5316 225.148C18.7341 225.097 18.8354 225.249 18.8354 225.604Z"/>
</mask>
<path d="M42.535 200.841C42.535 201.094 42.2311 201.448 41.6741 201.853C41.117 202.309 40.6613 202.512 40.4081 202.512C40.3574 202.512 39.6485 202.36 38.3825 202.056C37.4203 201.803 36.3569 201.752 35.0402 201.752C34.0274 201.752 31.6473 201.955 29.5711 202.157C29.1153 203.322 28.6596 204.284 28.3051 204.993C27.5455 206.512 27.0391 207.272 26.6846 207.272C26.3808 207.272 26.2289 207.069 26.2289 206.715C26.2289 206.563 26.5833 205.145 27.3429 202.461C25.6718 202.664 23.1398 202.968 19.7469 203.423C19.7469 203.575 19.7469 203.778 19.7469 204.132C19.7469 204.487 19.7469 204.74 19.7469 204.892C19.7469 206.968 19.5444 207.981 19.0886 208.032C18.5316 208.032 18.1264 206.614 17.772 203.727C16.1008 203.98 14.531 204.284 13.1131 204.537C12.1003 204.791 8.96058 205.398 8.65674 205.398C8.20098 205.398 7.69458 205.196 6.93498 204.74C6.17538 204.284 5.77026 203.879 5.77026 203.525C5.77026 203.373 6.12474 203.322 6.88434 203.271C7.99842 203.221 11.5432 202.866 17.5188 202.157C17.3668 201.195 17.0124 199.828 16.4553 198.106C16.2021 197.549 15.8983 197.144 15.5438 196.789C14.7842 196.081 14.3791 195.625 14.3791 195.473C14.3791 195.22 14.531 195.118 14.8348 195.068C15.1893 195.068 16.1008 195.321 17.5694 195.827C19.038 196.334 19.7976 196.688 19.9495 196.941C19.9495 196.992 19.9495 197.043 19.9495 197.144C19.9495 197.347 19.8988 197.65 19.8482 198.005C19.7469 198.359 19.6963 198.663 19.6963 198.815C19.6456 198.967 19.6456 199.321 19.6456 199.828C19.6456 200.284 19.6456 200.993 19.6963 201.904L27.6974 201.043C28.2038 198.562 28.457 196.992 28.457 196.283C28.457 195.625 28.3051 194.966 28.0013 194.257C27.6468 193.599 27.4949 193.194 27.4949 193.093C27.4949 192.84 27.5961 192.738 27.7987 192.738C28.0013 192.738 28.6596 193.093 29.723 193.751C30.2801 194.106 30.8877 194.409 31.4448 194.764C32.255 195.27 32.6601 195.675 32.6601 196.03C32.6601 196.232 32.5082 196.486 32.255 196.739C32.0018 197.043 31.7486 197.296 31.5461 197.549C31.2929 197.802 30.8371 198.866 30.1788 200.739C31.3435 200.638 32.964 200.385 35.0402 199.98C35.2934 199.879 35.6479 199.524 36.1543 198.967C36.6607 198.41 36.9646 198.157 37.1165 198.157C37.319 198.106 37.7241 198.309 38.3825 198.663C38.8382 198.916 39.294 199.17 39.8004 199.423C40.2562 199.676 40.7626 199.879 41.269 200.081C42.1298 200.436 42.535 200.689 42.535 200.841ZM48.3586 218.869C48.3586 219.223 47.7509 219.375 46.4849 219.426C45.7759 219.476 44.7125 219.476 43.3452 219.476C41.9273 219.476 40.8638 219.476 40.1549 219.527C39.7498 219.527 38.9395 219.578 38.3825 219.628C37.7241 219.679 36.9646 219.729 36.5594 219.729C36.1543 219.78 35.8505 219.729 35.5973 219.679C35.3441 219.628 34.23 218.767 32.255 216.995C29.9256 214.919 28.7102 213.805 28.5583 213.754C28.2545 213.501 26.7859 212.387 24.2033 210.412C20.5572 214.21 17.9239 216.691 16.354 217.906C13.822 219.831 10.5811 221.552 6.68178 223.021C5.5677 223.426 4.65618 223.629 3.99786 223.679C3.64338 223.679 3.49146 223.578 3.49146 223.426C3.49146 223.173 4.3017 222.667 5.97282 221.907C6.93498 221.451 8.40354 220.793 10.3279 219.831C14.1259 217.603 16.8604 215.526 18.5316 213.653C20.8104 211.07 21.9244 209.348 21.9244 208.538C21.9244 208.133 21.7219 207.677 21.2661 207.171C20.8104 206.664 20.5572 206.31 20.5572 206.158C20.5572 205.955 20.7091 205.854 20.9623 205.854C21.2155 205.854 21.8232 206.107 22.8866 206.563C23.4436 206.816 24.0513 207.069 24.6084 207.323C25.4692 207.728 25.925 208.082 25.925 208.335C25.925 208.538 25.6718 208.892 25.1654 209.45C28.3051 211.627 30.6345 213.096 32.2044 213.956C34.6857 215.324 37.319 216.286 40.003 216.894C41.117 217.147 43.2439 217.501 46.333 218.058C47.7002 218.312 48.3586 218.615 48.3586 218.869ZM40.003 229.807C40.003 230.313 39.851 231.022 39.4966 231.934C39.0914 232.997 38.6863 233.504 38.2812 233.504C38.028 233.554 37.6735 233.25 37.1671 232.592C35.0402 230.06 32.9133 228.034 30.8371 226.566C29.6724 225.705 29.1153 225.199 29.1153 225.047C29.1153 224.895 29.2673 224.793 29.5205 224.793C30.1788 224.743 32.0018 225.3 34.9389 226.465C37.8254 227.629 39.4459 228.49 39.7498 228.946C39.9017 229.199 40.003 229.452 40.003 229.807ZM35.5466 221.654C35.5973 221.806 35.3441 222.008 34.8883 222.363C34.4325 222.717 34.0274 222.869 33.6729 222.869C32.9133 222.616 31.9512 222.312 30.6852 222.008C29.723 221.958 27.9 222.059 25.2161 222.312C25.1654 223.73 25.1654 225.654 25.2161 228.034C25.2667 230.82 25.3173 232.693 25.3173 233.706C25.3173 236.036 24.9122 237.2 24.102 237.2C23.5956 237.2 23.0892 236.846 22.4308 235.985C21.7725 235.124 21.4687 234.466 21.4687 233.959C21.4687 233.706 21.6206 233.402 21.8738 232.947C22.127 232.541 22.2283 232.288 22.2789 232.136C22.5321 231.275 22.684 230.465 22.7347 229.655C22.7853 229.3 22.7853 226.92 22.836 222.515C20.2533 222.768 17.8732 223.122 15.6957 223.527C15.5438 223.527 15.088 223.629 14.3791 223.831C13.822 223.983 13.4169 224.034 13.1131 224.034C12.8599 224.034 12.4041 223.781 11.8471 223.325C11.29 222.869 10.9862 222.515 11.0368 222.261C11.0368 222.11 11.5939 222.008 12.708 221.958C13.5182 221.907 14.4297 221.856 15.4425 221.806C17.1136 221.654 19.5444 221.401 22.836 221.046C22.8866 220.489 22.8866 220.337 22.8866 219.78C22.8866 218.666 22.7347 217.451 22.2283 216.539C22.0764 216.286 21.7725 215.881 21.3168 215.374C20.9623 215.02 20.8104 214.716 20.8104 214.564C20.8104 214.311 20.9623 214.21 21.2155 214.21C21.2661 214.21 22.3296 214.665 24.4058 215.526C25.4693 215.982 25.9757 216.337 25.9757 216.64C25.9757 216.742 25.925 216.995 25.7731 217.349C25.6212 217.704 25.5705 217.957 25.5705 218.058C25.4186 218.565 25.3173 219.476 25.2667 220.844C27.0391 220.692 28.6596 220.438 30.0269 220.135C30.2801 220.084 30.5839 219.881 30.8877 219.476C31.1409 219.071 31.3941 218.869 31.6473 218.869C31.698 218.818 31.9512 219.02 32.4069 219.375C32.964 219.881 33.3691 220.185 33.5717 220.337C33.6223 220.388 34.0781 220.59 34.8377 220.995C35.2934 221.249 35.5466 221.451 35.5466 221.654ZM18.8354 225.604C18.8354 225.958 18.5316 226.667 17.9745 227.629C17.2149 228.895 16.4047 230.009 15.4425 231.022C13.1131 233.504 11.3913 234.77 10.3279 234.82C9.97339 234.82 9.66955 234.516 9.41634 233.909C9.26442 233.402 9.16314 232.896 9.16314 232.44C9.16314 232.086 9.26442 231.782 9.41634 231.579C9.82147 231.427 10.3785 231.225 11.0875 230.921C12.2522 230.415 13.1637 229.908 13.8727 229.351C14.9361 228.49 15.9489 227.629 16.9111 226.718C17.2656 226.161 17.8226 225.654 18.5316 225.148C18.7341 225.097 18.8354 225.249 18.8354 225.604Z" fill="#333333"/>
<path d="M42.535 200.841C42.535 201.094 42.2311 201.448 41.6741 201.853C41.117 202.309 40.6613 202.512 40.4081 202.512C40.3574 202.512 39.6485 202.36 38.3825 202.056C37.4203 201.803 36.3569 201.752 35.0402 201.752C34.0274 201.752 31.6473 201.955 29.5711 202.157C29.1153 203.322 28.6596 204.284 28.3051 204.993C27.5455 206.512 27.0391 207.272 26.6846 207.272C26.3808 207.272 26.2289 207.069 26.2289 206.715C26.2289 206.563 26.5833 205.145 27.3429 202.461C25.6718 202.664 23.1398 202.968 19.7469 203.423C19.7469 203.575 19.7469 203.778 19.7469 204.132C19.7469 204.487 19.7469 204.74 19.7469 204.892C19.7469 206.968 19.5444 207.981 19.0886 208.032C18.5316 208.032 18.1264 206.614 17.772 203.727C16.1008 203.98 14.531 204.284 13.1131 204.537C12.1003 204.791 8.96058 205.398 8.65674 205.398C8.20098 205.398 7.69458 205.196 6.93498 204.74C6.17538 204.284 5.77026 203.879 5.77026 203.525C5.77026 203.373 6.12474 203.322 6.88434 203.271C7.99842 203.221 11.5432 202.866 17.5188 202.157C17.3668 201.195 17.0124 199.828 16.4553 198.106C16.2021 197.549 15.8983 197.144 15.5438 196.789C14.7842 196.081 14.3791 195.625 14.3791 195.473C14.3791 195.22 14.531 195.118 14.8348 195.068C15.1893 195.068 16.1008 195.321 17.5694 195.827C19.038 196.334 19.7976 196.688 19.9495 196.941C19.9495 196.992 19.9495 197.043 19.9495 197.144C19.9495 197.347 19.8988 197.65 19.8482 198.005C19.7469 198.359 19.6963 198.663 19.6963 198.815C19.6456 198.967 19.6456 199.321 19.6456 199.828C19.6456 200.284 19.6456 200.993 19.6963 201.904L27.6974 201.043C28.2038 198.562 28.457 196.992 28.457 196.283C28.457 195.625 28.3051 194.966 28.0013 194.257C27.6468 193.599 27.4949 193.194 27.4949 193.093C27.4949 192.84 27.5961 192.738 27.7987 192.738C28.0013 192.738 28.6596 193.093 29.723 193.751C30.2801 194.106 30.8877 194.409 31.4448 194.764C32.255 195.27 32.6601 195.675 32.6601 196.03C32.6601 196.232 32.5082 196.486 32.255 196.739C32.0018 197.043 31.7486 197.296 31.5461 197.549C31.2929 197.802 30.8371 198.866 30.1788 200.739C31.3435 200.638 32.964 200.385 35.0402 199.98C35.2934 199.879 35.6479 199.524 36.1543 198.967C36.6607 198.41 36.9646 198.157 37.1165 198.157C37.319 198.106 37.7241 198.309 38.3825 198.663C38.8382 198.916 39.294 199.17 39.8004 199.423C40.2562 199.676 40.7626 199.879 41.269 200.081C42.1298 200.436 42.535 200.689 42.535 200.841ZM48.3586 218.869C48.3586 219.223 47.7509 219.375 46.4849 219.426C45.7759 219.476 44.7125 219.476 43.3452 219.476C41.9273 219.476 40.8638 219.476 40.1549 219.527C39.7498 219.527 38.9395 219.578 38.3825 219.628C37.7241 219.679 36.9646 219.729 36.5594 219.729C36.1543 219.78 35.8505 219.729 35.5973 219.679C35.3441 219.628 34.23 218.767 32.255 216.995C29.9256 214.919 28.7102 213.805 28.5583 213.754C28.2545 213.501 26.7859 212.387 24.2033 210.412C20.5572 214.21 17.9239 216.691 16.354 217.906C13.822 219.831 10.5811 221.552 6.68178 223.021C5.5677 223.426 4.65618 223.629 3.99786 223.679C3.64338 223.679 3.49146 223.578 3.49146 223.426C3.49146 223.173 4.3017 222.667 5.97282 221.907C6.93498 221.451 8.40354 220.793 10.3279 219.831C14.1259 217.603 16.8604 215.526 18.5316 213.653C20.8104 211.07 21.9244 209.348 21.9244 208.538C21.9244 208.133 21.7219 207.677 21.2661 207.171C20.8104 206.664 20.5572 206.31 20.5572 206.158C20.5572 205.955 20.7091 205.854 20.9623 205.854C21.2155 205.854 21.8232 206.107 22.8866 206.563C23.4436 206.816 24.0513 207.069 24.6084 207.323C25.4692 207.728 25.925 208.082 25.925 208.335C25.925 208.538 25.6718 208.892 25.1654 209.45C28.3051 211.627 30.6345 213.096 32.2044 213.956C34.6857 215.324 37.319 216.286 40.003 216.894C41.117 217.147 43.2439 217.501 46.333 218.058C47.7002 218.312 48.3586 218.615 48.3586 218.869ZM40.003 229.807C40.003 230.313 39.851 231.022 39.4966 231.934C39.0914 232.997 38.6863 233.504 38.2812 233.504C38.028 233.554 37.6735 233.25 37.1671 232.592C35.0402 230.06 32.9133 228.034 30.8371 226.566C29.6724 225.705 29.1153 225.199 29.1153 225.047C29.1153 224.895 29.2673 224.793 29.5205 224.793C30.1788 224.743 32.0018 225.3 34.9389 226.465C37.8254 227.629 39.4459 228.49 39.7498 228.946C39.9017 229.199 40.003 229.452 40.003 229.807ZM35.5466 221.654C35.5973 221.806 35.3441 222.008 34.8883 222.363C34.4325 222.717 34.0274 222.869 33.6729 222.869C32.9133 222.616 31.9512 222.312 30.6852 222.008C29.723 221.958 27.9 222.059 25.2161 222.312C25.1654 223.73 25.1654 225.654 25.2161 228.034C25.2667 230.82 25.3173 232.693 25.3173 233.706C25.3173 236.036 24.9122 237.2 24.102 237.2C23.5956 237.2 23.0892 236.846 22.4308 235.985C21.7725 235.124 21.4687 234.466 21.4687 233.959C21.4687 233.706 21.6206 233.402 21.8738 232.947C22.127 232.541 22.2283 232.288 22.2789 232.136C22.5321 231.275 22.684 230.465 22.7347 229.655C22.7853 229.3 22.7853 226.92 22.836 222.515C20.2533 222.768 17.8732 223.122 15.6957 223.527C15.5438 223.527 15.088 223.629 14.3791 223.831C13.822 223.983 13.4169 224.034 13.1131 224.034C12.8599 224.034 12.4041 223.781 11.8471 223.325C11.29 222.869 10.9862 222.515 11.0368 222.261C11.0368 222.11 11.5939 222.008 12.708 221.958C13.5182 221.907 14.4297 221.856 15.4425 221.806C17.1136 221.654 19.5444 221.401 22.836 221.046C22.8866 220.489 22.8866 220.337 22.8866 219.78C22.8866 218.666 22.7347 217.451 22.2283 216.539C22.0764 216.286 21.7725 215.881 21.3168 215.374C20.9623 215.02 20.8104 214.716 20.8104 214.564C20.8104 214.311 20.9623 214.21 21.2155 214.21C21.2661 214.21 22.3296 214.665 24.4058 215.526C25.4693 215.982 25.9757 216.337 25.9757 216.64C25.9757 216.742 25.925 216.995 25.7731 217.349C25.6212 217.704 25.5705 217.957 25.5705 218.058C25.4186 218.565 25.3173 219.476 25.2667 220.844C27.0391 220.692 28.6596 220.438 30.0269 220.135C30.2801 220.084 30.5839 219.881 30.8877 219.476C31.1409 219.071 31.3941 218.869 31.6473 218.869C31.698 218.818 31.9512 219.02 32.4069 219.375C32.964 219.881 33.3691 220.185 33.5717 220.337C33.6223 220.388 34.0781 220.59 34.8377 220.995C35.2934 221.249 35.5466 221.451 35.5466 221.654ZM18.8354 225.604C18.8354 225.958 18.5316 226.667 17.9745 227.629C17.2149 228.895 16.4047 230.009 15.4425 231.022C13.1131 233.504 11.3913 234.77 10.3279 234.82C9.97339 234.82 9.66955 234.516 9.41634 233.909C9.26442 233.402 9.16314 232.896 9.16314 232.44C9.16314 232.086 9.26442 231.782 9.41634 231.579C9.82147 231.427 10.3785 231.225 11.0875 230.921C12.2522 230.415 13.1637 229.908 13.8727 229.351C14.9361 228.49 15.9489 227.629 16.9111 226.718C17.2656 226.161 17.8226 225.654 18.5316 225.148C18.7341 225.097 18.8354 225.249 18.8354 225.604Z" stroke="black" stroke-width="0.4" mask="url(#path-1-outside-1_1_899)"/>
<path d="M19.1899 145.112C19.4168 145.112 19.7255 145.209 20.0854 145.402C20.4481 145.596 20.8722 145.892 21.3325 146.301L21.3374 146.305C21.338 146.306 21.3419 146.31 21.3521 146.319C21.3622 146.327 21.3761 146.339 21.394 146.354C21.4301 146.384 21.4819 146.426 21.5483 146.48C21.6812 146.588 21.8744 146.745 22.1274 146.951C22.6338 147.362 23.3805 147.97 24.3677 148.78C24.6708 149.007 24.9728 149.233 25.2954 149.459L25.6265 149.686L25.6343 149.691L25.5708 149.769L25.6343 149.692C25.9146 149.921 26.1364 150.129 26.2886 150.321C26.4397 150.511 26.5317 150.698 26.5317 150.883C26.5317 151.357 26.3736 151.927 26.1216 152.683C25.9936 153.118 25.8828 153.478 25.7935 153.785C25.7055 154.086 25.6433 154.319 25.6187 154.488L25.6196 154.489C25.4182 156.402 25.2661 158.869 25.1147 161.941C25.3234 162.212 26.3485 163.485 28.1099 165.721C28.506 165.319 29.0389 164.741 29.7515 163.981C32.1302 161.349 33.6383 159.284 34.2388 157.833L34.2397 157.833C34.3845 157.495 34.4341 157.154 34.4341 156.707C34.434 156.168 34.2869 155.523 33.9351 154.668V154.667C33.7585 154.264 33.6179 153.933 33.522 153.671C33.4273 153.413 33.3707 153.207 33.3706 153.061C33.3706 152.893 33.4127 152.753 33.5015 152.648C33.5899 152.543 33.7148 152.485 33.856 152.457L33.8657 152.455H33.8755C33.9861 152.455 34.1099 152.494 34.2427 152.559C34.3767 152.625 34.5275 152.723 34.6948 152.848C35.0295 153.099 35.4392 153.469 35.9214 153.952C36.5783 154.609 37.1846 155.216 37.8413 155.873L38.147 156.152C38.4347 156.425 38.6659 156.678 38.8364 156.907C39.061 157.208 39.1918 157.483 39.1919 157.719C39.1919 158.025 38.9494 158.303 38.5933 158.558L38.5942 158.559C38.1867 158.865 37.8367 159.115 37.5356 159.366C36.571 160.28 35.1098 161.691 33.1343 163.565L33.1333 163.566C31.8391 164.761 30.4948 165.906 29.0542 167.003C30.9727 169.399 32.4339 171.108 33.4712 172.167L33.894 172.585L33.896 172.587C35.76 174.451 37.8751 175.811 40.1401 176.667H40.1392C41.3998 177.12 43.1675 177.626 45.4429 178.131H45.4448C46.1798 178.309 46.7443 178.476 47.1265 178.644C47.3171 178.728 47.4692 178.815 47.5747 178.909C47.6804 179.003 47.7495 179.114 47.7495 179.242C47.7494 179.531 47.5358 179.735 47.1987 179.867C46.8603 179.999 46.366 180.075 45.73 180.1C44.7597 180.151 43.3562 180.202 41.4771 180.303C39.6092 180.404 38.1771 180.456 37.2231 180.506H37.2212C36.435 180.532 35.7987 180.532 35.3198 180.506C35.0805 180.494 34.8785 180.474 34.7163 180.448C34.5564 180.422 34.4272 180.389 34.3374 180.344V180.343C34.2387 180.306 34.1332 180.216 34.0229 180.092C33.9044 179.96 33.768 179.777 33.6147 179.543C33.3081 179.077 32.9266 178.402 32.4702 177.515L32.4692 177.512C31.9132 176.35 31.3568 175.238 30.8003 174.125L30.1597 172.974C28.6794 170.346 26.9805 167.53 25.063 164.497V166.429C25.063 168.25 25.164 170.983 25.3159 174.629C25.4678 178.325 25.5698 181.062 25.5698 182.938C25.5698 183.706 25.4669 184.473 25.314 185.187L25.312 185.199L25.3101 185.198C25.1563 185.659 24.9012 186.271 24.5444 186.934C24.3148 187.368 24.0958 187.706 23.8921 187.936C23.6934 188.16 23.4898 188.305 23.2915 188.305C22.8337 188.305 22.4037 187.962 21.9468 187.303C21.7676 187.073 21.6011 186.83 21.437 186.59C21.2725 186.35 21.1096 186.113 20.9351 185.888C20.4887 185.445 19.6417 184.896 18.2808 184.14C17.8237 183.886 17.1612 183.479 16.3032 182.974L16.3003 182.972C16.0183 182.793 15.8146 182.619 15.7017 182.45C15.6446 182.364 15.6074 182.275 15.5991 182.185C15.5908 182.093 15.6124 182.005 15.6606 181.924C15.6877 181.864 15.7384 181.821 15.7954 181.792C15.8585 181.761 15.9373 181.741 16.0259 181.731C16.1595 181.716 16.3276 181.72 16.5229 181.745L16.7271 181.777L16.7339 181.778L16.7407 181.78C17.1894 181.929 17.8906 182.08 18.854 182.283H18.855C20.1194 182.536 21.0707 182.635 21.6636 182.585L21.7612 182.568C21.9843 182.502 22.1821 182.262 22.3296 181.782C22.496 181.239 22.5844 180.428 22.5845 179.343C22.5845 176.507 22.6344 172.252 22.6851 166.53C22.7357 160.859 22.7358 156.606 22.7358 153.77C22.7358 152.422 22.3865 151.172 21.6851 149.919L21.6831 149.916L21.7729 149.871L21.6831 149.915C21.3344 149.217 20.6823 148.314 19.7231 147.253L19.7202 147.25C19.3901 146.843 19.1338 146.497 18.9595 146.213C18.7883 145.934 18.6851 145.698 18.6851 145.515C18.6851 145.386 18.7353 145.278 18.8335 145.207C18.9269 145.139 19.0524 145.112 19.1899 145.112ZM16.9116 162.076C17.0038 162.076 17.1158 162.123 17.2358 162.194C17.3606 162.267 17.5102 162.375 17.6831 162.516C17.9428 162.728 18.2587 163.018 18.6255 163.385L19.0093 163.778L19.0103 163.78C19.5685 164.389 19.9899 164.898 20.272 165.302C20.413 165.504 20.5205 165.682 20.5933 165.833C20.6649 165.983 20.7075 166.116 20.7075 166.227C20.7075 166.376 20.5997 166.515 20.4517 166.644C20.2981 166.778 20.0761 166.922 19.7954 167.075H19.7944C19.1771 167.407 18.7814 167.606 18.6499 167.671C18.4877 167.895 17.989 168.695 17.1499 170.126L17.1489 170.125C15.5251 173.018 13.7994 175.354 12.021 177.234L12.02 177.235C10.1893 179.116 7.90293 180.843 5.11182 182.467L5.11084 182.468C4.39425 182.878 3.42583 183.286 2.15869 183.742L2.15088 183.744L2.14404 183.746C2.00282 183.774 1.87547 183.762 1.77881 183.709C1.6784 183.655 1.61968 183.559 1.61963 183.445C1.61963 183.367 1.65309 183.287 1.70264 183.209C1.7531 183.131 1.82609 183.044 1.92041 182.95C2.10941 182.761 2.39284 182.529 2.77393 182.25C3.00394 182.071 3.24653 181.905 3.48584 181.742C3.72682 181.577 3.96488 181.414 4.18994 181.239L4.19092 181.238C8.98952 177.651 12.4733 173.41 14.7446 168.514V168.513C15.3146 167.326 15.7017 166.366 15.9126 165.59C14.3445 165.841 12.7282 166.185 11.063 166.577C10.1763 166.887 9.09607 167.236 7.85596 167.556L7.30127 167.695H7.28955C7.13067 167.695 6.93166 167.602 6.70264 167.45C6.46859 167.294 6.18579 167.062 5.85498 166.756C5.52282 166.45 5.27636 166.179 5.11279 165.95C4.95247 165.725 4.85986 165.525 4.85986 165.366C4.86005 165.309 4.89634 165.271 4.92139 165.25C4.94815 165.229 4.98207 165.212 5.01709 165.198C5.0882 165.169 5.18893 165.142 5.31396 165.117C5.56576 165.065 5.93679 165.013 6.41846 164.962H6.42334L6.80811 164.936C7.76668 164.859 9.15303 164.666 10.9692 164.356H10.9712C12.1601 164.179 13.108 164.015 13.8081 163.87C14.4952 163.727 14.9327 163.604 15.1294 163.51C15.5391 163.052 16.0999 162.546 16.8599 162.09L16.8833 162.076H16.9116ZM10.7974 152.095C11.1511 152.104 11.5935 152.155 12.1167 152.241C12.816 152.355 13.6667 152.532 14.6548 152.76C15.6446 152.989 16.4347 153.218 17.0229 153.442C17.5331 153.636 17.9043 153.83 18.1196 154.025L18.2017 154.109L18.2065 154.115C18.2559 154.181 18.2948 154.277 18.3267 154.395C18.3592 154.515 18.3872 154.666 18.4097 154.846C18.4547 155.206 18.48 155.692 18.48 156.301C18.48 157.038 18.4293 157.606 18.3179 158C18.2082 158.387 18.0259 158.647 17.7329 158.68L17.7212 158.681V158.68C17.6815 158.68 17.6404 158.667 17.604 158.651C17.5651 158.634 17.5201 158.61 17.4712 158.58C17.373 158.519 17.2493 158.428 17.1021 158.31C16.8072 158.073 16.4119 157.716 15.9292 157.233C14.975 156.279 13.7169 155.323 12.2036 154.364L11.8657 154.163C11.7555 154.094 11.6469 154.024 11.5396 153.955C11.324 153.815 11.1116 153.678 10.8872 153.553L10.8813 153.55C10.526 153.322 10.2551 153.128 10.0718 152.964C9.98018 152.883 9.90752 152.805 9.85693 152.732C9.80698 152.66 9.77197 152.583 9.77197 152.503C9.772 152.435 9.78925 152.371 9.82666 152.315C9.86364 152.259 9.91663 152.217 9.979 152.186C10.0998 152.126 10.2686 152.101 10.4731 152.1L10.7974 152.095Z" fill="#333333" stroke="black" stroke-width="0.2"/>
<path d="M24.2603 103.864C29.2897 103.864 33.1829 105.538 36.0649 109.074L36.3413 109.423C37.9249 111.517 38.9945 114.527 38.9946 117.839C38.9946 122.069 37.6676 125.337 34.4565 128.344L34.4556 128.345C32.16 130.436 29.1024 131.862 25.188 132.522L25.187 132.521C24.6734 132.624 24.3627 132.625 24.0073 132.625C23.6973 132.625 23.439 132.586 23.2427 132.495C23.042 132.402 22.9065 132.254 22.8472 132.046C22.812 131.923 22.842 131.801 22.9175 131.688C22.9914 131.578 23.1116 131.473 23.269 131.371C23.5845 131.167 24.0757 130.961 24.7368 130.758C30.2905 129.041 33.7516 126.272 35.1548 122.464L35.2954 122.04C35.6021 121.022 35.7563 119.814 35.7563 118.447C35.7563 114.015 34.2972 110.603 31.3882 108.245V108.244C29.4848 106.691 27.0262 105.887 24.0571 105.887C20.4405 105.887 17.4805 107.241 15.1196 110.004V110.005C12.4046 113.173 11.3483 116.891 11.9019 121.169H11.9009C12.0533 122.135 12.1545 122.937 12.3052 123.59C12.4563 124.245 12.6191 124.743 12.7856 125.095C12.9534 125.449 13.1158 125.634 13.2563 125.696C13.3924 125.749 13.5702 125.747 13.7983 125.676C14.0262 125.605 14.2957 125.466 14.6079 125.257C15.2323 124.839 16.0116 124.148 16.9468 123.188C18.0554 122.028 19.5707 120.109 21.3413 117.529C23.0104 115.102 23.9707 113.485 24.9302 111.516L25.0522 111.256C25.3146 110.659 25.4263 110.13 25.4263 109.838C25.4262 109.699 25.3777 109.416 25.2866 109.23L24.7407 108.535L24.6489 108.419C24.5647 108.305 24.5012 108.198 24.4595 108.099C24.4057 107.971 24.3824 107.844 24.4165 107.735C24.4479 107.587 24.5263 107.476 24.645 107.404C24.7602 107.335 24.9053 107.308 25.064 107.308L25.23 107.302C26.052 107.295 26.7822 107.609 27.4604 108.189H27.4614C27.9306 108.554 28.2947 109.024 28.5542 109.646C28.7749 110.142 28.6703 110.861 28.2827 111.782C27.8926 112.71 27.2039 113.867 26.2153 115.262L26.2163 115.263L23.3296 119.416H23.3286C22.0096 121.293 20.2859 123.473 18.2085 125.905L18.2065 125.907C17.2395 126.976 16.0193 128.095 14.4448 129.263C13.2739 130.128 12.2899 130.549 11.4478 130.549C11.1428 130.549 10.8859 130.436 10.7007 130.216C10.518 129.998 10.4125 129.683 10.3862 129.291L10.3853 129.284H10.3862C10.3862 129.086 10.3853 128.937 10.2847 127.275C9.92946 126.104 9.57535 124.278 9.12158 121.858L9.11963 121.849L9.22021 121.84L9.12061 121.848C9.06995 121.24 9.01905 120.578 9.01904 119.814C9.01904 116.484 9.70547 113.642 11.0835 111.288C12.4618 108.933 14.5283 107.072 17.2778 105.697H17.2788C19.6678 104.528 21.9618 103.864 24.2603 103.864Z" fill="#333333" stroke="black" stroke-width="0.2"/>
<path d="M21.3679 47.5767C21.5007 47.5768 21.6539 47.6165 21.8289 47.6909C22.005 47.7658 22.2094 47.8785 22.446 48.0288C22.9194 48.3295 23.5316 48.7879 24.3171 49.4214C25.1026 50.0548 25.6999 50.563 26.1013 50.939C26.3018 51.1267 26.4551 51.2838 26.5593 51.4077C26.6113 51.4695 26.6532 51.5255 26.6824 51.5747C26.7094 51.6203 26.734 51.6738 26.7341 51.7271V51.7446L26.7283 51.7612C26.5284 52.3109 26.327 53.1138 26.074 54.1763C25.8248 57.0709 25.7238 60.0157 25.6726 63.0112C28.0113 62.8084 30.6424 62.46 33.5662 61.9653C33.9719 61.413 34.4768 60.8618 35.1277 60.311L35.1423 60.2983L35.1609 60.2925C35.2223 60.2721 35.2924 60.2744 35.3621 60.2876C35.4334 60.3011 35.5145 60.3276 35.6033 60.3638C35.78 60.4358 35.9988 60.552 36.2517 60.7036C36.8906 61.0476 37.1063 61.1567 37.2625 61.2593C37.81 61.5077 38.6105 61.7584 39.6677 62.0103C39.871 62.0359 40.0745 62.0744 40.283 62.1187L40.9363 62.2642L40.9392 62.2651C41.1472 62.3172 41.3138 62.3847 41.4304 62.4722C41.5497 62.5617 41.6218 62.6774 41.6218 62.8179C41.6218 62.976 41.5441 63.149 41.407 63.3384C41.2683 63.5299 41.0598 63.7502 40.7791 64.0054C40.2221 64.5117 39.7981 64.7843 39.4626 64.8403L39.4597 64.8413C39.2684 64.8686 39.0294 64.8541 38.7429 64.8159C38.455 64.7775 38.1102 64.714 37.7058 64.6382L37.7048 64.6372C36.4396 64.3842 35.7276 64.2325 35.5222 64.1812V64.1802C34.9751 64.0814 34.2256 64.0324 33.2732 64.0825H33.2712C31.7193 64.1326 29.2197 64.3818 25.6707 64.8306V71.5679C27.3963 71.3718 28.9341 71.2221 30.2693 71.0737H30.2703L31.532 70.9399C32.8785 70.7858 34.4813 70.5677 36.3406 70.2642C36.4416 70.2429 36.577 70.1678 36.7556 70.02C36.9338 69.8726 37.1453 69.6614 37.3972 69.3843C37.6512 69.1049 37.857 68.8985 38.0203 68.7612C38.1019 68.6927 38.1757 68.6387 38.241 68.6021C38.3044 68.5665 38.3701 68.5415 38.4333 68.5415C38.5134 68.5416 38.6072 68.5835 38.7029 68.6401C38.8034 68.6997 38.9246 68.7871 39.0652 68.8989C39.206 69.011 39.369 69.1494 39.5535 69.314L40.1726 69.8853L40.1746 69.8872C40.9735 70.6861 42.2797 71.5408 44.0994 72.4507H44.0984C44.274 72.526 44.4501 72.601 44.6257 72.6763C44.8022 72.7519 44.9785 72.8282 45.155 72.9038L45.3367 72.981C45.508 73.0592 45.6464 73.1395 45.7498 73.2222C45.8859 73.331 45.9773 73.4579 45.9773 73.604C45.9773 73.774 45.8614 73.9509 45.6746 74.1313C45.4832 74.3162 45.1969 74.5238 44.8142 74.7534C44.4314 74.9831 44.0975 75.1502 43.8191 75.2603C43.5461 75.3682 43.319 75.4229 43.1492 75.4243C43.0677 75.4377 42.9706 75.429 42.8621 75.4038C42.746 75.3769 42.6076 75.3313 42.447 75.2671C42.1256 75.1385 41.704 74.9336 41.1716 74.6548L41.1707 74.6538C40.8439 74.4779 40.5039 74.3146 40.1619 74.1499C39.8224 73.9865 39.4808 73.8214 39.1511 73.644C37.5993 72.9433 35.7419 72.6396 33.4734 72.6899L33.4744 72.6909C31.0216 72.791 28.4204 72.9912 25.6707 73.3384L25.7214 88.1372V88.1382C25.7214 88.7056 25.6186 89.3719 25.4666 90.1323L25.4646 90.1382C25.337 90.6229 25.1948 91.0002 25.0359 91.2651C24.8784 91.5277 24.6924 91.6993 24.4705 91.731L24.4636 91.7319H24.4568C24.0927 91.7319 23.7274 91.5498 23.363 91.2114C22.9983 90.8727 22.6252 90.3692 22.2429 89.7065V89.7075C21.532 88.4888 21.1659 87.5073 21.1658 86.7202C21.1658 86.3915 21.3279 85.8668 21.6833 85.1558C21.8861 84.725 22.0497 84.3854 22.1697 84.1265C22.291 83.8647 22.3619 83.6971 22.3845 83.6069L22.3855 83.6021C22.6851 82.6034 22.8378 81.0457 22.8884 78.8687V78.8677C22.9379 77.1361 22.9858 75.3578 22.988 73.7202C19.3281 74.277 15.37 75.1311 11.113 76.2329L11.1121 76.2319C10.046 76.6374 8.72911 77.0439 7.06226 77.4985L7.04956 77.5024H7.03589C6.95259 77.5023 6.83955 77.4702 6.70581 77.4185C6.56838 77.3653 6.39716 77.2864 6.19312 77.1812C5.78478 76.9706 5.23844 76.6518 4.55444 76.2212C3.86967 75.8154 3.37098 75.4841 3.04272 75.2202C2.87884 75.0885 2.75425 74.971 2.66968 74.8677C2.58806 74.7679 2.53101 74.6654 2.53101 74.5659C2.53107 74.4093 2.59555 74.2774 2.71753 74.188C2.83549 74.1016 2.99792 74.0611 3.18726 74.061H3.19312C4.04888 74.1114 5.30885 74.1108 6.97729 74.1108C8.74597 73.9592 11.4775 73.6059 15.1218 72.9985H15.1248C16.8834 72.7473 19.5383 72.3961 23.0398 71.9458V68.5435L23.0105 67.5054C22.9904 66.5896 22.9891 65.8376 22.989 65.2144C20.9133 65.5695 17.8144 66.1215 13.74 66.9165L13.739 66.9155C12.7781 67.1684 11.6146 67.4733 10.2488 67.7769L10.238 67.7788H10.2263C10.0497 67.7787 9.79127 67.6931 9.46167 67.5347C9.1273 67.3739 8.70528 67.1316 8.19702 66.8013V66.8003C7.66528 66.4711 7.26959 66.2037 6.99976 65.9917C6.86486 65.8857 6.75953 65.7916 6.68335 65.7095C6.60967 65.6301 6.553 65.5514 6.53394 65.4751L6.53198 65.4673V65.4663C6.51712 65.3761 6.52404 65.2901 6.55737 65.2124C6.59111 65.134 6.64913 65.0718 6.72339 65.0249C6.86794 64.9336 7.08157 64.895 7.34058 64.895H7.34937V64.896C7.76191 64.9335 8.37465 64.9423 9.16772 64.9233L10.0203 64.895C11.8406 64.7433 13.3053 64.5913 14.365 64.4399H14.366L22.989 63.3364L23.0398 56.3862C23.0398 53.4541 22.6347 51.2991 21.8386 49.9556L21.8376 49.9536C21.5341 49.4225 21.305 49.0162 21.1521 48.7231C21.0758 48.5768 21.0169 48.4567 20.9773 48.3628C20.9575 48.3158 20.9423 48.2734 20.9314 48.2368C20.9209 48.2017 20.9129 48.1656 20.9128 48.1323C20.9128 47.9936 20.9407 47.8677 21.0154 47.7681C21.0911 47.6672 21.2046 47.6073 21.3474 47.5786L21.3572 47.5767H21.3679ZM11.8894 53.5015C12.0622 53.4871 12.2774 53.5309 12.5291 53.6196C12.7826 53.709 13.0823 53.8469 13.4265 54.0317C14.1151 54.4015 14.992 54.9618 16.0564 55.6968C17.1211 56.432 17.9351 57.0543 18.5027 57.5581C18.7863 57.8099 19.0103 58.0339 19.1736 58.228C19.328 58.4116 19.4327 58.5763 19.4802 58.7183C19.5092 58.7537 19.528 58.791 19.5359 58.8384C19.5439 58.8866 19.5427 58.9479 19.5427 59.02C19.5426 59.5006 19.3307 60.1765 18.8728 61.0415C18.6424 61.4766 18.4094 61.8147 18.1853 62.0454C17.9644 62.2728 17.7375 62.4114 17.5193 62.4116V62.4097C17.4187 62.422 17.3195 62.3756 17.2302 62.3071C17.1319 62.2316 17.024 62.1155 16.908 61.9673C16.6754 61.67 16.3937 61.2221 16.0642 60.6392L16.0623 60.6353C15.1043 58.7699 13.8937 57.0542 12.53 55.438L12.5291 55.437C12.1995 55.0314 11.9437 54.6989 11.7703 54.4419C11.6837 54.3136 11.6164 54.2013 11.5701 54.1069C11.5253 54.0157 11.4939 53.9287 11.4939 53.854C11.494 53.7549 11.5281 53.6618 11.6042 53.5952C11.6769 53.5318 11.7762 53.5028 11.8894 53.5015ZM33.0652 51.2729C33.1606 51.2729 33.273 51.3044 33.3982 51.356C33.5252 51.4082 33.6737 51.4852 33.8435 51.5845C34.0134 51.6839 34.207 51.8068 34.4246 51.9526L35.1492 52.4565L35.1521 52.4585C35.4802 52.7108 35.8209 52.9632 36.1619 53.2095L37.1736 53.9243L37.1775 53.9272L37.4109 54.1147C37.6285 54.2985 37.7979 54.4706 37.9177 54.6304C38.0758 54.8412 38.1586 55.046 38.1267 55.2378L38.1257 55.2417C38.0936 55.4016 37.9846 55.5343 37.8386 55.6538C37.6918 55.774 37.4943 55.8914 37.2664 56.0181L37.2654 56.0171C36.9225 56.2131 36.6111 56.4195 36.2546 56.5737C35.5974 56.9784 34.7444 57.5822 33.5759 58.3442C32.2855 59.2803 31.2452 59.9778 30.4441 60.4419C30.0433 60.6741 29.7006 60.8492 29.4148 60.9663C29.1372 61.08 28.9049 61.1404 28.7224 61.1431C28.5878 61.1689 28.4662 61.1619 28.3767 61.0923C28.2844 61.0204 28.2557 60.9067 28.2556 60.7925C28.2556 60.7522 28.2698 60.7109 28.2859 60.6753C28.3031 60.6373 28.3277 60.594 28.3582 60.5474C28.4191 60.4539 28.5095 60.3364 28.6277 60.1958C28.8645 59.9142 29.2211 59.5321 29.7029 59.0503C30.8398 57.9134 31.6824 56.9185 32.2341 56.0659C32.7873 55.2111 33.0401 54.5114 33.0164 53.9604L33.0154 53.9556H33.0164C33.0163 53.8401 32.9929 53.6838 32.949 53.4829C32.9053 53.2831 32.8423 53.0445 32.7664 52.7661V52.7651C32.6914 52.5154 32.6272 52.3114 32.5828 52.1528C32.539 51.9966 32.5095 51.8696 32.5095 51.7778C32.5096 51.6287 32.5563 51.5087 32.6599 51.4224C32.7569 51.3418 32.8926 51.2999 33.0486 51.2739L33.0574 51.2729H33.0652Z" fill="#333333" stroke="black" stroke-width="0.2"/>
<mask id="path-5-outside-2_1_899" maskUnits="userSpaceOnUse" x="-0.800049" y="-0.799805" width="50" height="45" fill="black">
<rect fill="white" x="-0.800049" y="-0.799805" width="50" height="45"/>
<path d="M48.6625 35.7495C48.6625 36.0027 48.1561 36.2053 47.1433 36.2559C46.3837 36.3066 45.0671 36.4079 43.1427 36.6104C42.3831 36.7117 41.1678 36.813 39.5473 36.9649C39.2941 36.9649 39.1422 36.9649 39.0409 36.9143C38.889 36.8636 38.3319 36.2053 37.2685 34.8887C35.9519 33.0656 33.8756 30.4323 31.0398 26.9382C30.9891 27.1914 30.9891 27.6471 30.9891 28.2548C30.9891 28.7612 30.9891 29.1157 30.9891 29.3182C30.9891 30.483 30.9891 32.1541 31.0398 34.4329C31.0398 34.7874 31.0904 35.4963 31.141 36.5598C31.1917 37.4207 31.1917 38.1296 31.1917 38.636C31.1917 41.5731 30.8372 43.0417 30.1789 43.0924C29.7231 43.0924 29.2674 42.6872 28.8622 41.877C28.4065 41.0667 28.2039 40.3578 28.2039 39.8007C28.2039 39.4463 28.3052 38.8892 28.4571 38.1296C28.609 37.4207 28.6597 36.9143 28.7103 36.6104C28.8622 34.9393 29.0142 33.5214 29.0648 32.3567C29.1154 31.5464 29.1154 30.4323 29.0648 29.0144C28.3052 30.0272 27.0898 31.4958 25.4187 33.4201C24.4566 34.3823 23.3425 35.3951 22.0765 36.4585C20.3547 37.8258 19.1393 38.5347 18.481 38.5854C18.4304 38.5347 18.3291 38.4841 18.2785 38.3322C18.2785 38.079 18.5823 37.6739 19.19 37.1168C19.6457 36.7623 20.0509 36.4079 20.5066 36.0534C21.9245 34.6861 23.3931 33.1163 24.963 31.2426C26.6341 29.217 27.9001 27.2926 28.761 25.4696C28.2039 25.5202 27.343 25.6722 26.229 25.9254C25.8238 26.0773 25.2162 26.1786 24.4566 26.3305C24.2034 26.3305 23.7982 26.1279 23.1399 25.6722C22.4816 25.2164 22.1777 24.9126 22.1777 24.6594C22.1777 24.5074 22.5829 24.4062 23.3425 24.3555C23.545 24.4062 23.8489 24.4062 24.254 24.3555C26.1277 24.153 27.6469 23.9504 28.9129 23.6972C28.9635 22.1274 28.8622 20.8614 28.609 19.8992C28.4571 19.2409 27.9507 18.4813 27.1405 17.5191C26.5834 16.8101 26.2796 16.405 26.2796 16.2531C26.2796 15.9493 26.4315 15.7973 26.6847 15.7973C26.9379 15.7973 28.052 16.3544 30.027 17.4685C30.4827 17.7217 30.8878 17.9242 31.3436 18.1774C31.7994 18.4306 32.0019 18.6838 32.0019 18.8864C32.0526 19.089 32.0019 19.3928 31.9006 19.7473C31.6981 20.2537 31.5968 20.5575 31.5462 20.6082C31.3942 21.3171 31.293 22.2286 31.3436 23.3427C32.6096 23.2414 34.382 22.9376 36.5595 22.4818C36.7621 22.3806 37.0153 22.0767 37.3191 21.621C37.5723 21.1652 37.7749 20.9626 37.9268 20.9626C38.18 20.9626 38.5851 21.1146 39.0915 21.4184C39.446 21.621 39.8511 21.8235 40.3069 22.0261C40.712 22.2286 41.1678 22.4312 41.6235 22.5831C42.3831 22.8363 42.7883 23.0389 42.7883 23.1908C42.7883 23.3934 42.4844 23.7478 41.9274 24.2542C41.3197 24.7606 40.8639 25.0138 40.6107 25.0645C40.155 25.0645 39.4967 24.9632 38.6358 24.7606C37.7243 24.6087 37.0659 24.5074 36.6102 24.5074C35.4961 24.5581 33.673 24.71 31.141 25.0138C33.9262 27.5965 35.648 29.1663 36.2557 29.6221C38.2307 31.1919 40.2056 32.4073 42.1299 33.1669C43.3959 33.7239 45.2696 34.281 47.6497 34.9393C48.308 35.0912 48.6625 35.3951 48.6625 35.7495ZM45.7254 16.3544C45.7254 16.7089 44.5607 16.9621 42.2819 17.1646C41.0159 17.3165 39.0409 17.5697 36.357 17.8736C35.6987 17.9242 35.3442 17.9749 35.1923 17.9242C35.1416 17.9242 34.0275 16.9114 31.7487 14.8352C30.2802 13.5692 28.1026 11.6955 25.2162 9.11285V9.97373C25.1655 10.9865 25.1655 12.3538 25.2162 14.0756C25.2668 16.0505 25.2668 17.4178 25.2668 18.1774C25.2668 19.8486 25.0136 20.6588 24.4566 20.6588C24.0008 20.7094 23.4944 20.355 22.988 19.646C22.4816 18.937 22.2284 18.3293 22.2284 17.8736C22.2284 17.7217 22.3297 17.3672 22.5829 16.9114C22.7854 16.4557 22.8867 16.2025 22.9374 16.0505C23.0893 15.5948 23.1399 14.4301 23.1906 12.6577L23.2412 10.3789C22.7854 10.9359 22.2284 11.4929 21.5701 12.05C18.3797 14.7339 15.6452 16.7595 13.3664 18.1268C13.5689 18.2787 14.2779 18.8357 15.4426 19.7979C16.7593 20.8614 17.4176 21.5197 17.4176 21.7729C17.4176 22.0261 17.3669 22.2793 17.215 22.6338C17.0631 22.9882 17.0125 23.2921 17.0125 23.444C16.8605 24.1023 16.8099 24.71 16.8605 25.2164C17.1137 25.1658 17.6708 25.0645 18.481 24.8113C18.9368 24.5581 19.4432 24.3555 20.0509 24.1023C20.3041 24.1023 20.6585 24.3049 21.1649 24.7606C21.6714 25.2164 21.9245 25.5709 21.8739 25.7734C21.8233 26.0266 21.0637 26.3305 19.5951 26.5837C18.1265 26.8369 17.1644 27.0394 16.7593 27.1407C16.7593 28.2548 16.7593 29.0144 16.7593 29.3689C17.5189 29.4195 18.2785 29.4195 19.0381 29.4702C20.0509 29.5208 20.7092 29.7234 21.013 30.0272C21.3169 30.331 21.5701 30.7362 21.722 31.2932C21.8739 32.0022 21.9752 32.4579 21.9752 32.6099C21.9752 33.0656 21.8233 33.3188 21.4688 33.3188C21.3169 33.3188 20.8611 33.1163 20.2028 32.6605C19.5445 32.2047 18.3291 31.6477 16.658 30.8881C16.658 31.5464 16.658 32.5592 16.7086 33.9265C16.7593 35.2938 16.7593 36.3066 16.7593 37.0155C16.7593 40.3071 16.5567 42.0795 16.2022 42.3834C16.1009 42.4847 15.9997 42.5353 15.8984 42.5353C15.3413 42.5353 14.8856 42.1302 14.4298 41.3706C14.0753 40.7123 13.8728 40.054 13.8728 39.4969C13.8728 39.1424 13.9741 38.636 14.1766 38.0283C14.3792 37.4207 14.4805 36.9649 14.5311 36.6611C14.6324 35.7495 14.683 33.8759 14.683 31.04C12.7081 33.3188 10.176 35.4457 7.087 37.37C5.97292 38.079 4.40308 38.9399 2.32683 39.902C1.76979 40.2059 1.21275 40.4084 0.655712 40.5603C0.351871 40.611 0.199951 40.5097 0.199951 40.2059C0.199951 40.0539 0.807632 39.6488 2.02299 38.9399C3.18772 38.2815 4.555 37.37 6.02356 36.2559C9.82157 33.4707 12.6068 30.6349 14.3792 27.6471C13.7715 27.799 12.4549 28.1535 10.4292 28.7106C9.66965 28.9638 8.80877 29.217 7.79596 29.4702C7.44148 29.4702 6.8338 29.3182 6.02356 28.9638C5.21332 28.6093 4.8082 28.3561 4.8082 28.1029C4.8082 28.0016 5.41588 27.8497 6.68188 27.5965C9.66965 27.0394 12.3029 26.4318 14.5817 25.7734C14.5817 24.4062 14.5311 23.2921 14.3792 22.4818C14.2273 21.8235 13.9741 21.1146 13.5183 20.2537C13.2145 19.8992 12.8093 19.3928 12.3536 18.7345C10.5812 19.7473 8.80877 20.6588 7.03636 21.469C5.87164 22.0261 4.96012 22.3806 4.3018 22.4818C3.7954 22.5831 3.5422 22.4818 3.5422 22.2286C3.5422 22.0767 4.50436 21.469 6.37804 20.355C12.6068 16.7089 17.4682 13.0628 20.8611 9.36605C19.19 9.56861 17.1644 9.87245 14.8349 10.2776C13.8728 10.5308 12.4549 10.784 10.5812 11.0372C10.2267 11.0878 9.77093 10.8346 9.11261 10.3282C8.45429 9.87245 8.15045 9.51797 8.15045 9.26477C8.15045 9.11285 8.45429 9.01157 9.06197 9.01157C9.51773 8.96093 9.92285 8.96093 10.3786 8.96093C11.4421 8.91029 13.0625 8.75837 15.2401 8.60645C17.0125 8.35325 19.6964 8.04941 23.1906 7.64429C23.1906 5.97317 23.1399 4.7578 23.0893 3.89692C23.0386 3.33988 22.7348 2.68156 22.279 1.82068C21.8233 1.01044 21.5701 0.554677 21.5701 0.504038C21.5701 0.301477 21.6713 0.200195 21.9245 0.200195C22.2284 0.200195 22.988 0.554678 24.254 1.31428C25.52 2.07388 26.1277 2.52964 26.1277 2.78284C26.1277 2.9854 26.0264 3.2386 25.8745 3.59308C25.6719 4.04884 25.5706 4.30204 25.52 4.35268C25.4187 4.70717 25.3174 5.77061 25.2668 7.44173C27.5456 7.23917 30.2295 6.88469 33.4198 6.42893C33.9263 5.97317 34.5339 5.51741 35.2429 5.06164C35.3948 5.06164 35.8506 5.31485 36.6102 5.77061C37.5723 6.42893 38.0787 6.73277 38.1294 6.73277C38.5851 6.93533 38.9903 7.13789 39.446 7.28981C40.155 7.59365 40.5095 7.79621 40.5095 7.94813C40.5095 8.20133 40.2056 8.55581 39.5979 8.96093C38.9903 9.41669 38.5345 9.61925 38.2813 9.61925C38.0787 9.61925 37.4711 9.41669 36.4583 9.06221C35.3948 8.70773 34.7365 8.50517 34.382 8.45453C33.5211 8.30261 33.0147 8.25197 32.8628 8.25197C31.4955 8.30261 29.4193 8.50517 26.7354 8.75837C31.6474 12.3032 35.648 14.3794 38.7371 14.9871C40.2056 15.2909 41.7755 15.5441 43.5479 15.6961C45.0164 15.848 45.7254 16.0505 45.7254 16.3544Z"/>
</mask>
<path d="M48.6625 35.7495C48.6625 36.0027 48.1561 36.2053 47.1433 36.2559C46.3837 36.3066 45.0671 36.4079 43.1427 36.6104C42.3831 36.7117 41.1678 36.813 39.5473 36.9649C39.2941 36.9649 39.1422 36.9649 39.0409 36.9143C38.889 36.8636 38.3319 36.2053 37.2685 34.8887C35.9519 33.0656 33.8756 30.4323 31.0398 26.9382C30.9891 27.1914 30.9891 27.6471 30.9891 28.2548C30.9891 28.7612 30.9891 29.1157 30.9891 29.3182C30.9891 30.483 30.9891 32.1541 31.0398 34.4329C31.0398 34.7874 31.0904 35.4963 31.141 36.5598C31.1917 37.4207 31.1917 38.1296 31.1917 38.636C31.1917 41.5731 30.8372 43.0417 30.1789 43.0924C29.7231 43.0924 29.2674 42.6872 28.8622 41.877C28.4065 41.0667 28.2039 40.3578 28.2039 39.8007C28.2039 39.4463 28.3052 38.8892 28.4571 38.1296C28.609 37.4207 28.6597 36.9143 28.7103 36.6104C28.8622 34.9393 29.0142 33.5214 29.0648 32.3567C29.1154 31.5464 29.1154 30.4323 29.0648 29.0144C28.3052 30.0272 27.0898 31.4958 25.4187 33.4201C24.4566 34.3823 23.3425 35.3951 22.0765 36.4585C20.3547 37.8258 19.1393 38.5347 18.481 38.5854C18.4304 38.5347 18.3291 38.4841 18.2785 38.3322C18.2785 38.079 18.5823 37.6739 19.19 37.1168C19.6457 36.7623 20.0509 36.4079 20.5066 36.0534C21.9245 34.6861 23.3931 33.1163 24.963 31.2426C26.6341 29.217 27.9001 27.2926 28.761 25.4696C28.2039 25.5202 27.343 25.6722 26.229 25.9254C25.8238 26.0773 25.2162 26.1786 24.4566 26.3305C24.2034 26.3305 23.7982 26.1279 23.1399 25.6722C22.4816 25.2164 22.1777 24.9126 22.1777 24.6594C22.1777 24.5074 22.5829 24.4062 23.3425 24.3555C23.545 24.4062 23.8489 24.4062 24.254 24.3555C26.1277 24.153 27.6469 23.9504 28.9129 23.6972C28.9635 22.1274 28.8622 20.8614 28.609 19.8992C28.4571 19.2409 27.9507 18.4813 27.1405 17.5191C26.5834 16.8101 26.2796 16.405 26.2796 16.2531C26.2796 15.9493 26.4315 15.7973 26.6847 15.7973C26.9379 15.7973 28.052 16.3544 30.027 17.4685C30.4827 17.7217 30.8878 17.9242 31.3436 18.1774C31.7994 18.4306 32.0019 18.6838 32.0019 18.8864C32.0526 19.089 32.0019 19.3928 31.9006 19.7473C31.6981 20.2537 31.5968 20.5575 31.5462 20.6082C31.3942 21.3171 31.293 22.2286 31.3436 23.3427C32.6096 23.2414 34.382 22.9376 36.5595 22.4818C36.7621 22.3806 37.0153 22.0767 37.3191 21.621C37.5723 21.1652 37.7749 20.9626 37.9268 20.9626C38.18 20.9626 38.5851 21.1146 39.0915 21.4184C39.446 21.621 39.8511 21.8235 40.3069 22.0261C40.712 22.2286 41.1678 22.4312 41.6235 22.5831C42.3831 22.8363 42.7883 23.0389 42.7883 23.1908C42.7883 23.3934 42.4844 23.7478 41.9274 24.2542C41.3197 24.7606 40.8639 25.0138 40.6107 25.0645C40.155 25.0645 39.4967 24.9632 38.6358 24.7606C37.7243 24.6087 37.0659 24.5074 36.6102 24.5074C35.4961 24.5581 33.673 24.71 31.141 25.0138C33.9262 27.5965 35.648 29.1663 36.2557 29.6221C38.2307 31.1919 40.2056 32.4073 42.1299 33.1669C43.3959 33.7239 45.2696 34.281 47.6497 34.9393C48.308 35.0912 48.6625 35.3951 48.6625 35.7495ZM45.7254 16.3544C45.7254 16.7089 44.5607 16.9621 42.2819 17.1646C41.0159 17.3165 39.0409 17.5697 36.357 17.8736C35.6987 17.9242 35.3442 17.9749 35.1923 17.9242C35.1416 17.9242 34.0275 16.9114 31.7487 14.8352C30.2802 13.5692 28.1026 11.6955 25.2162 9.11285V9.97373C25.1655 10.9865 25.1655 12.3538 25.2162 14.0756C25.2668 16.0505 25.2668 17.4178 25.2668 18.1774C25.2668 19.8486 25.0136 20.6588 24.4566 20.6588C24.0008 20.7094 23.4944 20.355 22.988 19.646C22.4816 18.937 22.2284 18.3293 22.2284 17.8736C22.2284 17.7217 22.3297 17.3672 22.5829 16.9114C22.7854 16.4557 22.8867 16.2025 22.9374 16.0505C23.0893 15.5948 23.1399 14.4301 23.1906 12.6577L23.2412 10.3789C22.7854 10.9359 22.2284 11.4929 21.5701 12.05C18.3797 14.7339 15.6452 16.7595 13.3664 18.1268C13.5689 18.2787 14.2779 18.8357 15.4426 19.7979C16.7593 20.8614 17.4176 21.5197 17.4176 21.7729C17.4176 22.0261 17.3669 22.2793 17.215 22.6338C17.0631 22.9882 17.0125 23.2921 17.0125 23.444C16.8605 24.1023 16.8099 24.71 16.8605 25.2164C17.1137 25.1658 17.6708 25.0645 18.481 24.8113C18.9368 24.5581 19.4432 24.3555 20.0509 24.1023C20.3041 24.1023 20.6585 24.3049 21.1649 24.7606C21.6714 25.2164 21.9245 25.5709 21.8739 25.7734C21.8233 26.0266 21.0637 26.3305 19.5951 26.5837C18.1265 26.8369 17.1644 27.0394 16.7593 27.1407C16.7593 28.2548 16.7593 29.0144 16.7593 29.3689C17.5189 29.4195 18.2785 29.4195 19.0381 29.4702C20.0509 29.5208 20.7092 29.7234 21.013 30.0272C21.3169 30.331 21.5701 30.7362 21.722 31.2932C21.8739 32.0022 21.9752 32.4579 21.9752 32.6099C21.9752 33.0656 21.8233 33.3188 21.4688 33.3188C21.3169 33.3188 20.8611 33.1163 20.2028 32.6605C19.5445 32.2047 18.3291 31.6477 16.658 30.8881C16.658 31.5464 16.658 32.5592 16.7086 33.9265C16.7593 35.2938 16.7593 36.3066 16.7593 37.0155C16.7593 40.3071 16.5567 42.0795 16.2022 42.3834C16.1009 42.4847 15.9997 42.5353 15.8984 42.5353C15.3413 42.5353 14.8856 42.1302 14.4298 41.3706C14.0753 40.7123 13.8728 40.054 13.8728 39.4969C13.8728 39.1424 13.9741 38.636 14.1766 38.0283C14.3792 37.4207 14.4805 36.9649 14.5311 36.6611C14.6324 35.7495 14.683 33.8759 14.683 31.04C12.7081 33.3188 10.176 35.4457 7.087 37.37C5.97292 38.079 4.40308 38.9399 2.32683 39.902C1.76979 40.2059 1.21275 40.4084 0.655712 40.5603C0.351871 40.611 0.199951 40.5097 0.199951 40.2059C0.199951 40.0539 0.807632 39.6488 2.02299 38.9399C3.18772 38.2815 4.555 37.37 6.02356 36.2559C9.82157 33.4707 12.6068 30.6349 14.3792 27.6471C13.7715 27.799 12.4549 28.1535 10.4292 28.7106C9.66965 28.9638 8.80877 29.217 7.79596 29.4702C7.44148 29.4702 6.8338 29.3182 6.02356 28.9638C5.21332 28.6093 4.8082 28.3561 4.8082 28.1029C4.8082 28.0016 5.41588 27.8497 6.68188 27.5965C9.66965 27.0394 12.3029 26.4318 14.5817 25.7734C14.5817 24.4062 14.5311 23.2921 14.3792 22.4818C14.2273 21.8235 13.9741 21.1146 13.5183 20.2537C13.2145 19.8992 12.8093 19.3928 12.3536 18.7345C10.5812 19.7473 8.80877 20.6588 7.03636 21.469C5.87164 22.0261 4.96012 22.3806 4.3018 22.4818C3.7954 22.5831 3.5422 22.4818 3.5422 22.2286C3.5422 22.0767 4.50436 21.469 6.37804 20.355C12.6068 16.7089 17.4682 13.0628 20.8611 9.36605C19.19 9.56861 17.1644 9.87245 14.8349 10.2776C13.8728 10.5308 12.4549 10.784 10.5812 11.0372C10.2267 11.0878 9.77093 10.8346 9.11261 10.3282C8.45429 9.87245 8.15045 9.51797 8.15045 9.26477C8.15045 9.11285 8.45429 9.01157 9.06197 9.01157C9.51773 8.96093 9.92285 8.96093 10.3786 8.96093C11.4421 8.91029 13.0625 8.75837 15.2401 8.60645C17.0125 8.35325 19.6964 8.04941 23.1906 7.64429C23.1906 5.97317 23.1399 4.7578 23.0893 3.89692C23.0386 3.33988 22.7348 2.68156 22.279 1.82068C21.8233 1.01044 21.5701 0.554677 21.5701 0.504038C21.5701 0.301477 21.6713 0.200195 21.9245 0.200195C22.2284 0.200195 22.988 0.554678 24.254 1.31428C25.52 2.07388 26.1277 2.52964 26.1277 2.78284C26.1277 2.9854 26.0264 3.2386 25.8745 3.59308C25.6719 4.04884 25.5706 4.30204 25.52 4.35268C25.4187 4.70717 25.3174 5.77061 25.2668 7.44173C27.5456 7.23917 30.2295 6.88469 33.4198 6.42893C33.9263 5.97317 34.5339 5.51741 35.2429 5.06164C35.3948 5.06164 35.8506 5.31485 36.6102 5.77061C37.5723 6.42893 38.0787 6.73277 38.1294 6.73277C38.5851 6.93533 38.9903 7.13789 39.446 7.28981C40.155 7.59365 40.5095 7.79621 40.5095 7.94813C40.5095 8.20133 40.2056 8.55581 39.5979 8.96093C38.9903 9.41669 38.5345 9.61925 38.2813 9.61925C38.0787 9.61925 37.4711 9.41669 36.4583 9.06221C35.3948 8.70773 34.7365 8.50517 34.382 8.45453C33.5211 8.30261 33.0147 8.25197 32.8628 8.25197C31.4955 8.30261 29.4193 8.50517 26.7354 8.75837C31.6474 12.3032 35.648 14.3794 38.7371 14.9871C40.2056 15.2909 41.7755 15.5441 43.5479 15.6961C45.0164 15.848 45.7254 16.0505 45.7254 16.3544Z" fill="#333333"/>
<path d="M48.6625 35.7495C48.6625 36.0027 48.1561 36.2053 47.1433 36.2559C46.3837 36.3066 45.0671 36.4079 43.1427 36.6104C42.3831 36.7117 41.1678 36.813 39.5473 36.9649C39.2941 36.9649 39.1422 36.9649 39.0409 36.9143C38.889 36.8636 38.3319 36.2053 37.2685 34.8887C35.9519 33.0656 33.8756 30.4323 31.0398 26.9382C30.9891 27.1914 30.9891 27.6471 30.9891 28.2548C30.9891 28.7612 30.9891 29.1157 30.9891 29.3182C30.9891 30.483 30.9891 32.1541 31.0398 34.4329C31.0398 34.7874 31.0904 35.4963 31.141 36.5598C31.1917 37.4207 31.1917 38.1296 31.1917 38.636C31.1917 41.5731 30.8372 43.0417 30.1789 43.0924C29.7231 43.0924 29.2674 42.6872 28.8622 41.877C28.4065 41.0667 28.2039 40.3578 28.2039 39.8007C28.2039 39.4463 28.3052 38.8892 28.4571 38.1296C28.609 37.4207 28.6597 36.9143 28.7103 36.6104C28.8622 34.9393 29.0142 33.5214 29.0648 32.3567C29.1154 31.5464 29.1154 30.4323 29.0648 29.0144C28.3052 30.0272 27.0898 31.4958 25.4187 33.4201C24.4566 34.3823 23.3425 35.3951 22.0765 36.4585C20.3547 37.8258 19.1393 38.5347 18.481 38.5854C18.4304 38.5347 18.3291 38.4841 18.2785 38.3322C18.2785 38.079 18.5823 37.6739 19.19 37.1168C19.6457 36.7623 20.0509 36.4079 20.5066 36.0534C21.9245 34.6861 23.3931 33.1163 24.963 31.2426C26.6341 29.217 27.9001 27.2926 28.761 25.4696C28.2039 25.5202 27.343 25.6722 26.229 25.9254C25.8238 26.0773 25.2162 26.1786 24.4566 26.3305C24.2034 26.3305 23.7982 26.1279 23.1399 25.6722C22.4816 25.2164 22.1777 24.9126 22.1777 24.6594C22.1777 24.5074 22.5829 24.4062 23.3425 24.3555C23.545 24.4062 23.8489 24.4062 24.254 24.3555C26.1277 24.153 27.6469 23.9504 28.9129 23.6972C28.9635 22.1274 28.8622 20.8614 28.609 19.8992C28.4571 19.2409 27.9507 18.4813 27.1405 17.5191C26.5834 16.8101 26.2796 16.405 26.2796 16.2531C26.2796 15.9493 26.4315 15.7973 26.6847 15.7973C26.9379 15.7973 28.052 16.3544 30.027 17.4685C30.4827 17.7217 30.8878 17.9242 31.3436 18.1774C31.7994 18.4306 32.0019 18.6838 32.0019 18.8864C32.0526 19.089 32.0019 19.3928 31.9006 19.7473C31.6981 20.2537 31.5968 20.5575 31.5462 20.6082C31.3942 21.3171 31.293 22.2286 31.3436 23.3427C32.6096 23.2414 34.382 22.9376 36.5595 22.4818C36.7621 22.3806 37.0153 22.0767 37.3191 21.621C37.5723 21.1652 37.7749 20.9626 37.9268 20.9626C38.18 20.9626 38.5851 21.1146 39.0915 21.4184C39.446 21.621 39.8511 21.8235 40.3069 22.0261C40.712 22.2286 41.1678 22.4312 41.6235 22.5831C42.3831 22.8363 42.7883 23.0389 42.7883 23.1908C42.7883 23.3934 42.4844 23.7478 41.9274 24.2542C41.3197 24.7606 40.8639 25.0138 40.6107 25.0645C40.155 25.0645 39.4967 24.9632 38.6358 24.7606C37.7243 24.6087 37.0659 24.5074 36.6102 24.5074C35.4961 24.5581 33.673 24.71 31.141 25.0138C33.9262 27.5965 35.648 29.1663 36.2557 29.6221C38.2307 31.1919 40.2056 32.4073 42.1299 33.1669C43.3959 33.7239 45.2696 34.281 47.6497 34.9393C48.308 35.0912 48.6625 35.3951 48.6625 35.7495ZM45.7254 16.3544C45.7254 16.7089 44.5607 16.9621 42.2819 17.1646C41.0159 17.3165 39.0409 17.5697 36.357 17.8736C35.6987 17.9242 35.3442 17.9749 35.1923 17.9242C35.1416 17.9242 34.0275 16.9114 31.7487 14.8352C30.2802 13.5692 28.1026 11.6955 25.2162 9.11285V9.97373C25.1655 10.9865 25.1655 12.3538 25.2162 14.0756C25.2668 16.0505 25.2668 17.4178 25.2668 18.1774C25.2668 19.8486 25.0136 20.6588 24.4566 20.6588C24.0008 20.7094 23.4944 20.355 22.988 19.646C22.4816 18.937 22.2284 18.3293 22.2284 17.8736C22.2284 17.7217 22.3297 17.3672 22.5829 16.9114C22.7854 16.4557 22.8867 16.2025 22.9374 16.0505C23.0893 15.5948 23.1399 14.4301 23.1906 12.6577L23.2412 10.3789C22.7854 10.9359 22.2284 11.4929 21.5701 12.05C18.3797 14.7339 15.6452 16.7595 13.3664 18.1268C13.5689 18.2787 14.2779 18.8357 15.4426 19.7979C16.7593 20.8614 17.4176 21.5197 17.4176 21.7729C17.4176 22.0261 17.3669 22.2793 17.215 22.6338C17.0631 22.9882 17.0125 23.2921 17.0125 23.444C16.8605 24.1023 16.8099 24.71 16.8605 25.2164C17.1137 25.1658 17.6708 25.0645 18.481 24.8113C18.9368 24.5581 19.4432 24.3555 20.0509 24.1023C20.3041 24.1023 20.6585 24.3049 21.1649 24.7606C21.6714 25.2164 21.9245 25.5709 21.8739 25.7734C21.8233 26.0266 21.0637 26.3305 19.5951 26.5837C18.1265 26.8369 17.1644 27.0394 16.7593 27.1407C16.7593 28.2548 16.7593 29.0144 16.7593 29.3689C17.5189 29.4195 18.2785 29.4195 19.0381 29.4702C20.0509 29.5208 20.7092 29.7234 21.013 30.0272C21.3169 30.331 21.5701 30.7362 21.722 31.2932C21.8739 32.0022 21.9752 32.4579 21.9752 32.6099C21.9752 33.0656 21.8233 33.3188 21.4688 33.3188C21.3169 33.3188 20.8611 33.1163 20.2028 32.6605C19.5445 32.2047 18.3291 31.6477 16.658 30.8881C16.658 31.5464 16.658 32.5592 16.7086 33.9265C16.7593 35.2938 16.7593 36.3066 16.7593 37.0155C16.7593 40.3071 16.5567 42.0795 16.2022 42.3834C16.1009 42.4847 15.9997 42.5353 15.8984 42.5353C15.3413 42.5353 14.8856 42.1302 14.4298 41.3706C14.0753 40.7123 13.8728 40.054 13.8728 39.4969C13.8728 39.1424 13.9741 38.636 14.1766 38.0283C14.3792 37.4207 14.4805 36.9649 14.5311 36.6611C14.6324 35.7495 14.683 33.8759 14.683 31.04C12.7081 33.3188 10.176 35.4457 7.087 37.37C5.97292 38.079 4.40308 38.9399 2.32683 39.902C1.76979 40.2059 1.21275 40.4084 0.655712 40.5603C0.351871 40.611 0.199951 40.5097 0.199951 40.2059C0.199951 40.0539 0.807632 39.6488 2.02299 38.9399C3.18772 38.2815 4.555 37.37 6.02356 36.2559C9.82157 33.4707 12.6068 30.6349 14.3792 27.6471C13.7715 27.799 12.4549 28.1535 10.4292 28.7106C9.66965 28.9638 8.80877 29.217 7.79596 29.4702C7.44148 29.4702 6.8338 29.3182 6.02356 28.9638C5.21332 28.6093 4.8082 28.3561 4.8082 28.1029C4.8082 28.0016 5.41588 27.8497 6.68188 27.5965C9.66965 27.0394 12.3029 26.4318 14.5817 25.7734C14.5817 24.4062 14.5311 23.2921 14.3792 22.4818C14.2273 21.8235 13.9741 21.1146 13.5183 20.2537C13.2145 19.8992 12.8093 19.3928 12.3536 18.7345C10.5812 19.7473 8.80877 20.6588 7.03636 21.469C5.87164 22.0261 4.96012 22.3806 4.3018 22.4818C3.7954 22.5831 3.5422 22.4818 3.5422 22.2286C3.5422 22.0767 4.50436 21.469 6.37804 20.355C12.6068 16.7089 17.4682 13.0628 20.8611 9.36605C19.19 9.56861 17.1644 9.87245 14.8349 10.2776C13.8728 10.5308 12.4549 10.784 10.5812 11.0372C10.2267 11.0878 9.77093 10.8346 9.11261 10.3282C8.45429 9.87245 8.15045 9.51797 8.15045 9.26477C8.15045 9.11285 8.45429 9.01157 9.06197 9.01157C9.51773 8.96093 9.92285 8.96093 10.3786 8.96093C11.4421 8.91029 13.0625 8.75837 15.2401 8.60645C17.0125 8.35325 19.6964 8.04941 23.1906 7.64429C23.1906 5.97317 23.1399 4.7578 23.0893 3.89692C23.0386 3.33988 22.7348 2.68156 22.279 1.82068C21.8233 1.01044 21.5701 0.554677 21.5701 0.504038C21.5701 0.301477 21.6713 0.200195 21.9245 0.200195C22.2284 0.200195 22.988 0.554678 24.254 1.31428C25.52 2.07388 26.1277 2.52964 26.1277 2.78284C26.1277 2.9854 26.0264 3.2386 25.8745 3.59308C25.6719 4.04884 25.5706 4.30204 25.52 4.35268C25.4187 4.70717 25.3174 5.77061 25.2668 7.44173C27.5456 7.23917 30.2295 6.88469 33.4198 6.42893C33.9263 5.97317 34.5339 5.51741 35.2429 5.06164C35.3948 5.06164 35.8506 5.31485 36.6102 5.77061C37.5723 6.42893 38.0787 6.73277 38.1294 6.73277C38.5851 6.93533 38.9903 7.13789 39.446 7.28981C40.155 7.59365 40.5095 7.79621 40.5095 7.94813C40.5095 8.20133 40.2056 8.55581 39.5979 8.96093C38.9903 9.41669 38.5345 9.61925 38.2813 9.61925C38.0787 9.61925 37.4711 9.41669 36.4583 9.06221C35.3948 8.70773 34.7365 8.50517 34.382 8.45453C33.5211 8.30261 33.0147 8.25197 32.8628 8.25197C31.4955 8.30261 29.4193 8.50517 26.7354 8.75837C31.6474 12.3032 35.648 14.3794 38.7371 14.9871C40.2056 15.2909 41.7755 15.5441 43.5479 15.6961C45.0164 15.848 45.7254 16.0505 45.7254 16.3544Z" stroke="black" stroke-width="0.4" mask="url(#path-5-outside-2_1_899)"/>
</mask>
<g mask="url(#mask0_1_899)">
<g filter="url(#filter0_f_1_899)">
<path d="M165.615 125.277C165.615 203.708 102.034 267.289 23.6023 267.289C-54.829 267.289 -118.41 203.708 -118.41 125.277C-118.41 46.8453 -54.829 -16.7358 23.6023 -16.7358C102.034 -16.7358 165.615 46.8453 165.615 125.277Z" fill="#333333"/>
</g>
<g filter="url(#filter1_f_1_899)">
<path d="M73.0764 222.639C73.0764 249.39 51.3898 271.077 24.6381 271.077C-2.11371 271.077 -23.8003 249.39 -23.8003 222.639C-23.8003 195.887 -2.11371 174.2 24.6381 174.2C51.3898 174.2 73.0764 195.887 73.0764 222.639Z" fill="#00ADC8"/>
</g>
<g filter="url(#filter2_f_1_899)">
<path d="M91.5722 31.0245C91.5722 57.1682 70.3784 78.362 44.2347 78.362C18.0909 78.362 -3.10278 57.1682 -3.10278 31.0245C-3.10278 4.88072 18.0909 -16.313 44.2347 -16.313C70.3784 -16.313 91.5722 4.88072 91.5722 31.0245Z" fill="#3D61B1"/>
</g>
</g>
<path d="M61.79 156.21C61.74 156.21 61.715 156.19 61.715 156.15C61.715 156.11 61.745 156.06 61.805 156C61.965 155.84 62.185 155.645 62.465 155.415C62.965 154.995 63.215 154.755 63.215 154.695C63.215 154.665 63.17 154.635 63.08 154.605C62.99 154.575 62.89 154.55 62.78 154.53C62.68 154.5 62.58 154.475 62.48 154.455C62.06 154.345 61.7 154.17 61.4 153.93C61.1 153.69 60.86 153.45 60.68 153.21C60.54 153 60.47 152.855 60.47 152.775C60.47 152.725 60.485 152.7 60.515 152.7L60.605 152.745C60.705 152.815 60.825 152.88 60.965 152.94C61.175 153.04 61.47 153.125 61.85 153.195C62.23 153.255 62.615 153.285 63.005 153.285C63.245 153.285 63.525 153.26 63.845 153.21C64.225 153.17 64.495 153.15 64.655 153.15C64.815 153.15 64.96 153.175 65.09 153.225C65.32 153.285 65.525 153.42 65.705 153.63C65.885 153.84 65.975 154.045 65.975 154.245C65.975 154.435 65.9 154.57 65.75 154.65C65.61 154.73 65.36 154.795 65 154.845C64.57 154.895 64.095 155.02 63.575 155.22C63.065 155.41 62.545 155.71 62.015 156.12C61.935 156.18 61.86 156.21 61.79 156.21ZM63.545 163.155C62.755 163.155 62.025 163.085 61.355 162.945C60.685 162.795 60.17 162.555 59.81 162.225C59.42 161.885 59.225 161.42 59.225 160.83C59.225 160.57 59.255 160.32 59.315 160.08C59.375 159.9 59.44 159.76 59.51 159.66C59.59 159.55 59.655 159.495 59.705 159.495C59.765 159.495 59.795 159.555 59.795 159.675C59.795 159.715 59.78 159.79 59.75 159.9C59.73 160.01 59.72 160.095 59.72 160.155C59.72 160.705 60.095 161.105 60.845 161.355C61.365 161.515 61.99 161.595 62.72 161.595C63.56 161.595 64.435 161.5 65.345 161.31C65.765 161.25 66.015 161.22 66.095 161.22C66.415 161.22 66.68 161.295 66.89 161.445C67.11 161.585 67.22 161.77 67.22 162C67.22 162.38 66.93 162.655 66.35 162.825C66.04 162.925 65.635 163.005 65.135 163.065C64.635 163.125 64.105 163.155 63.545 163.155ZM66.245 174.155C66.845 174.155 67.31 174.3 67.64 174.59C67.98 174.88 68.15 175.315 68.15 175.895C68.15 176.435 67.96 176.995 67.58 177.575C67.2 178.155 66.715 178.64 66.125 179.03C65.545 179.41 64.965 179.6 64.385 179.6C63.955 179.6 63.605 179.485 63.335 179.255C63.075 179.025 62.945 178.705 62.945 178.295C62.945 177.755 63.2 177.09 63.71 176.3C63.8 176.18 63.865 176.12 63.905 176.12C63.945 176.12 63.965 176.14 63.965 176.18C63.965 176.23 63.915 176.36 63.815 176.57C63.745 176.73 63.68 176.92 63.62 177.14C63.57 177.35 63.545 177.55 63.545 177.74C63.545 178.22 63.715 178.46 64.055 178.46C64.405 178.46 64.805 178.305 65.255 177.995C65.715 177.675 66.105 177.29 66.425 176.84C66.755 176.39 66.92 175.98 66.92 175.61C66.92 175 66.57 174.695 65.87 174.695C65.17 174.695 64.31 174.955 63.29 175.475C62.78 175.725 62.27 176.025 61.76 176.375C61.78 176.675 61.79 176.885 61.79 177.005C61.83 177.765 61.85 178.175 61.85 178.235C61.85 178.535 61.83 178.81 61.79 179.06C61.75 179.3 61.705 179.465 61.655 179.555C61.575 179.685 61.46 179.8 61.31 179.9C61.17 180 61.065 180.05 60.995 180.05C60.915 180.05 60.83 180.025 60.74 179.975C60.66 179.915 60.6 179.815 60.56 179.675C60.45 179.335 60.305 179.035 60.125 178.775C60.005 178.585 59.765 178.365 59.405 178.115C59.255 178.215 59.12 178.32 59 178.43C58.82 178.58 58.675 178.69 58.565 178.76C58.465 178.82 58.355 178.85 58.235 178.85C57.955 178.85 57.71 178.715 57.5 178.445C57.29 178.175 57.185 177.89 57.185 177.59C57.185 177.38 57.245 177.215 57.365 177.095C57.495 176.975 57.615 176.915 57.725 176.915C57.785 176.915 57.89 176.95 58.04 177.02C58.19 177.09 58.285 177.125 58.325 177.125C58.325 177.125 58.375 177.115 58.475 177.095C58.835 176.975 59.675 176.59 60.995 175.94C60.995 175.39 60.985 174.685 60.965 173.825C60.495 173.985 60.165 174.09 59.975 174.14C59.815 174.18 59.67 174.2 59.54 174.2C59.19 174.2 58.9 174.125 58.67 173.975C58.33 173.735 57.975 173.39 57.605 172.94C57.525 172.84 57.485 172.77 57.485 172.73C57.485 172.7 57.51 172.685 57.56 172.685C57.6 172.685 57.665 172.71 57.755 172.76C57.855 172.8 57.935 172.83 57.995 172.85C58.165 172.93 58.37 172.995 58.61 173.045C58.86 173.085 59.105 173.105 59.345 173.105C59.495 173.105 59.605 173.1 59.675 173.09C59.975 173.06 60.395 172.945 60.935 172.745C60.915 171.705 60.81 171.02 60.62 170.69C60.53 170.51 60.41 170.38 60.26 170.3C60.11 170.21 59.92 170.12 59.69 170.03C59.65 170.01 59.595 169.99 59.525 169.97C59.455 169.95 59.42 169.925 59.42 169.895C59.42 169.855 59.45 169.815 59.51 169.775C59.57 169.725 59.64 169.68 59.72 169.64C59.97 169.55 60.175 169.505 60.335 169.505C60.585 169.505 60.83 169.56 61.07 169.67C61.32 169.77 61.52 169.885 61.67 170.015C61.81 170.145 61.88 170.325 61.88 170.555C61.88 170.655 61.86 170.77 61.82 170.9C61.79 171.02 61.77 171.105 61.76 171.155C61.94 171.335 62.1 171.465 62.24 171.545C62.46 171.685 62.7 171.785 62.96 171.845C63.38 171.935 63.59 172.11 63.59 172.37C63.59 172.55 63.555 172.685 63.485 172.775C63.415 172.865 63.305 172.945 63.155 173.015C63.115 173.035 62.745 173.18 62.045 173.45L61.685 173.585V174.02C61.685 174.38 61.695 174.9 61.715 175.58C62.455 175.21 62.965 174.97 63.245 174.86C64.465 174.39 65.465 174.155 66.245 174.155ZM61.73 171.425C61.7 171.725 61.685 172.065 61.685 172.445L61.76 172.4C61.8 172.37 61.855 172.34 61.925 172.31C61.995 172.28 62.045 172.25 62.075 172.22C62.115 172.18 62.135 172.135 62.135 172.085C62.135 172.015 62.105 171.935 62.045 171.845C61.935 171.675 61.83 171.535 61.73 171.425ZM68.195 171.68C68.525 171.68 68.825 171.75 69.095 171.89C69.375 172.03 69.59 172.21 69.74 172.43C69.9 172.65 69.98 172.88 69.98 173.12C69.98 173.34 69.91 173.52 69.77 173.66C69.63 173.79 69.46 173.855 69.26 173.855C69.01 173.855 68.82 173.765 68.69 173.585C68.43 173.245 68.195 172.995 67.985 172.835C67.775 172.675 67.54 172.595 67.28 172.595C67.14 172.595 67 172.635 66.86 172.715C66.73 172.785 66.61 172.875 66.5 172.985C66.42 173.035 66.34 173.095 66.26 173.165C66.18 173.225 66.125 173.255 66.095 173.255C66.045 173.255 66.02 173.225 66.02 173.165C66.02 173.125 66.045 173.07 66.095 173C66.415 172.52 66.745 172.18 67.085 171.98C67.425 171.78 67.795 171.68 68.195 171.68ZM60.965 178.16C60.985 178.02 60.995 177.6 60.995 176.9C60.905 176.96 60.555 177.22 59.945 177.68L59.66 177.905C59.84 178.005 60.055 178.11 60.305 178.22C60.565 178.33 60.725 178.385 60.785 178.385C60.895 178.385 60.955 178.31 60.965 178.16ZM63.86 187.42C64.23 187.42 64.595 187.58 64.955 187.9C65.325 188.21 65.63 188.67 65.87 189.28C66.11 189.89 66.23 190.61 66.23 191.44C66.23 193.24 65.805 194.68 64.955 195.76C64.105 196.84 62.895 197.585 61.325 197.995C61.245 198.035 61.175 198.055 61.115 198.055C61.075 198.055 61.045 198.04 61.025 198.01C61.005 197.99 60.995 197.965 60.995 197.935C60.995 197.895 61.02 197.86 61.07 197.83C62.43 197.27 63.38 196.415 63.92 195.265C64.47 194.105 64.745 192.85 64.745 191.5C64.745 190.56 64.635 189.775 64.415 189.145C64.195 188.505 63.88 188.185 63.47 188.185C63.11 188.185 62.78 188.39 62.48 188.8C62.18 189.21 61.94 189.695 61.76 190.255C61.58 190.805 61.49 191.255 61.49 191.605C61.49 191.795 61.52 191.975 61.58 192.145C61.64 192.315 61.73 192.505 61.85 192.715C61.94 192.895 62.01 193.05 62.06 193.18C62.11 193.31 62.135 193.44 62.135 193.57C62.135 193.73 62.085 193.86 61.985 193.96C61.885 194.05 61.765 194.095 61.625 194.095C61.325 194.095 61.06 193.97 60.83 193.72C60.6 193.47 60.425 193.155 60.305 192.775C60.185 192.395 60.125 192.015 60.125 191.635C60.125 191.185 60.17 190.695 60.26 190.165C60.36 189.625 60.495 188.99 60.665 188.26C60.765 187.85 60.85 187.455 60.92 187.075C61 186.695 61.04 186.4 61.04 186.19C61.04 185.89 60.96 185.655 60.8 185.485C60.74 185.425 60.66 185.365 60.56 185.305C60.47 185.235 60.425 185.18 60.425 185.14C60.425 185.09 60.47 185.04 60.56 184.99C60.66 184.93 60.79 184.9 60.95 184.9C61.31 184.9 61.595 185.045 61.805 185.335C62.025 185.625 62.135 185.98 62.135 186.4C62.135 186.72 62.1 187.01 62.03 187.27C61.97 187.53 61.875 187.855 61.745 188.245C61.715 188.335 61.67 188.465 61.61 188.635C61.55 188.805 61.505 188.965 61.475 189.115C61.405 189.405 61.36 189.66 61.34 189.88C61.73 189.04 62.11 188.42 62.48 188.02C62.85 187.62 63.31 187.42 63.86 187.42ZM64.775 208.47C65.275 208.47 65.725 208.58 66.125 208.8C66.525 209.01 66.84 209.32 67.07 209.73C67.3 210.13 67.415 210.61 67.415 211.17C67.415 212.23 66.95 213.115 66.02 213.825C65.09 214.535 63.57 214.95 61.46 215.07H61.385C61.255 215.07 61.19 215.04 61.19 214.98C61.19 214.92 61.27 214.88 61.43 214.86C62.37 214.75 63.185 214.51 63.875 214.14C64.575 213.77 65.105 213.31 65.465 212.76C65.835 212.21 66.02 211.605 66.02 210.945C66.02 210.405 65.885 209.965 65.615 209.625C65.355 209.275 65 209.1 64.55 209.1C63.97 209.1 63.44 209.35 62.96 209.85C62.48 210.35 62.13 210.88 61.91 211.44C61.84 211.62 61.75 211.755 61.64 211.845C61.53 211.935 61.41 211.98 61.28 211.98C61.07 211.98 60.885 211.885 60.725 211.695C60.375 211.305 60.2 210.745 60.2 210.015C60.2 209.665 60.245 209.2 60.335 208.62C60.425 208.04 60.55 207.31 60.71 206.43L60.8 205.98C60.18 205.95 59.665 205.815 59.255 205.575C58.855 205.325 58.535 204.945 58.295 204.435C58.285 204.405 58.27 204.375 58.25 204.345C58.24 204.315 58.235 204.285 58.235 204.255C58.235 204.215 58.245 204.185 58.265 204.165C58.285 204.135 58.31 204.12 58.34 204.12C58.39 204.12 58.48 204.175 58.61 204.285C59.19 204.725 59.835 204.945 60.545 204.945C60.735 204.945 60.885 204.94 60.995 204.93C61.115 204.16 61.175 203.62 61.175 203.31C61.175 203.11 61.125 202.945 61.025 202.815C60.935 202.675 60.79 202.555 60.59 202.455C60.52 202.415 60.46 202.375 60.41 202.335C60.36 202.295 60.335 202.255 60.335 202.215C60.335 202.135 60.445 202.07 60.665 202.02C60.895 201.97 61.13 201.945 61.37 201.945C61.72 201.945 62.025 202.005 62.285 202.125C62.555 202.235 62.69 202.415 62.69 202.665C62.69 202.785 62.6 203.08 62.42 203.55C62.94 203.8 63.34 203.93 63.62 203.94C63.72 203.94 63.855 203.945 64.025 203.955C64.205 203.955 64.34 203.975 64.43 204.015C64.52 204.025 64.59 204.07 64.64 204.15C64.7 204.22 64.73 204.295 64.73 204.375C64.73 204.555 64.635 204.765 64.445 205.005C64.255 205.235 63.995 205.42 63.665 205.56C63.455 205.65 63.175 205.735 62.825 205.815C62.475 205.885 62.1 205.935 61.7 205.965C61.49 207.065 61.385 207.975 61.385 208.695C61.385 209.465 61.475 209.85 61.655 209.85C61.745 209.85 61.87 209.775 62.03 209.625C62.36 209.315 62.78 209.045 63.29 208.815C63.81 208.585 64.305 208.47 64.775 208.47ZM62.315 203.805C62.215 204.055 62.095 204.39 61.955 204.81C62.365 204.75 62.69 204.655 62.93 204.525C63.05 204.475 63.11 204.42 63.11 204.36C63.11 204.32 63.08 204.28 63.02 204.24C62.78 204.05 62.545 203.905 62.315 203.805ZM65.21 223.82C65.99 223.82 66.61 224.02 67.07 224.42C67.53 224.82 67.76 225.33 67.76 225.95C67.76 226.36 67.655 226.725 67.445 227.045C67.245 227.355 66.975 227.595 66.635 227.765C66.305 227.935 65.945 228.02 65.555 228.02C65.065 228.02 64.58 227.885 64.1 227.615C63.62 227.345 63.17 226.95 62.75 226.43C62.64 226.3 62.585 226.2 62.585 226.13C62.585 226.09 62.6 226.07 62.63 226.07C62.66 226.07 62.705 226.095 62.765 226.145C62.835 226.185 62.895 226.225 62.945 226.265C63.325 226.515 63.705 226.715 64.085 226.865C64.475 227.005 64.835 227.075 65.165 227.075C65.595 227.075 65.96 226.955 66.26 226.715C66.57 226.475 66.725 226.145 66.725 225.725C66.725 225.305 66.58 224.97 66.29 224.72C66.01 224.47 65.63 224.345 65.15 224.345C64.61 224.345 64.01 224.55 63.35 224.96C62.69 225.36 62.05 225.855 61.43 226.445C61.55 226.645 61.685 226.89 61.835 227.18C61.985 227.47 62.1 227.69 62.18 227.84C62.26 228.01 62.39 228.265 62.57 228.605C62.86 229.185 63.085 229.71 63.245 230.18C63.415 230.65 63.5 231.005 63.5 231.245C63.5 231.465 63.435 231.645 63.305 231.785C63.185 231.925 63.03 231.995 62.84 231.995C62.57 231.995 62.39 231.895 62.3 231.695C62.21 231.495 62.145 231.2 62.105 230.81C62.015 230.09 61.87 229.42 61.67 228.8C61.47 228.18 61.2 227.565 60.86 226.955C60.17 227.565 59.68 227.87 59.39 227.87C59.13 227.87 58.88 227.755 58.64 227.525C58.41 227.295 58.28 227.035 58.25 226.745C58.25 226.635 58.26 226.56 58.28 226.52C58.28 226.45 58.3 226.415 58.34 226.415C58.35 226.415 58.38 226.44 58.43 226.49C58.55 226.63 58.725 226.7 58.955 226.7C59.125 226.7 59.285 226.66 59.435 226.58C59.585 226.5 59.82 226.34 60.14 226.1L60.275 225.995C60.035 225.635 59.845 225.36 59.705 225.17C59.415 224.78 59.27 224.395 59.27 224.015C59.27 223.655 59.405 223.365 59.675 223.145C59.945 222.915 60.3 222.8 60.74 222.8C61.11 222.8 61.425 222.83 61.685 222.89C61.775 222.9 61.905 222.925 62.075 222.965C62.255 222.995 62.395 223.01 62.495 223.01C62.675 223.01 62.765 222.945 62.765 222.815C62.765 222.695 62.675 222.56 62.495 222.41C62.465 222.38 62.42 222.34 62.36 222.29C62.3 222.24 62.27 222.2 62.27 222.17C62.27 222.15 62.28 222.135 62.3 222.125C62.33 222.105 62.355 222.095 62.375 222.095C62.495 222.095 62.65 222.14 62.84 222.23C63.12 222.35 63.38 222.515 63.62 222.725C63.86 222.925 63.98 223.15 63.98 223.4C63.98 223.58 63.9 223.725 63.74 223.835C63.58 223.945 63.41 224 63.23 224C63.03 224 62.785 223.925 62.495 223.775C62.225 223.605 61.935 223.46 61.625 223.34C61.315 223.22 61.04 223.16 60.8 223.16C60.56 223.16 60.385 223.225 60.275 223.355C60.165 223.485 60.11 223.66 60.11 223.88C60.11 224.11 60.175 224.36 60.305 224.63C60.435 224.89 60.62 225.205 60.86 225.575C61.6 225.055 62.35 224.635 63.11 224.315C63.87 223.985 64.57 223.82 65.21 223.82Z" fill="#333333"/>
<defs>
<filter id="filter0_f_1_899" x="-158.41" y="-56.7358" width="364.025" height="364.025" filterUnits="userSpaceOnUse" color-interpolation-filters="sRGB">
<feFlood flood-opacity="0" result="BackgroundImageFix"/>
<feBlend mode="normal" in="SourceGraphic" in2="BackgroundImageFix" result="shape"/>
<feGaussianBlur stdDeviation="20" result="effect1_foregroundBlur_1_899"/>
</filter>
<filter id="filter1_f_1_899" x="-63.8003" y="134.2" width="176.877" height="176.876" filterUnits="userSpaceOnUse" color-interpolation-filters="sRGB">
<feFlood flood-opacity="0" result="BackgroundImageFix"/>
<feBlend mode="normal" in="SourceGraphic" in2="BackgroundImageFix" result="shape"/>
<feGaussianBlur stdDeviation="20" result="effect1_foregroundBlur_1_899"/>
</filter>
<filter id="filter2_f_1_899" x="-43.1028" y="-56.313" width="174.675" height="174.675" filterUnits="userSpaceOnUse" color-interpolation-filters="sRGB">
<feFlood flood-opacity="0" result="BackgroundImageFix"/>
<feBlend mode="normal" in="SourceGraphic" in2="BackgroundImageFix" result="shape"/>
<feGaussianBlur stdDeviation="20" result="effect1_foregroundBlur_1_899"/>
</filter>
</defs>
</svg>
