<svg width="57" height="68" viewBox="0 0 57 68" fill="none" xmlns="http://www.w3.org/2000/svg">
<path d="M17.4877 0.996582L18.3756 1.7903L12.9681 7.83907L15.6628 10.2481L14.9433 11.0529L11.3608 7.85012L17.4877 0.996582Z" fill="#9CC8DE"/>
<path d="M16.3453 12.4734L20.437 8.47958L21.2835 9.34675L17.1918 13.3406L16.3453 12.4734ZM22.2704 7.55617C22.118 7.40001 22.0415 7.21194 22.0408 6.99195C22.0468 6.77205 22.1278 6.58588 22.284 6.43346C22.4401 6.28103 22.6282 6.20451 22.8482 6.20389C23.0714 6.20659 23.2593 6.28601 23.4117 6.44217C23.5122 6.54517 23.5781 6.66581 23.6092 6.80408C23.6436 6.94568 23.6436 7.08522 23.6091 7.2227C23.5779 7.35693 23.5092 7.47594 23.4028 7.57972C23.2467 7.73215 23.057 7.80701 22.8338 7.80431C22.6139 7.79836 22.4261 7.71565 22.2704 7.55617Z" fill="#9CC8DE"/>
<path d="M26.9423 15.4912C27.213 15.8156 27.3737 16.1532 27.4244 16.5039C27.4787 16.8516 27.4121 17.2066 27.2244 17.5687C27.0398 17.9344 26.7228 18.3047 26.2736 18.6794L23.7175 20.8121L22.9501 19.8923L25.3191 17.9158C25.7932 17.5202 26.0947 17.1568 26.2235 16.8256C26.3523 16.4944 26.271 16.1541 25.9795 15.8048C25.8248 15.6194 25.6244 15.4843 25.3783 15.3994C25.1386 15.3151 24.8676 15.3055 24.565 15.3704C24.2654 15.439 23.9517 15.6101 23.6237 15.8837L21.2547 17.8602L20.5319 16.9939L22.9009 15.0174C23.375 14.6218 23.6631 14.2424 23.7652 13.8791C23.8672 13.5158 23.7948 13.1862 23.5479 12.8903C23.3903 12.7014 23.1917 12.5648 22.952 12.4805C22.719 12.3968 22.4541 12.391 22.1575 12.4631C21.8609 12.5352 21.5451 12.7111 21.21 12.9907L18.841 14.9671L18.0691 14.042L22.4595 10.3791L23.2313 11.3042L22.5575 11.8663C22.7008 11.8134 22.8883 11.799 23.1202 11.8232C23.355 11.851 23.6 11.9308 23.8551 12.0627C24.1167 12.1951 24.3531 12.3878 24.5643 12.641C24.7844 12.9048 24.9154 13.1704 24.9571 13.4379C24.9989 13.7054 24.9845 13.9563 24.9139 14.1905C24.8468 14.4218 24.7584 14.6165 24.6485 14.7747C24.8434 14.6967 25.077 14.6651 25.3493 14.6798C25.6251 14.6915 25.9037 14.7645 26.1849 14.8987C26.4698 15.0299 26.7222 15.2274 26.9423 15.4912Z" fill="#9CC8DE"/>
<path d="M25.0906 22.7778L29.753 19.468L30.4545 20.4561L25.7921 23.7659L25.0906 22.7778ZM31.7076 18.8406C31.5813 18.6627 31.5349 18.465 31.5685 18.2476C31.6085 18.0313 31.7175 17.8599 31.8954 17.7336C32.0734 17.6073 32.2711 17.5609 32.4885 17.5945C32.7086 17.6318 32.8818 17.7395 33.0081 17.9174C33.0914 18.0348 33.1377 18.1642 33.147 18.3056C33.159 18.4508 33.1373 18.5887 33.0819 18.7191C33.0302 18.8469 32.9438 18.9538 32.8227 19.0398C32.6447 19.1661 32.4457 19.2106 32.2256 19.1732C32.0093 19.1332 31.8366 19.0223 31.7076 18.8406Z" fill="#9CC8DE"/>
<path d="M31.3156 21.6582L31.9223 22.6011L33.896 21.3311L34.548 22.3443L32.5743 23.6143L33.3695 24.8501L32.4969 25.4116L31.7017 24.1759L29.3239 25.706C29.0428 25.8869 28.8673 26.0688 28.7973 26.2518C28.7299 26.4388 28.7502 26.6162 28.8583 26.7841C28.9537 26.9325 29.0552 27.03 29.1626 27.0769C29.27 27.1237 29.3385 27.1486 29.3681 27.1517L28.8785 28.0382C28.8439 28.0273 28.7666 27.9887 28.6466 27.9224C28.5266 27.856 28.3937 27.7566 28.2477 27.6242C28.1017 27.4917 27.9597 27.3182 27.8215 27.1034C27.5803 26.7286 27.4913 26.3414 27.5544 25.9419C27.624 25.5438 27.9067 25.1852 28.4025 24.8661L31.0497 23.1627L30.443 22.2198L31.3156 21.6582Z" fill="#9CC8DE"/>
<path d="M32.0116 28.624C31.7122 28.7926 31.4727 29.0079 31.293 29.2699C31.1133 29.5319 31.0179 29.8272 31.0068 30.1559C30.9979 30.4886 31.0935 30.8384 31.2937 31.2052C31.4626 31.515 31.6509 31.7534 31.8584 31.9205C32.0722 32.0895 32.2801 32.2088 32.4821 32.2784C32.6881 32.3459 32.8587 32.3823 32.994 32.3879L32.6355 33.2578C32.3665 33.23 32.1053 33.1583 31.8518 33.0427C31.6006 32.9312 31.3606 32.758 31.132 32.5231C30.8993 32.2904 30.674 31.9743 30.4561 31.5749C30.1626 31.0369 30.0221 30.508 30.0346 29.9881C30.0535 29.4701 30.2089 28.9939 30.5009 28.5596C30.7969 28.1231 31.2099 27.7603 31.7397 27.4712C32.2288 27.2044 32.7235 27.0641 33.2237 27.0504C33.728 27.0344 34.1977 27.1537 34.6327 27.4082C35.07 27.6668 35.4354 28.0651 35.7289 28.6032C35.998 29.0963 36.1275 29.581 36.1175 30.0571C36.1138 30.5351 35.979 30.9763 35.713 31.3806C35.4492 31.7889 35.0564 32.1354 34.5347 32.42C34.5021 32.4378 34.4419 32.468 34.3541 32.5106C34.2703 32.551 34.211 32.5781 34.1762 32.5918L32.0116 28.624ZM34.4335 31.1583C34.5984 31.0631 34.7551 30.9141 34.9037 30.7114C35.0545 30.5128 35.1456 30.2727 35.1771 29.9911C35.2085 29.7094 35.1298 29.3954 34.9408 29.049C34.7451 28.6903 34.518 28.4387 34.2593 28.2942C34.0029 28.1538 33.747 28.0871 33.4917 28.0942C33.2405 28.099 33.0207 28.1422 32.8325 28.2237L34.4335 31.1583Z" fill="#9CC8DE"/>
<path d="M33.3648 37.5364C33.1609 37.053 33.0933 36.57 33.162 36.0876C33.2324 35.6094 33.4282 35.1716 33.7494 34.7741C34.0766 34.3791 34.5204 34.0635 35.0808 33.8271C35.6413 33.5908 36.175 33.4942 36.682 33.5374C37.195 33.583 37.6473 33.7475 38.0389 34.0308C38.4366 34.3166 38.7374 34.7012 38.9412 35.1847C39.1054 35.574 39.1813 35.9451 39.1689 36.298C39.1608 36.6491 39.1038 36.9502 38.9981 37.2014C38.8924 37.4526 38.7787 37.619 38.6569 37.7006L43.2066 35.7818L43.6802 36.9048L34.8503 40.6286L34.3848 39.5249L35.4116 39.0919C35.2463 39.1062 35.0319 39.058 34.7686 38.9473C34.5071 38.841 34.2465 38.6712 33.9869 38.438C33.7273 38.2048 33.52 37.9043 33.3648 37.5364ZM34.3971 37.4034C34.5342 37.7285 34.7366 37.9933 35.0043 38.1979C35.272 38.4025 35.5782 38.5253 35.923 38.5663C36.274 38.6098 36.6355 38.553 37.0077 38.3961C37.3799 38.2391 37.6707 38.0207 37.8803 37.7409C38.0958 37.4635 38.2238 37.1576 38.2642 36.8231C38.3088 36.4869 38.2625 36.1562 38.1254 35.831C37.9991 35.5316 37.8049 35.286 37.5426 35.0942C37.2803 34.9025 36.9768 34.7861 36.632 34.7451C36.2889 34.7084 35.9271 34.7703 35.5463 34.9309C35.1656 35.0914 34.8686 35.3074 34.6555 35.5786C34.4442 35.8542 34.3157 36.1528 34.2699 36.4744C34.2284 36.7943 34.2708 37.1039 34.3971 37.4034Z" fill="#9CC8DE"/>
<path d="M44.7159 45.4258L44.167 43.008L45.2197 42.769L46.5826 48.7728L45.5299 49.0118L44.981 46.594L37.0689 48.3902L36.8037 47.222L44.7159 45.4258Z" fill="#9CC8DE"/>
<path d="M38.2233 56.6886L39.3336 56.5944C39.2148 56.5672 39.0459 56.472 38.8271 56.3089C38.6086 56.1503 38.4029 55.9232 38.21 55.6274C38.0222 55.3358 37.9106 54.9818 37.8753 54.5654C37.8305 54.038 37.9147 53.5486 38.128 53.0972C38.3417 52.6503 38.6621 52.2806 39.0893 51.9881C39.5214 51.6998 40.0405 51.5299 40.6466 51.4785C41.2526 51.427 41.7906 51.5071 42.2606 51.7189C42.7356 51.9348 43.116 52.245 43.402 52.6494C43.693 53.058 43.8608 53.5261 43.9056 54.0534C43.9406 54.4652 43.8968 54.8277 43.7743 55.141C43.6522 55.4589 43.5016 55.7163 43.3226 55.9132C43.144 56.1148 42.9867 56.2376 42.8507 56.2818L43.9193 56.191L44.0207 57.3846L38.3234 57.8683L38.2233 56.6886ZM40.7479 52.672C40.3362 52.707 39.9876 52.8274 39.7022 53.0334C39.4168 53.2394 39.203 53.4928 39.0609 53.7938C38.9237 54.099 38.869 54.4158 38.8969 54.7443C38.9268 55.0959 39.0368 55.4034 39.2269 55.6668C39.417 55.9303 39.6693 56.1302 39.9837 56.2666C40.3028 56.4026 40.6636 56.4535 41.0661 56.4193C41.4685 56.3851 41.8133 56.2743 42.1002 56.0869C42.3918 55.899 42.6091 55.6593 42.7521 55.3675C42.8997 55.0754 42.9586 54.7536 42.9287 54.402C42.9008 54.0735 42.7912 53.7706 42.5999 53.4933C42.4091 53.2206 42.1556 53.0068 41.8396 52.8519C41.5235 52.697 41.1597 52.6371 40.7479 52.672Z" fill="#9CC8DE"/>
<path d="M35.1057 62.0428C35.1389 61.5937 35.2154 61.1897 35.3351 60.8307C35.4544 60.4764 35.6098 60.169 35.8014 59.9085C35.9879 59.6523 36.2007 59.4516 36.4395 59.3063L37.138 60.1541C37.0111 60.2332 36.875 60.3418 36.7298 60.48C36.5796 60.6226 36.4462 60.8199 36.3298 61.072C36.2134 61.3241 36.1398 61.6585 36.1089 62.0752C36.0788 62.4827 36.1412 62.8341 36.2963 63.1296C36.4467 63.4247 36.6646 63.6573 36.9499 63.8274C37.2353 63.9975 37.5632 64.0963 37.9336 64.1237L38.1211 64.1376L38.0338 65.3183L37.7698 65.2988C37.1401 65.2521 36.6224 65.0765 36.2166 64.7718C35.8059 64.4714 35.5087 64.0839 35.325 63.6094C35.1366 63.1346 35.0636 62.6124 35.1057 62.0428ZM38.017 64.1299L39.1282 64.2121C39.0152 64.1665 38.8635 64.0459 38.6732 63.8502C38.4824 63.6592 38.3152 63.4024 38.1715 63.0798C38.0321 62.7622 37.9778 62.3951 38.0086 61.9783C38.0477 61.4505 38.2081 60.9805 38.49 60.5684C38.7716 60.1609 39.1464 59.8465 39.6144 59.6251C40.0866 59.4086 40.626 59.3228 41.2326 59.3677C41.8392 59.4126 42.3578 59.5767 42.7884 59.86C43.2233 60.1482 43.55 60.5146 43.7685 60.9591C43.9913 61.4085 44.0832 61.8972 44.0441 62.425C44.0136 62.8371 43.9132 63.1882 43.7427 63.4782C43.5719 63.7728 43.3826 64.0032 43.1748 64.1694C42.9666 64.3402 42.7919 64.4367 42.6506 64.4588L43.7202 64.538L43.6317 65.7326L37.9296 65.3106L38.017 64.1299ZM41.1442 60.5623C40.7321 60.5318 40.3689 60.5957 40.0546 60.754C39.7402 60.9123 39.4891 61.1289 39.3012 61.4036C39.1175 61.6833 39.0135 61.9875 38.9892 62.3163C38.9632 62.6682 39.0232 62.9892 39.1693 63.2794C39.3155 63.5695 39.533 63.8068 39.822 63.9911C40.1156 64.1758 40.4638 64.283 40.8666 64.3128C41.2695 64.3426 41.6274 64.2877 41.9403 64.1479C42.2579 64.0084 42.5103 63.806 42.6976 63.5405C42.8895 63.2753 42.9984 62.9668 43.0245 62.6149C43.0488 62.2862 42.9884 61.9698 42.8433 61.6657C42.6979 61.3663 42.4813 61.1152 42.1937 60.9123C41.9061 60.7095 41.5563 60.5928 41.1442 60.5623Z" fill="#9CC8DE"/>
</svg>
