<svg width="343" height="1632" viewBox="0 0 343 1632" fill="none" xmlns="http://www.w3.org/2000/svg">
<path d="M286.634 0.00390625C313.404 0.343243 335 22.1496 335 49V298H343V401H335V1583L334.996 1583.63C334.657 1610.4 312.851 1632 286 1632H49C22.1496 1632 0.343241 1610.4 0.00390625 1583.63L0 1583V49C1.63662e-05 22.1496 21.5964 0.34324 48.3662 0.00390625L49 0H286L286.634 0.00390625ZM49 7C25.8041 7 7.00002 25.804 7 49V1583C7 1606.2 25.804 1625 49 1625H286C309.196 1625 328 1606.2 328 1583V49C328 25.804 309.196 7 286 7H229V23C229 29.6274 223.627 35 217 35H118C111.373 35 106 29.6273 106 23V7H49ZM123 13.71C119.686 13.71 117 16.309 117 19.5156C117 22.7224 119.686 25.3223 123 25.3223C126.314 25.3223 129 22.7224 129 19.5156C129 16.309 126.314 13.71 123 13.71Z" fill="white"/>
</svg>
