<svg width="200" height="175" viewBox="0 0 200 175" fill="none" xmlns="http://www.w3.org/2000/svg">
<path d="M90.7288 1C140.874 1 181.525 39.1827 181.525 86.2835C181.525 133.384 140.874 171.567 90.7288 171.567C58.6114 171.567 30.3921 155.904 14.2526 132.266C10.2945 126.469 21.4372 121.146 27.3287 124.962C38.5156 132.207 52.0772 136.45 66.6944 136.45C105.041 136.45 136.127 107.252 136.127 71.2335C136.127 45.3976 115.549 25.871 90.116 15.044C83.2441 12.1186 83.2601 1 90.7288 1Z" fill="#F2F7FB"/>
<ellipse cx="48.0013" cy="32.6082" rx="18.6934" ry="17.5584" fill="#F2F7FB"/>
<ellipse cx="80.0469" cy="77.7586" rx="18.6934" ry="17.5584" fill="#F2F7FB"/>
<ellipse cx="21.2964" cy="77.7586" rx="18.6934" ry="17.5584" fill="#F2F7FB"/>
</svg>
