<svg width="38" height="39" viewBox="0 0 38 39" fill="none" xmlns="http://www.w3.org/2000/svg">
<path d="M19.4411 3L12.0537 10.6469L14.7218 34.2259L19.4411 38.05L24.1617 34.2259L26.8297 10.6469L19.4411 3Z" fill="white" stroke="#3D61B1" stroke-linecap="round" stroke-linejoin="round"/>
<path d="M19.4221 6.91186C19.4221 6.48807 19.0786 6.14453 18.6548 6.14453C18.231 6.14453 17.8875 6.48807 17.8875 6.91186V34.419C17.8875 34.8428 18.231 35.1863 18.6548 35.1863C19.0786 35.1863 19.4221 34.8428 19.4221 34.419V6.91186Z" fill="white" stroke="#3D61B1" stroke-linecap="round" stroke-linejoin="round"/>
<path d="M20.1606 35.1863C19.7369 35.1863 19.3933 34.8428 19.3933 34.419V6.91186C19.3933 6.48807 19.7369 6.14453 20.1606 6.14453C20.5844 6.14453 20.928 6.48807 20.928 6.91186V34.419C20.928 34.8428 20.5844 35.1863 20.1606 35.1863Z" fill="white" stroke="#3D61B1" stroke-linecap="round" stroke-linejoin="round"/>
<path d="M19.4411 32.1208L14.7218 34.2259L12.0537 10.647L19.4411 15.6973V32.1208Z" fill="#3D61B1" stroke="#3D61B1" stroke-linecap="round" stroke-linejoin="round"/>
<path d="M19.9551 29.8878L19.495 16.447L14.866 21.4773L17.4112 24.2005L15.0703 26.7771L19.9551 29.8878Z" fill="white" stroke="#3D61B1" stroke-linecap="round" stroke-linejoin="round"/>
<path d="M19.4409 32.1208L24.1615 34.2259L26.8296 10.647L19.4409 15.6973V32.1208Z" fill="#3D61B1" stroke="#3D61B1" stroke-linecap="round" stroke-linejoin="round"/>
</svg>
