<svg width="85" height="64" viewBox="0 0 85 64" fill="none" xmlns="http://www.w3.org/2000/svg">
<path d="M44.7954 63.6891C44.2534 63.6891 43.7916 63.4984 43.4102 63.117C43.0488 62.7355 42.8682 62.2838 42.8682 61.7619C42.8682 61.2399 43.0488 60.7983 43.4102 60.4369C43.7916 60.0555 44.2534 59.8647 44.7954 59.8647C45.3174 59.8647 45.7691 60.0555 46.1505 60.4369C46.5319 60.7983 46.7227 61.2399 46.7227 61.7619C46.7227 62.2838 46.5319 62.7355 46.1505 63.117C45.7691 63.4984 45.3174 63.6891 44.7954 63.6891Z" fill="white"/>
<path d="M31.9967 63.6588C30.5312 63.6588 29.2363 63.2874 28.1121 62.5446C26.9879 61.8018 26.1146 60.8482 25.4923 59.6838C24.89 58.4994 24.5889 57.2748 24.5889 56.01C24.5889 54.685 24.89 53.4403 25.4923 52.276C26.0945 51.1116 26.9578 50.1781 28.082 49.4754C29.2062 48.7527 30.5111 48.3914 31.9967 48.3914C33.4823 48.3914 34.7872 48.7527 35.9115 49.4754C37.0357 50.1781 37.8989 51.1116 38.5012 52.276C39.1035 53.4403 39.4046 54.685 39.4046 56.01C39.4046 57.2748 39.0934 58.4994 38.4711 59.6838C37.8688 60.8482 37.0056 61.8018 35.8813 62.5446C34.7571 63.2874 33.4622 63.6588 31.9967 63.6588ZM31.9967 62.7253C33.2816 62.7253 34.2853 62.0829 35.0081 60.798C35.7508 59.4931 36.1222 57.8971 36.1222 56.01C36.1222 54.0627 35.7609 52.4566 35.0382 51.1919C34.3154 49.9271 33.3016 49.2948 31.9967 49.2948C30.6918 49.2948 29.678 49.9271 28.9553 51.1919C28.2326 52.4566 27.8712 54.0627 27.8712 56.01C27.8712 57.8971 28.2326 59.4931 28.9553 60.798C29.6981 62.0829 30.7119 62.7253 31.9967 62.7253Z" fill="white"/>
<path d="M0.210793 63.2379C0.0903398 63.2379 0.0301134 63.1074 0.0301134 62.8465C0.0301134 62.6056 0.0903398 62.4851 0.210793 62.4851H0.602265C1.24468 62.4851 1.82687 62.2442 2.34883 61.7624C2.89087 61.2806 3.16189 60.6482 3.16189 59.8652V43.9654C2.98121 43.303 2.69012 42.8211 2.28861 42.52C1.90717 42.1988 1.3551 42.0081 0.632378 41.9479L0.210793 41.9177C0.0702643 41.8977 0 41.7772 0 41.5564C0 41.2954 0.0702643 41.1649 0.210793 41.1649H6.1431L17.6765 57.667V44.5376C17.6765 43.7547 17.3954 43.1223 16.8333 42.6405C16.2913 42.1587 15.7091 41.9177 15.0867 41.9177H14.6953C14.5547 41.9177 14.4845 41.7973 14.4845 41.5564C14.4845 41.2954 14.5547 41.1649 14.6953 41.1649H21.802C21.9024 41.1649 21.9626 41.195 21.9827 41.2553C22.0228 41.3155 22.0429 41.4159 22.0429 41.5564C22.0429 41.7973 21.9626 41.9177 21.802 41.9177H21.4406C20.7781 41.9177 20.1859 42.1587 19.664 42.6405C19.142 43.1022 18.881 43.7346 18.881 44.5376V63.2379H17.3452L4.36642 44.5376V59.8652C4.36642 60.6683 4.63744 61.3107 5.17948 61.7925C5.74159 62.2542 6.34386 62.4851 6.98628 62.4851H7.34763C7.48816 62.4851 7.55843 62.6056 7.55843 62.8465C7.55843 63.1074 7.48816 63.2379 7.34763 63.2379H0.210793Z" fill="white"/>
<path d="M56.0407 63.2378C55.6392 63.2378 55.4385 62.8363 55.4385 62.0333C55.4385 61.1729 55.6392 60.7427 56.0407 60.7427H57.4173C60.2279 60.7427 62.4936 60.3125 64.2143 59.4522C65.9351 58.5918 66.7955 57.2439 66.7955 55.4084V14.1962C66.7955 12.4755 66.6234 11.3283 66.2792 10.7547C65.9925 10.1238 65.2468 9.72228 64.0423 9.5502C62.8951 9.32077 60.7155 9.20605 57.5034 9.20605H56.0407C55.6392 9.20605 55.4385 8.77586 55.4385 7.91548C55.4385 7.11246 55.6392 6.71095 56.0407 6.71095C59.6543 6.71095 62.8664 6.19473 65.677 5.16227C68.4876 4.07246 71.1547 2.3517 73.6785 0V55.4084C73.6785 58.9646 76.8045 60.7427 83.0566 60.7427H84.3472C84.5766 60.7427 84.72 60.8575 84.7774 61.0869C84.8921 61.259 84.9495 61.5744 84.9495 62.0333C84.9495 62.8363 84.7487 63.2378 84.3472 63.2378H56.0407Z" fill="white"/>
</svg>
