<svg width="88" height="63" viewBox="0 0 88 63" fill="none" xmlns="http://www.w3.org/2000/svg">
<path d="M83.9794 62.4631H52.2563L51.3848 60.5934C53.0116 56.2309 55.0742 52.265 57.5725 48.6957C60.0709 45.1264 63.4117 40.8772 67.5949 35.9481C71.8363 31.1324 74.9156 27.1665 76.833 24.0504C78.7503 20.8777 79.709 17.6483 79.709 14.3623C79.709 11.3028 78.8375 8.61169 77.0944 6.2888C75.3514 3.96591 72.6207 2.80446 68.9022 2.80446C66.1715 2.80446 63.8474 3.48433 61.9301 4.84407C60.0128 6.14716 59.0541 7.76185 59.0541 9.68814C59.0541 10.4247 59.1412 11.0479 59.3155 11.5578C59.5479 12.0677 59.8966 12.6342 60.3614 13.2575C60.7681 13.8807 61.0586 14.4472 61.2329 14.9571C61.4653 15.4104 61.5815 15.9769 61.5815 16.6568C61.5815 18.0166 61.1457 19.1213 60.2742 19.9712C59.4608 20.7644 58.3859 21.161 57.0496 21.161C55.8876 21.161 54.8127 20.6227 53.825 19.5463C52.8954 18.4131 52.4306 16.8834 52.4306 14.9571C52.4306 12.8609 53.0697 10.6513 54.3479 8.3284C55.6842 6.00552 57.6597 4.05089 60.2742 2.46453C62.9469 0.821508 66.2005 0 70.0352 0C74.2184 0 77.5883 0.821508 80.1447 2.46453C82.7012 4.05089 84.5023 6.06217 85.5481 8.49837C86.652 10.8779 87.204 13.3708 87.204 15.9769C87.204 18.3565 86.7973 20.4528 85.9839 22.2657C85.1705 24.0221 84.0665 25.6651 82.6721 27.1948C81.2777 28.6678 79.1861 30.6508 76.3972 33.1437C75.7581 33.7669 74.9447 34.5034 73.957 35.3532C72.9693 36.2031 71.8363 37.2512 70.5581 38.4976C64.748 44.2199 60.3904 50.1404 57.4854 56.2592H67.8564C72.0978 56.2592 75.2643 56.0326 77.3559 55.5794C79.4475 55.0695 81.0162 54.1913 82.0621 52.9449C83.166 51.6984 84.2408 49.6872 85.2867 46.911C85.4029 46.5711 85.6062 46.4011 85.8967 46.4011C85.9548 46.4011 86.2163 46.4578 86.6811 46.5711C87.0297 46.6844 87.2911 46.7977 87.4655 46.911C87.6398 47.0243 87.7269 47.1943 87.7269 47.4209L87.6398 47.8458L83.9794 62.4631Z" fill="white"/>
<path d="M44.1796 62.6725C43.645 62.6725 43.1896 62.4844 42.8134 62.1082C42.457 61.732 42.2788 61.2865 42.2788 60.7717C42.2788 60.2569 42.457 59.8213 42.8134 59.4649C43.1896 59.0887 43.645 58.9006 44.1796 58.9006C44.6944 58.9006 45.1399 59.0887 45.516 59.4649C45.8922 59.8213 46.0803 60.2569 46.0803 60.7717C46.0803 61.2865 45.8922 61.732 45.516 62.1082C45.1399 62.4844 44.6944 62.6725 44.1796 62.6725Z" fill="white"/>
<path d="M31.557 62.6428C30.1117 62.6428 28.8346 62.2765 27.7258 61.5439C26.617 60.8113 25.7557 59.8709 25.142 58.7225C24.548 57.5543 24.251 56.3465 24.251 55.0992C24.251 53.7924 24.548 52.5648 25.142 51.4164C25.7359 50.2681 26.5873 49.3474 27.6961 48.6544C28.8049 47.9416 30.0919 47.5852 31.557 47.5852C33.0222 47.5852 34.3092 47.9416 35.418 48.6544C36.5267 49.3474 37.3781 50.2681 37.9721 51.4164C38.5661 52.5648 38.8631 53.7924 38.8631 55.0992C38.8631 56.3465 38.5562 57.5543 37.9424 58.7225C37.3484 59.8709 36.497 60.8113 35.3883 61.5439C34.2795 62.2765 33.0024 62.6428 31.557 62.6428ZM31.557 61.7221C32.8242 61.7221 33.8142 61.0885 34.527 59.8214C35.2596 58.5344 35.6259 56.9603 35.6259 55.0992C35.6259 53.1786 35.2695 51.5946 34.5567 50.3473C33.8439 49.0999 32.844 48.4762 31.557 48.4762C30.2701 48.4762 29.2702 49.0999 28.5574 50.3473C27.8446 51.5946 27.4882 53.1786 27.4882 55.0992C27.4882 56.9603 27.8446 58.5344 28.5574 59.8214C29.29 61.0885 30.2899 61.7221 31.557 61.7221Z" fill="white"/>
<path d="M0.207896 62.2277C0.0890983 62.2277 0.0296995 62.099 0.0296995 61.8416C0.0296995 61.604 0.0890983 61.4852 0.207896 61.4852H0.593988C1.22758 61.4852 1.80176 61.2476 2.31655 60.7724C2.85114 60.2972 3.11844 59.6735 3.11844 58.9013V43.2201C2.94024 42.5667 2.65315 42.0915 2.25716 41.7945C1.88096 41.4777 1.33647 41.2896 0.623688 41.2302L0.207896 41.2005C0.0692987 41.1807 0 41.0619 0 40.8441C0 40.5867 0.0692987 40.458 0.207896 40.458H6.05868L17.4336 56.7333V43.7843C17.4336 43.0122 17.1564 42.3885 16.602 41.9133C16.0674 41.4381 15.4932 41.2005 14.8794 41.2005H14.4933C14.3547 41.2005 14.2854 41.0817 14.2854 40.8441C14.2854 40.5867 14.3547 40.458 14.4933 40.458H21.5024C21.6014 40.458 21.6608 40.4877 21.6806 40.5471C21.7202 40.6065 21.74 40.7055 21.74 40.8441C21.74 41.0817 21.6608 41.2005 21.5024 41.2005H21.146C20.4926 41.2005 19.9085 41.4381 19.3937 41.9133C18.8789 42.3687 18.6215 42.9924 18.6215 43.7843V62.2277H17.1069L4.30642 43.7843V58.9013C4.30642 59.6933 4.57371 60.3269 5.1083 60.8021C5.66269 61.2575 6.25668 61.4852 6.89026 61.4852H7.24666C7.38526 61.4852 7.45455 61.604 7.45455 61.8416C7.45455 62.099 7.38526 62.2277 7.24666 62.2277H0.207896Z" fill="white"/>
</svg>
