<svg width="88" height="66" viewBox="0 0 88 66" fill="none" xmlns="http://www.w3.org/2000/svg">
<path d="M72.4295 30.5276C77.0344 31.3974 80.7793 33.2528 83.6643 36.0939C86.5494 38.935 87.9919 42.472 87.9919 46.7047C87.9919 49.3139 87.4093 52.039 86.2442 54.8802C85.1346 57.6633 83.1373 60.0696 80.2523 62.0989C77.3673 64.1283 73.5114 65.143 68.6845 65.143C64.9118 65.143 61.8049 64.4182 59.3638 62.9687C56.9781 61.5191 55.2582 59.7797 54.204 57.7503C53.2054 55.6629 52.7061 53.6625 52.7061 51.7491C52.7061 49.8937 53.1222 48.5311 53.9544 47.6614C54.8421 46.7337 55.8407 46.2698 56.9503 46.2698C58.1154 46.2698 59.1696 46.6467 60.1127 47.4004C61.0559 48.0962 61.5275 49.1109 61.5275 50.4445C61.5275 51.0823 61.2224 51.9231 60.6121 52.9667C60.3347 53.3726 60.085 53.7785 59.8631 54.1844C59.6966 54.5902 59.6134 55.0541 59.6134 55.5759C59.6134 57.2574 60.2237 58.794 61.4443 60.1855C62.6649 61.5771 64.8286 62.2729 67.9355 62.2729C70.3767 62.2729 72.5682 61.5771 74.51 60.1855C76.4518 58.794 77.9776 56.8805 79.0872 54.4453C80.1968 52.01 80.7516 49.2269 80.7516 46.0959C80.7516 41.8632 79.642 38.4422 77.4228 35.833C75.2035 33.2238 72.1243 31.9192 68.1852 31.9192C67.7968 31.9192 67.2143 31.9772 66.4376 32.0931C65.6608 32.2091 64.9951 32.2671 64.4402 32.2671C63.83 32.2671 63.3029 32.1221 62.859 31.8322C62.4707 31.4843 62.2765 31.0205 62.2765 30.4407C62.2765 29.9188 62.4707 29.4839 62.859 29.1361C63.3029 28.7882 63.83 28.6142 64.4402 28.6142C65.217 28.6142 65.9382 28.7012 66.604 28.8751C67.4917 28.9911 68.1852 29.0491 68.6845 29.0491C71.0147 29.0491 73.2617 28.2373 75.4254 26.6138C77.5892 24.9903 78.6711 21.5114 78.6711 16.177C78.6711 11.3645 77.6724 7.97255 75.6751 6.00116C73.7333 3.97178 71.4586 2.95709 68.851 2.95709C67.242 2.95709 65.6608 3.36297 64.1074 4.17472C62.6094 4.92849 61.8604 6.37804 61.8604 8.52338C61.8604 9.4511 62.0823 10.4368 62.5262 11.4805C62.9145 12.1763 63.1087 12.93 63.1087 13.7418C63.1087 14.8434 62.7758 15.7422 62.1101 16.438C61.4998 17.1337 60.723 17.4816 59.7799 17.4816C58.06 17.4816 56.8116 16.9308 56.0349 15.8291C55.3137 14.6695 54.953 13.3939 54.953 12.0023C54.953 10.4368 55.5633 8.72632 56.7839 6.87089C58.06 4.95748 59.8353 3.33398 62.1101 2.00039C64.3848 0.666795 66.9924 0 69.9328 0C73.1507 0 75.9525 0.724777 78.3382 2.17433C80.7793 3.5659 82.638 5.45033 83.914 7.8276C85.1901 10.1469 85.8281 12.6691 85.8281 15.3943C85.8281 19.1631 84.6907 22.4391 82.416 25.2223C80.1968 27.9474 76.8679 29.7159 72.4295 30.5276Z" fill="white"/>
<path d="M44.7969 63.5463C44.2548 63.5463 43.7931 63.3556 43.4117 62.9742C43.0503 62.5927 42.8696 62.141 42.8696 61.6191C42.8696 61.0971 43.0503 60.6554 43.4117 60.2941C43.7931 59.9126 44.2548 59.7219 44.7969 59.7219C45.3188 59.7219 45.7705 59.9126 46.152 60.2941C46.5334 60.6554 46.7241 61.0971 46.7241 61.6191C46.7241 62.141 46.5334 62.5927 46.152 62.9742C45.7705 63.3556 45.3188 63.5463 44.7969 63.5463Z" fill="white"/>
<path d="M31.9967 63.5157C30.5312 63.5157 29.2363 63.1443 28.1121 62.4015C26.9879 61.6587 26.1146 60.7052 25.4923 59.5408C24.89 58.3563 24.5889 57.1317 24.5889 55.867C24.5889 54.542 24.89 53.2973 25.4923 52.1329C26.0945 50.9685 26.9578 50.035 28.082 49.3324C29.2062 48.6097 30.5111 48.2483 31.9967 48.2483C33.4823 48.2483 34.7872 48.6097 35.9115 49.3324C37.0357 50.035 37.8989 50.9685 38.5012 52.1329C39.1035 53.2973 39.4046 54.542 39.4046 55.867C39.4046 57.1317 39.0934 58.3563 38.4711 59.5408C37.8688 60.7052 37.0056 61.6587 35.8813 62.4015C34.7571 63.1443 33.4622 63.5157 31.9967 63.5157ZM31.9967 62.5822C33.2816 62.5822 34.2853 61.9398 35.0081 60.655C35.7509 59.3501 36.1223 57.754 36.1223 55.867C36.1223 53.9196 35.7609 52.3136 35.0382 51.0488C34.3155 49.7841 33.3016 49.1517 31.9967 49.1517C30.6918 49.1517 29.678 49.7841 28.9553 51.0488C28.2326 52.3136 27.8712 53.9196 27.8712 55.867C27.8712 57.754 28.2326 59.3501 28.9553 60.655C29.6981 61.9398 30.7119 62.5822 31.9967 62.5822Z" fill="white"/>
<path d="M0.210793 63.095C0.0903399 63.095 0.0301134 62.9645 0.0301134 62.7035C0.0301134 62.4626 0.0903399 62.3422 0.210793 62.3422H0.602266C1.24468 62.3422 1.82687 62.1013 2.34884 61.6195C2.89088 61.1376 3.16189 60.5053 3.16189 59.7223V43.8225C2.98121 43.16 2.69012 42.6782 2.28861 42.3771C1.90717 42.0559 1.3551 41.8651 0.632379 41.8049L0.210793 41.7748C0.0702644 41.7547 0 41.6343 0 41.4134C0 41.1525 0.0702644 41.022 0.210793 41.022H6.14311L17.6765 57.524V44.3947C17.6765 43.6117 17.3954 42.9793 16.8333 42.4975C16.2913 42.0157 15.7091 41.7748 15.0868 41.7748H14.6953C14.5548 41.7748 14.4845 41.6544 14.4845 41.4134C14.4845 41.1525 14.5548 41.022 14.6953 41.022H21.802C21.9024 41.022 21.9626 41.0521 21.9827 41.1123C22.0228 41.1725 22.0429 41.2729 22.0429 41.4134C22.0429 41.6544 21.9626 41.7748 21.802 41.7748H21.4407C20.7782 41.7748 20.1859 42.0157 19.664 42.4975C19.142 42.9593 18.881 43.5916 18.881 44.3947V63.095H17.3453L4.36643 44.3947V59.7223C4.36643 60.5253 4.63745 61.1678 5.17948 61.6496C5.7416 62.1113 6.34386 62.3422 6.98628 62.3422H7.34764C7.48817 62.3422 7.55843 62.4626 7.55843 62.7035C7.55843 62.9645 7.48817 63.095 7.34764 63.095H0.210793Z" fill="white"/>
</svg>
