<svg width="299" height="208" viewBox="0 0 299 208" fill="none" xmlns="http://www.w3.org/2000/svg">
<path d="M222.616 163.509C221.253 160.873 219.5 161.729 218.253 162.837C215.051 165.641 211.433 167.204 207.23 168.394C203.838 169.356 200.999 172.106 197.918 174.063C196.369 175.042 195.156 177.399 192.799 174.915C192.492 174.577 190.29 175.897 188.931 176.391C187.619 176.864 186.268 177.277 184.936 177.72C184.794 177.43 184.637 177.157 184.495 176.867C184.995 176.125 185.51 175.381 186.151 174.448C183.591 173.863 182.359 172.642 181.829 170C181.496 168.333 178.775 167.123 177.063 165.759C176.89 165.633 176.244 165.732 176.087 165.924C173.953 168.521 171.599 168.99 169.568 167.018C164.844 170.894 160.413 174.516 155.998 178.136C155.924 178.192 155.815 178.219 155.772 178.272C153.713 182.209 151.36 180.687 148.904 178.47C149.571 177.486 150.304 176.367 151.149 175.091C150.077 174.64 149.275 174.322 148.922 174.166C148.584 172.757 148.478 170.809 148.023 170.744C146.509 170.516 144.87 170.926 143.275 171.156C141.885 171.348 140.151 172.234 139.188 171.756C135.657 169.987 133.935 172.847 131.557 174.024C131.024 174.288 130.451 174.476 129.916 174.724C128.282 175.503 126.708 176.389 125.033 177.076C121.883 178.366 118.614 179.443 115.486 180.795C110.072 183.122 104.762 185.679 99.3116 187.961C97.8678 188.56 96.1138 188.485 94.5311 188.826C93.6217 189.017 92.7479 189.396 91.8967 189.067C90.3411 189.052 88.7621 189.119 87.2251 188.973C85.834 188.845 84.4625 188.441 83.0823 188.263C82.3684 188.177 81.1692 188.044 80.9327 188.39C78.6161 191.696 74.4189 191.698 71.261 193.534C69.8561 194.354 68.746 194.308 69.3302 196.543C70.2154 199.983 65.1588 203.284 61.1832 202.332C55.7458 201.033 50.1628 200.184 44.8243 198.602C41.5526 197.641 37.4807 196.378 35.8541 193.978C34.454 191.908 31.6299 191.864 30.9758 189.572C30.378 187.515 29.9831 185.405 29.1542 183.436C28.5398 181.991 27.4439 180.692 26.4322 179.432C24.7943 177.387 23.0538 175.433 21.3575 173.441C20.4098 172.336 18.8217 171.698 19.8347 169.57C20.2547 168.676 18.7831 166.999 18.1518 165.7C17.968 165.317 17.4497 164.954 17.4977 164.644C18.0719 161.374 18.8712 158.113 19.2836 154.827C19.5037 153.087 19.4329 151.168 18.8938 149.522C17.7999 146.233 18.2227 143.203 19.7349 140.173C19.8545 139.936 20.0025 139.664 19.962 139.427C19.4744 136.733 19.1737 133.987 18.3757 131.389C17.7928 129.475 16.1803 127.829 15.7083 125.903C15.1285 123.555 13.7029 123.093 11.5674 123.202C11.1695 123.227 10.7644 123.029 9.71382 122.784C13.5781 121.581 13.1344 119.155 12.8732 116.79C12.8387 116.457 12.4832 115.964 12.6001 115.856C16.335 112.322 11.7678 110.918 11.3389 108.635C11.436 107.1 11.5649 105.561 11.6304 104.03C11.761 101.271 10.3885 98.5401 12.6928 95.7329C13.8307 94.3468 14.0553 91.7231 13.6408 89.888C13.0828 87.4417 14.2547 86.2287 16.0591 85.3995C17.6958 84.652 18.5449 84.0342 18.1113 82.169C17.6097 79.9577 18.5945 78.3306 20.9012 77.4013C22.4242 76.7939 23.8625 75.9867 25.3056 75.2271C26.6412 74.5108 27.7346 73.9319 27.8032 71.9664C27.8541 70.7573 29.6878 69.283 31.061 68.4665C41.0406 62.5842 50.9387 56.5338 61.2246 51.1334C72.5897 45.1717 84.2661 39.7395 95.9091 34.2948C99.6841 32.539 103.818 31.4683 107.791 30.0773C107.981 30.3626 108.173 30.6638 108.362 30.9491C107.394 31.804 106.425 32.6588 105.472 33.5121C107.158 33.241 108.844 32.9699 110.83 32.6516C110.68 33.213 110.588 33.5596 110.472 33.989C111.53 34.1522 112.701 34.3197 114.524 34.5962C112.052 35.944 110.081 37.0152 108.127 38.1006C108.215 38.3323 108.301 38.5481 108.373 38.7813C115.868 37.3623 122.443 32.3306 130.758 32.9454C128.855 33.9131 127.213 34.7576 125.432 35.6645C128.498 36.6469 131.469 35.7931 132.454 33.7006C135.663 36.2251 138.856 36.7289 142.646 34.3455C147.519 31.288 152.752 28.7551 157.662 25.742C159.274 24.7562 160.512 23.1029 161.635 21.5739C163.347 19.2294 165.289 17.5673 168.49 17.38C169.97 17.2907 171.796 16.9731 172.809 16.0815C175.146 14.0574 177.805 14.3597 180.492 14.3218C181.724 14.3065 182.459 14.134 183.154 12.7939C184.819 9.53928 189.179 8.79827 192.717 10.1651C195.504 11.2406 198.624 11.8161 201.653 11.9837C204.088 12.1326 204.878 13.1101 205.355 15.0832C205.859 17.1659 206.675 19.168 207.425 21.45C209.891 21.1301 210.305 22.1947 209.26 24.4701C208.226 26.7122 207.56 29.0927 206.678 31.5598C208.066 31.6568 209.164 31.7356 210.214 31.8194C209.684 33.9771 209.219 35.8231 208.691 37.9967C210.9 37.6714 212.382 37.4375 213.881 37.2179C214.066 37.4556 214.253 37.7091 214.437 37.9468C213.539 38.8586 212.624 39.7721 211.274 41.116L218.026 40.416C216.139 41.8475 214.799 42.8213 213.528 43.8519C212.774 44.4598 212.095 45.1723 211.379 45.8404C212.146 46.2906 212.914 46.7407 213.648 47.1782C213.049 47.5775 212.343 48.0359 211.654 48.4926L212.428 49.3113C214.258 49.0413 216.104 48.7696 218.708 48.3873C217.962 49.8452 217.387 50.9481 216.761 52.1688C217.767 52.2892 219.013 52.4168 220.262 52.5603C220.317 52.7793 220.387 52.9968 220.442 53.2158C216.61 53.8057 212.373 53.7313 210.851 58.2071C211.166 58.1583 211.831 57.9289 211.908 58.0494C214.088 61.3066 216.46 59.006 219.093 58.5887C224.374 57.7682 227.85 54.053 232.383 52.1866C238.913 49.5031 245.653 47.2955 252.292 44.8896C253.79 44.3491 255.282 43.745 256.941 43.5249C250.479 47.9509 242.564 49.6383 235.699 53.2714C235.865 53.6394 236.046 53.9899 236.212 54.3579C244.529 51.1361 252.86 47.8967 261.177 44.6748C259.992 49.0034 256.37 51.4656 253.375 54.8741C254.263 54.7821 254.813 54.6769 255.357 54.6687C256.222 54.6753 257.576 54.4387 257.859 54.8587C258.312 55.518 258.155 56.6259 258.089 57.5317C258.065 57.9194 257.654 58.283 257.436 58.6587C255.357 62.2452 255.607 63.2627 258.611 65.1985C259.063 66.468 259.148 67.9038 259.71 68.0703C260.721 68.3989 262.015 68.056 263.164 67.8567C265.257 67.4952 267.341 67.0385 269.426 66.5976C271.37 66.1874 273.339 65.8708 275.235 65.3051C277.813 64.5241 280.339 63.54 283.149 63.1363C281.877 64.0065 280.59 64.8784 278.959 65.9945C281.846 66.3373 283.463 67.1006 281.782 69.8914C280.99 71.2096 282.315 72.7095 284.024 72.6608C285.189 72.6202 286.354 72.4192 288.034 72.245C286.625 75.3447 284.467 77.0933 281.722 78.5818C279.098 80.0095 276.746 81.8907 274.278 83.5752C274.372 83.8704 274.481 84.1481 274.576 84.4432L285.908 83.2684C284.449 84.6397 282.884 86.086 281.322 87.5482C281.572 87.7952 281.836 88.0246 282.086 88.2716C282.684 88.017 283.282 87.7623 284.357 87.3138C283.745 88.9824 283.271 90.2836 282.681 91.8537C281.754 91.4041 280.994 91.0334 279.795 90.4354C278.034 92.3034 276.19 94.2924 274.04 96.5859C278.732 97.8011 276.99 93.0536 279.734 92.7853C279.501 95.1691 280.812 97.6176 278.552 99.6176C279.642 103.485 276.663 104.42 273.825 105.485C273.439 105.621 272.851 106.132 272.906 106.351C273.796 109.838 270.452 110.185 268.533 111.299C267.038 112.176 265.977 113.073 265.068 114.499C264.254 115.771 262.798 116.709 261.574 117.735C260.868 118.338 260.07 118.838 259.31 119.382C259.425 119.563 259.557 119.758 259.672 119.938C262.565 118.483 265.514 117.102 268.313 115.511C268.767 115.255 268.624 114.034 268.787 113.134C272.354 112.46 275.278 110.84 277.696 107.893C279.359 105.858 282.082 104.613 284.169 103.112C284.147 104.913 284.23 106.638 284.037 108.327C283.954 109.074 283.45 109.929 282.863 110.455C281.179 111.978 279.35 113.34 277.857 114.554C279.263 115.901 280.418 117.001 281.68 118.203C277.413 120.154 272.998 121.607 269.61 124.783C267.245 127.003 265.301 129.58 262.219 131.216C260.412 132.174 259.795 132.254 258.975 130.525C258.585 129.698 257.812 129.04 257.098 128.183C255.588 128.917 254.232 129.588 253.501 129.952C253.147 132.253 252.865 134.015 252.492 136.446C251.27 136.251 250.034 135.914 248.765 135.885C247.979 135.87 246.847 136.084 246.437 136.608C243.791 139.98 240.218 140.752 236.038 141.073C233.258 141.297 230.592 142.938 227.953 143.902C227.895 145.047 227.825 146.066 227.749 147.502C230.666 146.734 233.945 148.08 236.425 145.271C235.633 145.513 234.824 145.742 234.03 145.968C233.951 145.816 233.887 145.662 233.807 145.51C237.048 144.018 240.288 142.51 243.73 140.934C243.773 142.743 238.164 143.341 241.89 145.442C240.943 147.9 240.133 149.975 239.122 152.584C238.25 152.979 237.078 153.117 237.092 150.467C235.125 151.585 233.431 152.548 231.754 153.524C231.851 153.691 231.931 153.843 232.029 154.009C232.973 153.542 233.936 153.089 234.88 152.622C235.046 152.83 235.214 153.053 235.379 153.261C231.271 156.592 227.145 159.909 222.681 163.518L222.616 163.509ZM204.406 156.295C204.214 156.138 204.05 155.947 203.846 155.839C203.61 155.719 203.306 155.574 203.07 155.615C199.344 156.451 195.827 157.762 192.831 160.079C192.417 160.411 192.161 161.497 192.41 161.889C192.755 162.431 193.732 163.052 194.298 162.945C195.429 162.731 196.509 161.56 197.542 161.63C201.994 161.922 204.803 158.886 208.268 157.227C208.416 157.42 208.566 157.629 208.73 157.821C206.42 159.345 204.095 160.87 201.786 162.393C201.903 162.59 202.003 162.788 202.12 162.985C204.276 162.151 206.433 161.318 209.267 160.221C208.354 161.616 207.884 162.339 207.429 163.044C207.302 163.363 207.16 163.698 207.033 164.017C209.723 162.454 211.461 162.225 210.697 165.675C215.9 162.857 220.723 160.238 225.563 157.633L225.177 156.838L222.451 157.121C224.407 155.907 225.89 155.063 227.261 154.07C227.783 153.695 228.408 152.924 228.341 152.433C227.969 149.775 222.276 147.091 219.992 148.547C217.978 149.832 216.193 151.461 214.593 152.719C215.476 153.205 216.277 153.668 217.026 154.088C219.562 153.52 222.742 152.821 225.936 152.105C226.105 152.504 226.275 152.904 226.444 153.304C222.87 155.296 219.294 157.272 216.448 158.867C214.569 158.516 213.442 158.312 212.428 158.112C209.523 152.185 206.045 158.196 202.519 157.871C203.301 157.228 203.818 156.805 204.392 156.312L204.406 156.295ZM120.065 37.6656C118.311 37.7511 118.475 37.9428 116.318 39.6914C115.387 40.446 113.55 40.187 112.141 40.5096C112.014 40.5228 111.975 41.3776 112.068 41.8174C112.172 42.3524 112.447 42.8376 112.688 43.4707L120.36 42.6754C116.069 46.7159 110.447 48.1174 105.343 50.653C109.552 49.3819 113.78 48.125 117.989 46.8539C118.084 47.149 118.177 47.4283 118.272 47.7235C115.75 48.8999 113.229 50.0762 110.709 51.2685C110.827 51.4809 110.946 51.6934 111.062 51.89C114.446 50.6885 118.052 49.9294 120.444 46.8883C120.798 46.4343 121.192 45.9119 121.697 45.683C124.657 44.2525 127.64 42.8998 130.619 41.4995C130.681 41.477 130.619 41.1944 130.581 40.6687C128.119 41.1808 125.72 41.6863 123.054 42.2356C123.424 41.3304 123.654 40.7608 124.051 39.8046C121.94 39.5259 120.134 39.2636 118.2 38.9986C118.694 38.6585 119.141 38.3392 120.068 37.6974L120.065 37.6656ZM203.21 150.785C203.357 150.962 203.487 151.141 203.632 151.303C207.787 150.278 211.986 149.361 216.09 148.149C217.132 147.849 218.611 146.668 218.654 145.845C218.736 143.701 216.585 144.583 215.328 144.36C214.773 144.257 214.051 144.556 213.502 144.822C210.701 146.236 207.919 147.68 205.159 149.186C204.431 149.583 203.872 150.218 203.223 150.751L203.21 150.785ZM246.765 126.638C248.578 125.888 250.269 125.199 251.959 124.51C251.962 124.221 251.965 123.948 251.967 123.659C251.147 123.471 250.197 122.959 249.516 123.19C248.105 123.642 245.969 123.751 246.765 126.638ZM234.275 140.132C233.299 139.527 232.605 138.861 232.345 138.984C229.845 140.206 227.424 141.581 224.981 142.893C225.121 143.168 225.278 143.441 225.418 143.715C228.216 142.574 231.029 141.432 234.273 140.116L234.275 140.132ZM197.569 154.163C197.423 153.841 197.278 153.519 197.13 153.181C194.225 154.365 191.336 155.547 188.431 156.731C188.597 157.099 188.765 157.483 188.932 157.851C191.8 156.623 194.683 155.377 197.551 154.148L197.569 154.163ZM120.7 175.615C120.617 175.271 120.535 174.942 120.467 174.596C117.692 173.327 116.024 175.008 114.288 176.505C114.381 176.784 114.474 177.063 114.552 177.344C116.606 176.762 118.662 176.196 120.716 175.613L120.7 175.615ZM141.24 165.428C137.861 163.9 137.769 163.941 136.936 166.725C138.52 166.239 139.873 165.842 141.24 165.428Z" fill="#D8A59F"/>
<path d="M269.448 130.787C271.053 130.974 272.66 131.177 274.281 131.362C275.421 132.159 275.422 133.25 273.629 134.495C270.656 136.569 267.977 139.014 265.208 141.356C264.854 141.649 264.908 142.318 264.614 142.734C263.819 143.875 262.923 144.964 262.128 146.105C261.444 147.075 259.146 147.313 260.551 149.431C260.74 149.716 258.493 151.988 257.024 152.654C253.426 154.263 249.627 155.476 245.89 156.826C244.422 157.347 242.914 157.793 241.229 157.919C243.216 156.846 245.204 155.774 247.207 154.699C247.133 154.45 247.043 154.202 246.97 153.953C245.964 153.833 244.96 153.728 243.938 153.609C245.047 151.167 245.673 151.182 248.297 151.921C249.551 152.273 251.391 151.633 252.63 150.91C254.232 149.99 256.424 148.719 256.726 147.307C257.382 144.206 258.552 142.511 262.051 142.421C262.642 142.408 263.165 141.118 263.807 140.506C264.932 139.458 266.127 138.467 267.286 137.448C268.183 136.665 269.504 135.966 269.806 135.02C269.988 134.455 268.586 133.445 268.146 132.913C268.338 132.604 268.915 131.677 269.506 130.733L269.449 130.803L269.448 130.787Z" fill="#D8A59F"/>
<path d="M236.932 159.119C231.255 163.544 225.699 168.214 217.672 168.355C223.885 164.934 228.66 158.917 236.932 159.119Z" fill="#D8A59F"/>
<path d="M125.538 24.0157C124.006 25.4587 121.094 25.6482 121.87 28.8103C121.956 29.1706 119.663 30.0824 118.603 30.6739C117.722 29.5934 117.063 28.795 116.274 27.8334C118.417 24.7058 122.562 25.5924 125.538 24.0157Z" fill="#D8A59F"/>
<path d="M254.519 139.462C253.147 139.829 251.775 140.196 250.499 140.553C252.521 136.571 256.142 134.414 261.093 133.339C258.712 135.56 256.579 137.547 254.446 139.534L254.519 139.462Z" fill="#D8A59F"/>
<path d="M254.43 139.536C255.699 139.099 256.967 138.663 258.251 138.224C258.376 138.34 258.5 138.456 258.624 138.571C258.031 139.034 257.436 139.481 256.04 140.54C257.294 140.732 258.025 140.832 258.756 140.933C258.628 141.235 258.483 141.539 258.352 141.826L250.235 143.261C250.115 143.033 249.995 142.804 249.859 142.578C251.401 141.535 252.943 140.492 254.485 139.45L254.413 139.521L254.43 139.536Z" fill="#D8A59F"/>
<path d="M126.095 29.6886C128.455 29.1229 130.798 28.5429 133.158 27.9772C131.121 29.6491 129.188 31.7115 126.095 29.6886Z" fill="#D8A59F"/>
<path d="M215.656 167.922C216.4 169.531 214.234 170.895 209.829 171.207C212.084 169.93 213.796 168.982 215.656 167.922Z" fill="#D8A59F"/>
<path d="M269.504 130.717L264.781 131.207C265.898 130.24 267.253 129.089 268.87 127.685C269.121 129.023 269.292 129.904 269.448 130.787L269.504 130.717Z" fill="#D8A59F"/>
<path d="M205.405 173.961C203.4 174.714 201.395 175.468 199.375 176.223C199.242 175.868 199.095 175.53 198.962 175.174C201.024 174.511 203.086 173.848 205.148 173.185C205.239 173.448 205.315 173.713 205.406 173.977L205.405 173.961Z" fill="#D8A59F"/>
</svg>
