<svg width="49" height="12" viewBox="0 0 49 12" fill="none" xmlns="http://www.w3.org/2000/svg">
<path d="M43.8203 9.07031C44.9089 7.38802 45.8854 6.54688 46.75 6.54688C47.0417 6.54688 47.2604 6.63542 47.4062 6.8125C47.5521 6.98958 47.625 7.21354 47.625 7.48438C47.625 7.75521 47.5026 8.22396 47.2578 8.89062C47.0182 9.55729 46.8984 9.97135 46.8984 10.1328C46.8984 10.2891 46.9375 10.3672 47.0156 10.3672C47.1198 10.3672 47.2734 10.2604 47.4766 10.0469C47.6797 9.82812 47.8594 9.59896 48.0156 9.35938L48.3438 9.67188C48.0312 10.2396 47.6875 10.6693 47.3125 10.9609C46.9427 11.2474 46.6406 11.3906 46.4062 11.3906C46.1771 11.3906 45.9974 11.3151 45.8672 11.1641C45.737 11.0078 45.6719 10.7969 45.6719 10.5312C45.6719 10.2656 45.776 9.83333 45.9844 9.23438C46.1979 8.63021 46.3047 8.20312 46.3047 7.95312C46.3047 7.69792 46.2188 7.57031 46.0469 7.57031C45.849 7.57031 45.6146 7.69792 45.3438 7.95312C45.0729 8.20312 44.8099 8.51042 44.5547 8.875C44.1484 9.45833 43.7344 10.1302 43.3125 10.8906L43.1016 11.2656H42L42.2422 10.5312C42.6953 9.17708 42.9219 8.375 42.9219 8.125C42.9219 7.86979 42.8802 7.74219 42.7969 7.74219C42.6458 7.74219 42.4661 7.92188 42.2578 8.28125C42.2109 8.36458 42.1719 8.43229 42.1406 8.48438C42.1094 8.53125 42.0729 8.59115 42.0312 8.66406C41.9948 8.73177 41.9714 8.77344 41.9609 8.78906L41.4375 8.48438C41.8438 7.82292 42.2161 7.33594 42.5547 7.02344C42.8932 6.70573 43.2396 6.54688 43.5938 6.54688C43.7552 6.54688 43.8932 6.61458 44.0078 6.75C44.1276 6.88542 44.1875 7.04948 44.1875 7.24219C44.1875 7.4349 44.1719 7.625 44.1406 7.8125C44.1094 7.99479 44.0755 8.14844 44.0391 8.27344C44.0078 8.39323 43.9635 8.54948 43.9062 8.74219C43.8542 8.9349 43.8255 9.04427 43.8203 9.07031Z" fill="white"/>
<path d="M34.825 9.40625C34.825 9.01562 34.9187 8.64062 35.1062 8.28125C35.2989 7.91667 35.5463 7.60938 35.8484 7.35938C36.5151 6.81771 37.1947 6.54688 37.8875 6.54688C38.5802 6.54688 39.1479 6.73177 39.5906 7.10156C40.0333 7.47135 40.2546 7.9349 40.2546 8.49219C40.2546 9.04427 40.101 9.54167 39.7937 9.98438C39.4916 10.4271 39.0906 10.7734 38.5906 11.0234C38.0906 11.2682 37.5437 11.3906 36.95 11.3906C36.3614 11.3906 35.8588 11.2057 35.4421 10.8359C35.0307 10.4609 34.825 9.98438 34.825 9.40625ZM37.3796 10.9062C37.6192 10.9062 37.8432 10.8281 38.0515 10.6719C38.2651 10.5156 38.4265 10.3125 38.5359 10.0625C38.7494 9.58333 38.8562 9.08854 38.8562 8.57812C38.8562 8.06771 38.7625 7.68229 38.575 7.42188C38.3875 7.15625 38.1218 7.02344 37.7781 7.02344C37.4343 7.02344 37.0932 7.2474 36.7546 7.69531C36.4213 8.14323 36.2546 8.71354 36.2546 9.40625C36.2546 10.4062 36.6296 10.9062 37.3796 10.9062Z" fill="white"/>
<path d="M29.6187 11.2109C29.2801 11.0911 29.0379 10.9505 28.8921 10.7891C28.7463 10.6224 28.6733 10.4401 28.6733 10.2422C28.6733 10.0443 28.728 9.88021 28.8374 9.75C28.9468 9.61979 29.09 9.55469 29.2671 9.55469C29.4494 9.55469 29.6082 9.60938 29.7437 9.71875C29.8843 9.82292 29.9546 9.97396 29.9546 10.1719C29.9546 10.3646 29.8348 10.526 29.5952 10.6562C29.7931 10.8281 30.0952 10.9141 30.5015 10.9141C31.3817 10.9141 31.8218 10.6641 31.8218 10.1641C31.8218 9.85156 31.5431 9.60156 30.9858 9.41406C30.7567 9.33594 30.5249 9.2526 30.2905 9.16406C30.0614 9.07552 29.8608 8.94531 29.689 8.77344C29.5171 8.60156 29.4233 8.39323 29.4077 8.14844C29.4077 7.79427 29.5249 7.49479 29.7593 7.25C30.202 6.78125 30.8634 6.54688 31.7437 6.54688C32.1759 6.54688 32.5588 6.63021 32.8921 6.79688C33.2254 6.95833 33.3921 7.16927 33.3921 7.42969C33.3921 7.6901 33.3244 7.8776 33.189 7.99219C33.0588 8.10677 32.9051 8.16406 32.728 8.16406C32.5509 8.16406 32.3999 8.11719 32.2749 8.02344C32.1551 7.92448 32.0952 7.78906 32.0952 7.61719C32.0952 7.44531 32.1968 7.29688 32.3999 7.17188C32.2749 7.08333 32.0588 7.03906 31.7515 7.03906C31.4442 7.03906 31.1681 7.08594 30.9233 7.17969C30.6785 7.26823 30.5562 7.39062 30.5562 7.54688C30.5562 7.70312 30.6447 7.83333 30.8218 7.9375C31.0041 8.04167 31.2228 8.13802 31.478 8.22656C31.7332 8.3151 31.9884 8.41667 32.2437 8.53125C32.4989 8.64583 32.715 8.8099 32.8921 9.02344C33.0744 9.23698 33.1655 9.5 33.1655 9.8125C33.1655 10.125 33.0379 10.4089 32.7827 10.6641C32.2983 11.1484 31.6369 11.3906 30.7983 11.3906C30.3556 11.3906 29.9624 11.3307 29.6187 11.2109Z" fill="white"/>
<path d="M25.7563 6.71875H26.9751L26.3579 9.05469C26.259 9.38281 26.2095 9.68229 26.2095 9.95312C26.2095 10.2188 26.2563 10.3516 26.3501 10.3516C26.4438 10.3516 26.5715 10.2708 26.7329 10.1094C26.8996 9.94271 27.0402 9.77604 27.1548 9.60938L27.3345 9.35938L27.6704 9.67188C27.4985 10.0052 27.2798 10.3099 27.0142 10.5859C26.4985 11.1224 26.0506 11.3906 25.6704 11.3906C25.2225 11.3906 24.9985 11.0443 24.9985 10.3516C24.9985 10.237 25.0037 10.151 25.0142 10.0938C24.936 10.3594 24.7876 10.5938 24.5688 10.7969C24.1522 11.1927 23.6808 11.3906 23.1548 11.3906C22.634 11.3906 22.2147 11.2135 21.897 10.8594C21.5845 10.5 21.4282 10.0521 21.4282 9.51562C21.4282 8.68229 21.6991 7.97917 22.2407 7.40625C22.7824 6.83333 23.4178 6.54688 24.147 6.54688C24.5116 6.54688 24.8136 6.64844 25.0532 6.85156C25.2928 7.04948 25.4491 7.3099 25.522 7.63281L25.7563 6.71875ZM24.4517 7.21875C24.1496 7.21875 23.8657 7.34635 23.6001 7.60156C23.3397 7.85156 23.1392 8.15625 22.9985 8.51562C22.8579 8.86979 22.7876 9.21615 22.7876 9.55469C22.7876 9.89323 22.8605 10.1667 23.0063 10.375C23.1574 10.5833 23.3866 10.6875 23.6938 10.6875C24.0063 10.6875 24.2876 10.5469 24.5376 10.2656C25.0116 9.72396 25.2485 9.08073 25.2485 8.33594C25.2485 7.59115 24.9829 7.21875 24.4517 7.21875Z" fill="white"/>
<path d="M16.5579 9.72656C16.5891 10.3255 16.9928 10.625 17.7688 10.625C18.0553 10.625 18.3521 10.5443 18.6594 10.3828C18.9719 10.2161 19.2245 10.0208 19.4172 9.79688L19.7532 10.0156C19.3209 10.7396 18.6308 11.1823 17.6829 11.3438C17.4745 11.375 17.274 11.3906 17.0813 11.3906C16.5188 11.3906 16.05 11.2057 15.675 10.8359C15.3 10.4609 15.1125 10.0052 15.1125 9.46875C15.1125 8.93229 15.2766 8.4375 15.6047 7.98438C15.9329 7.52604 16.3417 7.17188 16.8313 6.92188C17.3261 6.67188 17.8131 6.54688 18.2922 6.54688C18.7714 6.54688 19.1855 6.65625 19.5344 6.875C19.8886 7.09375 20.0683 7.38802 20.0735 7.75781C20.0839 8.1276 19.9771 8.44792 19.7532 8.71875C19.5292 8.98438 19.2454 9.1875 18.9016 9.32812C18.2193 9.60417 17.55 9.74219 16.8938 9.74219L16.5579 9.72656ZM16.511 9.29688C17.0891 9.27604 17.5527 9.1849 17.9016 9.02344C18.2558 8.85677 18.5006 8.66927 18.636 8.46094C18.7766 8.2474 18.8469 8.02604 18.8469 7.79688C18.8469 7.5625 18.787 7.39062 18.6672 7.28125C18.5474 7.16667 18.4198 7.10938 18.2844 7.10938C17.9511 7.10938 17.6438 7.22656 17.3625 7.46094C17.0865 7.6901 16.8756 7.97135 16.7297 8.30469C16.5839 8.63281 16.511 8.96354 16.511 9.29688Z" fill="white"/>
<path d="M13.6953 9.60156L14.1875 9.84375C14.0312 10.25 13.8359 10.5781 13.6016 10.8281C13.1849 11.2708 12.7135 11.4922 12.1875 11.4922C11.7031 11.4922 11.2786 11.1927 10.9141 10.5938C10.6328 10.1302 10.3984 9.63021 10.2109 9.09375C10.0234 8.55208 9.8776 8.15104 9.77344 7.89062C9.53906 7.29167 9.3099 6.99219 9.08594 6.99219C8.58594 8.51302 7.84375 9.65104 6.85938 10.4062C5.88021 11.1562 4.69792 11.5312 3.3125 11.5312C2.47917 11.5312 1.73698 11.349 1.08594 10.9844C0.757812 10.8073 0.494792 10.5677 0.296875 10.2656C0.0989583 9.95833 0 9.59635 0 9.17969C0 8.76302 0.106771 8.3724 0.320312 8.00781C0.533854 7.64323 0.815104 7.34896 1.16406 7.125C1.88281 6.65104 2.69271 6.41406 3.59375 6.41406C3.625 5.03385 4.09115 3.78646 4.99219 2.67188C5.90365 1.53646 6.98958 0.755208 8.25 0.328125C8.90625 0.109375 9.50781 0 10.0547 0C10.6016 0 11.0729 0.0546875 11.4688 0.164062C11.8646 0.268229 12.2318 0.424479 12.5703 0.632812C12.9089 0.841146 13.1797 1.125 13.3828 1.48438C13.5911 1.84375 13.6953 2.25521 13.6953 2.71875C13.6953 3.17708 13.6068 3.61979 13.4297 4.04688C13.2578 4.46875 13.0156 4.84896 12.7031 5.1875C12.1198 5.82292 11.3776 6.36719 10.4766 6.82031C10.8307 7.11198 11.2161 7.81771 11.6328 8.9375C11.7839 9.33333 11.9609 9.6875 12.1641 10C12.3672 10.3125 12.5729 10.4688 12.7812 10.4688C12.9844 10.4688 13.1536 10.3802 13.2891 10.2031C13.4609 9.97917 13.5964 9.77865 13.6953 9.60156ZM4.47656 8.82031L4 8.92969C3.875 8.6849 3.75781 8.24479 3.64844 7.60938L3.59375 7.29688C2.72917 7.29688 1.96094 7.5 1.28906 7.90625C1.0651 8.04688 0.877604 8.22917 0.726562 8.45312C0.580729 8.67708 0.507812 8.9349 0.507812 9.22656C0.507812 9.51823 0.588542 9.78646 0.75 10.0312C0.911458 10.2708 1.1276 10.4583 1.39844 10.5938C1.92969 10.8698 2.52083 11.0078 3.17188 11.0078C4.28646 11.0078 5.18229 10.7109 5.85938 10.1172C6.53646 9.52344 7.0625 8.67448 7.4375 7.57031C7.51562 7.34115 7.61719 7.02865 7.74219 6.63281C7.8724 6.23177 7.97656 5.91406 8.05469 5.67969C8.13281 5.4401 8.23958 5.14323 8.375 4.78906C8.51042 4.42969 8.63542 4.13021 8.75 3.89062C8.86458 3.65104 9.01042 3.38021 9.1875 3.07812C9.36979 2.77604 9.55729 2.51042 9.75 2.28125C10.2135 1.73958 10.724 1.29427 11.2812 0.945312C11.1562 0.872396 10.9271 0.807292 10.5938 0.75C10.2604 0.6875 9.91146 0.65625 9.54688 0.65625C8.92708 0.65625 8.28646 0.822917 7.625 1.15625C6.96875 1.48958 6.38021 1.92188 5.85938 2.45312C5.33854 2.98438 4.90625 3.60677 4.5625 4.32031C4.22396 5.03385 4.05208 5.74479 4.04688 6.45312C5.19271 6.61458 6.09375 7.11458 6.75 7.95312L6.49219 8.22656C6.46094 8.21094 6.375 8.15625 6.23438 8.0625C6.09375 7.96354 5.95573 7.8776 5.82031 7.80469C5.6901 7.73177 5.53125 7.65104 5.34375 7.5625C4.94792 7.375 4.51562 7.28125 4.04688 7.28125C4.07292 7.61979 4.14844 7.95833 4.27344 8.29688C4.40365 8.63021 4.47135 8.80469 4.47656 8.82031ZM9.11719 6.83594C10.0495 6.54427 10.8203 6.05729 11.4297 5.375C12.0443 4.69271 12.3516 3.88802 12.3516 2.96094C12.3516 2.64323 12.2891 2.32292 12.1641 2C12.0391 1.67188 11.8672 1.41667 11.6484 1.23438C11.0703 1.64583 10.6406 2.11458 10.3594 2.64062C10.1979 2.94271 10.0677 3.19792 9.96875 3.40625C9.86979 3.60938 9.76823 3.91667 9.66406 4.32812C9.53385 4.83333 9.41667 5.34635 9.3125 5.86719C9.20833 6.38281 9.14323 6.70573 9.11719 6.83594Z" fill="white"/>
</svg>
