<svg width="28" height="28" viewBox="0 0 28 28" fill="none" xmlns="http://www.w3.org/2000/svg">
<g clip-path="url(#clip0_1_1213)">
<path d="M22.9243 14.3828C22.1211 12.6567 20.9163 11.211 19.8191 10.0899C19.2705 9.53019 18.7459 9.05167 18.3135 8.66541C18.2605 8.61926 18.2144 8.57824 18.1648 8.53466C18.4896 8.20309 18.6912 7.75109 18.6912 7.25038C18.6895 6.53687 18.2793 5.92508 17.6846 5.61998C17.8726 5.30208 18.2623 4.7732 19.0433 4.14084C19.315 3.92122 19.5303 3.67431 19.679 3.40426C19.8294 3.13421 19.9114 2.83857 19.9097 2.54381C19.9132 2.03111 19.6551 1.55172 19.2586 1.24755C18.8621 0.939056 18.3409 0.781009 17.7599 0.780134C17.442 0.781009 17.1027 0.827986 16.749 0.927134L16.7448 0.928829C16.6012 0.96815 16.5055 0.979251 16.4482 0.978376C16.4013 0.978376 16.3799 0.973236 16.3636 0.968095C16.3363 0.958689 16.3004 0.941626 16.2107 0.864681C16.0799 0.754431 15.8578 0.516048 15.4938 0.321197C15.1279 0.124814 14.6409 -0.00167848 14 1.68326e-05C13.5095 1.68326e-05 13.113 0.0700715 12.7883 0.193993C12.2961 0.376868 11.9971 0.68022 11.8279 0.829736C11.7424 0.906626 11.6911 0.943376 11.6621 0.957048C11.6322 0.969845 11.6228 0.976681 11.551 0.978431C11.4938 0.979306 11.3955 0.96815 11.2485 0.927134L11.3502 0.955353L11.2502 0.927134C10.8965 0.828861 10.5581 0.781009 10.2385 0.780134C9.65747 0.781009 9.13794 0.939056 8.74145 1.24755C8.34497 1.55177 8.08521 2.03111 8.0886 2.54381C8.0886 2.83775 8.17063 3.13427 8.31932 3.40426C8.46971 3.67431 8.68332 3.92122 8.95506 4.14084C9.63527 4.69029 10.0198 5.16624 10.2334 5.48922C10.2667 5.53964 10.2881 5.57809 10.3137 5.6208C9.71899 5.92584 9.30884 6.53681 9.30884 7.25032C9.30884 7.75104 9.51053 8.20309 9.83351 8.5346C8.96365 9.30619 7.65968 10.4906 6.51808 12.0098C5.88917 12.8464 5.30981 13.7855 4.88429 14.8203C4.45877 15.8534 4.18872 16.9847 4.18872 18.1887C4.18872 23.608 8.58078 28 14 28C19.4183 28 23.8096 23.6079 23.8113 18.1888C23.8113 16.813 23.4575 15.533 22.9243 14.3828ZM11.1477 7.82547C10.8316 7.82459 10.5752 7.5691 10.5735 7.25038C10.5752 6.93592 10.8316 6.67785 11.1477 6.67703H16.8506C17.1667 6.67791 17.4248 6.93592 17.4248 7.25038C17.4248 7.5691 17.1684 7.82459 16.8506 7.82547H11.1477ZM9.75148 3.1574C9.58572 3.02407 9.48488 2.89763 9.42762 2.79252C9.37036 2.68829 9.35499 2.60795 9.3533 2.54386C9.35756 2.43706 9.39092 2.35158 9.51906 2.24477C9.64894 2.14311 9.8865 2.04566 10.2385 2.04566C10.4316 2.04566 10.6555 2.0747 10.9084 2.14563L10.8068 2.11741L10.9093 2.14563C11.1366 2.20885 11.3459 2.2439 11.551 2.2439C11.7185 2.24477 11.8808 2.21913 12.0287 2.1704C12.2893 2.0858 12.479 1.93885 12.614 1.82346C12.8191 1.64316 12.9319 1.52607 13.0993 1.43808C13.2668 1.35091 13.5095 1.26631 14 1.26549C14.3708 1.26549 14.605 1.31678 14.7656 1.37743C15.0032 1.46974 15.1109 1.57912 15.3296 1.77392C15.4373 1.86874 15.5723 1.9867 15.7637 2.08498C15.9551 2.18413 16.1978 2.24565 16.4482 2.2439C16.6524 2.2439 16.8626 2.20885 17.0899 2.14563H17.0916C17.3428 2.0747 17.5675 2.04566 17.7598 2.04566C18.1119 2.04566 18.3511 2.14306 18.4793 2.24477C18.6092 2.35158 18.6416 2.43706 18.645 2.54386C18.645 2.60795 18.6297 2.68829 18.5715 2.79252C18.5143 2.89763 18.4126 3.02407 18.2485 3.1574C16.9916 4.16999 16.5224 5.05183 16.3721 5.41238H11.627C11.4775 5.05177 11.0075 4.16994 9.75148 3.1574ZM20.043 24.2317C18.4946 25.7792 16.3618 26.7345 14 26.7354C11.6381 26.7345 9.50533 25.7792 7.95702 24.2317C6.40953 22.6834 5.45419 20.5506 5.45337 18.1888C5.45337 17.0309 5.75076 15.9355 6.22413 14.9152C6.93168 13.3857 8.04419 12.0356 9.08413 10.976C9.60453 10.4454 10.1053 9.98738 10.5274 9.6097C10.7496 9.41316 10.9461 9.24056 11.1187 9.0876C11.129 9.0876 11.1375 9.09017 11.1478 9.09017H16.8506C16.8626 9.09017 16.8711 9.0876 16.8822 9.08673C16.9463 9.14399 17.0044 9.19698 17.0753 9.25932C17.929 10.0121 19.3098 11.2247 20.4702 12.7696C21.0496 13.5404 21.5717 14.3923 21.9451 15.3015C22.3194 16.2106 22.5458 17.1754 22.5458 18.1888C22.5449 20.5506 21.5904 22.6834 20.043 24.2317Z" fill="#3D61B1"/>
<path d="M17.1975 18.0512H14.9947L14.7571 18.4186V19.3004H17.1975V19.3039V20.3737V20.5523H14.7571V22.4424H13.2421V20.5523H10.8025V20.3737V19.3039V19.3004H13.2421V18.4203L13.0054 18.0512H10.8025V16.9813H12.3167L11.0298 14.9775H12.3132L13.9983 17.6008L15.6868 14.9775H16.9703L15.6833 16.9813H17.1975V18.0512Z" fill="#3D61B1"/>
</g>
<defs>
<clipPath id="clip0_1_1213">
<rect width="28" height="28" fill="white"/>
</clipPath>
</defs>
</svg>
