<svg width="57" height="21" viewBox="0 0 57 21" fill="none" xmlns="http://www.w3.org/2000/svg">
<path d="M6.81891 7.16943L8.42863 12.1237H13.6378L9.4235 15.1855L11.0332 20.1398L6.81891 17.0779L2.60459 20.1398L4.21432 15.1855L0 12.1237H5.20918L6.81891 7.16943Z" fill="#F0CA63"/>
<path d="M49.8375 7.16943L51.4472 12.1237H56.6564L52.4421 15.1855L54.0518 20.1398L49.8375 17.0779L45.6231 20.1398L47.2329 15.1855L43.0186 12.1237H48.2277L49.8375 7.16943Z" fill="#F0CA63"/>
<path d="M28.3282 0L29.9379 4.95422H35.1471L30.9328 8.0161L32.5425 12.9703L28.3282 9.90845L24.1139 12.9703L25.7236 8.0161L21.5093 4.95422H26.7185L28.3282 0Z" fill="#F0CA63"/>
</svg>
