<svg width="351" height="180" viewBox="0 0 351 180" fill="none" xmlns="http://www.w3.org/2000/svg">
<path d="M272.84 150.827L273.079 150.871V175.954H269.369V147.312H274.598L289.461 172.374L289.222 172.417V147.312H292.933V175.954H287.66L272.84 150.827Z" fill="white"/>
<path d="M240.987 147.312H244.849L255.438 175.954H251.467L248.993 169.054H236.842L234.325 175.954H230.355L240.987 147.312ZM238.036 165.712H247.822L242.961 151.869H242.896L238.036 165.712Z" fill="white"/>
<path d="M211.971 163.26H198.237V175.954H194.57V147.312H198.237V159.919H211.971V147.312H215.638V175.954H211.971V163.26Z" fill="white"/>
<path d="M173.896 147.312H177.628V175.954H173.896V147.312Z" fill="white"/>
<path d="M138.649 147.312H148.652C150.2 147.312 151.603 147.638 152.862 148.289C154.135 148.925 155.147 149.866 155.899 151.11C156.666 152.339 157.049 153.844 157.049 155.623C157.049 157.388 156.695 158.849 155.986 160.006C155.292 161.163 154.453 162.038 153.469 162.631C152.485 163.21 151.574 163.528 150.735 163.586L157.83 175.954H153.621L146.981 163.846H142.36V175.954H138.649V147.312ZM142.36 161.091H147.35C149.057 161.091 150.468 160.664 151.581 159.81C152.695 158.957 153.252 157.59 153.252 155.71C153.252 153.829 152.695 152.477 151.581 151.652C150.482 150.827 149.079 150.415 147.372 150.415H142.36V161.091Z" fill="white"/>
<path d="M98.8706 161.612C98.8706 163.738 99.3118 165.655 100.194 167.362C101.091 169.069 102.321 170.429 103.883 171.441C105.445 172.439 107.239 172.938 109.264 172.938C111.304 172.938 113.097 172.439 114.645 171.441C116.207 170.429 117.43 169.069 118.312 167.362C119.194 165.655 119.636 163.738 119.636 161.612C119.636 159.486 119.194 157.576 118.312 155.884C117.43 154.177 116.207 152.824 114.645 151.826C113.097 150.828 111.304 150.329 109.264 150.329C107.239 150.329 105.445 150.828 103.883 151.826C102.321 152.824 101.091 154.177 100.194 155.884C99.3118 157.576 98.8706 159.486 98.8706 161.612ZM95.03 161.612C95.03 159.529 95.3844 157.591 96.0932 155.797C96.8165 153.989 97.8218 152.412 99.1092 151.067C100.397 149.722 101.901 148.673 103.622 147.921C105.358 147.168 107.239 146.792 109.264 146.792C111.304 146.792 113.184 147.168 114.905 147.921C116.641 148.673 118.146 149.722 119.419 151.067C120.706 152.412 121.704 153.989 122.413 155.797C123.122 157.591 123.476 159.529 123.476 161.612C123.476 163.709 123.122 165.662 122.413 167.47C121.719 169.264 120.728 170.841 119.44 172.201C118.167 173.546 116.67 174.595 114.949 175.347C113.227 176.099 111.332 176.475 109.264 176.475C107.195 176.475 105.286 176.099 103.536 175.347C101.8 174.595 100.295 173.546 99.0225 172.201C97.7495 170.841 96.7659 169.264 96.0715 167.47C95.3772 165.662 95.03 163.709 95.03 161.612Z" fill="white"/>
<path d="M79.5249 147.312V175.954H75.8362V155.276L76.0315 152.108L75.2504 155.601L68.3504 174.326H64.6835L57.7835 155.601L57.0241 152.108L57.1977 155.276V175.954H53.4873V147.312H58.4344L66.2457 169.792L66.5061 171.245L66.7882 169.792L74.6211 147.312H79.5249Z" fill="white"/>
<path d="M322.02 123.856C321.079 123.856 320.212 123.608 319.42 123.113C318.627 122.667 318.231 121.9 318.231 120.81C318.231 119.919 318.429 119.126 318.826 118.433C319.271 117.789 319.89 117.467 320.683 117.467C321.228 117.467 321.748 117.542 322.243 117.69C322.788 117.839 323.258 117.913 323.654 117.913C323.951 117.913 324.199 117.839 324.397 117.69C324.645 117.591 324.868 117.393 325.066 117.096C325.61 116.204 326.23 115.09 326.923 113.753C327.666 112.416 328.409 110.905 329.152 109.221C329.944 107.538 330.687 105.755 331.38 103.873C331.529 103.427 331.603 102.857 331.603 102.164C331.603 101.768 331.578 101.396 331.529 101.05C331.479 100.654 331.405 100.307 331.306 100.01L322.689 78.2435C322.342 77.3521 321.871 76.5844 321.277 75.9406C320.732 75.2472 320.088 74.8015 319.346 74.6034C318.949 74.4548 318.553 74.2815 318.157 74.0834C317.81 73.8853 317.637 73.6129 317.637 73.2662C317.637 72.9691 317.81 72.7958 318.157 72.7462C318.553 72.6472 318.875 72.5977 319.123 72.5977C320.113 72.5977 320.831 72.6224 321.277 72.6719C321.772 72.7215 322.218 72.7958 322.614 72.8948C323.06 72.9443 323.704 72.9691 324.546 72.9691C325.437 72.9691 326.106 72.9443 326.551 72.8948C326.997 72.7958 327.468 72.7215 327.963 72.6719C328.458 72.6224 329.201 72.5977 330.192 72.5977C330.489 72.5977 330.811 72.6719 331.157 72.8205C331.504 72.9196 331.677 73.1177 331.677 73.4148C331.677 73.7615 331.405 74.1082 330.86 74.4548C330.365 74.752 329.919 74.9501 329.523 75.0491C329.028 75.1977 328.656 75.4701 328.409 75.8663C328.161 76.213 328.037 76.733 328.037 77.4263C328.037 77.7235 328.111 78.0949 328.26 78.5407C328.409 78.9369 328.532 79.2588 328.631 79.5064L334.649 94.3639C334.748 94.661 334.896 94.8096 335.094 94.8096C335.243 94.8096 335.367 94.661 335.466 94.3639L340.592 80.7693C340.74 80.4226 340.864 79.9769 340.963 79.4321C341.112 78.8378 341.186 78.3673 341.186 78.0206C341.186 77.0797 341.038 76.4358 340.74 76.0892C340.493 75.693 340.146 75.3958 339.7 75.1977C339.304 74.9996 338.834 74.752 338.289 74.4548C337.794 74.1082 337.546 73.7615 337.546 73.4148C337.546 73.1177 337.719 72.9196 338.066 72.8205C338.462 72.6719 338.784 72.5977 339.032 72.5977C339.725 72.5977 340.418 72.6719 341.112 72.8205C341.855 72.9196 342.919 72.9691 344.306 72.9691C345.247 72.9691 345.916 72.9443 346.312 72.8948C346.758 72.7958 347.129 72.7215 347.426 72.6719C347.723 72.6224 348.144 72.5977 348.689 72.5977C348.937 72.5977 349.234 72.6472 349.581 72.7462C349.977 72.7958 350.175 72.9691 350.175 73.2662C350.175 73.6129 349.977 73.8853 349.581 74.0834C349.234 74.2815 348.862 74.4548 348.466 74.6034C347.723 74.8015 346.931 75.3958 346.089 76.3863C345.247 77.3273 344.579 78.3921 344.083 79.5807L333.98 103.65C333.931 103.798 333.658 104.442 333.163 105.581C332.717 106.72 332.148 108.132 331.454 109.816C330.761 111.5 329.993 113.307 329.152 115.239C328.359 117.17 327.591 119.027 326.849 120.81C326.403 121.801 325.759 122.544 324.917 123.039C324.075 123.584 323.109 123.856 322.02 123.856Z" fill="white"/>
<path d="M297.012 103.723C296.12 103.723 295.204 103.377 294.263 102.683C293.372 101.99 292.604 101.148 291.96 100.158C291.366 99.1672 291.069 98.2262 291.069 97.3347C291.069 95.7499 291.49 94.5118 292.331 93.6204C293.173 92.7289 294.511 91.9117 296.343 91.1689L303.92 88.0488C304.911 87.6526 305.48 87.3059 305.629 87.0088C305.827 86.7116 305.951 86.0678 306 85.0773L306.149 80.3229C306.198 79.0352 305.827 77.9209 305.035 76.98C304.292 76.039 303.202 75.5685 301.766 75.5685C301.023 75.5685 300.28 75.6923 299.537 75.9399C298.795 76.1876 298.175 76.5095 297.68 76.9057C297.383 77.1038 297.185 77.4009 297.086 77.7971C296.987 78.1933 296.937 78.6143 296.937 79.06C296.937 79.2581 296.937 79.481 296.937 79.7286C296.987 79.9762 297.012 80.1991 297.012 80.3972C297.012 80.6448 296.69 80.9915 296.046 81.4372C295.452 81.8334 294.758 82.2048 293.966 82.5515C293.223 82.8487 292.604 82.9972 292.109 82.9972C291.861 82.9972 291.663 82.9477 291.514 82.8487C291.366 82.7001 291.291 82.5268 291.291 82.3287C291.291 81.5363 291.539 80.6943 292.034 79.8029C292.579 78.8619 293.322 77.9952 294.263 77.2028C295.402 76.1628 296.64 75.2466 297.977 74.4542C299.315 73.6618 300.627 73.0427 301.915 72.597C303.202 72.1513 304.341 71.9284 305.332 71.9284C307.115 71.9284 308.576 72.5722 309.715 73.8599C310.903 75.098 311.473 76.658 311.423 78.54L311.052 96.369C311.002 97.409 311.225 98.2509 311.721 98.8948C312.265 99.5386 312.934 99.8605 313.726 99.8605C314.964 99.8605 315.881 99.5881 316.475 99.0433C316.723 98.7957 316.921 98.6719 317.069 98.6719C317.317 98.6719 317.515 98.7462 317.664 98.8948C317.812 99.0433 317.886 99.2414 317.886 99.4891C317.886 100.034 317.614 100.579 317.069 101.123C316.277 101.916 315.41 102.535 314.469 102.981C313.578 103.476 312.736 103.723 311.943 103.723C309.665 103.723 307.858 102.436 306.52 99.8605H306.298C304.663 101.198 303.103 102.163 301.617 102.758C300.132 103.402 298.596 103.723 297.012 103.723ZM300.503 100.158C301.494 100.158 302.336 100.009 303.029 99.7119C303.722 99.3652 304.341 98.9195 304.886 98.3747C305.134 98.1271 305.332 97.8052 305.48 97.409C305.678 96.9633 305.802 96.2699 305.852 95.329L306 91.6889C306.05 91.1441 306.025 90.7479 305.926 90.5003C305.827 90.2526 305.629 90.1288 305.332 90.1288C305.233 90.1288 305.059 90.1536 304.812 90.2031C304.564 90.2527 304.242 90.3517 303.846 90.5003C301.221 91.4412 299.389 92.4318 298.349 93.4718C297.358 94.4623 296.863 95.3785 296.863 96.2204C296.863 97.5081 297.234 98.4986 297.977 99.1919C298.77 99.8357 299.612 100.158 300.503 100.158Z" fill="white"/>
<path d="M259.875 103.205C259.379 103.205 258.265 103.155 256.532 103.056C254.848 102.957 252.892 102.858 250.663 102.759C248.484 102.709 246.404 102.685 244.423 102.685C243.432 102.685 242.59 102.709 241.897 102.759C241.253 102.808 240.535 102.858 239.743 102.907C239 103.006 237.96 103.056 236.623 103.056C235.979 103.056 235.459 102.982 235.063 102.833C234.666 102.685 234.468 102.437 234.468 102.09C234.468 101.694 234.666 101.446 235.063 101.347C235.459 101.199 236.078 101.05 236.92 100.902C238.802 100.555 240.089 99.9854 240.783 99.193C241.526 98.4006 241.897 97.113 241.897 95.3301V61.9007C241.897 60.1178 241.526 58.8549 240.783 58.112C240.089 57.3692 238.802 56.8244 236.92 56.4777C236.078 56.3291 235.459 56.1806 235.063 56.032C234.666 55.8339 234.468 55.5367 234.468 55.1405C234.468 54.7939 234.666 54.5462 235.063 54.3977C235.459 54.2491 235.979 54.1748 236.623 54.1748C237.91 54.1748 238.926 54.1996 239.668 54.2491C240.461 54.2491 241.228 54.2738 241.971 54.3234C242.714 54.3234 243.68 54.3234 244.868 54.3234C245.661 54.3234 246.651 54.2986 247.84 54.2491C249.078 54.1996 250.341 54.1253 251.629 54.0262C252.966 53.9272 254.154 53.8529 255.194 53.8034C256.284 53.7538 257.076 53.7291 257.572 53.7291C262.623 53.7291 266.932 54.3481 270.498 55.5863C274.063 56.7749 276.961 58.4587 279.189 60.6378C281.418 62.7674 283.052 65.2684 284.092 68.1408C285.182 70.9638 285.727 74.0096 285.727 77.2782C285.727 80.844 285.058 84.1869 283.721 87.307C282.384 90.4271 280.527 93.2005 278.149 95.6272C275.772 98.0044 273.023 99.8616 269.903 101.199C266.783 102.536 263.44 103.205 259.875 103.205ZM258.983 100.604C262.846 100.604 266.263 99.6635 269.235 97.7815C272.206 95.8996 274.509 93.2995 276.144 89.9814C277.827 86.6632 278.669 82.8498 278.669 78.5411C278.669 74.9753 278.075 71.8057 276.886 69.0323C275.698 66.2094 274.113 63.8569 272.132 61.975C270.151 60.0435 267.922 58.5825 265.446 57.592C262.97 56.552 260.469 56.032 257.943 56.032C255.814 56.032 253.981 56.1063 252.446 56.2548C250.96 56.3539 249.821 56.7253 249.029 57.3692C248.236 58.013 247.84 59.0778 247.84 60.5635V93.6957C247.84 95.6767 248.385 97.1625 249.474 98.153C250.564 99.1435 251.951 99.8121 253.634 100.159C255.368 100.456 257.151 100.604 258.983 100.604Z" fill="white"/>
<path d="M204.127 103.723C202.591 103.723 201.155 103.476 199.818 102.981C198.481 102.535 197.342 101.891 196.401 101.049C196.153 100.504 195.955 99.5881 195.806 98.3005C195.707 97.0128 195.633 95.948 195.583 95.1061C195.583 94.6604 195.905 94.4375 196.549 94.4375C196.747 94.4375 196.921 94.487 197.069 94.5861C197.267 94.6356 197.391 94.7594 197.441 94.9575C198.084 97.3843 199.1 99.1176 200.486 100.158C201.923 101.198 203.359 101.718 204.795 101.718C206.231 101.718 207.445 101.247 208.435 100.306C209.475 99.3157 209.995 98.1024 209.995 96.6661C209.995 95.329 209.55 94.1899 208.658 93.2489C207.767 92.2584 206.207 91.0698 203.978 89.6831C202.294 88.6431 200.932 87.6526 199.892 86.7116C198.852 85.7706 198.085 84.8049 197.589 83.8144C197.144 82.8239 196.921 81.7096 196.921 80.4715C196.921 78.8867 197.292 77.4504 198.035 76.1628C198.778 74.8751 199.892 73.8599 201.378 73.117C202.864 72.3246 204.721 71.9284 206.949 71.9284C208.435 71.9284 209.673 72.077 210.664 72.3741C211.654 72.6713 212.397 72.9932 212.892 73.3399C213.289 73.8846 213.611 74.7513 213.858 75.9399C214.155 77.079 214.304 78.1686 214.304 79.2086C214.304 79.5553 214.056 79.7286 213.561 79.7286C213.264 79.7286 212.967 79.6791 212.67 79.58C212.422 79.4314 212.249 79.2581 212.15 79.06C211.506 77.4257 210.689 76.1876 209.698 75.3456C208.757 74.4542 207.569 74.0085 206.132 74.0085C204.894 74.0085 203.78 74.3799 202.789 75.1228C201.848 75.8656 201.378 76.9552 201.378 78.3914C201.378 79.5305 201.725 80.5458 202.418 81.4372C203.161 82.3287 204.523 83.3439 206.504 84.483C209.376 86.1173 211.506 87.6526 212.892 89.0888C214.329 90.4755 215.047 92.3327 215.047 94.6604C215.047 97.3347 214.032 99.5138 212.001 101.198C209.971 102.882 207.346 103.723 204.127 103.723Z" fill="white"/>
<path d="M183.561 71.0001C184.028 71.0001 184.752 70.5626 185.732 69.6876C186.34 69.1459 187.134 68.3751 188.115 67.3751C189.096 66.3751 190.076 65.3543 191.057 64.3126C191.992 63.2293 192.739 62.3334 193.299 61.6251C193.486 61.3334 193.65 61.1043 193.79 60.9376C193.93 60.7709 194 60.5626 194 60.3126C194 59.8543 193.65 59.5209 192.949 59.3126C192.248 59.1043 191.454 59.0001 190.567 59.0001C190.193 59.0001 189.843 59.1043 189.516 59.3126C189.142 59.5209 188.862 59.7918 188.675 60.1251C188.301 60.6668 187.764 61.5209 187.064 62.6876C186.316 63.8543 185.592 65.0626 184.892 66.3126C184.144 67.5209 183.607 68.5209 183.28 69.3126C183.187 69.5626 183.117 69.7918 183.07 70.0001C183.023 70.1668 183 70.3126 183 70.4376C183 70.8126 183.187 71.0001 183.561 71.0001Z" fill="white"/>
<path d="M157.386 102.907C156.891 102.907 156.52 102.833 156.272 102.684C156.024 102.585 155.901 102.387 155.901 102.09C155.901 101.694 156.049 101.446 156.346 101.347C156.644 101.199 157.064 101.05 157.609 100.901C158.55 100.654 159.244 100.307 159.689 99.8614C160.185 99.3661 160.432 98.7718 160.432 98.0785V82.1066C160.432 80.7695 160.234 79.6056 159.838 78.6151C159.442 77.6246 158.625 77.0056 157.386 76.7579C157.188 76.7084 157.015 76.5846 156.866 76.3865C156.718 76.1884 156.644 75.9903 156.644 75.7922C156.644 75.297 156.866 74.9998 157.312 74.9008C158.6 74.5046 159.937 73.935 161.324 73.1921C162.76 72.3997 163.874 71.7559 164.667 71.2607C164.964 71.0626 165.187 70.9388 165.335 70.8892C165.533 70.7902 165.682 70.7407 165.781 70.7407C166.028 70.7407 166.152 70.914 166.152 71.2607C166.152 71.4093 166.128 71.7807 166.078 72.375C166.078 72.9693 166.053 73.6626 166.004 74.455C166.004 75.2474 165.979 76.0398 165.929 76.8322C165.929 76.9313 165.979 76.9808 166.078 76.9808C166.87 75.9903 167.737 75.1236 168.678 74.3807C169.669 73.6379 170.659 73.0436 171.65 72.5978C172.69 72.1521 173.68 71.9293 174.621 71.9293C175.661 71.9293 176.503 72.1521 177.147 72.5978C177.84 73.0436 178.187 73.6131 178.187 74.3065C178.187 74.8017 178.038 75.3465 177.741 75.9408C177.494 76.5351 177.147 77.0551 176.701 77.5008C176.255 77.9465 175.785 78.1694 175.29 78.1694C174.993 78.1694 174.671 78.1199 174.324 78.0208C173.977 77.8723 173.606 77.6989 173.21 77.5008C172.813 77.3522 172.417 77.2037 172.021 77.0551C171.625 76.9065 171.229 76.8322 170.832 76.8322C169.644 76.8322 168.48 77.2532 167.341 78.0951C166.251 78.937 165.707 80.5961 165.707 83.0724V98.0785C165.707 98.7223 166.053 99.267 166.747 99.7128C167.44 100.109 168.406 100.505 169.644 100.901C170.189 101.05 170.61 101.199 170.907 101.347C171.204 101.496 171.352 101.743 171.352 102.09C171.352 102.635 170.857 102.907 169.867 102.907C168.381 102.907 167.242 102.833 166.449 102.684C165.707 102.585 164.691 102.536 163.404 102.536C162.562 102.536 161.868 102.56 161.324 102.61C160.828 102.66 160.284 102.709 159.689 102.759C159.145 102.858 158.377 102.907 157.386 102.907Z" fill="white"/>
<path d="M140.623 103.798C137.9 103.798 135.522 103.129 133.492 101.792C131.461 100.455 129.876 98.5728 128.737 96.1461C127.598 93.6699 127.029 90.8222 127.029 87.6031C127.029 84.7306 127.673 82.1306 128.96 79.8029C130.297 77.4257 132.056 75.519 134.235 74.0827C136.414 72.6465 138.791 71.9284 141.366 71.9284C143.347 71.9284 145.105 72.3246 146.641 73.117C148.176 73.9094 149.365 75.0237 150.207 76.4599C151.098 77.8466 151.544 79.4562 151.544 81.2886C151.544 82.8239 150.801 83.5915 149.315 83.5915H133.64C132.947 83.5915 132.452 83.7896 132.155 84.1858C131.907 84.5325 131.783 85.2506 131.783 86.3402C131.783 88.7174 132.303 90.8965 133.343 92.8775C134.383 94.809 135.77 96.369 137.503 97.5576C139.237 98.6967 141.143 99.2662 143.223 99.2662C144.709 99.2662 146.046 98.9938 147.235 98.449C148.473 97.8547 149.563 97.0128 150.504 95.9233C150.702 95.6756 150.85 95.5271 150.949 95.4775C151.048 95.3785 151.172 95.329 151.321 95.329C151.717 95.329 151.915 95.5766 151.915 96.0718C151.915 97.0128 151.469 98.0528 150.578 99.1919C149.835 100.133 148.944 100.95 147.904 101.643C146.864 102.337 145.724 102.857 144.486 103.203C143.248 103.6 141.961 103.798 140.623 103.798ZM133.789 81.2886H140.549C141.738 81.2886 142.753 81.2639 143.595 81.2143C144.437 81.1648 145.254 81.0658 146.046 80.9172C146.294 80.8677 146.443 80.7191 146.492 80.4715C146.591 80.1743 146.641 79.7781 146.641 79.2829C146.641 77.8466 145.997 76.6333 144.709 75.6428C143.471 74.6028 141.985 74.0827 140.252 74.0827C139.113 74.0827 137.974 74.4294 136.835 75.1228C135.696 75.7666 134.755 76.5838 134.012 77.5743C133.269 78.5648 132.898 79.5553 132.898 80.5458C132.898 81.041 133.195 81.2886 133.789 81.2886Z" fill="white"/>
<path d="M89.4651 102.907C88.4746 102.907 87.9794 102.634 87.9794 102.09C87.9794 101.644 88.5489 101.248 89.688 100.901C90.4309 100.653 91.1242 100.331 91.768 99.9353C92.4614 99.5391 92.8328 98.8457 92.8823 97.8552V60.6372C92.8823 59.3 92.6595 58.1362 92.2138 57.1457C91.768 56.1056 90.9013 55.4866 89.6137 55.2885C89.168 55.1894 88.9451 54.8428 88.9451 54.2485C88.9451 53.8027 89.1432 53.5056 89.5394 53.357C90.2328 53.1094 91.0499 52.837 91.9909 52.5398C92.9814 52.2427 93.9966 51.9208 95.0367 51.5741C96.0767 51.1779 96.9929 50.8065 97.7853 50.4598C97.9834 50.3607 98.132 50.3112 98.231 50.3112C98.3796 50.3112 98.5034 50.3607 98.6025 50.4598C98.7015 50.5588 98.7511 50.6827 98.7511 50.8312C98.7511 51.1284 98.6768 51.5493 98.5282 52.0941C98.4291 52.6389 98.3301 53.5799 98.231 54.917C98.132 56.2542 98.0825 58.26 98.0825 60.9343V73.8603C98.0825 74.6528 98.1072 75.2223 98.1568 75.569C98.2558 75.9156 98.4044 76.2623 98.6025 76.609C99.3949 76.0147 100.361 75.3709 101.5 74.6775C102.688 73.9346 104.001 73.2908 105.437 72.746C106.873 72.2013 108.359 71.9289 109.894 71.9289C112.321 71.9289 114.327 72.8946 115.911 74.8261C117.546 76.708 118.363 79.11 118.363 82.032V97.6323C118.363 98.6228 118.685 99.3657 119.329 99.861C119.973 100.307 120.666 100.653 121.409 100.901C121.954 101.05 122.374 101.223 122.672 101.421C122.969 101.57 123.117 101.792 123.117 102.09C123.117 102.634 122.622 102.907 121.632 102.907C120.641 102.907 119.873 102.857 119.329 102.758C118.833 102.709 118.338 102.659 117.843 102.61C117.397 102.56 116.729 102.535 115.837 102.535C114.995 102.535 114.327 102.56 113.831 102.61C113.336 102.659 112.816 102.709 112.271 102.758C111.776 102.857 111.033 102.907 110.043 102.907C109.052 102.907 108.557 102.634 108.557 102.09C108.557 101.743 108.706 101.52 109.003 101.421C109.3 101.272 109.721 101.099 110.266 100.901C111.008 100.653 111.677 100.307 112.271 99.861C112.866 99.3657 113.163 98.6228 113.163 97.6323V82.4777C113.163 81.2396 112.791 80.1253 112.049 79.1348C111.355 78.0947 110.488 77.2776 109.448 76.6833C108.408 76.089 107.344 75.7918 106.254 75.7918C105.313 75.7918 104.224 75.9404 102.985 76.2376C101.747 76.4852 100.782 76.8814 100.088 77.4261C99.2958 78.07 98.751 78.7386 98.4539 79.4319C98.2063 80.1253 98.0825 81.2396 98.0825 82.7748V97.8552C98.132 98.8457 98.4291 99.5391 98.9739 99.9353C99.5682 100.331 100.237 100.653 100.98 100.901C101.524 101.05 101.921 101.223 102.168 101.421C102.465 101.57 102.614 101.792 102.614 102.09C102.614 102.634 102.119 102.907 101.128 102.907C100.138 102.907 99.3949 102.857 98.8996 102.758C98.4044 102.709 97.9339 102.659 97.4882 102.61C97.0424 102.56 96.3739 102.535 95.4824 102.535C94.6405 102.535 93.9471 102.56 93.4024 102.61C92.9071 102.659 92.3623 102.709 91.768 102.758C91.2233 102.857 90.4556 102.907 89.4651 102.907Z" fill="white"/>
<path d="M77.249 103.723C74.8223 103.723 72.9155 102.98 71.5288 101.495C70.1917 100.009 69.5231 97.8049 69.5231 94.883V77.6483C69.5231 77.2521 69.3745 76.9797 69.0774 76.8311C68.7802 76.633 68.1364 76.534 67.1459 76.534H66.7002C66.4525 76.534 66.2297 76.3854 66.0316 76.0882C65.883 75.7416 65.8087 75.3949 65.8087 75.0482C65.8087 74.9492 65.883 74.8006 66.0316 74.6025C66.1802 74.4044 66.2792 74.2806 66.3287 74.2311C67.3192 73.5377 68.2107 72.8444 69.0031 72.151C69.845 71.4577 70.5879 70.7891 71.2317 70.1452C71.925 69.4519 72.4946 68.8328 72.9403 68.2881C73.1879 68.0404 73.386 67.8423 73.5346 67.6938C73.7327 67.4957 73.9556 67.3966 74.2032 67.3966C74.4508 67.3966 74.6737 67.4461 74.8718 67.5452C75.1194 67.6442 75.2185 67.8671 75.1689 68.2138L74.7975 71.5567C74.748 72.1015 74.8718 72.4729 75.1689 72.671C75.4661 72.8691 75.9366 72.9682 76.5804 72.9682H85.0492C85.2473 72.9682 85.4206 73.1415 85.5692 73.4882C85.7178 73.7853 85.792 74.1568 85.792 74.6025C85.792 75.0482 85.7178 75.4939 85.5692 75.9397C85.4206 76.3359 85.2473 76.534 85.0492 76.534H77.6947C76.4566 76.534 75.6394 76.633 75.2432 76.8311C74.8965 77.0292 74.7232 77.6235 74.7232 78.614V93.2487C74.7232 95.2297 75.1442 96.7897 75.9861 97.9288C76.828 99.0678 78.0414 99.6374 79.6262 99.6374C81.0624 99.6374 82.1767 99.5383 82.9691 99.3402C83.7615 99.0926 84.4796 98.7459 85.1235 98.3002C85.2225 98.2011 85.3216 98.1516 85.4206 98.1516C85.6187 98.1516 85.7425 98.2754 85.792 98.5231C85.8911 98.7212 85.9406 98.944 85.9406 99.1916C85.9406 99.4393 85.5197 99.9345 84.6777 100.677C83.8853 101.42 82.8206 102.114 81.4834 102.757C80.1957 103.401 78.7843 103.723 77.249 103.723Z" fill="white"/>
<path d="M42.2286 103.723C41.3372 103.723 40.421 103.377 39.48 102.683C38.5886 101.99 37.8209 101.148 37.1771 100.158C36.5828 99.1672 36.2856 98.2262 36.2856 97.3347C36.2856 95.7499 36.7066 94.5118 37.5485 93.6204C38.3905 92.7289 39.7276 91.9117 41.5601 91.1689L49.1374 88.0488C50.1279 87.6526 50.6974 87.3059 50.846 87.0088C51.0441 86.7116 51.1679 86.0678 51.2174 85.0773L51.366 80.3229C51.4155 79.0352 51.0441 77.9209 50.2517 76.98C49.5088 76.039 48.4193 75.5685 46.983 75.5685C46.2402 75.5685 45.4973 75.6923 44.7544 75.9399C44.0115 76.1876 43.3925 76.5095 42.8972 76.9057C42.6001 77.1038 42.402 77.4009 42.3029 77.7971C42.2039 78.1933 42.1544 78.6143 42.1544 79.06C42.1544 79.2581 42.1544 79.481 42.1544 79.7286C42.2039 79.9762 42.2286 80.1991 42.2286 80.3972C42.2286 80.6448 41.9067 80.9915 41.2629 81.4372C40.6686 81.8334 39.9753 82.2048 39.1829 82.5515C38.44 82.8487 37.8209 82.9972 37.3257 82.9972C37.078 82.9972 36.8799 82.9477 36.7314 82.8487C36.5828 82.7001 36.5085 82.5268 36.5085 82.3287C36.5085 81.5363 36.7561 80.6943 37.2514 79.8029C37.7962 78.8619 38.539 77.9952 39.48 77.2028C40.6191 76.1628 41.8572 75.2466 43.1944 74.4542C44.5316 73.6618 45.844 73.0427 47.1316 72.597C48.4193 72.1513 49.5583 71.9284 50.5488 71.9284C52.3317 71.9284 53.7927 72.5722 54.9318 73.8599C56.1204 75.098 56.6899 76.658 56.6404 78.54L56.269 96.369C56.2194 97.409 56.4423 98.2509 56.9376 98.8948C57.4823 99.5386 58.1509 99.8605 58.9433 99.8605C60.1814 99.8605 61.0977 99.5881 61.692 99.0433C61.9396 98.7957 62.1377 98.6719 62.2863 98.6719C62.5339 98.6719 62.732 98.7462 62.8806 98.8948C63.0291 99.0433 63.1034 99.2414 63.1034 99.4891C63.1034 100.034 62.831 100.579 62.2863 101.123C61.4939 101.916 60.6272 102.535 59.6862 102.981C58.7947 103.476 57.9528 103.723 57.1604 103.723C54.8823 103.723 53.0746 102.436 51.7374 99.8605H51.5146C49.8803 101.198 48.3202 102.163 46.8345 102.758C45.3487 103.402 43.8134 103.723 42.2286 103.723ZM45.7202 100.158C46.7107 100.158 47.5526 100.009 48.2459 99.7119C48.9393 99.3652 49.5583 98.9195 50.1031 98.3747C50.3507 98.1271 50.5488 97.8052 50.6974 97.409C50.8955 96.9633 51.0193 96.2699 51.0689 95.329L51.2174 91.6889C51.267 91.1441 51.2422 90.7479 51.1431 90.5003C51.0441 90.2526 50.846 90.1288 50.5488 90.1288C50.4498 90.1288 50.2765 90.1536 50.0288 90.2031C49.7812 90.2527 49.4593 90.3517 49.0631 90.5003C46.4383 91.4412 44.6058 92.4318 43.5658 93.4718C42.5753 94.4623 42.0801 95.3785 42.0801 96.2204C42.0801 97.5081 42.4515 98.4986 43.1944 99.1919C43.9868 99.8357 44.8287 100.158 45.7202 100.158Z" fill="white"/>
<path d="M2.15434 103.055C1.51051 103.055 0.9905 102.981 0.5943 102.833C0.1981 102.733 0 102.535 0 102.238C0 101.644 0.817162 101.198 2.45149 100.901C4.33344 100.554 5.62109 99.9848 6.31444 99.1924C7.05731 98.4 7.42875 97.0876 7.42875 95.2552V63.9059C7.42875 61.6773 7.1316 59.9686 6.5373 58.78C5.99252 57.5914 4.77916 56.8238 2.89721 56.4771C2.05529 56.3286 1.43622 56.1305 1.04002 55.8828C0.643825 55.6352 0.445725 55.3381 0.445725 54.9914C0.445725 54.6942 0.643825 54.4961 1.04002 54.3971C1.43622 54.2485 1.95624 54.1742 2.60006 54.1742C4.43249 54.1742 5.96776 54.199 7.20589 54.2485C8.49354 54.298 9.75642 54.3476 10.9945 54.3971C12.2327 54.3971 13.6937 54.3971 15.3775 54.3971C16.8137 54.3971 18.349 54.3971 19.9833 54.3971C21.6177 54.3971 23.2025 54.3971 24.7377 54.3971C26.3225 54.3971 27.7092 54.2733 28.8978 54.0256C30.136 53.778 31.2007 53.6542 32.0922 53.6542C32.3398 53.6542 32.6122 53.7037 32.9094 53.8028C33.2065 53.9018 33.3798 54.0752 33.4294 54.3228C33.5284 54.8676 33.6027 55.6847 33.6522 56.7743C33.7018 57.8143 33.7265 58.8296 33.7265 59.8201C33.776 60.8106 33.8008 61.4792 33.8008 61.8258C33.8008 62.8659 33.5779 63.3859 33.1322 63.3859C32.8846 63.3859 32.6617 63.3116 32.4636 63.163C32.2655 62.9649 32.117 62.742 32.0179 62.4944C31.8198 61.6525 31.5722 60.9344 31.275 60.3401C30.9779 59.6963 30.656 59.201 30.3093 58.8543C29.6159 58.0619 28.8483 57.5419 28.0064 57.2943C27.1645 56.9971 26.273 56.8486 25.332 56.8486H15.8975C14.7584 56.8486 14.0651 57.22 13.8175 57.9629C13.5698 58.7058 13.4213 59.5724 13.3717 60.5629C13.3222 61.5039 13.2975 62.6678 13.2975 64.0545C13.2975 65.3916 13.2975 66.704 13.2975 67.9917C13.2975 69.2298 13.2975 70.4927 13.2975 71.7804C13.2975 73.068 13.3222 74.1576 13.3717 75.049C13.3717 75.4452 13.3965 75.8166 13.446 76.1633C13.5451 76.51 13.7679 76.6833 14.1146 76.6833C15.6994 76.6833 17.309 76.6586 18.9433 76.609C20.5776 76.51 21.8405 76.4605 22.732 76.4605C23.8215 76.4605 24.7625 76.1633 25.5549 75.569C26.3473 74.9747 26.9168 74.2566 27.2635 73.4147C27.3626 73.2166 27.5607 72.9689 27.8578 72.6718C28.155 72.3251 28.4026 72.1518 28.6007 72.1518C28.7988 72.1518 29.0216 72.2756 29.2693 72.5232C29.5169 72.7213 29.6159 72.9937 29.5664 73.3404C29.5169 74.1823 29.4674 74.9252 29.4178 75.569C29.3683 76.2128 29.3436 76.8319 29.3436 77.4262C29.3436 78.1691 29.3683 78.9367 29.4178 79.7291C29.4674 80.472 29.5169 81.3882 29.5664 82.4777C29.5664 82.8244 29.5169 83.1216 29.4178 83.3692C29.3683 83.6168 29.195 83.7406 28.8978 83.7406C28.4026 83.7406 28.0064 83.5178 27.7092 83.0721C27.4616 82.6263 27.2883 82.2797 27.1892 82.032C26.8425 80.893 26.3225 80.1253 25.6292 79.7291C24.9358 79.2834 24.292 79.0605 23.6977 79.0605C23.0539 79.0605 22.4101 79.0605 21.7662 79.0605C21.1719 79.011 20.5776 78.9862 19.9833 78.9862C19.1414 78.9862 18.3242 78.9862 17.5318 78.9862C16.7394 78.9862 15.947 79.0358 15.1546 79.1348C14.6594 79.1843 14.2384 79.3577 13.8918 79.6548C13.5451 79.9025 13.3717 80.3482 13.3717 80.992C13.3717 83.2701 13.3717 85.5978 13.3717 87.975C13.4213 90.3027 13.4956 92.7047 13.5946 95.1809C13.6937 96.7657 14.0651 98.0286 14.7089 98.9696C15.4023 99.9105 16.6652 100.554 18.4976 100.901C19.3395 101.05 19.9586 101.223 20.3548 101.421C20.751 101.619 20.9491 101.892 20.9491 102.238C20.9491 102.535 20.751 102.733 20.3548 102.833C19.9586 102.981 19.4386 103.055 18.7947 103.055C17.4576 103.055 16.4175 103.006 15.6747 102.907C14.9813 102.808 14.3375 102.733 13.7432 102.684C13.1984 102.585 12.4555 102.535 11.5146 102.535C10.326 102.535 9.26117 102.585 8.3202 102.684C7.42875 102.733 6.51254 102.808 5.57156 102.907C4.63059 103.006 3.49151 103.055 2.15434 103.055Z" fill="white"/>
<path d="M205.427 19.2502C205.186 19.2502 204.991 19.2223 204.842 19.1666C204.694 19.1295 204.619 19.0552 204.619 18.9438C204.619 18.8138 204.694 18.7116 204.842 18.6373C204.991 18.563 205.223 18.498 205.539 18.4423C206.244 18.3123 206.783 18.0616 207.154 17.6902C207.526 17.3002 207.712 16.7709 207.712 16.1023V11.9793C207.712 11.6079 207.609 11.2086 207.405 10.7814C207.219 10.3357 207.089 10.0478 207.015 9.91784L203.756 4.56914C203.626 4.34628 203.422 4.03984 203.143 3.64984C202.864 3.24125 202.558 2.86053 202.224 2.50766C201.908 2.1548 201.592 1.93194 201.276 1.83908C200.979 1.74622 200.747 1.65336 200.58 1.5605C200.431 1.46764 200.357 1.35621 200.357 1.22621C200.357 1.11477 200.431 1.04049 200.58 1.00334C200.729 0.947627 200.924 0.919769 201.165 0.919769C201.592 0.919769 202.084 0.938341 202.642 0.975485C203.199 0.994057 203.793 1.00334 204.424 1.00334C204.852 1.00334 205.251 0.994057 205.622 0.975485C206.012 0.956914 206.356 0.947627 206.653 0.947627C206.894 0.947627 207.089 0.975485 207.238 1.0312C207.387 1.06834 207.461 1.14263 207.461 1.25406C207.461 1.38407 207.387 1.4955 207.238 1.58836C207.089 1.66264 206.857 1.73693 206.542 1.81122C206.282 1.88551 206.068 1.96908 205.901 2.06194C205.734 2.1548 205.65 2.30337 205.65 2.50766C205.65 2.7491 205.771 3.08339 206.012 3.51055L208.575 8.24637C208.947 8.9521 209.207 9.30497 209.355 9.30497C209.467 9.30497 209.587 9.23068 209.717 9.08211C209.847 8.91496 210.033 8.63638 210.275 8.24637C210.702 7.59636 211.082 6.9742 211.417 6.3799C211.751 5.7856 212.15 5.07058 212.615 4.23485C212.8 3.91913 212.93 3.64983 213.005 3.42697C213.079 3.18554 213.116 2.98125 213.116 2.8141C213.116 2.46123 212.986 2.2198 212.726 2.0898C212.485 1.95979 212.234 1.87622 211.974 1.83908C211.788 1.80193 211.584 1.73693 211.361 1.64407C211.157 1.53264 211.055 1.41192 211.055 1.28192C211.055 1.17049 211.129 1.0962 211.277 1.05906C211.426 1.00334 211.621 0.975485 211.862 0.975485C212.29 0.975485 212.642 0.984772 212.921 1.00334C213.2 1.00334 213.543 1.00334 213.952 1.00334C214.528 1.00334 215.075 0.994057 215.595 0.975485C216.115 0.938341 216.533 0.919769 216.849 0.919769C217.09 0.919769 217.285 0.947627 217.434 1.00334C217.583 1.04049 217.657 1.11477 217.657 1.22621C217.657 1.35621 217.508 1.47692 217.211 1.58836C216.914 1.69979 216.57 1.81122 216.18 1.92265C215.698 2.05265 215.289 2.32195 214.955 2.73053C214.639 3.12054 214.23 3.69626 213.729 4.45771C213.357 5.03344 213.042 5.51631 212.782 5.90632C212.54 6.29633 212.308 6.65848 212.085 6.99277C211.881 7.32706 211.667 7.67993 211.445 8.05137C211.222 8.40423 210.952 8.84067 210.637 9.36068C210.395 9.75069 210.228 10.0664 210.135 10.3079C210.042 10.5493 209.987 10.7814 209.968 11.0043C209.95 11.2086 209.94 11.4965 209.94 11.8679V16.1023C209.94 16.7337 210.135 17.2537 210.525 17.6623C210.915 18.0523 211.454 18.3123 212.141 18.4423C212.457 18.498 212.689 18.563 212.837 18.6373C212.986 18.7116 213.06 18.8138 213.06 18.9438C213.06 19.0552 212.986 19.1295 212.837 19.1666C212.689 19.2223 212.494 19.2502 212.252 19.2502C211.751 19.2502 211.333 19.2316 210.999 19.1945C210.683 19.1759 210.377 19.1573 210.08 19.1388C209.782 19.1202 209.42 19.1109 208.993 19.1109C208.529 19.1109 208.12 19.1202 207.767 19.1388C207.433 19.1573 207.08 19.1759 206.709 19.1945C206.356 19.2316 205.929 19.2502 205.427 19.2502Z" fill="white"/>
<path d="M186.463 19.2504C186.221 19.2504 186.026 19.2226 185.878 19.1669C185.729 19.1297 185.655 19.0554 185.655 18.944C185.655 18.7211 185.961 18.554 186.574 18.4426C187.28 18.3125 187.791 18.099 188.107 17.8018C188.441 17.5047 188.608 17.0125 188.608 16.3254V4.56936C188.608 3.73363 188.497 3.0929 188.274 2.64718C188.069 2.20145 187.614 1.91359 186.909 1.78358C186.593 1.72787 186.361 1.65358 186.212 1.56072C186.064 1.46786 185.989 1.35643 185.989 1.22643C185.989 1.115 186.064 1.04071 186.212 1.00356C186.361 0.947849 186.556 0.919991 186.797 0.919991C187.299 0.919991 187.67 0.919991 187.912 0.919991C188.172 0.919991 188.413 0.929276 188.636 0.947849C188.859 0.947849 189.156 0.947849 189.527 0.947849C189.899 0.947849 190.27 0.938563 190.642 0.919991C191.032 0.882847 191.394 0.854989 191.728 0.836418C192.062 0.799273 192.359 0.780701 192.619 0.780701C194.737 0.780701 196.436 1.21714 197.717 2.09002C199.017 2.9629 199.668 4.17935 199.668 5.73939C199.668 6.87228 199.445 7.92159 198.999 8.88732C198.553 9.83449 197.866 10.5959 196.937 11.1717C196.027 11.7474 194.857 12.0353 193.427 12.0353C193.019 12.0353 192.703 11.9795 192.48 11.8681C192.276 11.7381 192.174 11.6174 192.174 11.506C192.174 11.4317 192.22 11.3481 192.313 11.2552C192.424 11.1624 192.527 11.1159 192.619 11.1159C192.712 11.1159 192.852 11.1252 193.037 11.1438C193.242 11.1624 193.53 11.1717 193.901 11.1717C195.015 11.1717 195.851 10.7074 196.408 9.77877C196.984 8.85018 197.272 7.56872 197.272 5.9344C197.272 4.44865 196.835 3.35291 195.962 2.64718C195.09 1.92287 193.975 1.56072 192.619 1.56072C192.099 1.56072 191.672 1.65358 191.338 1.8393C191.004 2.00645 190.837 2.3036 190.837 2.73075V16.0189C190.837 16.6875 190.976 17.2261 191.254 17.6347C191.533 18.0433 192.016 18.3125 192.703 18.4426C193.019 18.4983 193.251 18.5633 193.399 18.6376C193.548 18.7118 193.622 18.814 193.622 18.944C193.622 19.0554 193.548 19.1297 193.399 19.1669C193.251 19.2226 193.056 19.2504 192.814 19.2504C192.313 19.2504 191.923 19.2319 191.644 19.1947C191.384 19.1576 191.143 19.1297 190.92 19.1111C190.716 19.074 190.437 19.0554 190.084 19.0554C189.62 19.0554 189.202 19.074 188.831 19.1111C188.478 19.1297 188.116 19.1576 187.744 19.1947C187.391 19.2319 186.964 19.2504 186.463 19.2504Z" fill="white"/>
<path d="M171.092 19.2504C170.851 19.2504 170.656 19.2226 170.507 19.1669C170.358 19.1297 170.284 19.0554 170.284 18.944C170.284 18.7211 170.591 18.554 171.203 18.4426C171.909 18.3125 172.42 18.099 172.736 17.8018C173.07 17.5047 173.237 17.0125 173.237 16.3254V4.56936C173.237 3.73363 173.126 3.0929 172.903 2.64718C172.699 2.20145 172.244 1.91359 171.538 1.78358C171.222 1.72787 170.99 1.65358 170.841 1.56072C170.693 1.46786 170.618 1.35643 170.618 1.22643C170.618 1.115 170.693 1.04071 170.841 1.00356C170.99 0.947849 171.185 0.919991 171.426 0.919991C171.928 0.919991 172.299 0.919991 172.541 0.919991C172.801 0.919991 173.042 0.929276 173.265 0.947849C173.488 0.947849 173.785 0.947849 174.156 0.947849C174.528 0.947849 174.899 0.938563 175.271 0.919991C175.661 0.882847 176.023 0.854989 176.357 0.836418C176.691 0.799273 176.989 0.780701 177.249 0.780701C179.366 0.780701 181.065 1.21714 182.347 2.09002C183.647 2.9629 184.297 4.17935 184.297 5.73939C184.297 6.87228 184.074 7.92159 183.628 8.88732C183.182 9.83449 182.495 10.5959 181.567 11.1717C180.657 11.7474 179.487 12.0353 178.057 12.0353C177.648 12.0353 177.332 11.9795 177.109 11.8681C176.905 11.7381 176.803 11.6174 176.803 11.506C176.803 11.4317 176.849 11.3481 176.942 11.2552C177.054 11.1624 177.156 11.1159 177.249 11.1159C177.341 11.1159 177.481 11.1252 177.666 11.1438C177.871 11.1624 178.159 11.1717 178.53 11.1717C179.644 11.1717 180.48 10.7074 181.037 9.77877C181.613 8.85018 181.901 7.56872 181.901 5.9344C181.901 4.44865 181.464 3.35291 180.592 2.64718C179.719 1.92287 178.604 1.56072 177.249 1.56072C176.729 1.56072 176.301 1.65358 175.967 1.8393C175.633 2.00645 175.466 2.3036 175.466 2.73075V16.0189C175.466 16.6875 175.605 17.2261 175.884 17.6347C176.162 18.0433 176.645 18.3125 177.332 18.4426C177.648 18.4983 177.88 18.5633 178.029 18.6376C178.177 18.7118 178.252 18.814 178.252 18.944C178.252 19.0554 178.177 19.1297 178.029 19.1669C177.88 19.2226 177.685 19.2504 177.444 19.2504C176.942 19.2504 176.552 19.2319 176.274 19.1947C176.014 19.1576 175.772 19.1297 175.549 19.1111C175.345 19.074 175.066 19.0554 174.714 19.0554C174.249 19.0554 173.831 19.074 173.46 19.1111C173.107 19.1297 172.745 19.1576 172.374 19.1947C172.021 19.2319 171.593 19.2504 171.092 19.2504Z" fill="white"/>
<path d="M151.08 19.2503C150.838 19.2503 150.643 19.2131 150.495 19.1389C150.346 19.0831 150.272 18.9996 150.272 18.8881C150.272 18.7581 150.346 18.6467 150.495 18.5538C150.662 18.4424 150.894 18.3403 151.191 18.2474C151.674 18.0988 152.12 17.876 152.528 17.5788C152.937 17.2817 153.29 16.7895 153.587 16.1024C154.107 14.9138 154.58 13.7994 155.008 12.7594C155.453 11.7194 155.871 10.6979 156.261 9.69507C156.651 8.69219 157.05 7.65216 157.459 6.57499C157.886 5.47925 158.332 4.29065 158.796 3.00919C158.889 2.74919 158.973 2.48918 159.047 2.22917C159.121 1.96917 159.168 1.69059 159.186 1.39344C159.353 1.33772 159.521 1.28201 159.688 1.22629C159.855 1.17058 160.022 1.087 160.189 0.975573C160.356 0.864142 160.468 0.696995 160.523 0.474133C160.598 0.25127 160.663 0.102694 160.718 0.0284068C160.737 0.00983513 160.756 0.000549316 160.774 0.000549316C160.811 0.000549316 160.839 0.0191215 160.858 0.0562659C160.895 0.130553 160.923 0.223413 160.941 0.334844C160.978 0.446275 161.016 0.557705 161.053 0.669136C161.498 2.0806 161.963 3.51992 162.446 4.9871C162.928 6.45427 163.393 7.87502 163.838 9.24934C164.303 10.6051 164.721 11.8308 165.092 12.9266C165.482 14.0037 165.789 14.8766 166.011 15.5452C166.271 16.2881 166.55 16.8452 166.847 17.2167C167.144 17.5881 167.451 17.8481 167.766 17.9967C168.101 18.1453 168.454 18.2567 168.825 18.331C169.141 18.3867 169.373 18.4796 169.521 18.6096C169.67 18.721 169.744 18.8417 169.744 18.9717C169.744 19.0831 169.67 19.1574 169.521 19.1946C169.373 19.2317 169.178 19.2503 168.936 19.2503C168.676 19.2503 168.324 19.2317 167.878 19.1946C167.432 19.176 166.959 19.1481 166.457 19.111C165.956 19.0924 165.491 19.0831 165.064 19.0831C164.711 19.0831 164.349 19.0831 163.978 19.0831C163.606 19.0831 163.263 19.0924 162.947 19.111C162.631 19.111 162.362 19.111 162.139 19.111C161.898 19.111 161.703 19.0831 161.554 19.0274C161.406 18.9717 161.331 18.8881 161.331 18.7767C161.331 18.6467 161.424 18.5353 161.61 18.4424C161.796 18.3496 162.009 18.2846 162.251 18.2474C162.863 18.1546 163.3 17.9967 163.56 17.7738C163.82 17.551 163.95 17.291 163.95 16.9938C163.95 16.7152 163.885 16.3159 163.755 15.7959C163.643 15.2573 163.504 14.6909 163.337 14.0966C163.17 13.4837 163.012 12.9451 162.863 12.4808C162.826 12.3323 162.752 12.2487 162.641 12.2301C162.548 12.193 162.371 12.1744 162.111 12.1744H156.846C156.772 12.1744 156.688 12.2116 156.595 12.2858C156.521 12.3416 156.447 12.4716 156.373 12.6758C156.317 12.8616 156.224 13.1587 156.094 13.5673C155.964 13.9573 155.834 14.3752 155.704 14.8209C155.574 15.2666 155.463 15.6659 155.37 16.0188C155.277 16.3717 155.23 16.5945 155.23 16.6874C155.23 17.096 155.388 17.4395 155.704 17.7181C156.02 17.9781 156.4 18.1638 156.846 18.2753C157.459 18.4424 157.765 18.6281 157.765 18.8324C157.765 18.9439 157.691 19.0274 157.543 19.0831C157.394 19.1203 157.199 19.1389 156.958 19.1389C156.716 19.1389 156.363 19.1296 155.899 19.111C155.435 19.0924 154.943 19.0831 154.423 19.0831C153.81 19.0831 153.215 19.111 152.64 19.1667C152.064 19.2224 151.544 19.2503 151.08 19.2503ZM157.598 11.2551H161.916C162.176 11.2551 162.306 11.2087 162.306 11.1158C162.306 11.0787 162.297 11.0415 162.278 11.0044C162.278 10.9487 162.269 10.893 162.251 10.8372L160.078 4.03993C159.966 3.70564 159.883 3.53849 159.827 3.53849C159.79 3.53849 159.716 3.69635 159.604 4.01207L157.069 10.8372C157.032 10.9487 157.013 11.023 157.013 11.0601C157.013 11.153 157.06 11.2087 157.153 11.2272C157.264 11.2458 157.413 11.2551 157.598 11.2551Z" fill="white"/>
<path d="M129.613 19.2502C129.372 19.2502 129.177 19.2131 129.028 19.1388C128.88 19.0831 128.805 18.9995 128.805 18.8881C128.805 18.7023 129.102 18.5538 129.697 18.4423C130.402 18.3123 130.857 18.0987 131.062 17.8016C131.285 17.5044 131.396 17.0216 131.396 16.353V3.76127C131.396 3.11125 131.322 2.65624 131.173 2.39623C131.043 2.11766 130.625 1.91336 129.92 1.78336C129.307 1.67193 129 1.50478 129 1.28192C129 1.17049 129.065 1.08692 129.195 1.0312C129.325 0.956913 129.53 0.919769 129.808 0.919769C130.31 0.919769 130.7 0.929055 130.978 0.947627C131.257 0.966199 131.517 0.984772 131.758 1.00334C132 1.00334 132.306 1.00334 132.678 1.00334C133.068 1.00334 133.383 1.00334 133.625 1.00334C133.885 0.984772 134.154 0.966199 134.433 0.947627C134.73 0.929055 135.129 0.919769 135.63 0.919769C136.169 0.919769 136.438 1.04049 136.438 1.28192C136.438 1.41192 136.364 1.51407 136.215 1.58836C136.067 1.66264 135.835 1.72765 135.519 1.78336C134.832 1.91336 134.34 2.14551 134.043 2.47981C133.764 2.79553 133.625 3.22268 133.625 3.76127V9.24925C133.625 9.36068 133.671 9.43497 133.764 9.47211C133.857 9.49069 133.94 9.49997 134.015 9.49997H144.35C144.48 9.49997 144.545 9.38854 144.545 9.16568V3.73341C144.545 3.23197 144.415 2.8141 144.155 2.47981C143.895 2.14551 143.412 1.91336 142.706 1.78336C142.391 1.72765 142.158 1.66264 142.01 1.58836C141.861 1.51407 141.787 1.41192 141.787 1.28192C141.787 1.04049 142.056 0.919769 142.595 0.919769C143.096 0.919769 143.505 0.929055 143.821 0.947627C144.155 0.966199 144.471 0.984772 144.768 1.00334C145.065 1.00334 145.418 1.00334 145.826 1.00334C146.161 1.00334 146.421 1.00334 146.606 1.00334C146.792 0.984772 147.006 0.966199 147.247 0.947627C147.489 0.929055 147.86 0.919769 148.361 0.919769C148.621 0.919769 148.816 0.956913 148.946 1.0312C149.095 1.08692 149.169 1.17049 149.169 1.28192C149.169 1.50478 148.863 1.67193 148.25 1.78336C147.563 1.91336 147.145 2.13623 146.996 2.45195C146.848 2.76767 146.774 3.19482 146.774 3.73341V16.3251C146.774 17.0123 146.857 17.5044 147.024 17.8016C147.21 18.0987 147.646 18.3123 148.334 18.4423C148.928 18.5538 149.225 18.7023 149.225 18.8881C149.225 18.9995 149.151 19.0831 149.002 19.1388C148.854 19.2131 148.659 19.2502 148.417 19.2502C147.916 19.2502 147.526 19.2316 147.247 19.1945C146.969 19.1759 146.709 19.1573 146.467 19.1388C146.226 19.1202 145.91 19.1109 145.52 19.1109C145.13 19.1109 144.805 19.1202 144.545 19.1388C144.304 19.1573 144.034 19.1759 143.737 19.1945C143.44 19.2316 143.041 19.2502 142.539 19.2502C142.298 19.2502 142.103 19.2131 141.954 19.1388C141.806 19.0831 141.731 18.9995 141.731 18.8881C141.731 18.7581 141.796 18.6652 141.926 18.6095C142.075 18.5538 142.307 18.498 142.623 18.4423C143.217 18.3309 143.681 18.1173 144.016 17.8016C144.369 17.4673 144.545 17.003 144.545 16.4087V10.9764C144.545 10.8836 144.545 10.7907 144.545 10.6979C144.545 10.605 144.499 10.5586 144.406 10.5586H133.764C133.671 10.5586 133.625 10.6607 133.625 10.865V16.158C133.625 16.7337 133.838 17.2352 134.265 17.6623C134.693 18.0709 135.222 18.3309 135.853 18.4423C136.169 18.498 136.392 18.5538 136.522 18.6095C136.67 18.6652 136.745 18.7581 136.745 18.8881C136.745 18.9995 136.67 19.0831 136.522 19.1388C136.373 19.2131 136.178 19.2502 135.937 19.2502C135.435 19.2502 135.018 19.2316 134.683 19.1945C134.368 19.1759 134.061 19.1573 133.764 19.1388C133.467 19.1202 133.105 19.1109 132.678 19.1109C132.288 19.1109 131.953 19.1202 131.675 19.1388C131.415 19.1573 131.127 19.1759 130.811 19.1945C130.514 19.2316 130.115 19.2502 129.613 19.2502Z" fill="white"/>
<path d="M106.881 8.43295V9.82494H37.2366V8.43295H106.881Z" fill="white"/>
<path d="M106.881 13.0758V14.4678H37.2365V13.0758H106.881Z" fill="white"/>
<path d="M308.85 8.43304V9.82503H239.206V8.43304H308.85Z" fill="white"/>
<path d="M308.85 13.0758V14.4678H239.206V13.0758H308.85Z" fill="white"/>
</svg>
