<svg width="375" height="186" viewBox="0 0 375 186" fill="none" xmlns="http://www.w3.org/2000/svg">
<path d="M294.428 31.0897C294.199 31.0864 293.841 31.0924 293.613 31.5686C293.198 32.4344 294.148 33.1554 295.302 33.7084C296.817 34.4342 297.813 34.0595 298.193 33.2659C298.649 32.3135 298.025 31.8016 296.697 30.6863C294.432 28.7852 293.676 28.1396 294.326 26.7832C294.679 26.0473 295.894 24.6956 298.91 26.1402C301.233 27.2531 301.576 28.4997 301.23 29.2212C300.954 29.7984 300.385 29.9869 299.937 29.7726C299.851 29.7312 299.36 29.4961 299.079 28.9355C299.337 28.9884 299.603 29.0269 299.789 28.6373C300.107 27.9735 299.2 27.2374 298.464 26.8849C297.786 26.56 296.295 26.0056 295.735 27.1744C295.452 27.766 295.7 28.0624 297.116 29.255C298.953 30.7912 299.345 31.1209 299.644 31.9031C299.831 32.3651 299.935 33.0002 299.596 33.7073C298.939 35.0781 297.187 35.5873 294.662 34.3776C292.887 33.5275 291.513 32.2482 292.135 30.9496C292.343 30.5167 292.933 29.8769 293.77 30.2778C294.289 30.5266 294.366 30.8474 294.428 31.0897Z" fill="white"/>
<path d="M289.512 22.4535C289.611 22.2176 290.101 21.1389 290.179 20.9116C290.548 19.9555 290.036 19.4796 289.785 19.2521C289.975 19.0892 290.165 18.9263 290.578 19.1003C291.271 19.3923 292.121 20.341 291.767 21.1814C291.705 21.3289 291.225 21.8906 291.167 21.9876C291.019 22.2553 290.884 22.4935 290.727 22.8264C290.901 22.8653 291.105 22.9166 291.28 22.9555C291.446 22.9734 292.19 23.0613 292.323 23.1172C292.529 23.2042 293.162 23.8874 292.944 24.4035C292.783 24.7868 292.555 24.7084 291.92 24.5273C290.897 24.2351 290.773 24.2002 290.162 23.9601C289.369 25.5532 288.338 27.7927 288.09 28.3825C287.91 28.8101 287.437 29.9306 288.573 30.4091C288.705 30.465 288.971 30.5769 289.526 30.6197C289.591 30.6299 289.862 30.6051 289.906 30.6238C289.994 30.661 290.039 30.8015 289.99 30.9195C289.834 31.2881 288.253 31.4552 287.428 31.1072C286.897 30.8835 286.465 30.302 286.451 29.758C286.435 29.5081 286.447 29.1487 286.951 27.9545C287.56 26.5095 288.304 24.9483 289.008 23.5259C288.421 23.313 287.707 23.0295 287.462 22.4574C287.37 22.2626 287.21 21.7782 287.392 21.3864C287.635 21.5929 288.049 21.8887 288.329 22.0068C288.506 22.0814 289.358 22.4061 289.512 22.4535Z" fill="white"/>
<path d="M280.842 19.0669C281.273 18.0495 281.628 17.6015 282.045 17.262C282.766 16.66 283.771 16.4377 284.835 16.8352C285.165 16.9584 286.535 17.5896 286.143 18.6388C286.075 18.8187 285.741 19.5307 284.827 19.1892C284.407 19.0324 284.313 18.8265 284.21 18.6001C284.367 18.5905 284.641 18.5902 284.73 18.3504C284.865 17.9906 284.434 17.7271 284.179 17.632C282.98 17.184 282.509 18.3064 282.024 19.4231C282.605 19.6059 282.97 19.7253 283.539 19.8013C283.64 19.8049 284.092 19.7856 284.182 19.8192C284.301 19.864 285.385 20.7128 285.172 21.2824C285.116 21.4323 284.955 21.6797 284.671 21.5733L284.176 21.3885C283.622 21.1814 283.427 21.1086 281.6 20.5117C281.354 21.1711 280.322 24.1163 280.098 24.7158C279.941 25.1355 279.415 26.5444 278.975 27.0806C278.605 27.523 278.332 27.5233 278.197 27.4729C277.732 27.2994 277.684 26.2395 277.847 25.8048C277.942 25.55 278.041 25.4675 278.419 25.0962C278.634 24.8862 279.395 22.8478 279.574 22.3682C280.101 20.9593 280.173 20.7644 280.429 20.1255C278.679 19.506 278.755 18.3898 278.97 18.0431C279.661 18.6602 280.456 18.9569 280.842 19.0669Z" fill="white"/>
<path d="M273.772 16.803C274.246 16.2857 274.778 16.4615 274.869 16.4917C275.416 16.6725 276.334 17.414 276.163 17.9305C276.103 18.1128 275.659 18.8425 275.589 19.0045C275.342 19.5465 274.945 20.6455 274.744 21.2531C274.569 21.7848 273.821 24.2001 273.66 24.6862C273.494 25.1875 273.116 25.6691 272.721 25.5386C272.204 25.3678 272.246 23.9156 272.412 23.4143C272.452 23.2927 272.785 22.8973 272.831 22.8111C273.173 21.9805 274.022 19.565 274.027 19.5498C274.67 17.6053 274.573 17.4891 274.36 17.2164C274.167 16.9842 273.965 16.8835 273.772 16.803ZM275.296 12.959C275.326 12.969 275.494 13.2772 275.539 13.3429C275.915 13.7872 276.219 13.9383 276.893 14.2959C277.369 14.5375 277.198 15.1552 277.158 15.2768C277.113 15.4135 276.892 15.9301 276.512 15.8046C275.16 15.3576 275.024 13.5769 275.215 12.9996C275.23 12.9541 275.265 12.9489 275.296 12.959Z" fill="white"/>
<path d="M269.209 18.755L269.276 18.5245C269.043 18.5236 267.441 18.4758 266.98 18.3422C266.796 18.2888 265.899 17.7623 266.175 16.8095C266.193 16.748 266.211 16.6866 266.317 16.5507C266.741 17.0402 267.182 17.1847 267.336 17.2293C267.674 17.3273 268.581 17.4735 268.935 17.4595C269.067 17.4644 269.643 17.3149 269.766 17.3506C270.074 17.4396 271.059 18.2917 270.966 18.6144C270.926 18.7527 270.544 19.2084 270.482 19.3071C270.157 19.9125 270.045 20.2966 269.84 21.0036C269.738 21.357 269.348 22.8764 269.254 23.1991C269.018 24.0136 268.305 24.1735 268.059 24.1023C267.706 23.9999 267.612 23.2896 267.706 22.9669L267.936 22.4007C267.416 22.6999 267.258 22.7872 266.756 22.9084C265.769 23.1552 264.709 23.1314 263.757 22.8552C261.436 22.1827 259.368 19.8343 260.437 16.146C261.506 12.4578 264.564 10.2958 268.744 11.5072C270.973 12.153 272.367 13.6066 272.02 14.8053C271.877 15.297 271.52 15.7264 270.782 15.5127C270.659 15.477 269.998 15.2855 269.705 14.5174C269.929 14.549 270.392 14.6167 270.526 14.1557C270.739 13.418 269.711 12.7702 268.42 12.3961C265.255 11.4786 262.756 13.0867 261.763 16.5137C260.636 20.4017 263.445 21.6321 264.213 21.8548C265.166 22.1309 266.586 22.0594 267.568 21.6609C267.717 21.6043 268.305 21.2417 268.429 21.1609C268.584 20.7395 269.067 19.2468 269.209 18.755Z" fill="white"/>
<path d="M244.953 9.49016C245.326 9.04651 245.905 8.94144 246.453 9.05876C247.829 9.35374 247.511 10.6109 247.311 11.468C248.871 10.2969 249.942 9.80625 251.24 10.0845C252.867 10.4331 252.908 11.5383 252.788 12.1015C252.711 12.4613 252.361 13.2536 251.391 13.0458C251.016 12.9654 250.836 12.8123 250.671 12.6625C250.874 12.5586 251.11 12.4457 251.184 12.1015C251.261 11.7417 251.119 11.3349 250.447 11.1908C249.664 11.0232 248.53 11.3529 247.148 12.6112C246.96 13.2583 246.403 16.166 246.263 16.7415C246.06 17.6143 245.873 18.4088 244.95 18.211C244.324 18.077 244.435 17.5607 244.475 17.3729C244.602 16.7784 244.915 15.9291 245.206 15.1078C245.212 15.0765 245.666 13.341 245.964 11.9486C246.323 10.2746 246.161 9.9617 244.953 9.49016Z" fill="white"/>
<path d="M235 11.5785C234.93 11.7937 234.892 11.917 234.865 12.0746C234.611 13.5246 235.501 15.402 237.739 15.7935C238.322 15.8955 239.571 16.0002 240.954 15.43C241.091 15.389 241.667 15.0675 241.793 15.0895C241.856 15.1006 241.955 15.1829 241.93 15.3248C241.848 15.7976 239.842 17.2335 237.321 16.7924C234.83 16.3567 232.911 14.6079 233.443 11.566C233.898 8.96553 235.846 7.11355 239.251 7.70907C241.331 8.073 242.477 9.13439 242.18 10.8365C241.951 12.1447 241.203 12.5175 240.937 12.6495C239.637 13.2993 238.2 13.0642 237.806 12.9952C236.293 12.7306 235.434 11.9792 235 11.5785ZM235.216 10.9016C235.935 11.4335 236.498 11.8405 237.569 12.0279C237.853 12.0776 240.614 12.5443 240.992 10.3851C241.245 8.9351 239.512 8.63183 239.196 8.57669C237.825 8.33683 236.044 8.67501 235.216 10.9016Z" fill="white"/>
<path d="M221.35 7.25939C222.131 6.32707 222.931 5.36504 224.36 5.54806C225.439 5.68634 225.855 6.59457 225.835 7.8825C226.556 7.16829 227.994 6.01374 229.041 6.14796C229.613 6.22117 230.126 6.62562 230.368 7.12449C230.67 7.79223 230.531 8.87141 230.485 9.23643C230.403 9.87124 229.901 12.662 229.827 13.2333C229.74 13.9157 229.726 14.3979 230.409 14.4854C230.599 14.5098 230.85 14.4451 230.985 14.3978C231.054 14.3584 231.138 14.3368 231.205 14.3132C231.253 14.3193 231.278 14.371 231.27 14.4344C231.217 14.8471 230.483 15.6724 229.356 15.528C228.356 15.3999 228.255 14.6772 228.379 13.7091C228.471 12.9949 229.066 9.86116 229.149 9.21047C229.275 8.22652 229.105 7.5433 228.422 7.45586C227.66 7.35825 226.547 8.11887 225.754 9.14641C225.396 11.9396 225.229 13.2409 224.903 14.1508C224.749 14.5989 224.23 14.8712 223.96 14.8366C223.563 14.7857 223.537 13.7338 223.598 13.2577C223.691 12.5277 223.845 12.2087 224.037 11.8461C224.101 11.7252 224.313 10.3168 224.323 10.2375C224.386 9.7455 224.545 8.00751 224.449 7.62419C224.441 7.55868 224.276 6.95685 223.641 6.8755C223.07 6.8023 222.42 6.96104 221.222 8.25922C221.131 8.58639 221.127 8.61813 221.04 9.30055C220.997 9.63383 220.794 11.0919 220.756 11.3934C220.735 11.5521 220.725 12.2606 220.707 12.4034C220.617 13.1017 220.215 14.3567 219.485 14.2631C218.834 14.1797 218.997 12.9101 219.035 12.6086C219.102 12.0849 219.142 12.0255 219.388 11.4924C219.5 11.2486 219.508 11.1851 219.522 11.074C219.561 10.7725 219.797 9.43167 219.832 9.16187C220.234 6.01956 220.127 5.97359 218.88 5.50734C219.199 5.03203 220.013 4.975 220.331 5.01567C221.235 5.13158 221.359 5.67971 221.413 6.00931C221.436 6.20585 221.356 7.08279 221.35 7.25939Z" fill="white"/>
<path d="M206.346 5.93976C207.079 4.96953 207.83 3.96863 209.266 4.07993C210.351 4.16402 210.812 5.0503 210.856 6.3376C211.54 5.58822 212.919 4.36313 213.972 4.44475C214.546 4.48927 215.079 4.86755 215.346 5.35365C215.681 6.00547 215.596 7.09021 215.568 7.45711C215.519 8.0952 215.156 10.9076 215.112 11.4819C215.058 12.1678 215.069 12.6501 215.755 12.7033C215.946 12.7181 216.193 12.6409 216.326 12.587C216.393 12.5441 216.476 12.5184 216.542 12.4914C216.59 12.4952 216.618 12.5455 216.613 12.6093C216.581 13.024 215.888 13.8851 214.756 13.7973C213.751 13.7194 213.614 13.0026 213.689 12.0296C213.745 11.3117 214.182 8.15208 214.233 7.49804C214.31 6.50901 214.105 5.83518 213.419 5.782C212.653 5.72264 211.579 6.53805 210.839 7.604C210.621 10.4116 210.519 11.7197 210.239 12.6447C210.108 13.0999 209.603 13.3978 209.332 13.3768C208.933 13.3459 208.854 12.2966 208.891 11.8181C208.948 11.0843 209.085 10.7579 209.259 10.3862C209.316 10.2623 209.458 8.84504 209.465 8.76528C209.503 8.27077 209.574 6.52704 209.459 6.14901C209.448 6.08396 209.253 5.49114 208.615 5.44167C208.041 5.39715 207.4 5.5882 206.268 6.94475C206.194 7.27603 206.191 7.30794 206.138 7.99388C206.112 8.32887 205.983 9.79523 205.959 10.0983C205.947 10.2578 205.972 10.9659 205.961 11.1095C205.907 11.8114 205.567 13.085 204.833 13.0281C204.179 12.9774 204.278 11.7012 204.302 11.3981C204.342 10.8717 204.379 10.8103 204.598 10.2656C204.698 10.0166 204.703 9.95277 204.711 9.8411C204.735 9.53801 204.904 8.18703 204.925 7.91584C205.17 4.75732 205.06 4.71676 203.792 4.3135C204.087 3.82282 204.897 3.72513 205.216 3.74986C206.125 3.82035 206.275 4.36161 206.346 4.68808C206.379 4.88321 206.343 5.76305 206.346 5.93976Z" fill="white"/>
<path d="M192.666 3.79824C192.822 3.45142 192.909 3.2463 193.501 3.26671C194.604 3.30478 195.217 4.11039 195.202 4.54213C195.196 4.70203 194.949 5.36591 194.912 5.50872C194.722 6.38268 194.557 7.9299 194.537 8.50555C194.465 10.5843 194.85 11.4781 196.21 11.525C198.4 11.6006 199.126 9.12817 199.131 8.96827C199.212 6.63366 199.237 6.37836 199.395 5.05501C199.482 4.36963 199.485 4.28968 199.587 4.11709C199.809 3.7245 200.216 3.51443 200.568 3.52657C200.984 3.54091 200.978 4.16509 200.968 4.46891C200.947 5.07655 200.672 7.00423 200.522 7.63943C200.391 8.17925 200.389 8.2592 200.366 8.91481C200.283 11.3134 200.407 11.894 201.111 11.9183C201.207 11.9216 201.613 11.7595 201.693 11.7622C201.757 11.7645 201.835 11.8152 201.83 11.9431C201.816 12.3589 201.176 12.8171 200.456 12.7922C199.097 12.7453 199.141 11.4661 199.187 10.6192C198.646 11.433 197.802 12.7006 195.915 12.6355C195.499 12.6212 193.967 12.4883 193.488 11.0629C193.285 10.4475 193.296 9.19918 193.32 8.51159C193.33 8.22376 193.507 5.87647 193.557 5.3339C193.561 5.22197 193.625 4.7599 193.629 4.66396C193.651 4.02434 193.063 3.89199 192.666 3.79824Z" fill="white"/>
<path d="M183.2 9.01256C182.816 8.99656 182.384 9.41255 182.384 9.98855C182.384 10.8526 183.616 11.4286 185.472 11.4286C188.992 11.4286 189.312 9.71655 189.312 9.10855C189.312 7.58855 188.128 7.33255 185.952 6.85255C183.168 6.24455 180.944 5.74855 180.944 3.49255C180.944 1.71655 182.496 0.212555 185.792 0.212555C189.072 0.212555 190.32 1.54056 190.32 2.62855C190.32 2.96455 190.144 3.95655 189.184 3.95655C189.04 3.95655 188.4 3.95655 188.08 3.22055C188.336 3.25255 188.736 3.06055 188.736 2.58055C188.736 1.41255 187.072 1.18855 185.968 1.18855C183.296 1.18855 182.304 2.38855 182.304 3.38056C182.304 4.66055 183.568 4.94855 186.368 5.60455C188.672 6.13256 190.672 6.59655 190.672 9.01256C190.672 12.2606 186.896 12.5006 185.44 12.5006C182.752 12.5006 180.8 11.4286 180.8 9.84455C180.8 8.93255 181.392 8.29255 182.144 8.29255C182.784 8.29255 183.072 8.70856 183.2 9.01256Z" fill="white"/>
<path d="M166.955 10.193C166.752 10.2999 166.441 10.4767 166.469 11.004C166.52 11.9626 167.699 12.1401 168.977 12.072C170.655 11.9827 171.349 11.1766 171.302 10.2978C171.246 9.24334 170.453 9.09332 168.752 8.75131C165.853 8.16872 164.881 7.96415 164.801 6.46228C164.758 5.64744 165.176 3.87867 168.515 3.70077C171.088 3.56372 171.986 4.49323 172.029 5.2921C172.063 5.93119 171.654 6.36958 171.159 6.39597C171.063 6.40108 170.519 6.43002 170.004 6.07295C170.256 5.99542 170.507 5.90191 170.484 5.47053C170.445 4.73557 169.296 4.52439 168.481 4.5678C167.731 4.60781 166.156 4.83587 166.225 6.13004C166.26 6.78511 166.62 6.92616 168.434 7.29416C170.783 7.7619 171.285 7.86333 171.923 8.40617C172.308 8.72212 172.703 9.22979 172.745 10.0127C172.826 11.5305 171.533 12.8172 168.737 12.9661C166.771 13.0708 164.952 12.6069 164.876 11.169C164.85 10.6897 165.061 9.84522 165.988 9.79585C166.563 9.76521 166.785 10.0098 166.955 10.193Z" fill="white"/>
<path d="M157.189 0.00375156C157.763 -0.0436256 158.342 0.358111 158.411 1.18729C158.558 2.97322 157.352 3.92363 157.033 3.94995C156.922 3.95916 156.786 3.87402 156.776 3.74645C156.765 3.61888 157.196 3.19802 157.252 3.09708C157.436 2.79295 157.425 2.47272 157.421 2.42488C157.401 2.18569 157.368 2.17238 157.223 2.16828C156.659 2.13461 156.238 1.70377 156.194 1.17756C156.144 0.571615 156.599 0.0524447 157.189 0.00375156Z" fill="white"/>
<path d="M144.204 13.262C144.555 13.2366 144.747 13.0851 144.757 12.3588C144.768 12.1803 144.145 5.4066 144.056 4.51491C143.719 4.1197 143.413 3.97871 142.837 4.01454C143.124 3.44887 143.556 3.01119 144.207 2.93421C145.05 2.83468 145.122 3.03561 145.284 3.45148C145.377 3.6982 145.413 3.72623 145.663 3.93828C145.807 4.06626 146.262 4.64088 146.481 4.85669C147.429 5.79186 149.363 7.70611 150.13 8.46938C150.824 9.16072 151.976 10.1846 152.682 10.8423C152.791 10.9422 152.846 11.0001 153.327 11.3944C153.204 10.6195 153.055 9.76713 152.835 7.90807C152.585 5.79477 152.359 3.74316 151.998 3.14138C151.899 2.99188 151.59 2.69012 151.07 2.65487C151.271 2.30892 151.501 2.07231 151.834 2.03288C151.962 2.01785 153.725 2.21229 153.83 3.1021C153.847 3.2451 153.708 3.84153 153.691 3.97241C153.585 4.70996 153.809 6.74569 153.909 7.58783C154.006 8.41408 154.189 9.82636 154.707 12.5686C154.738 12.6938 154.791 13.0097 154.815 13.2163C154.889 13.836 154.405 14.1026 153.96 14.1552C153.578 14.2003 153.569 14.1208 153.508 13.7414C153.462 13.489 153.389 13.4171 152.85 12.8042C151.94 11.7839 146.448 6.48781 145.281 5.33684C145.313 6.70246 146.111 12.9077 146.055 13.9294C145.994 14.9193 145.491 15.1561 145.252 15.1842C144.903 15.2255 144.678 14.9621 144.545 14.6555C144.456 14.4406 144.421 14.2836 144.204 13.262Z" fill="white"/>
<path d="M137.32 11.3833C137.03 11.4961 135.828 11.9709 135.583 12.0601C134.788 12.3539 134.296 12.5164 133.836 12.6737C133.561 13.6598 133.469 13.886 132.699 15.9921C132.361 16.8913 132.229 17.2699 131.803 17.3405C131.645 17.3666 130.911 17.3422 130.304 16.5182C130.483 16.521 130.596 16.5185 130.691 16.5028C131.133 16.4296 131.428 15.7645 131.595 15.3964C132.103 14.258 132.146 14.1213 132.592 12.896C132.215 12.8772 131.524 12.8133 131.096 11.5055C131.956 11.6064 132.069 11.6039 133.027 11.5102C133.323 10.6504 134.194 7.39231 134.279 6.63222C134.232 6.54274 134.014 6.20582 133.946 6.08738C133.901 6.01368 133.877 5.96894 133.859 5.85844C133.715 4.99026 134.863 4.37861 134.958 4.36293C135.021 4.35248 135.123 4.38416 135.173 4.3921C135.041 4.57609 134.986 4.82854 135.023 5.04953C135.187 6.044 137.503 9.65012 139.502 12.2222C141.459 14.7363 142.059 14.8316 142.524 14.9005C142.211 15.3579 141.337 15.762 141.006 15.8169C140.627 15.8796 140.306 15.511 140.12 15.2662C139.773 14.8371 138.05 12.4626 137.32 11.3833ZM136.805 10.6252C135.778 9.02749 135.739 8.98536 135.085 7.77994C134.895 8.68722 134.483 10.1177 134.259 11.0144C134.253 11.0802 134.224 11.1985 134.203 11.2669C135.271 11.0576 135.395 11.0209 136.805 10.6252Z" fill="white"/>
<path d="M125.86 12.5499L125.823 12.3779C124.165 12.7368 122.535 13.2209 121.845 13.4358C121.429 13.5585 119.391 14.2781 119.263 14.2896C119.354 14.7118 119.782 16.5346 119.873 16.9568C120.202 18.4737 120.239 18.6457 120.196 18.9006C120.1 19.5925 119.765 19.8614 119.687 19.8783C119.531 19.9122 118.75 19.3283 118.587 18.5777C118.557 18.437 118.709 17.7818 118.698 17.6533C118.674 17.1673 118.236 15.0684 118.176 14.6395C117.062 14.6352 116.457 14.1112 116.371 13.1806C116.859 13.3203 117.293 13.3574 117.887 13.2287C117.771 12.6154 117.651 11.9866 117.515 11.361C116.991 8.93723 116.636 8.73573 115.818 8.8146C115.947 8.42655 116.43 8.01092 116.743 7.9432C117.337 7.81452 118.28 8.31423 118.385 8.799C118.419 8.95537 118.434 9.70518 118.464 9.84592C118.526 10.5856 118.6 11.0771 119.021 13.0977C119.396 13.0165 125.052 11.4643 125.271 11.4169L125.599 11.3458C125.511 10.9392 125.103 9.12867 125.022 8.75337C124.841 7.84301 124.665 7.02985 123.323 7.10763C123.52 6.65573 124.233 6.32118 124.467 6.27039C124.843 6.18912 126.055 6.41782 126.237 7.26225C126.285 7.48117 126.257 7.88018 126.232 8.29482C126.191 8.71285 126.53 10.2766 126.537 10.3079C126.713 11.121 127.368 13.8441 127.422 14.0943C127.512 14.4349 127.916 15.9192 127.98 16.2163C128.281 17.608 127.506 18.1852 127.224 18.2462C127.068 18.28 126.879 18.2391 126.798 18.0929C126.637 17.8004 126.297 17.1374 125.394 16.9728C124.88 16.8711 124.83 16.8657 124.796 16.7093C124.766 16.5685 124.762 16.5529 124.841 16.536C124.919 16.519 125.286 16.554 125.365 16.5371C125.462 16.5324 125.972 16.4709 126.191 16.4235C126.473 16.3626 126.561 16.1635 126.462 15.71C126.354 15.2096 125.955 12.9878 125.86 12.5499Z" fill="white"/>
<path d="M109.846 10.4555C109.807 9.98627 110.021 9.60005 110.485 9.47922C110.656 9.43491 112.489 9.23899 112.775 10.3384C112.807 10.4623 112.716 10.9987 112.728 11.1111C112.771 11.5298 113.112 13.1604 113.547 14.8327C113.688 15.3747 114.784 19.5866 114.817 19.7764C114.982 20.8576 114.477 21.1379 114.353 21.1701C113.888 21.2909 113.364 20.4848 113.207 19.8809C113.147 19.6487 113.145 18.6242 113.108 18.4188C113.024 17.7793 111.985 13.7842 111.776 12.979C111.208 10.7957 111.091 10.3466 109.846 10.4555Z" fill="white"/>
<path d="M97.918 13.5374C98.2027 13.6531 98.664 13.6328 99.0321 13.5234C99.5689 13.3639 99.7439 13.2785 101.197 12.496C102.172 11.956 102.798 11.7032 103.35 11.5391C105.236 10.9784 107.452 11.6385 108.031 13.5863C108.304 14.5065 108.313 15.9395 106.644 17.1198C106.177 17.4588 105.967 17.538 104.025 18.2487C104.647 18.5982 107.464 20.0475 108.02 20.3999C109.294 21.2062 109.586 21.1196 109.969 21.0056C110.046 20.9828 110.354 20.8411 110.415 20.8229C110.599 20.7682 110.66 20.917 110.67 20.9477C110.783 21.3311 109.78 22.4473 109.105 22.6478C108.737 22.7572 108.524 22.6034 108.194 22.3344C106.857 21.2628 104.475 19.6506 103.52 19.3003C103.235 19.1846 103.03 19.112 102.962 18.882C102.784 18.2839 103.339 17.401 103.661 17.3053C103.707 17.2916 103.96 17.2999 104.006 17.2862C104.342 17.2365 104.419 17.2137 104.495 17.1909C106.52 16.5892 106.973 14.969 106.668 13.9414C106.485 13.3279 105.642 11.8929 103.356 12.5721C102.896 12.7088 102.364 12.8837 100.581 14.1312C99.9597 14.5664 99.8921 14.6198 99.7234 14.67C99.11 14.8523 98.0812 14.4236 97.8989 13.8102C97.8806 13.7488 97.8624 13.6875 97.918 13.5374ZM99.2329 16.5016C99.1588 16.1398 99.6715 15.7871 100.024 15.6822C100.116 15.6549 100.76 15.4634 101.156 16.0636C101.363 16.3692 101.953 18.297 102.085 18.7418C103.243 22.6374 103.415 24.339 102.633 24.5714C102.05 24.7446 101.39 23.4219 101.353 23.2992C101.312 23.1612 101.349 23.1168 101.508 22.9195C101.735 22.6182 101.714 22.491 101.535 21.7763C101.077 19.8427 101.013 19.6279 100.676 18.493C100.125 16.6372 100.024 16.2998 99.2329 16.5016Z" fill="white"/>
<path d="M87.7648 18.4784C87.743 18.4182 87.6953 18.3334 87.668 18.2582C87.3954 17.5061 88.7088 16.4344 90.0025 15.9655C92.2137 15.1641 96.0436 15.4948 97.6302 19.8722C98.9604 23.5425 96.8521 26.5531 93.9339 27.6108C90.5192 28.8484 87.3567 26.9313 86.3045 24.0281C85.3449 21.3806 86.5453 18.6821 87.2372 18.4313C87.3726 18.3823 87.4136 18.4015 87.7648 18.4784ZM87.9506 18.6153C88.1117 18.7781 88.1745 18.8575 88.2236 18.9928C88.3163 19.2486 88.2629 19.336 87.7822 20.1229C86.8689 21.5941 87.4195 23.1134 87.5231 23.3992C88.2373 25.3698 89.2429 25.8903 89.6637 26.1122C90.9056 26.7683 92.375 26.8314 93.6386 26.3734C96.286 25.4138 97.5779 22.7332 96.6075 20.0556C95.8496 17.9647 93.5073 16.0567 90.5439 17.1307C89.6865 17.4415 89.4197 17.6914 88.7095 18.4083C88.6944 18.4137 88.4468 18.6226 88.3866 18.6444C88.2813 18.6826 88.0777 18.6373 87.9506 18.6153Z" fill="white"/>
<path d="M73.0878 34.4573C73.1448 34.4666 73.252 34.4706 73.4268 34.3911C73.6453 34.2918 73.8492 34.1991 73.5988 32.4499C73.3948 30.9959 72.7035 27.8127 72.2466 26.421C71.5844 25.5444 70.9091 25.2187 70.7012 25.2253C70.386 25.228 70.1808 25.3565 69.9981 25.4571C69.8762 24.4931 70.6336 24.1488 70.8229 24.0627C71.3036 23.8442 71.8849 23.8084 72.2054 24.2427C72.9337 25.2649 73.8395 26.3295 76.6177 28.4586C78.0797 29.5868 78.2889 29.7377 78.5948 29.5987C79.2939 29.2808 80.128 25.7029 79.9702 22.2243C79.471 21.3967 79.2763 21.2391 78.4315 21.4299C78.4672 21.0445 78.6592 20.5003 79.0962 20.3016C79.3001 20.2089 80.3462 19.997 80.6772 20.7253C80.7103 20.7981 80.7474 21.1503 80.7739 21.2086C80.9262 21.5436 86.0207 28.8064 86.312 29.4473C86.5703 30.0154 86.4538 30.455 86.177 30.5808C85.7692 30.7662 84.6648 30.038 84.4595 29.5864C84.433 29.5282 84.441 29.507 84.4277 29.2845C84.4251 29.1627 84.4079 29.0475 84.3019 28.8145C83.8252 27.7657 81.5699 24.4673 80.8694 23.4676C80.8881 26.2537 80.2222 30.5109 79.057 31.0407C78.5909 31.2525 78.0692 31.0328 77.2667 30.4661C75.3121 29.1049 74.5428 28.4177 73.4489 27.4035C73.5867 27.9384 74.5628 31.748 74.6105 32.0075C75.0489 34.0931 75.2092 35.5669 74.5537 35.8648C73.8109 36.2025 73.0865 34.4931 73.0878 34.4573Z" fill="white"/>
<g filter="url(#filter0_d_1_73)">
<path d="M159.603 71.4911L162.795 72.8211C163.251 73.0111 163.365 73.1251 163.593 73.5431C163.403 73.6951 163.289 73.7711 162.947 73.8091L159.717 74.1511C159.565 74.1891 157.209 74.3031 156.677 73.9611C156.563 73.8851 155.917 73.3911 155.537 73.1251C155.043 72.7831 153.029 71.1111 152.611 70.8451L150.255 68.5271L148.963 67.0831C148.849 68.3751 148.621 71.6051 148.621 72.2891C148.621 73.4291 148.241 74.9111 147.595 74.9111C146.683 74.9111 146.607 73.8851 146.569 72.9351C146.531 72.8211 146.341 72.2891 146.341 72.1371C146.341 72.0991 146.455 71.6811 146.493 71.6051C146.531 71.4911 146.683 67.8051 146.645 67.4251C146.151 67.6531 145.847 68.0711 145.049 69.1351C144.783 69.5151 143.035 70.6551 142.731 70.9211C142.655 70.9971 142.313 71.4531 142.237 71.5291C142.123 71.6051 142.085 71.6051 141.629 71.7951C141.477 71.8711 140.907 72.4411 140.793 72.5171C140.489 72.7451 138.741 73.7331 138.513 73.7711C138.513 73.8091 137.411 74.3411 137.221 74.4171C136.879 74.5311 135.473 75.2151 135.169 75.2151C134.865 75.2151 133.573 75.4051 133.307 75.4431L133.269 75.2911C133.459 75.2151 134.295 74.9111 134.447 74.8351C135.511 74.2651 138.779 72.3651 142.237 69.1351C143.225 68.1851 144.137 67.3491 144.441 66.5131C144.175 66.4371 143.453 66.7411 142.389 67.0831C142.237 67.1211 141.515 67.3871 141.477 67.3871C140.831 67.8051 140.755 67.8431 140.489 67.8431C140.033 67.8431 139.805 67.7291 139.083 67.3871C139.007 67.3491 138.627 67.0451 138.551 67.0071C137.145 66.2471 136.993 66.1711 136.689 65.9051L136.803 65.7911C137.107 65.7531 137.221 65.7151 137.449 65.7151C137.525 65.7151 138.323 65.8291 138.513 65.8291C138.703 65.8291 145.543 64.7651 146.303 64.6131C146.379 64.3851 146.455 63.3971 146.455 63.2071C146.455 63.1691 146.265 60.2051 146.265 60.0911L144.935 58.8751C145.087 58.7611 145.125 58.7231 145.277 58.7231C145.505 58.7231 147.671 58.9511 147.823 59.0271C149.153 59.8251 149.951 60.2811 149.951 61.0411C149.951 61.2311 149.913 61.3451 149.533 62.1811C149.495 62.2571 149.191 63.7011 149.191 63.9291C149.191 64.0051 149.267 64.0811 149.305 64.1191L152.763 63.6631C153.181 63.6251 155.005 63.2071 155.385 63.2071C155.841 63.2071 158.235 63.4731 158.235 64.7651C158.235 65.0691 157.817 65.4491 157.741 65.5251C157.399 65.6391 157.133 65.7531 156.829 65.7531C156.715 65.7531 156.145 65.6391 156.031 65.6391C155.537 65.6391 155.499 65.6391 155.043 65.4491C154.853 65.4111 154.549 65.2971 153.485 65.2971C152.915 65.2971 150.331 65.6391 149.799 65.6771C150.141 66.0571 153.143 68.4511 154.397 69.0971C154.549 69.2111 155.157 69.6671 155.309 69.7051C155.803 69.9711 158.159 70.8831 158.615 71.1111C158.767 71.1491 159.451 71.4151 159.603 71.4911ZM134.903 86.8811L137.031 84.2591C138.969 81.8651 139.425 81.2951 139.805 80.0791C139.349 80.0791 137.487 80.9911 137.107 81.1431C136.879 81.4851 136.727 81.6751 136.271 81.6751C135.587 81.6751 135.093 81.6371 132.547 80.0411V79.8511C133.725 79.4711 133.763 79.4711 135.359 79.4331C135.967 79.4331 139.995 78.1791 140.223 78.1031C140.299 77.8371 140.299 75.9371 140.299 75.7091C140.299 75.2911 140.261 75.0251 139.767 74.7591C139.121 74.4171 139.083 74.3791 138.817 73.9231L139.007 73.8851C139.273 73.9231 140.451 73.7711 140.717 73.7711C140.793 73.7711 142.503 74.3791 142.541 74.3791C142.845 74.5691 143.035 74.8351 143.035 75.1391C143.035 75.5571 142.845 75.8611 142.693 76.0891L142.617 77.2291C142.921 77.2671 144.137 77.0771 144.403 77.0771C145.163 77.0771 145.277 77.7991 145.391 78.3311C146.075 78.4071 146.949 78.3311 147.367 78.2171C147.899 78.0651 150.331 77.4191 150.559 77.3431C150.597 76.8871 150.673 73.8091 150.179 73.3531C149.951 73.1631 149.609 72.7831 149.343 72.5171C149.305 72.4411 149.343 72.3271 149.343 72.2131C150.179 72.0611 150.521 72.0231 150.749 72.0231C151.015 72.0231 152.535 72.6311 152.763 72.7831C153.333 73.0871 153.637 73.5811 153.637 74.1131C153.637 74.3411 153.295 75.1771 153.295 75.3291C153.257 75.4051 153.181 76.6971 153.181 76.7731C153.599 76.8111 155.765 76.3931 155.803 76.3551C156.677 75.8991 158.083 75.8991 158.159 75.8991C158.577 75.8991 160.249 76.3931 160.249 77.3431C160.249 77.5711 160.173 77.7231 159.983 77.9511C159.755 78.0271 158.843 78.3691 158.615 78.3691C158.387 78.3691 157.323 78.4831 157.133 78.4831C156.867 78.4831 155.157 78.4451 155.005 78.4451C154.625 78.4831 153.675 78.5971 153.105 78.6731C153.067 78.7491 153.029 78.8251 153.029 78.9011C153.029 79.3571 153.029 79.3951 155.385 82.2451C156.373 83.4611 158.273 84.9431 159.755 85.8171C160.021 85.9691 161.161 86.8051 161.389 86.9571C161.845 87.1851 165.113 89.6931 165.265 89.8451C165.721 90.1871 166.139 90.7571 166.063 91.3651C165.759 91.4791 165.569 91.5171 165.151 91.5171C164.961 91.5171 161.389 91.1751 161.237 91.1371C160.971 90.9851 158.463 88.8951 158.045 88.2491C157.969 88.1731 157.627 87.7931 154.549 84.5251C154.017 83.9551 153.561 83.2711 153.257 82.5491L153.029 82.2831C152.953 82.4351 152.877 82.5491 152.877 82.6631C152.877 83.0811 152.839 84.9051 152.839 85.2851V89.8831C152.839 89.9971 152.877 90.4531 152.877 90.5291V93.5311C152.801 93.7591 152.611 94.2151 152.193 94.2151C151.927 94.2151 151.813 94.1771 150.977 93.7591C150.673 92.9611 150.065 91.4791 150.065 90.5671C150.065 90.3391 150.445 89.2751 150.445 89.0471C150.483 88.5911 150.521 88.5151 150.673 87.9831C150.673 87.9451 150.673 87.4891 150.711 87.0711C150.711 86.6911 150.901 84.7151 150.901 84.6011V82.8531C150.901 82.6251 150.787 82.3591 150.787 82.2831L150.635 82.3211C150.179 83.1951 149.533 83.8411 148.887 84.4871C148.583 84.7531 147.557 86.1211 147.291 86.3871C146.873 86.8051 145.353 88.2491 144.935 88.4391C144.441 88.6671 144.403 88.7051 143.985 89.0091C143.719 89.1991 142.655 89.6171 141.895 89.8831C141.819 90.2631 141.477 92.3151 141.363 92.5431C141.173 92.6571 140.489 93.1131 140.451 93.1131C140.223 93.1131 139.995 92.9231 139.881 92.7331C139.653 92.4671 139.197 90.9091 139.083 90.6051C139.691 89.8071 139.919 86.6911 139.919 86.2731C139.919 85.8551 140.033 84.0691 140.033 83.6891L139.843 83.7651C139.729 83.9931 139.159 85.0191 139.045 85.2091C138.969 85.3231 138.513 85.7791 138.437 85.8551C138.247 86.0451 137.677 86.9951 137.525 87.1471C137.031 87.6411 134.789 89.6171 134.219 89.8451C134.105 90.1871 132.243 91.0231 131.293 91.0231C131.027 91.0231 129.887 91.0231 129.887 90.6811C129.887 90.4151 130.305 90.4911 130.381 90.5291C130.533 90.4531 130.571 90.4531 130.685 90.3011C131.863 90.0731 133.991 88.0211 134.903 86.8811ZM143.681 84.1831L142.237 83.0431L142.161 83.0811C142.085 83.3091 141.933 83.8411 141.933 84.1451C141.933 84.1831 142.009 85.2851 142.009 85.3231C142.009 85.3991 141.933 85.7411 141.933 85.8171C141.933 86.1971 142.047 87.8691 142.047 88.2111C142.047 88.3251 141.857 88.8571 141.857 88.9711C141.857 89.0471 141.857 89.0471 141.933 89.3131C142.959 89.1991 145.657 85.9311 146.227 84.9811C146.759 84.1071 147.215 83.3091 149.229 80.4971C149.381 80.3071 149.723 79.8131 149.723 79.6611C149.723 79.4331 149.457 79.3951 149.343 79.3951C149.115 79.3951 148.203 79.8891 148.165 79.8891C147.595 79.8891 145.581 78.9391 145.125 78.5971C144.707 78.7491 142.807 79.0151 142.427 79.1291C142.275 79.4711 142.161 81.0671 142.161 81.1811C142.427 81.3711 143.757 81.5611 143.985 81.6751C144.593 81.9031 146.151 82.7771 146.151 83.8031C146.151 84.4111 145.467 84.6771 145.201 84.6771C144.973 84.6771 144.327 84.5251 143.681 84.1831ZM186.203 71.7951L186.241 69.5151L186.165 66.0951V65.2591C186.165 62.9791 186.127 62.7131 186.013 61.8771C185.937 61.8011 185.595 61.3071 185.481 61.2311C185.025 60.8891 184.151 60.6231 183.695 60.2811C183.581 60.1671 183.505 60.0151 183.391 59.6351C183.657 59.5211 183.771 59.5211 184.531 59.4831C184.645 59.4831 185.253 59.2931 185.367 59.2931C185.671 59.2931 187.381 59.2931 187.571 59.4071C187.685 59.4831 188.255 59.9771 188.331 60.0151C189.205 60.4711 189.319 60.5091 189.547 60.8131C190.003 61.1171 190.649 61.6871 190.649 62.2571C190.649 62.4851 190.611 62.5611 190.117 63.3591C189.889 63.7391 189.585 64.5751 189.585 65.4871C189.585 66.5131 189.547 67.8051 189.547 68.8691C189.547 69.0211 189.395 69.7811 189.395 69.8571C189.395 70.0471 189.433 71.0351 189.433 71.2251C189.585 71.2631 189.699 71.3011 189.813 71.3011C190.535 71.3011 193.575 70.8451 194.525 70.5411C194.715 70.5031 195.399 69.9331 195.551 69.9331C195.589 69.9331 197.451 70.2751 198.097 70.6171C198.515 70.8451 199.085 71.2631 199.085 71.7951C199.085 71.8331 198.401 72.8591 198.021 72.8971C197.755 72.9351 197.261 72.9731 196.691 72.9731C196.273 72.9731 194.601 72.8971 194.259 72.8971C194.221 72.8971 190.459 73.3531 190.307 73.3531C189.433 73.5051 189.433 73.5811 189.433 74.3031L189.357 78.5591C189.357 78.6351 189.585 78.6351 189.623 78.6351C189.699 78.6351 190.573 78.5971 190.763 78.5971C192.511 78.5971 193.955 78.4831 194.563 78.4451C195.247 78.4071 198.287 78.0271 198.933 78.0271C199.845 78.0271 199.921 78.0271 200.149 77.9891C200.491 77.6091 200.567 77.6091 200.757 77.6091C201.707 77.6091 201.859 77.6851 204.025 78.9391C204.443 79.2051 205.355 79.8511 205.355 80.2691C205.355 80.3071 204.975 81.3711 204.937 81.4091C204.785 81.5991 204.177 81.6751 203.911 81.6751C203.455 81.6751 200.719 80.9531 200.111 80.9151C199.503 80.8391 196.311 80.6111 195.931 80.6111H192.207C191.865 80.6111 190.383 80.8011 190.079 80.8011C189.699 80.8011 189.661 80.8011 189.547 80.9151L189.357 84.9051C189.319 85.4751 188.977 87.9071 188.939 88.4011C188.939 88.7811 188.559 90.3391 188.559 90.6811C188.445 91.9731 188.331 93.1131 187.229 93.9871C186.735 93.6831 186.583 93.6071 186.507 92.0871C186.469 91.4411 186.469 91.2511 186.507 90.6431L186.241 85.0951C186.241 84.7911 186.165 82.9291 186.279 81.4471L186.203 81.3331C186.089 81.3331 179.325 82.3211 177.083 82.9291C176.931 82.9671 175.677 83.7271 175.373 83.7271C173.245 83.7271 170.623 81.7131 170.433 81.4851C170.547 81.2571 170.623 81.2191 170.889 81.2191C171.003 81.2191 171.611 81.3331 171.725 81.3331C172.181 81.3331 174.499 80.7251 175.031 80.6491C176.247 80.5351 181.491 79.5471 182.593 79.4331C183.049 79.3951 186.089 79.0531 186.127 79.0531C186.203 78.9771 186.241 78.8631 186.241 78.7491C186.241 78.0271 186.203 74.7971 186.165 74.0371C184.759 74.1511 183.961 74.2271 182.859 74.7211C182.707 74.7971 181.757 74.8351 181.605 74.8731C181.491 74.9111 180.085 75.3671 180.047 75.3671C179.971 75.3671 179.857 75.3291 179.591 75.1771C179.249 75.2531 179.097 75.2911 179.021 75.2911C178.641 75.2911 177.463 74.7211 176.133 74.0371C175.639 73.8091 175.601 73.7711 175.487 73.3151C175.639 73.2771 175.753 73.2391 175.943 73.2391C178.299 73.2391 178.565 73.2391 180.959 72.7071C181.757 72.5551 185.519 72.1371 186.203 71.7951ZM175.145 64.8411C175.183 64.7271 175.183 64.5371 175.335 64.4611C175.601 64.3851 177.197 64.3471 177.539 64.3471C179.591 64.3471 180.237 65.0311 181.149 65.9811C181.567 66.3991 182.555 68.1471 182.821 70.1611C182.859 70.2371 183.087 70.7691 183.087 70.8831C183.087 71.1871 183.049 71.7571 182.745 71.9851C182.593 72.0231 182.441 72.0611 182.403 72.0611C182.137 72.0611 180.883 71.4151 180.655 71.1491C180.389 70.8451 179.477 69.4771 179.249 69.2491C179.211 69.1731 177.995 66.7411 177.691 66.2851C177.273 65.9051 176.779 65.5251 176.209 65.4111C175.563 65.2591 175.487 65.2211 175.145 64.8411ZM190.763 69.0971L190.801 68.9451C191.713 68.4131 195.095 64.8031 195.361 63.4351C194.677 62.6371 194.601 62.5611 194.259 62.2571C194.145 62.1811 194.107 62.1051 194.145 61.9151C194.373 61.8391 194.525 61.8011 194.791 61.8011C196.121 61.8011 196.729 61.8011 198.743 63.1691C199.123 63.4351 199.465 63.9671 199.465 64.4231C199.465 64.8031 199.351 64.8791 198.135 65.4491C197.413 65.7911 197.299 65.8291 196.919 66.2851C196.843 66.3991 195.323 67.4251 195.019 67.6531C194.259 68.2611 194.183 68.2991 193.689 68.4511C193.537 68.4891 192.853 68.9831 192.663 69.0211C191.637 69.3631 191.257 69.3251 190.877 69.2491L190.763 69.0971ZM225.659 71.6811L223.873 75.1011L222.125 78.3311C221.137 80.1931 220.149 82.0551 218.705 83.6131C218.553 83.8031 217.869 84.6771 217.717 84.8291C217.489 85.0571 216.577 86.1211 216.349 86.2731C215.969 86.5011 214.791 86.9191 214.563 86.9191C214.183 86.9191 213.879 86.3871 213.727 86.1971C213.651 86.0071 213.081 83.8791 212.929 83.4611L211.371 79.6231C211.295 79.3571 210.763 77.6471 210.763 77.4571C210.763 77.1911 210.839 75.2151 211.903 73.7331C214.221 70.4271 215.285 68.9451 218.667 67.0071C220.909 65.7151 224.367 64.7271 224.481 64.7271L227.407 64.2711C228.319 64.1191 231.055 64.5371 232.879 65.4111C235.539 66.7031 235.577 66.7411 237.819 69.6671C238.389 70.3891 239.909 73.6951 239.909 75.8991C239.909 78.3311 239.947 78.9391 239.263 81.4091C238.921 82.6631 236.983 85.5511 234.589 87.0331C233.069 87.9831 230.827 89.3511 229.991 89.4271C229.763 89.4271 228.851 89.5791 228.623 89.5791C228.509 89.5791 228.395 89.5791 228.167 89.3511C228.167 88.8191 228.319 88.7431 229.497 88.0211C229.611 87.9451 232.309 85.6651 234.057 83.0811C235.045 81.5991 236.831 77.9511 236.831 75.5951C236.831 74.1131 236.831 72.2511 234.589 69.0591C233.601 67.6911 232.119 66.7411 230.485 66.2851C230.371 66.2471 228.357 66.0571 227.939 66.0571C227.673 66.0571 225.773 66.2851 225.317 66.3231C224.747 66.3611 224.595 66.5131 224.367 66.7031C224.405 66.9311 224.405 67.0451 224.595 67.1591C226.533 68.7171 226.951 69.0591 226.951 69.7811C226.951 70.1231 225.735 71.4911 225.659 71.6811ZM212.625 76.9251C213.043 79.0911 215.589 81.5231 216.197 81.5231C217.071 81.5231 219.427 77.0771 219.845 76.0511C220.111 75.4051 221.517 72.5171 221.707 71.9091C221.935 71.1871 222.467 69.4771 222.467 68.8311C222.467 68.2231 221.555 67.9571 221.403 67.9571C220.301 67.9571 216.083 70.8071 214.411 72.9351C213.841 73.6571 212.435 75.8231 212.625 76.9251Z" fill="white"/>
</g>
<g filter="url(#filter1_d_1_73)">
<path d="M31.1 119.859L31.65 119.609C33.6 119.509 35.35 123.709 35.35 124.559C35.35 124.859 35.4 126.509 35.4 126.559C35.35 126.859 35.15 128.109 35.15 128.359C35.15 128.659 35.3 128.759 35.45 128.859C35.55 128.909 36.15 129.159 36.3 129.209C38.2 129.159 39.45 130.259 39.45 130.909C39.45 131.309 39.3 131.409 38.55 132.109C38.45 132.159 38.15 132.659 38.05 132.759C37.35 133.309 35.95 133.709 35.15 134.109C34.3 134.509 34.25 134.759 34.2 135.159C34.15 135.359 33.85 136.259 33.85 136.459L33.5 141.459C33.45 142.009 33.35 143.509 33.35 143.959C33.35 144.409 33.45 144.509 33.65 144.559C34.2 144.459 36.6 143.359 37.1 143.209C39.35 142.509 43.6 141.359 45.8 141.359C46.7 141.359 49.2 141.359 51.65 143.009C54.55 144.909 55.35 149.259 55.35 150.309C55.35 153.409 54.1 156.409 51.75 158.459C49.25 160.709 44.55 161.609 43.7 161.609C43.2 161.609 42.4 161.359 42.4 160.859C42.4 160.609 42.5 160.509 43.15 160.209C45.15 159.309 48 156.509 49.5 154.259C49.95 153.609 51.3 150.709 51.3 149.459C51.3 149.359 51.25 146.709 49.15 145.109C47.9 144.159 45.9 143.859 44.45 143.859C43.2 143.859 38 144.959 35.65 146.009C35.25 146.209 33.65 147.159 33.3 147.359L33.1 147.759L32.3 154.459C31.85 158.209 31 159.709 29.65 161.509C29.35 161.859 28.05 162.309 28 162.309C27.7 162.159 26.2 161.709 25.3 160.709C24.75 160.059 21.85 156.609 21.85 156.559C21.6 156.159 20.35 154.459 20 153.909C20.05 153.259 20.4 153.059 23.65 151.009C23.8 150.909 26.5 148.759 27.1 148.409C27.55 148.109 29.85 146.959 30.05 146.509C30.3 146.009 30.35 145.759 30.4 143.459C30.45 142.359 30.65 137.609 30.65 136.659C30.65 136.459 30.65 135.859 30.35 135.759C30.25 135.709 26.25 134.409 25.25 133.109C24.95 132.809 24.5 131.909 24.5 131.609C24.5 131.509 24.55 131.259 24.6 131.209C25.05 131.159 27.6 131.409 27.65 131.409C28.65 131.409 30.05 131.009 30.85 130.259C31.05 129.609 31.05 129.359 31.05 128.959C31.05 128.259 31 125.159 30.95 124.509C30.95 124.059 30.7 122.059 30.7 121.659C30.7 121.459 30.95 120.109 31.1 119.859ZM29.55 149.909C28.8 149.909 24.65 153.509 24.65 154.559C24.65 155.459 25.75 156.159 26.35 156.159C28.55 156.159 29.5 151.209 29.55 149.909ZM45.8 129.709L45.95 129.509C46.1 129.509 47.55 129.309 47.65 129.309C47.7 129.309 56.9 130.409 56.9 135.359C56.9 135.609 56.9 137.009 56.15 137.009C55.75 137.009 54.05 136.209 53.7 136.109C53.3 136.009 51.3 135.709 50.95 135.509C50.8 135.459 50.65 135.359 50.35 134.909C50.4 133.959 50.2 133.809 48.55 132.109C48.2 131.759 46.25 130.459 46.05 130.259C45.95 130.109 45.9 130.009 45.8 129.709ZM63.5496 133.509L63.7996 133.209C63.9996 133.209 64.6496 133.259 64.8996 133.259C65.1496 133.259 66.4996 132.959 66.6996 132.959C67.2496 132.959 69.4496 133.759 69.9496 133.759C70.7496 133.759 74.2496 133.159 74.9496 133.159C76.3496 133.159 76.4996 133.159 77.7996 132.809C77.9996 132.759 79.0496 132.809 79.2496 132.809C79.9496 132.759 84.2496 132.059 84.5496 131.959C84.6496 130.259 84.6496 129.659 84.4996 128.259L84.5496 126.759C84.5496 126.009 84.2496 122.759 84.1496 122.059C83.7496 121.659 81.2496 120.709 80.6496 120.509L80.5496 120.209C80.9996 119.809 81.9496 119.109 82.3996 118.809C82.8496 118.509 83.2996 118.459 83.6496 118.459C84.0996 118.459 84.3996 118.459 86.6496 119.559C87.4996 120.009 88.1996 120.159 89.0996 120.359C89.3496 120.409 90.2496 121.209 90.3996 121.409C90.4496 121.609 90.5996 122.159 90.5996 122.309C90.5996 122.659 89.4996 123.759 89.4496 124.059C89.4496 124.309 89.3996 125.759 89.3496 125.959C89.3496 126.159 89.1996 127.559 89.1996 127.759C89.1996 127.859 89.2496 127.959 89.2996 128.109C89.1496 128.709 89.0496 129.109 89.0496 129.559C89.0496 129.759 89.1496 130.659 89.1496 130.809C89.1496 131.109 89.1496 131.309 89.2996 131.459C89.9496 131.459 92.8996 131.159 93.4996 131.109L100.25 130.759C100.45 130.759 101.55 130.009 101.85 129.859C102.45 129.909 102.55 129.909 103.3 129.759C103.85 130.159 103.9 130.209 104.3 130.259C105.1 130.859 105.45 131.009 106.9 131.609C108.95 132.459 109.3 134.359 109.3 134.809C109.3 135.159 109.1 135.509 108.8 135.509C108.6 135.509 107.6 135.759 107.4 135.759C106.65 136.559 105.95 138.359 105.7 139.259C105.65 139.509 105.1 140.709 105.1 140.859C105.1 140.959 105.45 141.559 105.55 141.759C105.65 141.959 105.8 142.259 105.8 142.559C105.8 144.059 104.15 144.059 103.65 144.059C102.75 144.059 98.8996 143.609 98.0996 143.559C97.1496 143.509 96.7496 143.559 95.6996 143.609L90.2496 143.859C88.6496 143.909 88.6496 144.159 88.6496 144.759V145.859L88.3996 150.709C88.3996 150.909 88.4496 151.759 88.4496 151.909C88.4496 152.109 88.0996 153.459 88.0996 153.759C88.0996 154.109 88.1996 155.709 88.1996 156.059C88.1996 156.359 87.7496 160.359 87.6496 160.909C87.5496 161.259 86.6996 164.359 86.5496 164.809C86.2996 165.009 85.9496 165.309 85.7996 165.309C85.5496 165.309 85.3996 165.159 85.2496 165.009C85.2496 164.609 85.2496 164.509 85.0496 164.059C84.8496 163.559 84.7996 163.259 84.7996 162.059C84.7996 161.759 84.6996 160.459 84.6996 160.159C84.6996 159.959 84.7996 159.059 84.7996 158.809C84.8996 157.159 84.5996 154.509 84.5496 152.859L84.4996 150.759C84.4996 150.659 84.7496 149.509 84.7496 149.309V146.459C84.7496 146.059 84.7496 144.859 84.3996 144.359C83.9996 144.359 80.9996 144.459 80.3996 144.659C79.8496 144.809 74.7996 145.409 73.7996 145.409C73.4496 145.859 73.0996 146.309 71.7996 146.309C71.0496 146.309 70.2496 144.509 69.4996 142.759C69.2996 142.259 68.8996 139.859 68.7496 139.409C68.0996 137.309 67.9996 137.059 66.5496 136.209C66.3996 136.109 65.6996 135.509 65.5496 135.409C65.3496 135.309 64.3996 134.859 64.2496 134.759C63.9996 134.559 63.8496 134.409 63.5496 134.109C63.3996 134.059 63.2996 133.959 63.2996 133.859C63.2996 133.759 63.3996 133.659 63.5496 133.509ZM83.4496 141.709H84.2496L84.4996 141.559V140.909L84.5496 135.659C84.6496 134.709 84.6996 134.209 84.1996 134.209C83.9996 134.209 83.0496 134.359 82.8996 134.359H82.1996L77.6996 134.909C77.3996 134.959 75.1496 135.009 74.9496 135.059C74.4496 135.109 72.0496 135.459 71.7496 135.559C71.5496 135.659 71.3996 135.759 71.1996 136.009C72.1496 136.409 72.6996 137.759 72.7496 137.959C72.9996 138.759 73.2496 142.509 73.4996 143.209C74.2996 143.309 82.1996 141.859 83.4496 141.709ZM93.0496 141.059L97.2496 140.809C97.7496 140.759 99.8496 140.859 100.3 140.809C101.15 139.759 101.7 135.959 101.8 135.609C101.9 134.609 101.95 134.359 102.15 133.809C102.2 133.609 102.2 133.309 102.1 133.159L97.6996 133.109C96.7996 133.109 92.1496 133.609 91.8496 133.609C91.4496 133.609 89.6496 133.859 89.2996 133.909C89.0996 134.459 88.7496 137.959 88.7496 138.209C88.7496 140.909 88.7496 141.159 88.8996 141.409C89.3496 141.409 91.2996 141.159 91.6496 141.159C91.8996 141.159 92.8496 141.059 93.0496 141.059ZM116.35 160.859L116.5 160.709C118.15 160.459 119.3 159.409 122.45 156.709C123.75 155.559 125.45 153.709 126.45 152.259C126.8 151.759 126.9 151.709 127.2 151.509C127.25 151.459 128.1 149.759 128.35 149.459C128.45 149.259 128.9 148.509 129 148.359C129.9 145.909 130.8 143.409 130.95 141.159C130.05 140.009 129.95 139.909 129.85 139.309C129.4 139.209 126.2 140.359 126.05 140.459C125.15 141.159 125.1 141.209 124.8 141.209C123.65 141.209 121.6 139.909 119.55 138.609C118.65 138.009 118.65 138.009 118.65 137.809C118.65 137.459 119.2 137.459 119.55 137.459C122.6 137.459 123.25 137.459 128.25 136.609L132.25 135.909C132.45 135.859 132.95 135.859 137.55 135.309L142 134.759C142.8 134.659 146.4 134.159 147.15 134.109C148.45 133.959 148.6 133.959 148.95 133.659C149.3 133.559 149.5 133.459 151 132.659C151.3 132.509 151.7 132.459 152.05 132.459C152.2 132.459 154 133.359 154.35 133.509C154.75 133.609 157.55 134.509 157.55 135.609C157.55 136.009 157.25 136.659 156.9 136.809C156.65 136.909 155.4 137.059 155.15 137.109C154.4 137.009 152.8 136.859 151.8 136.759C151.5 136.709 150.6 136.709 150.3 136.709C149.45 136.709 146 136.959 145.25 137.059L141.05 137.659L140.55 137.759L140.6 137.959C141.6 138.509 144.15 140.009 144.15 141.109C144.15 141.559 143.15 143.209 143.05 143.609C142.95 143.959 142.65 145.709 142.55 146.059C142.35 146.609 142.1 150.509 142 151.559C141.9 151.859 141.75 152.559 141.75 153.009C141.75 154.059 141.7 155.059 141.6 156.059V156.409C141.6 157.809 141.65 157.909 142.35 158.909C143.65 159.959 144.1 160.359 147.2 160.359C148.4 160.359 151.2 160.109 152.4 160.059C152.7 160.009 154.65 159.859 156.25 158.959C156.25 158.859 156.55 156.259 156.55 156.209C156.55 155.859 156.6 154.459 156.55 154.159C156.55 153.459 156.3 150.359 156.3 149.859C156.3 149.759 156.4 149.259 156.4 149.159L156.6 149.059C156.85 149.959 158.85 153.609 159.15 154.359C159.5 154.659 159.6 154.809 160.55 156.109C161.05 156.859 162.4 157.709 162.5 158.609C162.55 158.759 162.85 159.409 162.85 159.559C162.85 161.259 159.5 162.609 158.1 163.009C157.2 163.309 151.05 164.109 150.55 164.109C145.8 164.109 143.6 164.109 141.3 162.509C138.85 160.759 137.9 156.909 137.9 153.959C137.9 152.309 138.05 151.759 138.4 149.709C138.45 149.659 138.45 148.309 138.5 148.009C138.55 147.609 138.85 145.009 138.85 144.759L138.9 140.259C138.9 139.809 138.95 138.009 137.95 138.009C136.45 138.259 133.3 138.809 131.65 139.109L131.55 139.259C132.3 139.559 135.05 140.959 135.05 142.209C135.05 143.159 134.75 143.659 134.3 144.359C134.25 144.459 134.15 145.109 134.1 145.209C133.85 145.759 132.55 148.059 132.3 148.559C132.25 148.659 132.05 149.409 131.95 149.509C131.55 150.209 131.1 150.909 130.65 151.509C130.4 151.809 129.5 153.559 129.2 153.859C129.1 153.959 128.35 154.559 128.2 154.659C128 154.909 127.25 156.259 127.05 156.509C126.9 156.709 125.8 157.509 125.6 157.709C125.3 157.909 124.15 159.009 123.9 159.209C122.7 160.009 122.4 160.109 120.5 160.659C120.3 160.709 119.5 161.109 119.35 161.159C119 161.209 118.2 161.359 117.85 161.359C117.45 161.359 116.35 161.359 116.35 160.859ZM124.2 123.259C124.2 123.009 124.25 122.709 124.6 122.709C124.65 122.709 128.05 123.559 128.7 123.559C131.4 123.559 134.6 122.809 135.55 122.609C136.3 122.409 139.6 121.859 140.25 121.659C140.65 121.559 142.8 121.109 143.25 121.009C143.5 120.459 143.7 120.209 144.6 120.209H145.5C145.8 120.309 146 120.359 147.7 120.809C148.05 120.859 148.5 121.209 148.8 121.359C149.4 121.609 150.15 122.159 150.15 122.909C150.15 123.859 148.7 124.109 147.95 124.209C147.8 124.209 147.1 124.459 146.95 124.459C145.8 124.509 145 124.509 143.05 124.859C142.3 124.959 140.7 125.259 139.95 125.359C139.5 125.409 139.45 125.409 139 125.559C138.8 125.659 137.55 125.609 137.3 125.659C137.05 125.659 135.75 126.009 135.5 126.059C134.8 126.109 133.8 126.209 133.5 126.259C133.4 126.309 131.65 126.609 131.5 126.659H131.15C129.6 126.659 129.2 126.409 127.65 125.409C127.55 125.309 127.15 125.209 127.05 125.159C126.35 124.709 124.55 123.609 124.2 123.259ZM172.305 137.709C174.605 137.709 176.505 139.559 176.505 141.909C176.505 144.209 174.605 146.109 172.305 146.109C170.005 146.109 168.105 144.209 168.105 141.909C168.105 139.559 170.005 137.709 172.305 137.709ZM182.611 164.259V164.109C183.011 163.659 185.361 162.309 185.761 162.009C186.161 161.709 187.811 160.459 188.111 160.159C188.911 159.509 190.511 157.559 191.211 156.759C191.461 156.409 197.111 150.459 197.611 149.059L197.761 148.959C198.511 147.609 198.961 146.909 199.911 145.559C199.961 144.659 199.411 144.459 199.261 144.459C199.211 144.459 199.111 144.459 199.061 144.509C198.211 145.509 198.111 145.609 197.811 145.609C197.561 145.609 196.561 145.109 196.511 145.059C196.411 144.909 195.861 143.359 195.761 142.859C195.961 142.359 196.061 140.309 196.061 140.159C196.061 139.709 196.061 138.709 196.111 138.209C196.211 137.859 196.211 137.659 196.211 137.359C196.211 136.559 196.411 132.909 196.411 132.209C196.411 132.009 196.361 130.459 196.161 130.109C195.961 129.859 194.811 129.009 194.611 128.809C194.611 128.659 194.661 128.409 194.911 128.409C195.061 128.409 196.061 128.609 196.261 128.609C196.861 128.609 197.011 128.659 198.061 128.959C198.861 128.259 200.661 126.009 201.261 124.659L201.111 124.559C200.511 124.509 197.961 124.959 197.461 124.959C196.611 124.959 196.411 124.959 196.011 125.109C195.861 125.159 195.211 125.359 195.111 125.359C194.611 125.359 190.261 123.759 189.961 123.609C189.861 123.609 189.161 122.909 189.161 122.759C189.161 122.559 189.361 122.509 189.511 122.509C190.161 122.509 193.111 122.609 193.711 122.609C194.561 122.609 198.161 121.959 198.911 121.959C201.411 121.959 203.661 121.709 205.961 121.409C206.961 121.309 211.761 121.009 212.461 120.809C212.961 120.709 213.111 120.559 213.161 119.959C214.461 119.409 214.711 119.259 215.261 119.259C216.111 119.259 220.961 119.409 222.611 121.159C222.611 122.559 222.311 122.559 219.761 122.659C219.611 122.659 218.811 122.909 218.661 122.909C218.311 123.009 217.011 123.109 216.761 123.109C215.561 123.109 215.261 123.159 212.961 123.409C212.511 123.459 212.211 123.459 212.111 123.459C212.011 123.459 211.411 123.409 211.261 123.409C211.061 123.459 210.561 123.509 210.211 123.559C209.261 123.559 204.511 124.209 204.311 124.259C204.361 124.359 204.661 125.109 204.661 125.159C204.661 125.609 203.861 126.009 203.561 126.159L203.311 126.659C202.811 126.959 202.761 127.059 202.661 127.309L202.711 127.409C205.811 126.859 206.161 126.809 208.561 126.559C208.761 126.509 209.661 126.259 209.811 126.259C210.111 126.259 210.861 126.209 211.211 126.159C211.711 125.759 211.911 125.609 212.211 125.609C212.561 125.609 214.461 127.109 214.511 127.159C214.661 127.259 216.011 128.359 216.061 128.509C216.111 128.609 216.311 129.609 216.311 129.759C216.311 129.909 215.911 130.659 215.911 130.809C215.911 130.909 215.961 131.359 215.961 131.409C215.911 131.609 215.561 132.609 215.561 132.809C215.561 133.359 215.761 135.809 215.761 136.309C215.761 136.709 215.561 138.459 215.561 138.809C215.561 139.009 215.561 140.609 215.511 140.659C215.411 141.009 214.261 143.309 212.811 143.309C212.061 143.309 211.811 142.859 211.711 142.559C209.961 142.309 201.811 143.359 200.561 144.159L200.661 144.359C201.461 144.659 202.111 144.909 203.061 145.909C204.211 146.009 209.711 144.259 210.111 144.259C210.711 144.509 211.761 145.009 212.661 145.459C213.511 145.859 213.511 146.009 213.711 147.209C213.611 147.359 213.311 148.109 213.211 148.259C213.011 148.459 211.811 149.059 211.661 149.309C211.561 149.459 211.261 150.309 211.161 150.409C211.111 150.559 210.711 151.059 210.661 151.159C210.611 151.259 210.461 151.809 210.411 151.909C210.361 151.959 210.111 152.209 210.061 152.309C210.011 152.409 209.811 152.959 209.711 153.059C209.611 153.109 209.511 153.209 209.411 153.259L209.261 153.859C210.611 155.309 211.461 155.759 213.011 156.309C214.311 156.809 216.011 157.659 219.061 159.209C219.611 159.509 222.211 160.409 222.761 160.659C225.211 161.709 225.711 161.959 226.811 162.909C226.961 163.059 227.761 163.409 227.861 163.559C228.161 163.959 228.261 164.259 228.161 164.659C227.611 164.759 227.411 164.859 227.161 164.859C226.961 164.859 226.061 164.759 225.811 164.759C225.661 164.759 224.011 165.009 223.711 165.009C223.211 165.009 221.011 164.759 220.561 164.759C218.561 164.759 218.311 164.759 217.761 164.309C217.261 163.909 214.961 162.509 214.561 162.159C214.211 161.809 212.411 160.609 212.061 160.309C211.911 160.209 211.161 159.809 211.011 159.709L208.011 157.259L207.511 156.709H207.261C206.961 157.009 205.861 158.409 205.611 158.659C205.561 158.709 204.111 159.459 204.011 159.509C203.561 160.059 202.361 160.909 201.311 161.309C200.911 161.459 200.461 161.959 200.061 162.159C198.561 162.809 197.161 163.159 195.461 163.159C195.061 163.159 193.461 162.859 193.111 162.859H192.111L192.061 162.709L192.561 162.309C192.761 162.359 192.911 162.409 193.061 162.409C194.811 162.409 198.311 160.709 200.061 159.609C202.361 158.209 205.261 155.409 205.261 154.609C205.261 154.259 201.761 150.209 201.361 149.859C200.961 150.209 199.761 151.559 199.061 152.609C198.761 153.009 198.361 153.659 198.061 154.059L197.361 154.459C196.711 155.809 193.611 158.559 192.311 159.709H192.261C191.511 160.209 188.461 162.559 187.761 162.909C187.461 163.059 185.811 163.559 185.561 163.709C184.761 164.109 184.011 164.459 183.011 164.459C182.911 164.459 182.661 164.259 182.611 164.259ZM199.511 140.359L199.311 141.559C199.361 141.559 203.411 140.759 204.161 140.659C205.311 140.509 210.661 140.059 211.361 139.909C211.461 139.059 211.561 137.709 211.561 136.459C211.561 135.409 211.561 131.959 211.611 131.109C211.661 130.359 211.661 130.259 211.661 130.059C211.661 128.109 210.761 128.109 208.711 128.109C208.261 128.109 206.511 128.409 206.161 128.459C205.861 128.459 204.311 128.509 204.061 128.509C202.511 128.759 200.711 129.009 199.511 129.559C199.511 129.759 199.711 130.659 199.711 130.809C199.711 131.309 199.711 131.709 199.861 132.009C200.561 132.209 204.361 131.609 205.311 130.909C205.611 130.809 205.711 130.759 206.111 130.459C206.511 130.559 206.661 130.609 207.311 130.609C208.311 130.609 208.961 130.609 208.961 130.959C208.961 131.309 208.561 132.209 208.011 132.359C207.311 132.509 202.661 133.459 202.061 133.459C201.661 133.459 201.361 133.409 199.861 133.159C199.711 133.509 199.711 133.709 199.711 134.059C199.711 134.159 199.711 136.309 199.761 136.559C199.961 136.609 200.111 136.659 200.261 136.659C200.361 136.659 204.461 136.309 205.361 135.359C206.111 135.009 206.361 134.909 206.611 134.909C206.761 134.909 208.161 135.109 208.511 135.109C209.711 135.259 209.761 135.459 209.761 135.659C209.761 135.959 209.611 136.159 209.061 136.809C208.911 136.809 208.361 137.309 208.211 137.359C206.911 137.859 203.561 138.009 202.011 138.009C201.661 138.009 201.511 138.009 200.361 137.809C200.161 137.809 199.761 137.859 199.561 137.859C199.561 137.959 199.411 140.009 199.511 140.359ZM204.311 149.659L204.811 149.909C204.811 149.959 206.311 151.509 207.111 151.959C207.561 151.459 209.111 148.609 209.061 147.309C208.511 146.959 208.311 146.959 208.111 146.959C207.711 146.959 205.911 147.309 205.511 147.309C205.011 147.309 204.311 147.259 203.861 147.109C203.761 147.109 203.411 146.909 203.311 146.909C203.211 146.909 203.061 147.059 202.961 147.159C202.961 147.209 202.611 148.159 202.611 148.209C202.761 148.359 204.261 149.559 204.311 149.659ZM266.162 131.809L257.712 134.009C257.212 134.159 256.912 134.309 256.912 134.659C256.912 135.159 257.662 138.709 258.112 140.159C258.212 140.509 258.462 141.609 258.662 141.609C259.462 141.609 260.912 141.059 261.612 140.809C262.662 140.409 264.512 139.959 265.562 139.809C266.912 139.659 267.012 139.609 268.512 138.809C268.812 138.659 269.362 138.659 269.512 138.659C270.412 138.659 270.462 138.709 272.362 139.759C274.812 141.109 275.412 141.459 275.412 142.659C275.412 143.459 274.012 143.709 273.662 143.709C273.512 143.709 271.212 143.359 270.762 143.309C269.762 143.209 267.012 143.159 266.012 143.159C265.712 143.159 259.112 143.459 259.112 144.609C259.112 144.759 260.812 152.209 260.912 152.409L262.662 158.259C263.012 159.509 263.262 160.259 263.262 161.809C263.262 162.959 263.112 165.159 261.862 165.159C260.812 165.159 257.962 161.809 257.962 158.309C257.962 157.759 257.962 157.559 257.912 157.259L257.312 152.659C256.962 149.859 256.412 147.809 255.762 145.359C255.712 145.259 255.512 145.259 255.362 145.259C255.162 145.259 252.712 146.259 252.162 146.459C251.912 146.559 250.412 146.959 250.162 147.109C249.512 147.409 244.762 149.759 243.512 150.859C242.562 151.709 242.212 151.709 241.912 151.709C239.762 151.709 236.362 149.859 236.062 149.709C235.362 149.259 235.362 149.059 235.312 148.459C235.662 148.109 235.762 148.109 236.212 148.109C238.862 148.109 240.312 147.609 241.362 147.259C241.812 147.109 243.712 146.609 244.112 146.459C244.612 146.259 246.962 145.509 247.412 145.309C248.612 144.759 254.412 143.159 255.112 142.709C255.212 142.059 255.112 141.809 254.512 139.459C254.362 138.859 253.912 136.109 253.712 135.559C252.862 135.609 252.562 135.759 249.812 136.909C249.612 137.009 247.912 137.759 247.662 137.859C247.462 137.859 241.712 136.359 241.712 134.959C241.712 134.309 242.612 134.259 242.912 134.259C243.212 134.259 244.462 134.359 244.612 134.359C247.012 134.359 252.162 132.859 252.812 132.409C252.812 131.359 252.062 128.659 251.612 127.559C251.162 126.409 250.562 124.459 249.962 123.359C249.612 122.709 249.262 122.259 248.712 121.759C248.112 121.159 247.912 121.009 247.912 120.809C247.912 119.809 249.262 119.509 250.012 119.509C250.162 119.509 256.012 121.259 256.012 123.409C256.012 123.709 255.712 125.009 255.712 125.259C255.712 126.209 255.962 130.309 256.212 131.309C256.962 131.459 259.112 130.359 260.212 129.559C261.312 128.809 261.862 128.359 262.912 128.359C265.062 128.359 267.712 129.309 267.712 130.509C267.712 131.259 266.512 131.759 266.162 131.809ZM267.512 121.759L267.712 121.709C268.962 121.759 273.812 123.609 274.312 123.959C275.062 124.509 275.862 126.809 275.862 127.909C275.862 128.459 275.712 128.659 275.312 128.859C274.112 128.709 270.312 124.959 269.762 124.409C269.462 124.109 267.862 122.809 267.662 122.509C267.412 122.159 267.462 122.059 267.512 121.759ZM273.662 118.459L273.812 118.359C274.912 118.459 278.412 119.659 278.662 119.809C280.712 121.009 280.762 121.059 281.062 122.559C281.112 122.809 281.112 122.909 281.112 123.959C281.112 124.059 281.062 124.409 280.762 124.409C280.662 124.409 279.762 124.059 279.512 123.909L275.962 121.009C275.462 120.559 273.712 119.059 273.662 118.459ZM312.253 139.909L314.103 136.609C314.703 135.509 316.753 131.409 316.753 130.309C316.753 129.409 315.303 129.409 315.003 129.409C314.803 129.409 312.003 129.759 311.553 129.809L306.503 130.609C305.153 130.809 299.203 132.209 297.953 132.409C296.853 132.609 294.203 133.509 294.053 133.609C293.303 134.009 292.503 134.409 292.153 134.409C290.853 134.409 286.503 131.559 286.503 129.809C286.503 129.459 286.703 128.959 287.253 128.959C287.553 128.959 289.003 129.409 289.403 129.509C290.403 129.809 291.353 129.809 292.203 129.809C293.503 129.809 294.753 129.809 303.803 128.459C306.303 128.059 314.203 126.909 315.203 126.159C316.153 125.509 316.253 125.459 316.603 125.459C317.903 125.459 318.253 125.759 320.553 127.809C321.603 128.709 323.203 131.009 323.203 131.459C323.203 131.709 322.953 132.459 322.803 132.609C320.353 135.059 320.203 135.259 318.753 137.609L316.703 140.909L314.353 144.609L310.803 149.959L308.153 153.059C307.053 154.359 299.453 160.509 295.653 159.859C295.453 159.559 295.403 159.459 295.403 159.309C295.403 158.759 297.403 157.609 297.803 157.359C298.253 157.109 298.853 156.509 299.253 156.209C301.103 154.609 301.353 154.459 302.553 153.159C302.853 152.859 304.253 151.609 304.453 151.309C305.603 149.659 307.603 147.209 308.753 145.559C309.903 144.009 311.153 141.859 312.253 139.909ZM341.342 144.159L341.442 149.609C341.442 150.009 341.392 152.009 341.392 152.409C341.392 153.509 341.892 158.409 341.892 159.409C341.892 159.959 341.492 162.809 340.892 163.609C340.492 164.109 339.892 164.809 339.442 164.809C337.742 164.809 336.892 160.009 336.892 158.809C336.892 158.259 337.492 155.509 337.542 155.259L337.842 149.259L337.892 144.309C337.942 141.359 337.892 138.359 337.792 135.359C337.542 129.259 337.392 124.409 336.692 122.559C336.542 122.109 335.392 120.159 335.392 120.009C335.392 119.459 336.542 119.109 337.342 119.109C338.942 119.109 339.592 119.659 341.792 121.409C342.792 122.259 343.492 122.759 343.492 123.709C343.492 124.059 342.842 125.509 342.792 125.809C342.492 127.259 341.942 130.059 341.842 132.309C341.792 132.909 341.642 135.459 341.642 135.959C341.642 136.209 341.692 136.359 341.792 136.659C342.242 136.909 346.242 138.109 347.042 138.359C347.492 138.509 351.792 140.209 351.992 140.359C353.642 141.859 354.242 144.559 354.242 144.859C354.242 145.809 353.192 145.859 352.992 145.859C352.492 145.859 349.942 145.109 348.492 143.959C348.092 143.709 346.342 142.609 346.042 142.359C345.692 142.109 342.042 138.859 341.742 138.809C341.442 139.509 341.492 141.959 341.492 142.259C341.492 142.459 341.342 143.959 341.342 144.159Z" fill="white"/>
</g>
<defs>
<filter id="filter0_d_1_73" x="109.887" y="38.7231" width="150.061" height="75.492" filterUnits="userSpaceOnUse" color-interpolation-filters="sRGB">
<feFlood flood-opacity="0" result="BackgroundImageFix"/>
<feColorMatrix in="SourceAlpha" type="matrix" values="0 0 0 0 0 0 0 0 0 0 0 0 0 0 0 0 0 0 127 0" result="hardAlpha"/>
<feOffset/>
<feGaussianBlur stdDeviation="10"/>
<feComposite in2="hardAlpha" operator="out"/>
<feColorMatrix type="matrix" values="0 0 0 0 0 0 0 0 0 0.206368 0 0 0 0 0.362846 0 0 0 1 0"/>
<feBlend mode="normal" in2="BackgroundImageFix" result="effect1_dropShadow_1_73"/>
<feBlend mode="normal" in="SourceGraphic" in2="effect1_dropShadow_1_73" result="shape"/>
</filter>
<filter id="filter1_d_1_73" x="0" y="98.3591" width="374.242" height="86.95" filterUnits="userSpaceOnUse" color-interpolation-filters="sRGB">
<feFlood flood-opacity="0" result="BackgroundImageFix"/>
<feColorMatrix in="SourceAlpha" type="matrix" values="0 0 0 0 0 0 0 0 0 0 0 0 0 0 0 0 0 0 127 0" result="hardAlpha"/>
<feOffset/>
<feGaussianBlur stdDeviation="10"/>
<feComposite in2="hardAlpha" operator="out"/>
<feColorMatrix type="matrix" values="0 0 0 0 0 0 0 0 0 0.206368 0 0 0 0 0.362846 0 0 0 1 0"/>
<feBlend mode="normal" in2="BackgroundImageFix" result="effect1_dropShadow_1_73"/>
<feBlend mode="normal" in="SourceGraphic" in2="effect1_dropShadow_1_73" result="shape"/>
</filter>
</defs>
</svg>
