<svg width="28" height="28" viewBox="0 0 28 28" fill="none" xmlns="http://www.w3.org/2000/svg">
<path d="M3.32593 10.6987V17.5308H12.386V9.76782H4.25627C3.74172 9.76782 3.32593 10.185 3.32593 10.6987Z" fill="#3D61B1"/>
<path d="M23.7435 9.76782H15.6138V17.5308H24.6738V10.6987C24.6738 10.185 24.258 9.76782 23.7435 9.76782Z" fill="#3D61B1"/>
<path d="M3.32593 27.0697C3.32593 27.5843 3.74177 28.0001 4.25627 28.0001H12.386V20.2375H3.32593V27.0697Z" fill="#3D61B1"/>
<path d="M15.6138 28.0001H23.7435C24.258 28.0001 24.6738 27.5842 24.6738 27.0697V20.2375H15.6138V28.0001Z" fill="#3D61B1"/>
<path d="M21.475 6.21163C21.8577 5.7919 22.1649 5.33597 22.3795 4.85373C22.5937 4.37194 22.7156 3.86214 22.7156 3.34671C22.7161 3.00415 22.6609 2.66027 22.5467 2.33013C22.4191 1.9617 22.2338 1.62723 22.0046 1.33766C21.6611 0.901962 21.2211 0.566673 20.7346 0.341305C20.2481 0.116376 19.7137 7.72957e-07 19.1685 7.72957e-07C18.769 7.72957e-07 18.3644 0.0629461 17.9706 0.192665C17.3793 0.386587 16.8122 0.734344 16.3343 1.23424C15.8555 1.73458 15.4677 2.38487 15.213 3.17089C14.8803 4.19311 13.884 6.51241 13.8564 6.56928H13.7616C13.7336 6.51241 12.7377 4.19306 12.405 3.17089C12.2348 2.64644 12.0068 2.18274 11.7305 1.78413C11.3168 1.18557 10.7959 0.733469 10.2279 0.437829C9.65986 0.141423 9.0479 -0.00038204 8.44929 7.72957e-07C7.72315 0.000438273 7.01386 0.206884 6.41393 0.603313C6.11447 0.801118 5.84207 1.04765 5.61364 1.33766C5.38395 1.62723 5.19867 1.96164 5.07108 2.33013C4.95646 2.66066 4.90215 3.00453 4.90259 3.34671C4.90259 3.68977 4.95646 4.03151 5.05599 4.3633C5.23055 4.94419 5.54129 5.49538 5.95751 5.99873C6.58325 6.75374 7.44857 7.40403 8.49966 7.87073C9.55026 8.337 10.7888 8.61842 12.1566 8.61842C12.9314 8.61798 13.7791 8.62488 13.8088 8.61842C13.8386 8.62488 14.6858 8.61798 15.4615 8.61842C16.5031 8.61842 17.4706 8.45556 18.3363 8.17152C19.6357 7.7449 20.7083 7.04977 21.475 6.21163ZM17.1966 2.68866C17.4702 2.29349 17.789 2.02459 18.1256 1.84877C18.4626 1.67295 18.8195 1.59152 19.1685 1.59064C19.5917 1.59064 19.9994 1.71303 20.326 1.93025C20.4907 2.03886 20.635 2.17027 20.7557 2.32324C20.8763 2.4762 20.9737 2.65076 21.0431 2.85026C21.0974 3.00672 21.1237 3.17089 21.1241 3.34627C21.1241 3.52215 21.0965 3.70956 21.0375 3.90606C20.9349 4.25037 20.7345 4.62224 20.4342 4.98427C19.986 5.52683 19.3167 6.0422 18.4729 6.41627C17.6283 6.7912 16.6108 7.02691 15.4615 7.02691C15.3999 7.02691 15.34 7.02603 15.2822 7.02428C15.7002 6.32357 16.2053 5.26258 16.7259 3.66209C16.8527 3.27299 17.0138 2.9528 17.1966 2.68866ZM6.69279 4.20777C6.55623 3.90091 6.49372 3.60959 6.49372 3.34671C6.49372 3.17089 6.52041 3.00716 6.57472 2.85113L6.5751 2.85026C6.64406 2.65076 6.74146 2.47625 6.86254 2.32324C7.04311 2.09399 7.27838 1.91209 7.55116 1.78582C7.8235 1.6596 8.13211 1.59059 8.44924 1.59059C8.68193 1.59059 8.91813 1.62723 9.14951 1.70395C9.49689 1.81858 9.83256 2.02065 10.1338 2.33483C10.4342 2.64901 10.7023 3.07863 10.8922 3.66253C11.4124 5.26263 11.9179 6.32363 12.3359 7.02477C12.2777 7.02603 12.2182 7.02696 12.1566 7.02696C11.281 7.02696 10.4815 6.89035 9.77694 6.65935C8.72027 6.31373 7.87737 5.7522 7.31754 5.13855C7.0371 4.83175 6.82814 4.51325 6.69279 4.20777Z" fill="#3D61B1"/>
</svg>
